<?xml version="1.0" encoding="UTF-8"?>
<!DOCTYPE svg PUBLIC "-//W3C//DTD SVG 1.1//EN" "http://www.w3.org/Graphics/SVG/1.1/DTD/svg11.dtd">
<svg xmlns="http://www.w3.org/2000/svg" version="1.1" width="1276px" height="1146px" style="shape-rendering:geometricPrecision; text-rendering:geometricPrecision; image-rendering:optimizeQuality; fill-rule:evenodd; clip-rule:evenodd" xmlns:xlink="http://www.w3.org/1999/xlink">
<g><path style="opacity:1" fill="#fefefe" d="M -0.5,-0.5 C 424.833,-0.5 850.167,-0.5 1275.5,-0.5C 1275.5,381.5 1275.5,763.5 1275.5,1145.5C 850.167,1145.5 424.833,1145.5 -0.5,1145.5C -0.5,763.5 -0.5,381.5 -0.5,-0.5 Z"/></g>
<g><path style="opacity:1" fill="#1d1d1d" d="M 1097.5,675.5 C 1092.13,673.548 1086.46,672.548 1080.5,672.5C 911.621,646.293 741.621,634.793 570.5,638C 532.171,639.758 493.838,641.425 455.5,643C 427.241,645.879 398.907,648.212 370.5,650C 345.053,652.216 319.72,655.05 294.5,658.5C 289.29,658.608 284.29,659.275 279.5,660.5C 274.269,660.444 269.269,661.111 264.5,662.5C 261.43,662.368 258.43,662.701 255.5,663.5C 248.628,664.022 241.962,665.022 235.5,666.5C 222.245,668.775 208.911,670.775 195.5,672.5C 192.171,672.215 189.171,672.882 186.5,674.5C 140.532,680.794 95.0315,689.461 50,700.5C 48.4804,691.756 46.6471,683.09 44.5,674.5C 72.0379,667.791 99.7045,661.458 127.5,655.5C 96.789,605.649 94.6223,554.649 121,502.5C 189.08,379.339 257.413,256.339 326,133.5C 347.593,100.584 377.76,80.4177 416.5,73C 490.644,71.8457 564.81,71.3457 639,71.5C 710.5,71.6667 782,71.8333 853.5,72C 902.825,79.7411 938.659,105.908 961,150.5C 1026,267.833 1091,385.167 1156,502.5C 1182.38,554.649 1180.21,605.649 1149.5,655.5C 1177.2,661.674 1204.86,668.008 1232.5,674.5C 1231.13,683.304 1229.13,691.971 1226.5,700.5C 1183.89,690.244 1140.89,681.911 1097.5,675.5 Z"/></g>
<g><path style="opacity:1" fill="#f8f8f8" d="M 433.5,107.5 C 569.834,107.333 706.167,107.5 842.5,108C 880.237,111.445 908.404,129.612 927,162.5C 995,285.833 1063,409.167 1131,532.5C 1141.29,560.292 1140.95,587.959 1130,615.5C 1124.84,626.484 1119.18,637.15 1113,647.5C 1107.79,648.389 1102.63,647.889 1097.5,646C 1103.71,635.742 1109.55,625.242 1115,614.5C 1126.49,589.248 1127.49,563.581 1118,537.5C 1051.35,416.865 984.681,296.198 918,175.5C 902.839,143.689 877.672,125.856 842.5,122C 706.167,121.333 569.833,121.333 433.5,122C 406.222,124.216 384.722,136.382 369,158.5C 298.145,285.544 227.812,412.877 158,540.5C 149.576,565.736 150.909,590.403 162,614.5C 167.453,625.242 173.286,635.742 179.5,646C 174.518,647.168 169.518,647.835 164.5,648C 152.306,629.775 143.806,609.942 139,588.5C 136.84,569.974 138.84,551.974 145,534.5C 215.239,405.684 286.239,277.351 358,149.5C 377.076,124.382 402.243,110.382 433.5,107.5 Z"/></g>
<g><path style="opacity:1" fill="#fdfdfd" d="M 428.5,141.5 C 568.167,141.333 707.834,141.5 847.5,142C 872.842,146.926 891.009,161.093 902,184.5C 968.587,304.673 1034.92,425.006 1101,545.5C 1109.04,569.056 1107.04,591.723 1095,613.5C 1089.75,622.339 1084.75,631.339 1080,640.5C 1078.87,641.944 1077.37,642.61 1075.5,642.5C 825.681,602.166 575.014,596.333 323.5,625C 282.196,629.814 241.029,635.647 200,642.5C 199.167,642.167 198.333,641.833 197.5,641.5C 188.521,625.875 180.354,609.875 173,593.5C 168.982,576.864 169.982,560.531 176,544.5C 245.065,419.371 314.399,294.371 384,169.5C 395.133,154.189 409.967,144.855 428.5,141.5 Z"/></g>
<g><path style="opacity:1" fill="#1e1e1e" d="M 612.5,173.5 C 665.425,170.568 715.758,180.401 763.5,203C 792.416,216.915 813.582,238.415 827,267.5C 831.296,279.234 832.296,291.234 830,303.5C 827.805,313.747 822.305,321.581 813.5,327C 806.426,330.178 799.093,332.511 791.5,334C 725.616,344.768 659.283,349.101 592.5,347C 551.585,345.975 510.919,342.308 470.5,336C 447.492,331.153 436.659,316.986 438,293.5C 443.516,263.965 457.682,239.465 480.5,220C 506.258,199.96 535.258,186.626 567.5,180C 582.564,177.259 597.564,175.093 612.5,173.5 Z"/></g>
<g><path style="opacity:1" fill="#fcfcfc" d="M 613.5,195.5 C 649.673,194.106 685.34,197.606 720.5,206C 741.749,211.626 761.082,220.96 778.5,234C 800.047,253.755 796.713,267.422 768.5,275C 766.789,276.133 766.289,277.633 767,279.5C 776.756,280.32 786.59,280.82 796.5,281C 805.239,284.291 805.572,288.624 797.5,294C 777.835,302.9 757.169,307.4 735.5,307.5C 735.286,309.144 735.62,310.644 736.5,312C 757.241,313.292 777.575,310.959 797.5,305C 800.833,304.333 804.167,304.333 807.5,305C 810.864,307.729 811.197,310.729 808.5,314C 794.9,318.855 780.9,322.188 766.5,324C 672.569,336.274 578.569,336.607 484.5,325C 478.981,323.496 476.814,319.996 478,314.5C 479.171,313.107 480.671,312.273 482.5,312C 490.168,312.249 497.835,312.915 505.5,314C 522.189,314.765 538.856,314.432 555.5,313C 556.337,311.989 556.67,310.822 556.5,309.5C 528.358,311.066 501.025,307.233 474.5,298C 468.613,292.678 469.447,289.178 477,287.5C 485.822,289.501 494.655,291.334 503.5,293C 514.5,293.667 525.5,293.667 536.5,293C 540.13,292.729 541.13,291.062 539.5,288C 526.86,286.819 514.194,285.819 501.5,285C 492.365,284.734 484.198,281.9 477,276.5C 472.876,270.058 474.043,264.892 480.5,261C 491.611,260.948 502.611,259.948 513.5,258C 506.319,255.825 500.152,251.991 495,246.5C 492.548,240.548 493.548,235.215 498,230.5C 514.578,216.13 533.744,206.963 555.5,203C 574.757,198.725 594.091,196.225 613.5,195.5 Z"/></g>
<g><path style="opacity:1" fill="#242424" d="M 544.5,216.5 C 547.862,216.07 550.695,217.07 553,219.5C 553.171,225.313 550.338,227.48 544.5,226C 541.888,222.836 541.888,219.669 544.5,216.5 Z"/></g>
<g><path style="opacity:1" fill="#232323" d="M 708.5,225.5 C 714.59,224.137 719.09,226.137 722,231.5C 722.12,240.711 717.62,244.544 708.5,243C 700.541,237.168 700.541,231.335 708.5,225.5 Z"/></g>
<g><path style="opacity:1" fill="#222222" d="M 573.5,233.5 C 580.166,232.005 584.499,234.505 586.5,241C 582.923,248.959 577.589,250.459 570.5,245.5C 569.833,244.167 569.167,242.833 568.5,241.5C 569.371,238.304 571.038,235.637 573.5,233.5 Z"/></g>
<g><path style="opacity:1" fill="#262626" d="M 541.5,239.5 C 547.337,238.518 550.17,240.851 550,246.5C 545.104,251.019 541.271,250.353 538.5,244.5C 539.092,242.577 540.092,240.911 541.5,239.5 Z"/></g>
<g><path style="opacity:1" fill="#222222" d="M 670.5,240.5 C 678.367,239.486 681.867,242.82 681,250.5C 676.965,255.364 672.632,255.698 668,251.5C 665.584,247.078 666.417,243.411 670.5,240.5 Z"/></g>
<g><path style="opacity:1" fill="#252525" d="M 757.5,243.5 C 763.83,242.666 766.663,245.333 766,251.5C 762.818,255.057 759.318,255.391 755.5,252.5C 753.883,248.911 754.55,245.911 757.5,243.5 Z"/></g>
<g><path style="opacity:1" fill="#282828" d="M 718.5,257.5 C 723.696,257.209 726.529,259.542 727,264.5C 723.598,269.323 719.931,269.657 716,265.5C 715.018,262.225 715.851,259.559 718.5,257.5 Z"/></g>
<g><path style="opacity:1" fill="#202020" d="M 680.5,279.5 C 687.75,277.791 692.75,280.291 695.5,287C 694.157,295.012 689.49,298.012 681.5,296C 674.078,290.783 673.745,285.283 680.5,279.5 Z"/></g>
<g><path style="opacity:1" fill="#212121" d="M 744.5,279.5 C 752.244,279.048 754.577,282.215 751.5,289C 744.228,291.729 741.061,289.229 742,281.5C 742.995,280.934 743.828,280.267 744.5,279.5 Z"/></g>
<g><path style="opacity:1" fill="#202020" d="M 649.5,301.5 C 656.547,300.701 658.881,303.535 656.5,310C 650.26,313.061 647.094,311.228 647,304.5C 648.045,303.627 648.878,302.627 649.5,301.5 Z"/></g>
<g><path style="opacity:1" fill="#1d1d1d" d="M 446.5,341.5 C 453.946,341.908 461.279,343.074 468.5,345C 476.114,346.947 480.614,351.78 482,359.5C 481.181,371.075 483.181,382.075 488,392.5C 495.802,402.749 505.635,405.249 517.5,400C 519.667,398.5 521.5,396.667 523,394.5C 524.162,388.016 525.829,381.683 528,375.5C 530.251,371.874 533.418,370.707 537.5,372C 542.188,377.746 546.854,383.413 551.5,389C 559.67,389.99 567.67,389.323 575.5,387C 576.333,386.167 577.167,385.333 578,384.5C 579.683,377.386 581.683,370.386 584,363.5C 586.626,360.769 589.793,358.936 593.5,358C 641.554,357.395 689.554,355.395 737.5,352C 764.615,349.402 791.615,345.902 818.5,341.5C 832.428,344.146 839.428,352.646 839.5,367C 839.017,377.298 835.017,385.965 827.5,393C 806.023,402.287 783.689,408.62 760.5,412C 720.2,417.606 679.7,420.439 639,420.5C 592.061,419.851 545.227,417.351 498.5,413C 486.063,411.224 474.063,407.891 462.5,403C 453.897,398.784 447.064,392.617 442,384.5C 439.24,375.728 437.74,366.728 437.5,357.5C 436.92,349.978 439.92,344.645 446.5,341.5 Z"/></g>
<g><path style="opacity:1" fill="#1c1c1c" d="M 803.5,411.5 C 816.169,409.598 826.336,413.598 834,423.5C 838.124,435.539 835.624,446.039 826.5,455C 811.443,463.86 795.443,470.526 778.5,475C 717.729,487.052 656.395,491.052 594.5,487C 555.794,485.181 517.461,480.514 479.5,473C 470.022,471.034 461.022,467.7 452.5,463C 439.933,451.24 437.1,437.406 444,421.5C 447.142,416.674 451.642,414.007 457.5,413.5C 467.846,415.603 478.179,417.769 488.5,420C 489.31,425.751 489.81,431.584 490,437.5C 493.359,445.962 499.525,449.129 508.5,447C 514.074,444.806 518.574,441.306 522,436.5C 523.78,431.948 525.78,427.615 528,423.5C 574.156,426.844 620.322,430.01 666.5,433C 689.199,438.849 709.533,449.182 727.5,464C 732.499,466.891 737.833,467.891 743.5,467C 754.41,455.751 764.244,443.584 773,430.5C 781.459,421.199 791.626,414.866 803.5,411.5 Z"/></g>
<g><path style="opacity:1" fill="#1e1e1e" d="M 822.5,462.5 C 827.558,462.114 830.391,464.448 831,469.5C 832.129,509.067 814.296,536.233 777.5,551C 743.517,562.663 708.517,569.329 672.5,571C 625.512,573.479 578.845,570.812 532.5,563C 504.657,558.959 480.823,547.125 461,527.5C 448.323,512.47 442.657,495.136 444,475.5C 446.251,471.874 449.418,470.707 453.5,472C 459.423,475.582 465.089,479.582 470.5,484C 481.41,490.192 493.077,494.192 505.5,496C 524.105,498.508 542.772,500.508 561.5,502C 570.936,503.179 580.269,504.845 589.5,507C 592.859,509.034 593.192,511.368 590.5,514C 586.653,515.616 582.653,516.616 578.5,517C 562.833,517.667 547.167,517.667 531.5,517C 520.607,514.671 509.607,514.005 498.5,515C 492.789,518.419 491.955,522.919 496,528.5C 500.471,533.641 505.971,537.141 512.5,539C 593.9,555.886 675.233,555.552 756.5,538C 765.143,535.35 773.81,532.684 782.5,530C 791.188,525.783 795.021,518.95 794,509.5C 788.819,504.139 782.485,502.139 775,503.5C 761.507,504.433 748.007,504.6 734.5,504C 729.605,501.177 729.271,497.843 733.5,494C 756.55,495.03 779.217,492.697 801.5,487C 804.715,485.226 808.048,483.726 811.5,482.5C 812.6,474.29 816.267,467.623 822.5,462.5 Z"/></g>
<g><path style="opacity:1" fill="#1e1e1e" d="M 318.5,482.5 C 319.376,482.369 320.043,482.702 320.5,483.5C 323.764,491.859 327.43,500.026 331.5,508C 340.186,508.917 348.853,509.917 357.5,511C 350.466,517.036 343.799,523.37 337.5,530C 339.029,538.114 341.029,546.114 343.5,554C 343.167,554.5 342.833,555 342.5,555.5C 334.57,551.286 326.737,546.953 319,542.5C 311.016,546.658 303.35,551.325 296,556.5C 297.288,547.112 299.122,537.779 301.5,528.5C 294.711,522.882 288.044,517.049 281.5,511C 290.71,509.112 300.043,507.945 309.5,507.5C 312.697,499.243 315.697,490.91 318.5,482.5 Z"/></g>
<g><path style="opacity:1" fill="#1e1e1e" d="M 956.5,483.5 C 958.686,484.823 960.186,486.823 961,489.5C 964,495.671 966.5,502.004 968.5,508.5C 977.562,508.766 986.562,509.599 995.5,511C 989,516.833 982.5,522.667 976,528.5C 977.674,537.857 979.341,547.19 981,556.5C 973.04,551.438 964.873,546.771 956.5,542.5C 948.786,546.776 941.286,551.443 934,556.5C 934.804,547.19 936.637,538.023 939.5,529C 932.896,523.07 926.23,517.07 919.5,511C 928.736,509.145 938.07,507.978 947.5,507.5C 950.103,499.357 953.103,491.357 956.5,483.5 Z"/></g>
<g><path style="opacity:1" fill="#8a8a8a" d="M 294.5,658.5 C 289.75,660.031 284.75,660.698 279.5,660.5C 284.29,659.275 289.29,658.608 294.5,658.5 Z"/></g>
<g><path style="opacity:1" fill="#1b1c1b" d="M 623.5,659.5 C 633.418,660.474 643.418,660.807 653.5,660.5C 653.433,696.506 653.267,732.506 653,768.5C 655.239,781.123 661.573,783.789 672,776.5C 672.988,773.576 673.654,770.576 674,767.5C 675.034,731.84 675.534,696.174 675.5,660.5C 686.024,660.24 696.191,660.573 706,661.5C 706.046,695.499 705.713,729.499 705,763.5C 704.303,789.53 690.97,802.863 665,803.5C 650.733,804.306 638.733,799.639 629,789.5C 626.781,785.729 625.115,781.729 624,777.5C 622.871,761.042 622.371,744.542 622.5,728C 622.68,705.163 623.013,682.329 623.5,659.5 Z"/></g>
<g><path style="opacity:1" fill="#1b1c1b" d="M 581.5,660.5 C 587.206,660.171 592.872,660.505 598.5,661.5C 591.26,685.719 583.927,709.885 576.5,734C 586.226,756.119 596.226,778.119 606.5,800C 596.866,801.365 587.199,801.698 577.5,801C 571.478,787.788 565.311,774.622 559,761.5C 554.147,775.059 549.48,788.726 545,802.5C 536.579,803.649 528.079,803.816 519.5,803C 527.805,778.121 535.805,753.121 543.5,728C 534.944,706.332 525.61,684.999 515.5,664C 525.5,662.676 535.5,662.509 545.5,663.5C 550.564,675.295 555.898,686.961 561.5,698.5C 565.473,686.614 569.139,674.614 572.5,662.5C 575.642,661.833 578.642,661.166 581.5,660.5 Z"/></g>
<g><path style="opacity:1" fill="#a9a9a9" d="M 279.5,660.5 C 274.731,661.889 269.731,662.556 264.5,662.5C 269.269,661.111 274.269,660.444 279.5,660.5 Z"/></g>
<g><path style="opacity:1" fill="#1b1c1b" d="M 739.5,662.5 C 750.839,663.072 762.173,663.739 773.5,664.5C 776.045,691.242 779.212,717.908 783,744.5C 790.532,718.903 797.865,693.236 805,667.5C 805.414,667.043 805.914,666.709 806.5,666.5C 816.947,667.382 827.28,668.548 837.5,670C 834.688,716.395 832.021,762.895 829.5,809.5C 822.844,808.953 816.177,808.453 809.5,808C 808.316,806.82 807.649,805.32 807.5,803.5C 809.341,774.753 810.507,746.086 811,717.5C 803.667,746.833 796.333,776.167 789,805.5C 782.591,805.932 776.091,805.932 769.5,805.5C 765.837,774.865 762.337,744.199 759,713.5C 755.178,743.364 752.344,773.364 750.5,803.5C 742.83,803.222 735.164,802.889 727.5,802.5C 731.829,755.864 735.829,709.197 739.5,662.5 Z"/></g>
<g><path style="opacity:1" fill="#9e9e9e" d="M 255.5,663.5 C 249.114,665.468 242.448,666.468 235.5,666.5C 241.962,665.022 248.628,664.022 255.5,663.5 Z"/></g>
<g><path style="opacity:1" fill="#1b1c1b" d="M 469.5,666.5 C 470.79,667.058 471.623,668.058 472,669.5C 484.401,714.201 496.901,758.868 509.5,803.5C 500.367,805.223 491.2,806.556 482,807.5C 478.941,797.767 476.107,787.934 473.5,778C 466.898,778.383 460.232,778.883 453.5,779.5C 452.455,789.467 451.788,799.467 451.5,809.5C 442.13,810.281 432.797,811.281 423.5,812.5C 422.692,812.192 422.025,811.692 421.5,811C 426.62,764.249 431.453,717.416 436,670.5C 447.261,669.135 458.427,667.801 469.5,666.5 Z"/></g>
<g><path style="opacity:1" fill="#7c7c7c" d="M 1080.5,672.5 C 1086.46,672.548 1092.13,673.548 1097.5,675.5C 1091.61,675.02 1085.95,674.02 1080.5,672.5 Z"/></g>
<g><path style="opacity:1" fill="#919191" d="M 195.5,672.5 C 192.727,673.657 189.727,674.324 186.5,674.5C 189.171,672.882 192.171,672.215 195.5,672.5 Z"/></g>
<g><path style="opacity:1" fill="#1b1c1b" d="M 378.5,675.5 C 380.833,675.5 383.167,675.5 385.5,675.5C 390.739,711.674 395.739,747.841 400.5,784C 399.509,806.993 387.509,819.66 364.5,822C 335.809,826.571 319.975,814.404 317,785.5C 312.265,752.522 307.765,719.522 303.5,686.5C 313.486,685.073 323.486,683.74 333.5,682.5C 338.487,719.576 343.987,756.576 350,793.5C 353.18,799.234 358.013,801.067 364.5,799C 366.726,797.773 368.226,795.939 369,793.5C 369.667,788.5 369.667,783.5 369,778.5C 364.547,746.493 360.047,714.493 355.5,682.5C 355.709,681.006 356.376,679.839 357.5,679C 364.693,678.142 371.693,676.976 378.5,675.5 Z"/></g>
<g><path style="opacity:1" fill="#1b1c1b" d="M 890.5,675.5 C 902.456,676.565 914.29,678.232 926,680.5C 928.944,727.832 931.778,775.165 934.5,822.5C 925.177,821.335 915.843,820.168 906.5,819C 905.68,809.244 905.18,799.41 905,789.5C 898.284,787.389 891.45,786.722 884.5,787.5C 881.424,796.394 878.757,805.394 876.5,814.5C 866.804,813.782 857.138,812.782 847.5,811.5C 861.839,766.139 876.172,720.806 890.5,675.5 Z"/></g>
<g><path style="opacity:1" fill="#1b1c1b" d="M 970.5,686.5 C 978.36,687.364 986.027,688.864 993.5,691C 987.137,706.922 981.471,723.088 976.5,739.5C 972.123,739.423 967.79,738.923 963.5,738C 962.941,737.275 962.608,736.442 962.5,735.5C 965.276,719.176 967.943,702.843 970.5,686.5 Z"/></g>
<g><path style="opacity:1" fill="#1b1c1b" d="M 242.5,695.5 C 263.342,695.478 276.175,705.811 281,726.5C 282.416,730.694 282.583,734.861 281.5,739C 272.637,740.706 263.803,742.539 255,744.5C 254.228,744.355 253.561,744.022 253,743.5C 252,738.5 251,733.5 250,728.5C 247.423,718.462 241.589,715.962 232.5,721C 231.107,722.171 230.273,723.671 230,725.5C 229.816,732.554 230.483,739.554 232,746.5C 235.667,765.167 239.333,783.833 243,802.5C 243.703,807.738 245.87,812.238 249.5,816C 261.287,819.61 266.954,815.277 266.5,803C 265.953,795.764 264.953,788.598 263.5,781.5C 259.389,781.522 255.389,782.189 251.5,783.5C 249.529,777.648 248.196,771.648 247.5,765.5C 260.747,762.65 274.081,760.317 287.5,758.5C 291.962,782.144 296.296,805.811 300.5,829.5C 294.241,830.518 288.075,831.851 282,833.5C 279.771,830.5 278.104,827.167 277,823.5C 273.614,832.619 267.114,838.119 257.5,840C 239.153,844.011 225.653,837.845 217,821.5C 214.428,815.689 212.428,809.689 211,803.5C 207.774,786.48 204.441,769.48 201,752.5C 193.903,717.973 207.737,698.973 242.5,695.5 Z"/></g>
<g><path style="opacity:1" fill="#1b1c1b" d="M 1035.5,697.5 C 1068.43,696.423 1082.76,712.09 1078.5,744.5C 1069.76,744.494 1061.09,743.827 1052.5,742.5C 1052.5,736.956 1052.34,731.289 1052,725.5C 1046.27,718.607 1041.27,719.274 1037,727.5C 1034.29,736.375 1035.95,744.375 1042,751.5C 1047.67,758.833 1053.33,766.167 1059,773.5C 1068.82,787.67 1071.15,803.004 1066,819.5C 1058.02,836.744 1044.52,843.911 1025.5,841C 1003.16,837.834 992.164,825 992.5,802.5C 992.709,798.149 993.043,793.815 993.5,789.5C 1002.51,789.626 1011.51,789.959 1020.5,790.5C 1019.51,796.805 1019.35,803.138 1020,809.5C 1022.19,816.014 1026.69,818.514 1033.5,817C 1037.86,810.359 1039.02,803.193 1037,795.5C 1031.5,785.008 1024.84,775.341 1017,766.5C 1003.22,748.742 1001.89,730.076 1013,710.5C 1019.2,703.658 1026.7,699.325 1035.5,697.5 Z"/></g>
<g><path style="opacity:1" fill="#fefffe" d="M 456.5,708.5 C 457.793,709.842 458.626,711.509 459,713.5C 462.115,728.792 465.615,743.958 469.5,759C 464.58,760.25 459.58,760.75 454.5,760.5C 455.388,743.176 456.055,725.843 456.5,708.5 Z"/></g>
<g><path style="opacity:1" fill="#fefffe" d="M 902.5,718.5 C 903.117,718.611 903.617,718.944 904,719.5C 904.5,736.163 904.667,752.83 904.5,769.5C 899.377,769.709 894.377,769.042 889.5,767.5C 894.306,751.277 898.639,734.944 902.5,718.5 Z"/></g>
<g><path style="opacity:1" fill="#1d1d1d" d="M 564.5,832.5 C 720.7,828.312 876.033,837.812 1030.5,861C 1083.72,869.845 1136.72,879.845 1189.5,891C 1187.07,901.453 1184.74,911.953 1182.5,922.5C 1128.76,908.853 1074.43,898.353 1019.5,891C 998.873,927.753 978.373,964.586 958,1001.5C 937.818,1039.68 906.651,1063.51 864.5,1073C 860.181,1073.76 855.848,1074.43 851.5,1075C 707.833,1075.67 564.167,1075.67 420.5,1075C 374.157,1066.32 339.99,1041.15 318,999.5C 298.42,963.339 278.587,927.339 258.5,891.5C 255.216,890.343 251.882,890.176 248.5,891C 196.925,899.715 145.759,910.215 95,922.5C 92.7489,911.905 90.2489,901.405 87.5,891C 244.654,855.814 403.654,836.314 564.5,832.5 Z"/></g>
<g><path style="opacity:1" fill="#fefefe" d="M 577.5,861.5 C 700.918,859.192 823.918,865.192 946.5,879.5C 929.806,911.884 912.306,943.884 894,975.5C 882.514,991.502 867.014,1001.34 847.5,1005C 708.167,1005.67 568.833,1005.67 429.5,1005C 411.174,1001.92 396.341,993.091 385,978.5C 367,946.5 349,914.5 331,882.5C 330.517,881.552 330.351,880.552 330.5,879.5C 412.67,869.512 495.004,863.512 577.5,861.5 Z"/></g>
<g><path style="opacity:1" fill="#fafafa" d="M 306.5,882.5 C 307.978,882.238 309.311,882.571 310.5,883.5C 330.08,918.995 349.913,954.328 370,989.5C 384.111,1007.98 402.611,1019.48 425.5,1024C 566.833,1024.67 708.167,1024.67 849.5,1024C 879.917,1018.58 902.084,1002.08 916,974.5C 932.562,943.303 949.895,912.636 968,882.5C 972.544,883.116 977.044,883.949 981.5,885C 960.801,923.679 939.301,961.846 917,999.5C 900.342,1020.92 878.509,1033.75 851.5,1038C 709.167,1038.67 566.833,1038.67 424.5,1038C 397.626,1033.11 375.793,1019.95 359,998.5C 337.13,960.487 315.964,922.154 295.5,883.5C 299.371,883.815 303.038,883.482 306.5,882.5 Z"/></g>
<g><path style="opacity:1" fill="#1b1c1b" d="M 640.5,893.5 C 660.053,892.053 668.72,901.053 666.5,920.5C 661.167,920.5 655.833,920.5 650.5,920.5C 650.879,915.703 650.379,911.036 649,906.5C 644.965,904.556 641.965,905.556 640,909.5C 639.333,923.833 639.333,938.167 640,952.5C 641.765,958.055 645.098,959.389 650,956.5C 652.118,951.047 652.952,945.38 652.5,939.5C 650.167,939.5 647.833,939.5 645.5,939.5C 645.5,936.5 645.5,933.5 645.5,930.5C 652.5,930.5 659.5,930.5 666.5,930.5C 666.5,943.167 666.5,955.833 666.5,968.5C 662.833,968.5 659.167,968.5 655.5,968.5C 655.662,966.473 655.495,964.473 655,962.5C 653.413,965.756 650.913,967.923 647.5,969C 635.28,971.145 627.447,966.312 624,954.5C 621.761,938.1 622.094,921.767 625,905.5C 628.048,898.603 633.215,894.603 640.5,893.5 Z"/></g>
<g><path style="opacity:1" fill="#1b1c1b" d="M 454.5,894.5 C 464.883,894.162 475.216,894.662 485.5,896C 495.979,900.381 499.812,908.214 497,919.5C 495.86,924.64 492.694,927.807 487.5,929C 496.7,931.372 500.7,937.372 499.5,947C 500.41,958.875 495.077,965.875 483.5,968C 473.839,968.5 464.172,968.666 454.5,968.5C 454.5,943.833 454.5,919.167 454.5,894.5 Z"/></g>
<g><path style="opacity:1" fill="#1b1c1b" d="M 510.5,894.5 C 515.833,894.5 521.167,894.5 526.5,894.5C 526.333,914.169 526.5,933.836 527,953.5C 528.691,957.213 531.525,958.379 535.5,957C 536.126,956.25 536.626,955.416 537,954.5C 537.5,934.503 537.667,914.503 537.5,894.5C 543.167,894.5 548.833,894.5 554.5,894.5C 554.667,912.503 554.5,930.503 554,948.5C 552.457,966.013 542.957,972.846 525.5,969C 518.526,968.023 514.026,964.19 512,957.5C 510.546,936.554 510.046,915.554 510.5,894.5 Z"/></g>
<g><path style="opacity:1" fill="#1b1c1b" d="M 567.5,894.5 C 578.216,894.156 588.882,894.656 599.5,896C 605.925,897.427 610.092,901.26 612,907.5C 613.098,914.385 612.431,921.051 610,927.5C 608.127,929.709 605.96,931.542 603.5,933C 607.22,944.713 610.554,956.546 613.5,968.5C 607.833,968.5 602.167,968.5 596.5,968.5C 594.009,957.535 591.675,946.535 589.5,935.5C 587.833,935.5 586.167,935.5 584.5,935.5C 584.5,946.5 584.5,957.5 584.5,968.5C 578.833,968.5 573.167,968.5 567.5,968.5C 567.5,943.833 567.5,919.167 567.5,894.5 Z"/></g>
<g><path style="opacity:1" fill="#1b1c1b" d="M 678.5,894.5 C 683.833,894.5 689.167,894.5 694.5,894.5C 694.333,914.169 694.5,933.836 695,953.5C 696.691,957.213 699.525,958.379 703.5,957C 704.126,956.25 704.626,955.416 705,954.5C 705.5,934.503 705.667,914.503 705.5,894.5C 711.167,894.5 716.833,894.5 722.5,894.5C 722.667,912.503 722.5,930.503 722,948.5C 720.457,966.013 710.957,972.846 693.5,969C 686.526,968.023 682.026,964.19 680,957.5C 678.546,936.554 678.046,915.554 678.5,894.5 Z"/></g>
<g><path style="opacity:1" fill="#1b1c1b" d="M 735.5,894.5 C 746.833,894.5 758.167,894.5 769.5,894.5C 769.5,898.167 769.5,901.833 769.5,905.5C 763.833,905.5 758.167,905.5 752.5,905.5C 752.5,911.833 752.5,918.167 752.5,924.5C 756.833,924.5 761.167,924.5 765.5,924.5C 765.5,928.167 765.5,931.833 765.5,935.5C 761.167,935.5 756.833,935.5 752.5,935.5C 752.5,942.833 752.5,950.167 752.5,957.5C 758.167,957.5 763.833,957.5 769.5,957.5C 769.5,961.167 769.5,964.833 769.5,968.5C 758.167,968.5 746.833,968.5 735.5,968.5C 735.5,943.833 735.5,919.167 735.5,894.5 Z"/></g>
<g><path style="opacity:1" fill="#1b1c1b" d="M 779.5,894.5 C 790.216,894.156 800.882,894.656 811.5,896C 817.925,897.427 822.092,901.26 824,907.5C 825.098,914.385 824.431,921.051 822,927.5C 820.127,929.709 817.96,931.542 815.5,933C 819.22,944.713 822.554,956.546 825.5,968.5C 819.833,968.5 814.167,968.5 808.5,968.5C 806.009,957.535 803.675,946.535 801.5,935.5C 799.833,935.5 798.167,935.5 796.5,935.5C 796.5,946.5 796.5,957.5 796.5,968.5C 790.833,968.5 785.167,968.5 779.5,968.5C 779.5,943.833 779.5,919.167 779.5,894.5 Z"/></g>
<g><path style="opacity:1" fill="#fefffe" d="M 471.5,905.5 C 478.803,904.638 482.803,907.805 483.5,915C 483.196,922.63 479.196,925.796 471.5,924.5C 471.5,918.167 471.5,911.833 471.5,905.5 Z"/></g>
<g><path style="opacity:1" fill="#fefffe" d="M 584.5,905.5 C 592.892,903.84 597.225,907.174 597.5,915.5C 597.55,924.011 593.216,927.677 584.5,926.5C 584.5,919.5 584.5,912.5 584.5,905.5 Z"/></g>
<g><path style="opacity:1" fill="#fefffe" d="M 796.5,905.5 C 804.892,903.84 809.225,907.174 809.5,915.5C 809.55,924.011 805.216,927.677 796.5,926.5C 796.5,919.5 796.5,912.5 796.5,905.5 Z"/></g>
<g><path style="opacity:1" fill="#fefffe" d="M 471.5,935.5 C 480.401,933.782 484.734,937.449 484.5,946.5C 484.148,954.851 479.815,958.518 471.5,957.5C 471.5,950.167 471.5,942.833 471.5,935.5 Z"/></g>
</svg>
