<?xml version="1.0" standalone="no"?>
<!DOCTYPE svg PUBLIC "-//W3C//DTD SVG 20010904//EN"
 "http://www.w3.org/TR/2001/REC-SVG-20010904/DTD/svg10.dtd">
<svg version="1.0" xmlns="http://www.w3.org/2000/svg"
 width="1000.000000pt" height="1000.000000pt" viewBox="0 0 1000.000000 1000.000000"
 preserveAspectRatio="xMidYMid meet">

<g transform="translate(0.000000,1000.000000) scale(0.100000,-0.100000)"
fill="#000000" stroke="none">
<path d="M5270 8640 c-102 -3 -178 -7 -169 -8 24 -3 33 -32 11 -34 -9 0 -22
-2 -28 -2 -6 -1 -19 -7 -28 -15 -9 -7 -26 -11 -37 -8 -17 4 -19 3 -10 -6 13
-13 15 -47 2 -47 -5 0 -12 7 -15 16 -5 12 -13 14 -34 10 -39 -10 -82 -30 -82
-38 0 -5 118 -8 263 -8 306 1 593 -7 797 -21 80 -6 172 -12 205 -13 33 -2 65
-4 72 -5 6 0 14 -9 16 -18 3 -13 5 -11 6 6 1 18 4 21 14 13 8 -7 24 -8 43 -3
29 7 29 8 7 20 -13 6 -23 18 -23 26 0 8 -7 15 -16 15 -22 0 -43 29 -44 58 0
12 -2 22 -4 22 -2 0 -28 5 -57 11 -69 14 -122 17 -644 32 -33 1 -143 0 -245
-3z m-170 -90 c0 -5 -4 -10 -10 -10 -5 0 -10 5 -10 10 0 6 5 10 10 10 6 0 10
-4 10 -10z m187 -12 c-3 -8 -6 -5 -6 6 -1 11 2 17 5 13 3 -3 4 -12 1 -19z
m673 -8 c0 -5 -7 -10 -16 -10 -8 0 -12 5 -9 10 3 6 10 10 16 10 5 0 9 -4 9
-10z m320 -45 c10 -13 9 -15 -8 -15 -22 0 -36 13 -25 24 10 10 20 7 33 -9z"/>
<path d="M5008 8633 c6 -2 10 -8 8 -12 -3 -4 -1 -13 4 -21 7 -11 11 -11 24 -1
27 23 19 41 -16 40 -18 0 -27 -3 -20 -6z"/>
<path d="M4825 8520 c4 -6 11 -8 16 -5 14 9 11 15 -7 15 -8 0 -12 -5 -9 -10z"/>
<path d="M6115 8410 c-3 -5 3 -10 14 -10 12 0 21 5 21 10 0 6 -6 10 -14 10 -8
0 -18 -4 -21 -10z"/>
<path d="M6170 8360 c-13 -8 -13 -10 2 -10 9 0 20 5 23 10 8 13 -5 13 -25 0z"/>
<path d="M6115 8340 c4 -6 11 -8 16 -5 14 9 11 15 -7 15 -8 0 -12 -5 -9 -10z"/>
<path d="M6048 8333 c6 -2 18 -2 25 0 6 3 1 5 -13 5 -14 0 -19 -2 -12 -5z"/>
<path d="M6250 8325 c-11 -13 -10 -14 4 -9 9 3 16 10 16 15 0 13 -6 11 -20 -6z"/>
<path d="M6210 8310 c-9 -6 -10 -10 -3 -10 6 0 15 5 18 10 8 12 4 12 -15 0z"/>
<path d="M6128 8293 c-10 -2 -18 -9 -18 -14 0 -11 39 -2 55 12 9 9 -6 10 -37
2z"/>
<path d="M6048 8273 c7 -3 16 -2 19 1 4 3 -2 6 -13 5 -11 0 -14 -3 -6 -6z"/>
<path d="M6245 8270 c-3 -5 -2 -10 4 -10 5 0 13 5 16 10 3 6 2 10 -4 10 -5 0
-13 -4 -16 -10z"/>
<path d="M6205 8250 c-3 -5 3 -10 15 -10 12 0 18 5 15 10 -3 6 -10 10 -15 10
-5 0 -12 -4 -15 -10z"/>
<path d="M6155 8230 c3 -5 8 -10 11 -10 2 0 4 5 4 10 0 6 -5 10 -11 10 -5 0
-7 -4 -4 -10z"/>
<path d="M6285 8229 c-11 -17 1 -21 15 -4 8 9 8 15 2 15 -6 0 -14 -5 -17 -11z"/>
<path d="M6095 8220 c3 -5 10 -10 16 -10 5 0 9 5 9 10 0 6 -7 10 -16 10 -8 0
-12 -4 -9 -10z"/>
<path d="M6250 8199 c0 -5 5 -7 10 -4 6 3 10 8 10 11 0 2 -4 4 -10 4 -5 0 -10
-5 -10 -11z"/>
<path d="M6190 8180 c0 -5 5 -10 10 -10 6 0 10 5 10 10 0 6 -4 10 -10 10 -5 0
-10 -4 -10 -10z"/>
<path d="M6130 8165 c0 -8 7 -15 15 -15 8 0 15 7 15 15 0 8 -7 15 -15 15 -8 0
-15 -7 -15 -15z"/>
<path d="M6208 8142 c-4 -12 -2 -25 4 -28 16 -10 22 4 11 28 l-10 22 -5 -22z"/>
<path d="M6270 8144 c0 -8 5 -12 10 -9 6 3 10 10 10 16 0 5 -4 9 -10 9 -5 0
-10 -7 -10 -16z"/>
<path d="M6156 8111 c-4 -5 -2 -12 3 -15 5 -4 12 -2 15 3 4 5 2 12 -3 15 -5 4
-12 2 -15 -3z"/>
<path d="M6215 8069 c-4 -6 -5 -13 -2 -16 8 -7 47 7 47 18 0 13 -37 11 -45 -2z"/>
<path d="M6360 8069 c0 -5 5 -7 10 -4 6 3 10 8 10 11 0 2 -4 4 -10 4 -5 0 -10
-5 -10 -11z"/>
<path d="M6175 8050 c-3 -5 -2 -10 4 -10 5 0 13 5 16 10 3 6 2 10 -4 10 -5 0
-13 -4 -16 -10z"/>
<path d="M6305 8044 c-20 -15 -12 -17 19 -5 11 4 15 10 10 13 -5 4 -18 0 -29
-8z"/>
<path d="M6224 8005 c-10 -8 -14 -15 -7 -15 6 0 15 5 18 10 4 6 10 8 15 5 5
-3 11 -1 15 5 9 15 -18 12 -41 -5z"/>
<path d="M6105 7990 l-30 -6 30 -6 c32 -7 39 -5 34 9 -2 5 -17 6 -34 3z"/>
<path d="M6280 7960 c-13 -8 -12 -10 3 -10 9 0 17 5 17 10 0 12 -1 12 -20 0z"/>
<path d="M6230 7937 c0 -16 3 -17 15 -7 8 7 15 16 15 20 0 3 -7 7 -15 7 -8 0
-15 -9 -15 -20z"/>
<path d="M5001 7256 c-7 -8 -11 -32 -9 -53 2 -31 7 -39 26 -41 53 -8 83 62 40
92 -28 20 -42 20 -57 2z m53 -54 c-16 -25 -38 -21 -42 7 -5 30 18 45 38 25 11
-11 12 -19 4 -32z"/>
<path d="M4877 7216 c-16 -48 -12 -66 9 -38 11 15 16 15 34 4 12 -7 24 -11 27
-9 7 7 -36 87 -46 87 -5 0 -16 -20 -24 -44z m33 4 c0 -5 -4 -10 -10 -10 -5 0
-10 5 -10 10 0 6 5 10 10 10 6 0 10 -4 10 -10z"/>
<path d="M4744 7235 c-4 -8 -3 -31 0 -50 6 -28 11 -35 31 -35 25 0 55 24 55
43 0 43 -73 78 -86 42z m59 -27 c13 -20 -7 -50 -29 -41 -21 8 -19 65 2 61 9
-2 22 -10 27 -20z"/>
<path d="M5131 7207 c-32 -47 -32 -64 1 -44 16 10 22 9 32 -5 19 -26 27 -11
20 36 -9 60 -18 63 -53 13z m39 -1 c0 -3 -4 -8 -10 -11 -5 -3 -10 -1 -10 4 0
6 5 11 10 11 6 0 10 -2 10 -4z"/>
<path d="M4674 7197 c10 -30 -3 -38 -26 -17 -12 11 -24 17 -28 15 -9 -6 0 -64
12 -71 5 -3 6 5 2 20 -7 31 6 34 31 6 10 -11 22 -20 27 -20 12 0 0 61 -15 75
-7 7 -8 4 -3 -8z"/>
<path d="M5311 7186 c-7 -8 -15 -30 -18 -49 -4 -30 -2 -36 17 -42 29 -9 38 2
14 19 -10 8 -16 18 -12 22 4 4 14 2 21 -4 8 -7 17 -9 20 -5 12 11 8 23 -7 23
-8 0 -18 5 -22 11 -5 9 1 10 20 5 30 -7 35 8 7 24 -25 13 -26 13 -40 -4z"/>
<path d="M4548 7165 c-3 -4 -1 -19 5 -35 16 -43 -5 -62 -33 -30 -11 13 -20 28
-20 33 0 6 -3 8 -6 5 -9 -10 25 -68 40 -68 25 0 46 12 46 25 0 20 -26 76 -32
70z"/>
<path d="M5403 7115 c-28 -42 -28 -48 -4 -40 16 5 18 2 14 -15 -6 -24 0 -25
32 -4 14 9 25 12 25 6 0 -6 -4 -14 -10 -17 -12 -7 -13 -25 -2 -25 5 0 18 18
31 40 19 35 20 41 7 46 -9 3 -23 -1 -31 -10 -22 -21 -27 -20 -25 7 5 58 -6 61
-37 12z"/>
<path d="M4404 7085 c-3 -8 3 -29 15 -47 l21 -33 -2 27 c-1 15 -9 30 -16 33
-11 4 -12 8 -2 20 9 11 9 15 1 15 -6 0 -14 -7 -17 -15z"/>
<path d="M4796 6919 c-21 -16 -25 -26 -19 -47 3 -15 12 -31 20 -35 11 -7 10
-13 -7 -34 -25 -32 -25 -54 -2 -82 19 -25 66 -30 100 -12 48 26 14 121 -44
121 -44 0 -59 60 -21 84 26 17 52 -5 52 -43 0 -34 4 -38 23 -19 19 19 14 45
-14 67 -34 26 -54 26 -88 0z m66 -121 c44 -34 7 -104 -41 -79 -27 15 -34 41
-16 67 17 27 33 30 57 12z"/>
<path d="M4994 6874 c-8 -66 5 -87 35 -60 26 24 53 17 65 -16 14 -41 -6 -78
-43 -78 -21 0 -30 6 -34 21 -3 12 -10 18 -16 14 -20 -12 -11 -32 24 -51 32
-17 38 -18 63 -4 36 21 52 81 31 118 -13 23 -22 27 -57 26 -40 -1 -42 1 -42
28 0 29 3 31 59 32 19 1 36 7 38 14 3 9 -12 12 -55 12 l-61 0 -7 -56z"/>
<path d="M5204 6904 c-11 -17 -14 -28 -7 -35 7 -7 16 -1 27 16 23 35 60 31 64
-7 2 -19 -3 -31 -17 -40 -24 -15 -28 -38 -6 -38 8 0 19 -9 25 -20 15 -28 -4
-60 -35 -60 -15 0 -26 7 -30 20 -7 23 -35 27 -35 5 0 -25 38 -55 70 -55 57 0
92 67 54 105 -15 14 -15 20 -3 42 28 52 2 93 -58 93 -24 0 -37 -7 -49 -26z"/>
<path d="M4641 6900 c-23 -20 -23 -20 -2 -20 20 0 21 -5 21 -85 0 -50 4 -85
10 -85 6 0 9 40 7 105 -1 58 -4 105 -7 105 -3 -1 -16 -10 -29 -20z"/>
<path d="M4175 6808 c-26 -72 -34 -102 -29 -107 3 -3 11 2 18 12 7 9 17 17 21
17 4 0 14 -8 21 -17 7 -10 16 -15 20 -11 4 4 2 13 -3 20 -6 7 -13 30 -17 50
-7 40 -23 58 -31 36z m25 -42 c0 -16 -18 -31 -27 -22 -8 8 5 36 17 36 5 0 10
-6 10 -14z"/>
<path d="M5667 6813 c-4 -3 -7 -34 -7 -69 0 -55 2 -62 22 -67 41 -11 57 8 56
66 0 28 -5 58 -11 65 -10 13 -49 17 -60 5z m43 -38 c0 -8 -4 -15 -10 -15 -5 0
-10 7 -10 15 0 8 5 15 10 15 6 0 10 -7 10 -15z m0 -54 c0 -6 -4 -13 -10 -16
-5 -3 -10 1 -10 9 0 9 5 16 10 16 6 0 10 -4 10 -9z"/>
<path d="M5820 6793 c-34 -44 -14 -123 31 -123 48 0 69 90 29 130 -26 26 -34
25 -60 -7z m48 -60 c-5 -44 -28 -40 -28 5 0 21 3 42 7 46 11 11 25 -22 21 -51z"/>
<path d="M3285 6800 c-3 -5 1 -10 9 -10 9 0 16 5 16 10 0 6 -4 10 -9 10 -6 0
-13 -4 -16 -10z"/>
<path d="M3360 6800 c0 -5 5 -10 10 -10 6 0 10 5 10 10 0 6 -4 10 -10 10 -5 0
-10 -4 -10 -10z"/>
<path d="M3450 6801 c0 -5 7 -12 16 -15 16 -6 16 -8 0 -25 -9 -9 -13 -21 -10
-24 9 -9 33 24 34 44 0 9 -7 20 -16 23 -21 8 -24 8 -24 -3z"/>
<path d="M3635 6799 c-11 -17 1 -21 15 -4 8 9 8 15 2 15 -6 0 -14 -5 -17 -11z"/>
<path d="M3840 6796 c0 -9 5 -16 10 -16 6 0 10 4 10 9 0 6 -4 13 -10 16 -5 3
-10 -1 -10 -9z"/>
<path d="M3945 6800 c-4 -7 2 -9 19 -4 20 5 26 2 26 -10 0 -9 5 -16 11 -16 6
0 9 8 7 18 -4 19 -52 29 -63 12z"/>
<path d="M4073 6755 c0 -33 2 -45 4 -27 2 18 2 45 0 60 -2 15 -4 0 -4 -33z"/>
<path d="M5967 6803 c-7 -10 -7 -102 -1 -125 8 -27 34 -9 34 23 0 16 5 29 10
29 6 0 10 -14 10 -31 0 -23 4 -30 17 -27 13 2 17 16 19 63 2 36 -2 62 -9 67
-17 10 -27 0 -27 -28 0 -33 -18 -31 -22 3 -3 26 -21 42 -31 26z"/>
<path d="M6122 6801 c-9 -5 -12 -27 -10 -72 3 -63 3 -64 32 -64 34 0 46 20 16
28 -26 7 -26 27 0 27 11 0 20 5 20 11 0 6 -9 13 -20 16 -23 6 -27 23 -6 23 14
0 32 18 25 24 -12 10 -46 14 -57 7z"/>
<path d="M6230 6731 l0 -70 47 2 48 2 1 55 c0 30 -1 61 -4 68 -8 23 -30 12
-38 -20 l-8 -33 -5 30 c-4 17 -13 31 -24 33 -15 3 -17 -5 -17 -67z"/>
<path d="M6370 6781 c0 -5 5 -11 11 -13 9 -3 9 -9 0 -25 -16 -32 -14 -83 4
-83 12 0 15 13 15 59 0 43 -4 60 -15 65 -8 3 -15 1 -15 -3z"/>
<path d="M6466 6779 c-14 -46 -26 -112 -21 -118 4 -3 13 3 21 13 12 17 14 17
20 3 3 -9 10 -14 16 -11 5 3 6 13 3 23 -4 9 -9 32 -11 51 -5 39 -21 61 -28 39z"/>
<path d="M3950 6756 c0 -9 6 -16 14 -16 8 0 18 -9 21 -20 3 -11 10 -20 15 -20
4 0 3 13 -3 30 -6 16 -13 27 -16 25 -2 -3 -10 0 -18 6 -10 9 -13 8 -13 -5z"/>
<path d="M3360 6750 c0 -5 5 -10 10 -10 6 0 10 5 10 10 0 6 -4 10 -10 10 -5 0
-10 -4 -10 -10z"/>
<path d="M3546 6725 c-3 -8 -1 -17 3 -20 5 -3 11 2 15 10 3 8 1 17 -3 20 -5 3
-11 -2 -15 -10z"/>
<path d="M3860 6735 c0 -5 5 -17 10 -25 5 -8 10 -10 10 -5 0 6 -5 17 -10 25
-5 8 -10 11 -10 5z"/>
<path d="M3360 6707 c0 -10 8 -17 18 -17 9 0 13 4 7 8 -5 4 -13 11 -17 16 -5
5 -8 2 -8 -7z"/>
<path d="M3430 6710 c0 -5 5 -10 11 -10 5 0 7 5 4 10 -3 6 -8 10 -11 10 -2 0
-4 -4 -4 -10z"/>
<path d="M3285 6701 c-6 -11 9 -23 19 -14 9 9 7 23 -3 23 -6 0 -12 -4 -16 -9z"/>
<path d="M4668 6552 c-26 -3 -41 -22 -18 -22 6 0 10 -16 10 -35 0 -19 5 -35
10 -35 6 0 10 15 10 33 0 18 5 38 12 45 15 15 10 18 -24 14z"/>
<path d="M4761 6547 c-13 -13 -15 -87 -2 -87 5 0 12 8 16 18 6 15 8 15 26 -7
10 -13 19 -22 20 -20 7 47 7 89 -1 94 -20 12 -48 13 -59 2z m39 -28 c0 -5 -4
-9 -10 -9 -5 0 -10 7 -10 16 0 8 5 12 10 9 6 -3 10 -10 10 -16z"/>
<path d="M4892 6540 c-27 -26 -28 -40 -1 -74 25 -31 33 -32 59 -6 25 25 26 62
2 83 -24 22 -34 21 -60 -3z m48 -15 c16 -19 3 -55 -20 -55 -23 0 -33 26 -20
51 13 23 23 24 40 4z"/>
<path d="M5033 6553 c-16 -6 -18 -103 -3 -103 6 0 10 6 10 14 0 8 9 18 20 21
27 9 43 40 27 52 -18 14 -40 21 -54 16z m37 -32 c0 -5 -7 -11 -15 -15 -9 -3
-15 0 -15 9 0 8 7 15 15 15 8 0 15 -4 15 -9z"/>
<path d="M5157 6542 c-22 -24 -21 -65 1 -85 24 -22 35 -21 55 1 22 24 21 65
-1 85 -24 22 -35 21 -55 -1z m48 -42 c0 -16 -6 -26 -18 -28 -19 -4 -32 20 -23
44 9 25 41 13 41 -16z"/>
<path d="M4407 6543 c-4 -3 -7 -24 -7 -47 0 -36 1 -38 13 -22 8 10 12 30 9 44
-4 18 -1 23 9 20 8 -3 13 -13 13 -22 -1 -9 4 -16 12 -16 19 0 18 36 -2 44 -20
8 -39 8 -47 -1z"/>
<path d="M4520 6505 c0 -32 4 -45 14 -45 9 0 12 7 9 19 -3 13 1 21 14 24 16 4
16 5 1 6 -26 2 -22 29 5 34 16 3 13 5 -10 6 -33 1 -33 0 -33 -44z"/>
<path d="M5282 6498 c3 -49 5 -53 31 -56 19 -2 27 1 27 12 0 9 -9 16 -20 16
-17 0 -20 7 -20 40 0 22 -5 40 -11 40 -6 0 -9 -21 -7 -52z"/>
<path d="M5397 6543 c-11 -10 -8 -91 3 -98 6 -4 10 15 10 49 0 57 -1 61 -13
49z"/>
<path d="M5478 6539 c-26 -14 -22 -38 7 -51 33 -15 32 -30 -1 -22 -20 5 -25 3
-22 -7 7 -21 52 -23 69 -3 12 14 10 19 -14 38 -32 26 -35 40 -6 31 15 -5 20
-3 17 6 -6 18 -28 21 -50 8z"/>
<path d="M3740 6182 c-58 -21 -150 -137 -150 -190 0 -10 -5 -23 -10 -28 -18
-18 -14 -221 5 -286 23 -82 71 -148 125 -175 137 -70 293 33 332 217 18 85 20
128 9 197 -18 116 -72 202 -153 244 -38 19 -130 32 -158 21z m103 -137 c16 -8
40 -12 56 -9 33 7 48 -8 26 -26 -16 -14 -20 -65 -6 -74 5 -4 9 -48 8 -99 -2
-78 -6 -100 -29 -148 -17 -34 -38 -60 -53 -67 -35 -16 -135 -16 -139 1 -2 6
-11 54 -21 104 -30 159 2 291 80 323 30 13 47 12 78 -5z"/>
<path d="M3213 5851 c-2 -257 0 -333 10 -336 6 -2 31 -6 54 -8 43 -5 43 -5 63
41 22 50 39 51 21 1 -16 -46 -15 -48 23 -45 45 4 90 40 117 94 28 57 24 165
-10 235 -21 42 -22 51 -10 79 19 46 16 156 -4 195 -28 54 -57 66 -165 71 l-97
4 -2 -331z m181 193 c20 -20 21 -73 1 -101 -12 -18 -93 -63 -111 -63 -7 0 -4
166 3 173 13 14 92 7 107 -9z m24 -259 c19 -41 15 -99 -9 -129 -18 -22 -28
-26 -75 -26 l-54 0 0 69 c0 68 0 69 33 81 17 6 39 16 47 20 27 16 47 10 58
-15z"/>
<path d="M4129 6173 c-1 -5 -1 -11 0 -15 4 -33 0 -610 -4 -634 l-7 -30 89 0
c73 1 87 4 84 16 -7 23 -9 181 -3 218 l5 33 116 -3 116 -3 0 -138 -1 -138 88
3 88 3 3 348 2 347 -91 0 -91 0 1 -142 1 -143 -115 0 -115 0 0 143 0 142 -82
0 c-46 0 -84 -3 -84 -7z"/>
<path d="M4795 5830 l0 -350 233 0 c263 0 241 -8 257 88 l7 42 -156 0 -156 0
0 86 0 87 115 -6 115 -5 0 71 0 72 -115 -4 -115 -3 0 71 0 71 156 0 156 0 -7
43 c-16 95 6 87 -257 87 l-233 0 0 -350z"/>
<path d="M5365 6160 c2 -14 5 -30 5 -37 0 -7 7 -10 16 -6 12 4 15 2 12 -8 -3
-8 -11 -14 -19 -13 -12 1 -14 -51 -14 -312 l0 -312 60 3 c74 3 125 14 125 27
0 5 -5 18 -10 28 -6 12 -9 85 -8 182 l3 163 18 -40 c24 -51 31 -70 76 -185
l37 -95 39 0 39 0 65 158 c36 86 67 157 70 157 3 0 4 -84 1 -187 -3 -104 -4
-194 -2 -200 3 -9 28 -13 81 -13 l76 0 0 307 c0 170 2 326 5 348 l5 40 -85 3
-85 2 -59 -132 c-32 -73 -66 -150 -75 -170 -9 -21 -18 -37 -21 -38 -3 0 -25
46 -49 103 -25 56 -60 135 -79 175 l-33 72 -80 0 c-46 0 -79 -4 -79 -10 0 -14
-27 -12 -34 3 -4 6 -4 1 -1 -13z"/>
<path d="M6120 6163 c0 -4 -1 -162 -2 -351 l-3 -342 73 0 72 0 2 325 c1 179 2
335 2 348 1 21 -4 22 -71 25 -40 2 -73 -1 -73 -5z"/>
<path d="M6460 6123 c0 -19 -7 -50 -15 -70 -8 -19 -15 -52 -15 -72 0 -20 -4
-41 -9 -46 -8 -9 -58 -212 -68 -280 -2 -16 -8 -39 -12 -50 -5 -11 -13 -38 -18
-60 -6 -22 -12 -44 -14 -50 -5 -14 1 -15 76 -15 l65 0 0 63 c0 34 4 67 8 72
12 17 109 12 128 -7 23 -23 23 -60 0 -79 -28 -23 -12 -38 39 -36 25 1 45 3 45
5 0 1 -9 57 -19 125 -11 67 -22 149 -26 182 -4 33 -11 65 -17 72 -5 7 -7 16
-4 21 4 8 -6 118 -18 177 -2 11 -4 34 -5 51 l-1 31 -60 -1 -60 0 0 -33z m90
-341 l9 -33 -37 3 c-36 3 -37 4 -34 38 3 39 20 127 29 150 4 8 10 -16 15 -55
5 -38 13 -85 18 -103z m73 -149 c-6 -15 -29 -17 -37 -4 -7 11 0 17 22 17 12 0
18 -5 15 -13z"/>
<path d="M6121 4942 c-8 -3 -11 -61 -11 -194 l0 -190 31 6 c17 3 44 6 60 6 22
0 29 5 29 20 0 17 -7 20 -40 20 l-41 0 3 63 c3 62 3 62 36 65 51 5 41 38 -15
46 -15 2 -18 12 -18 57 l0 54 35 5 c27 4 35 10 35 25 0 17 -7 20 -46 20 -26 1
-51 -1 -58 -3z"/>
<path d="M5868 4932 c-10 -2 -18 -12 -18 -23 0 -14 7 -19 30 -19 l30 0 0 -165
c0 -158 1 -165 20 -165 19 0 20 7 20 153 0 158 4 177 42 177 13 0 18 8 18 25
0 25 -2 26 -62 23 -35 -1 -71 -4 -80 -6z"/>
<path d="M3693 4758 c1 -126 5 -172 15 -176 9 -3 12 16 12 72 0 70 2 76 21 76
34 0 57 18 67 52 13 47 14 86 0 111 -16 31 -27 37 -75 37 l-43 0 3 -172z m81
140 c9 -13 16 -43 16 -70 0 -39 -4 -50 -25 -64 -13 -8 -29 -13 -35 -9 -11 7
-14 147 -3 158 12 13 32 7 47 -15z"/>
<path d="M3940 4768 c1 -178 5 -193 56 -204 21 -4 37 0 57 16 l27 21 0 167 c0
211 -17 206 -25 -8 -4 -132 -7 -157 -22 -168 -10 -7 -24 -11 -33 -10 -31 6
-40 50 -40 201 0 91 -4 147 -10 147 -6 0 -10 -61 -10 -162z"/>
<path d="M4233 4915 c-2 -6 -2 -87 -1 -180 2 -120 6 -169 15 -172 9 -3 13 18
15 74 3 69 5 78 23 81 17 2 24 -9 44 -73 20 -66 42 -98 56 -84 2 2 -8 38 -23
80 l-26 76 22 23 c31 33 32 130 1 159 -23 21 -119 33 -126 16z m102 -32 c13
-13 16 -29 13 -71 -5 -58 -18 -74 -58 -70 -24 3 -25 6 -28 81 l-3 77 30 0 c16
0 37 -8 46 -17z"/>
<path d="M5429 4923 c-12 -3 -22 -35 -38 -126 -13 -67 -29 -148 -36 -180 -10
-49 -10 -59 1 -64 22 -8 31 5 38 57 7 49 7 50 42 50 28 0 36 -5 44 -26 6 -14
10 -36 10 -50 0 -26 25 -43 40 -28 4 5 -3 63 -16 129 -51 255 -48 246 -85 238z
m25 -120 c4 -27 10 -63 13 -80 5 -32 4 -33 -27 -33 -30 0 -32 2 -25 28 4 15 9
51 12 80 6 65 19 67 27 5z"/>
<path d="M5664 4917 c-2 -7 -3 -91 -2 -187 l3 -175 60 0 c53 0 60 2 60 20 0
14 -6 19 -20 18 -11 -2 -30 0 -42 2 -23 5 -23 8 -22 143 1 190 1 192 -16 192
-9 0 -18 -6 -21 -13z"/>
<path d="M4535 4890 c-11 -22 -15 -62 -15 -159 0 -120 2 -132 23 -156 33 -38
86 -44 123 -12 l29 25 0 146 c0 136 -1 147 -22 167 -13 13 -28 19 -38 15 -15
-5 -14 -9 4 -32 19 -24 21 -40 21 -150 0 -111 -2 -126 -20 -144 -24 -24 -38
-25 -65 -4 -18 13 -20 29 -24 144 l-3 130 32 30 32 30 -31 0 c-24 0 -34 -7
-46 -30z"/>
<path d="M4970 4735 c0 -178 1 -185 20 -185 19 0 20 7 21 153 l1 152 18 -100
c37 -199 39 -205 64 -205 22 0 24 8 45 137 29 179 42 200 40 63 -4 -169 -1
-200 16 -200 13 0 15 27 15 185 l0 185 -30 0 c-22 0 -31 -5 -35 -22 -7 -30
-45 -257 -45 -269 0 -5 -4 -9 -9 -9 -4 0 -11 24 -14 53 -4 28 -14 96 -24 150
l-18 97 -32 0 -33 0 0 -185z"/>
<path d="M5098 4118 c-8 -13 -19 -34 -23 -48 -4 -14 -11 -29 -15 -35 -3 -5
-15 -32 -25 -60 -10 -27 -24 -57 -31 -65 -7 -8 -16 -27 -19 -42 -10 -38 -35
-36 -35 1 0 17 -5 33 -11 36 -20 13 -22 -4 -5 -40 12 -26 16 -49 11 -78 -6
-40 -4 -38 30 31 20 40 40 70 44 67 5 -2 12 -21 16 -41 9 -49 48 -136 79 -177
29 -38 33 -57 12 -57 -11 0 -169 -73 -256 -119 -8 -4 -31 -16 -50 -25 -80 -41
-186 -99 -194 -107 -21 -20 10 -7 90 36 118 64 394 201 422 210 17 5 30 1 45
-13 62 -58 200 -95 272 -74 25 7 13 10 -64 15 -83 6 -100 11 -152 43 -33 19
-59 38 -59 42 1 19 371 142 429 142 10 0 30 -10 45 -21 33 -26 45 -18 17 10
-15 15 -34 21 -67 21 -49 0 -128 -16 -156 -31 -10 -5 -26 -9 -35 -9 -24 0
-114 -35 -187 -71 l-59 -30 -23 28 c-42 51 -95 173 -101 230 -5 49 -2 63 33
137 21 44 43 84 49 88 6 5 6 11 -1 18 -8 8 -15 5 -26 -12z"/>
<path d="M4804 4069 c-6 -8 -14 -31 -18 -52 -4 -21 -16 -58 -27 -83 -10 -25
-19 -54 -19 -65 0 -10 -4 -19 -10 -19 -5 0 -10 -10 -10 -22 0 -21 0 -21 15 -2
8 10 15 26 15 35 0 9 7 22 15 29 8 7 13 15 10 19 -2 4 7 38 21 76 26 71 30
111 8 84z"/>
<path d="M4619 4065 c-12 -20 -17 -61 -9 -80 6 -17 9 -14 15 17 7 39 3 80 -6
63z"/>
<path d="M5450 4013 c-14 -3 -29 -9 -35 -14 -6 -6 20 -7 73 -3 89 7 102 -1 60
-37 -11 -11 -19 -21 -17 -24 9 -8 71 55 66 68 -4 12 -99 19 -147 10z"/>
<path d="M5345 3993 c-37 -10 -68 -24 -63 -28 8 -8 107 15 114 26 5 9 -17 10
-51 2z"/>
<path d="M6459 3938 c-1 -13 -1 -45 -1 -73 1 -45 1 -47 -9 -22 -11 28 -37 35
-57 15 -10 -10 -11 -2 -6 35 6 39 4 47 -9 47 -12 0 -17 -15 -22 -57 -3 -32 -9
-69 -12 -83 -7 -24 -7 -24 -10 5 -10 95 -15 115 -29 115 -17 0 -17 -8 4 -140
13 -79 21 -105 32 -105 11 0 17 17 22 59 10 75 18 84 18 19 0 -36 5 -55 19
-67 16 -15 19 -15 31 -1 7 8 23 15 36 15 25 0 40 15 25 24 -5 4 -10 52 -9 109
0 56 -1 108 -1 115 -2 21 -21 13 -22 -10z m-31 -160 c-2 -35 -7 -63 -11 -63
-10 0 -19 104 -11 117 15 25 25 2 22 -54z"/>
<path d="M3377 3929 c-21 -30 -22 -45 -1 -25 8 9 20 14 25 11 12 -8 11 -52 -2
-77 -8 -14 -8 -23 0 -31 13 -13 15 -87 2 -87 -5 0 -16 10 -24 23 l-16 22 0
-22 c-1 -21 22 -53 38 -53 22 0 33 32 27 77 -7 61 -7 61 0 103 4 27 1 42 -14
59 l-19 24 -16 -24z"/>
<path d="M5145 3940 c-3 -5 1 -10 9 -10 9 0 16 5 16 10 0 6 -4 10 -9 10 -6 0
-13 -4 -16 -10z"/>
<path d="M6195 3938 c-3 -8 -23 -13 -49 -13 -25 0 -47 -2 -49 -5 -5 -5 -10
-73 -8 -122 1 -30 27 -39 37 -13 11 27 24 5 24 -41 0 -46 -14 -59 -25 -24 -7
21 -30 27 -40 10 -10 -16 6 -60 27 -71 45 -24 82 17 79 90 -1 25 2 42 5 38 4
-3 15 -2 25 3 12 7 19 6 22 -3 3 -9 7 -9 20 2 21 17 21 35 1 66 -12 18 -13 28
-4 45 14 25 4 46 -15 30 -9 -8 -14 -6 -19 5 -7 18 -25 20 -31 3z m12 -118
c-14 -21 -14 -21 -31 5 -10 16 -23 24 -32 21 -9 -3 -14 1 -14 14 0 28 40 30
68 3 22 -20 22 -24 9 -43z"/>
<path d="M6560 3903 c0 -54 9 -51 20 7 6 31 4 40 -6 40 -10 0 -14 -14 -14 -47z"/>
<path d="M4586 3909 c-8 -42 0 -50 9 -9 4 17 5 34 2 36 -2 3 -7 -10 -11 -27z"/>
<path d="M3477 3924 c-10 -10 -9 -124 1 -124 4 0 13 5 20 12 20 20 34 -5 30
-52 -3 -47 -26 -66 -35 -31 -7 28 -23 27 -23 -2 0 -50 51 -64 68 -19 23 57 -1
151 -35 138 -9 -4 -13 4 -13 24 0 26 4 30 26 30 16 0 24 5 22 13 -5 13 -50 22
-61 11z"/>
<path d="M3607 3912 c-19 -21 -25 -148 -7 -137 6 3 10 31 10 61 0 41 4 56 16
61 25 9 34 -16 34 -95 0 -77 -11 -112 -35 -112 -8 0 -15 -4 -15 -10 0 -14 43
-13 58 2 8 8 12 47 12 108 0 88 -2 98 -23 118 -28 27 -30 27 -50 4z"/>
<path d="M5078 3923 c6 -2 18 -2 25 0 6 3 1 5 -13 5 -14 0 -19 -2 -12 -5z"/>
<path d="M3898 3898 c-2 -7 -1 -33 2 -58 4 -33 7 -40 12 -25 7 21 4 82 -4 91
-3 3 -7 -1 -10 -8z"/>
<path d="M6650 3874 c0 -8 5 -12 10 -9 6 4 8 11 5 16 -9 14 -15 11 -15 -7z"/>
<path d="M6550 3834 c0 -8 5 -12 10 -9 6 4 8 11 5 16 -9 14 -15 11 -15 -7z"/>
<path d="M3735 3831 c-10 -9 -5 -161 5 -161 5 0 10 35 12 78 2 43 7 77 13 77
6 0 11 -34 13 -77 2 -43 7 -78 12 -78 13 0 17 150 5 160 -11 9 -52 10 -60 1z"/>
<path d="M3820 3831 c0 -5 5 -13 10 -16 6 -3 10 -41 10 -83 0 -42 4 -72 8 -66
13 15 -1 167 -15 172 -7 2 -13 -1 -13 -7z"/>
<path d="M6550 3784 c-13 -33 -13 -84 0 -84 6 0 10 16 10 36 0 30 3 36 18 32
15 -4 18 -1 14 18 -6 32 -30 31 -42 -2z"/>
<path d="M4699 3771 c-7 -16 -16 -28 -19 -26 -3 2 -5 -10 -6 -25 -1 -20 3 -27
13 -23 8 3 12 12 9 20 -3 8 1 28 10 45 8 16 13 32 11 35 -3 2 -11 -9 -18 -26z"/>
<path d="M3899 3735 c-3 -33 -2 -64 3 -69 14 -17 16 -2 9 64 l-7 65 -5 -60z"/>
<path d="M6640 3736 c0 -9 5 -16 10 -16 6 0 10 4 10 9 0 6 -4 13 -10 16 -5 3
-10 -1 -10 -9z"/>
<path d="M4920 3728 c0 -6 -11 -34 -24 -62 -31 -65 -42 -106 -28 -106 15 0 22
14 37 68 8 26 18 62 24 80 6 19 6 32 0 32 -5 0 -9 -5 -9 -12z"/>
<path d="M6590 3720 c0 -5 5 -10 10 -10 6 0 10 5 10 10 0 6 -4 10 -10 10 -5 0
-10 -4 -10 -10z"/>
<path d="M4621 3583 c0 -12 -5 -25 -11 -28 -5 -3 -10 -14 -10 -23 1 -11 6 -8
16 11 8 16 13 36 11 45 -3 12 -5 11 -6 -5z"/>
<path d="M5520 3540 c0 -5 4 -10 9 -10 6 0 13 5 16 10 3 6 -1 10 -9 10 -9 0
-16 -4 -16 -10z"/>
<path d="M6567 2674 c-3 -3 -29 -7 -58 -9 -141 -12 -239 -28 -239 -40 0 -8 6
-15 13 -18 6 -2 8 -8 4 -13 -5 -5 -12 -2 -17 6 -30 53 -28 52 -125 36 -151
-25 -692 -46 -1277 -49 -174 -1 -314 -5 -310 -8 4 -4 135 -9 292 -12 157 -4
286 -6 287 -7 1 0 -2 -18 -7 -40 0 -3 -7 4 -16 15 -13 17 -16 18 -24 5 -6 -9
-10 -10 -10 -3 0 15 -137 17 -145 2 -4 -5 2 -9 12 -9 15 0 16 -2 3 -10 -8 -5
-13 -10 -10 -11 3 0 19 -3 35 -5 17 -3 37 -7 45 -11 8 -3 19 -5 23 -4 5 1 6
-3 2 -9 -4 -6 -12 -10 -18 -9 -7 1 -27 1 -44 0 -30 -1 -33 -4 -33 -31 0 -16 5
-30 11 -30 6 0 8 8 4 19 -6 21 14 34 34 21 9 -5 10 -10 2 -14 -6 -4 -11 -13
-11 -19 0 -8 3 -9 8 -1 13 20 51 23 61 6 7 -13 13 -14 21 -5 7 6 23 8 39 4 43
-11 183 -2 198 13 4 3 13 0 21 -7 9 -6 13 -7 10 -2 -3 6 -2 19 3 30 7 18 8 18
9 -5 2 -14 2 -29 1 -33 -1 -5 3 -6 9 -2 6 3 7 11 4 17 -5 7 0 9 14 6 27 -7 63
33 57 62 -2 12 2 20 10 20 8 0 17 5 21 11 8 13 -16 30 -30 22 -5 -3 -6 -1 -2
6 4 7 16 9 27 6 11 -4 26 -1 34 5 8 6 23 9 35 5 16 -5 20 -15 20 -47 0 -34 2
-39 14 -29 8 7 18 25 21 41 6 26 9 28 48 23 32 -3 38 -2 27 6 -11 8 17 10 105
9 l120 -3 3 -26 c3 -28 -15 -39 -71 -39 -17 0 -30 -6 -33 -17 -3 -10 -9 -25
-14 -35 -7 -11 -4 -18 7 -22 14 -6 14 -8 -3 -21 -17 -13 -17 -17 -4 -27 8 -8
16 -32 17 -56 1 -38 -1 -41 -12 -25 -11 15 -17 15 -39 5 l-26 -12 0 55 c0 42
-3 55 -15 55 -8 0 -15 -6 -16 -12 -1 -13 -1 -86 0 -120 1 -30 49 -23 57 7 7
30 34 34 34 5 0 -11 -4 -20 -9 -20 -5 0 -12 -7 -15 -16 -6 -15 -4 -15 20 1 14
9 35 15 45 12 21 -6 21 -10 4 96 -6 38 2 46 23 25 7 -7 12 -10 13 -8 11 59 10
61 -13 55 -13 -3 -30 -1 -38 5 -13 9 -11 13 10 30 14 11 33 20 43 20 19 0 21
-22 19 -175 -1 -102 -2 -106 -21 -100 -12 3 -16 -2 -17 -23 0 -15 -3 -37 -6
-49 -5 -25 -18 -43 -18 -25 0 6 -7 9 -16 5 -14 -5 -16 -2 -10 21 8 31 -16 46
-45 28 -12 -8 -20 -8 -25 -1 -7 12 -44 -18 -44 -37 0 -7 -6 -15 -12 -17 -7 -3
9 -6 35 -6 27 -1 46 -5 43 -10 -3 -4 -63 -9 -133 -10 -71 -1 -162 -4 -203 -7
-74 -4 -363 -11 -598 -14 -114 -2 -153 -10 -116 -24 9 -3 94 -6 189 -6 106 0
175 -4 177 -10 2 -5 22 -13 46 -16 23 -3 55 -9 70 -13 27 -7 27 -8 5 -19 -15
-9 -30 -9 -48 -2 -14 5 -42 10 -61 10 -19 0 -33 3 -31 8 5 6 -192 9 -262 4
-47 -4 -8 -17 52 -18 211 -4 208 -4 205 -18 -2 -8 0 -15 5 -15 22 -2 28 0 22
9 -7 11 54 2 71 -11 6 -5 13 -6 17 -3 3 3 15 3 28 -1 17 -6 19 -9 8 -17 -10
-7 -7 -8 11 -4 31 7 86 -7 83 -21 -1 -6 9 -8 22 -5 15 2 25 0 25 -7 0 -6 7
-11 15 -11 8 0 23 -10 34 -22 16 -16 23 -19 34 -9 11 8 23 8 50 -4 20 -8 48
-15 63 -15 21 0 24 -3 15 -13 -6 -8 -8 -17 -4 -20 11 -12 -27 -8 -50 5 -12 7
-26 13 -32 13 -5 1 -18 5 -28 9 -10 5 -21 5 -25 1 -10 -9 27 -35 60 -42 15 -3
25 -9 23 -14 -3 -4 11 -5 31 -2 32 5 36 4 31 -10 -7 -18 8 -24 18 -7 8 13 155
13 175 0 11 -7 -3 -10 -47 -10 -35 0 -63 -4 -63 -10 0 -13 -98 -1 -134 16 -16
8 -38 14 -48 14 -11 0 -17 4 -14 9 3 5 -19 12 -48 15 -64 8 -80 23 -71 66 5
25 4 29 -9 24 -9 -3 -22 -2 -29 4 -6 5 -39 16 -72 23 -33 7 -66 17 -74 23 -7
6 -29 9 -48 7 -19 -1 -40 2 -47 8 -13 11 -321 9 -332 -1 -2 -3 67 -8 155 -12
139 -7 180 -10 201 -16 3 -1 -4 -5 -15 -10 -12 -5 3 -6 40 -3 47 4 57 2 45 -7
-12 -9 -10 -11 13 -7 26 4 77 -9 105 -26 6 -5 16 -6 21 -3 13 8 34 -21 26 -34
-5 -9 -10 -9 -18 -1 -6 6 -19 11 -29 11 -9 0 -29 5 -43 12 -18 8 -22 14 -13
20 9 5 6 8 -9 8 -13 0 -23 -4 -23 -10 0 -9 -6 -8 -50 7 -56 19 -392 25 -410 7
-5 -5 38 -9 108 -8 64 0 146 -2 182 -5 58 -5 63 -7 45 -19 -19 -13 -19 -13 5
-7 34 9 74 7 78 -4 2 -5 19 -7 39 -4 28 5 34 3 28 -7 -6 -9 0 -11 24 -5 20 4
31 3 31 -4 0 -6 9 -11 21 -11 15 0 19 -4 15 -16 -5 -13 -4 -14 7 -6 8 7 16 9
19 7 3 -3 16 -8 28 -10 13 -3 27 -9 30 -15 4 -6 13 -10 21 -8 8 2 13 -1 12 -7
-1 -5 17 -11 39 -12 40 -1 81 -23 44 -23 -10 0 -14 -5 -10 -11 4 -7 -1 -9 -12
-7 -11 2 -18 11 -18 21 2 18 -11 23 -21 8 -5 -10 -95 15 -105 29 -3 4 -23 12
-45 17 -22 5 -39 14 -38 19 1 5 -17 9 -40 8 -23 0 -53 3 -67 7 -69 23 -400 39
-400 20 0 -7 31 -11 83 -12 164 -2 243 -8 281 -21 l39 -14 -30 -13 c-22 -9
-41 -10 -66 -3 -19 5 -40 6 -47 2 -8 -5 10 -12 46 -20 32 -6 68 -14 79 -18 11
-3 29 -5 41 -3 11 1 26 -5 33 -12 14 -18 54 -10 47 9 -7 19 37 29 63 14 12 -6
21 -16 21 -22 0 -9 3 -9 11 -1 12 12 42 6 34 -7 -3 -5 4 -6 15 -3 13 4 20 0
20 -9 0 -10 7 -14 23 -11 12 2 31 -2 41 -10 19 -14 19 -15 -3 -22 -13 -4 -26
-3 -30 3 -3 5 -22 13 -41 17 -55 12 -110 38 -110 53 0 7 -4 11 -9 8 -16 -10 0
-43 26 -55 14 -7 23 -14 20 -17 -10 -10 -67 7 -67 19 0 9 -2 9 -8 0 -4 -6 -19
-9 -34 -6 -15 3 -25 9 -22 14 3 5 -12 8 -33 8 -21 0 -54 3 -74 6 -23 4 -39 3
-43 -4 -4 -6 -2 -11 4 -11 6 0 9 -4 6 -9 -3 -4 6 -6 19 -3 14 2 33 1 42 -3 14
-6 9 -10 -22 -16 -64 -13 -98 -11 -92 4 4 11 -8 13 -56 10 -126 -6 -372 -36
-384 -45 -7 -6 -34 -11 -61 -11 -43 -2 -47 -4 -31 -15 16 -11 34 -9 111 13 69
19 117 25 189 25 62 0 99 4 107 12 10 10 15 10 20 1 4 -6 25 -15 47 -19 33 -7
19 -10 -81 -15 -122 -6 -149 -12 -139 -30 9 -13 288 -12 302 2 8 8 17 8 33 -1
16 -8 73 -10 198 -6 98 2 179 5 182 6 3 1 43 1 90 0 47 0 148 4 225 9 77 6
208 13 290 16 83 3 164 8 181 11 18 3 34 2 37 -3 3 -4 -18 -9 -46 -11 -29 -2
-56 -7 -61 -12 -6 -6 -15 -5 -23 1 -9 8 -17 8 -25 1 -7 -6 -16 -10 -21 -10
-69 -1 -185 -17 -181 -24 4 -6 -11 -9 -37 -6 -39 3 -45 0 -57 -24 -11 -24 -19
-28 -53 -28 -21 0 -39 -4 -39 -10 0 -5 -18 -10 -39 -10 -22 0 -43 -5 -46 -10
-4 -6 -12 -10 -18 -8 -7 1 -36 -4 -65 -10 -29 -7 -73 -12 -97 -12 -24 0 -56
-5 -72 -11 -15 -6 -93 -13 -173 -15 -80 -3 -188 -6 -240 -8 -52 -2 -122 -8
-155 -14 -108 -20 -139 -24 -214 -27 -40 -2 -76 -7 -80 -13 -3 -5 -16 -13 -29
-17 -22 -6 -22 -8 -7 -25 9 -10 17 -30 18 -46 1 -16 6 -32 10 -35 4 -3 45 -6
90 -6 60 -1 73 1 47 7 -19 4 -29 8 -22 9 6 0 12 12 12 25 0 14 5 28 12 32 7 5
8 3 3 -7 -8 -12 -6 -12 8 0 14 11 20 11 34 0 14 -12 16 -12 9 1 -4 8 1 5 12
-7 11 -12 23 -19 26 -15 4 3 4 -1 1 -10 -4 -9 -18 -20 -33 -24 l-27 -7 35 -9
c33 -8 841 -2 885 7 11 3 90 9 175 15 140 10 209 19 380 51 70 13 192 58 185
69 -3 4 5 10 16 13 13 4 18 10 13 18 -4 8 -3 10 4 5 11 -6 24 4 63 50 19 21
73 60 164 117 l60 38 -40 -5 c-22 -3 -55 -8 -72 -12 -22 -4 -33 -3 -33 5 0 13
45 26 59 16 6 -3 11 -1 11 5 0 8 -13 10 -42 6 -63 -9 -100 -9 -124 -1 -13 4
-27 1 -36 -9 -16 -15 -28 -12 -28 9 0 17 42 34 71 28 36 -6 292 56 368 89 32
14 73 78 51 78 -6 0 -10 -5 -10 -11 0 -6 -6 -9 -14 -6 -7 3 -19 0 -26 -6 -10
-9 -11 -9 -6 0 4 8 0 10 -16 6 -51 -12 -88 -9 -104 8 -8 9 -26 16 -38 15 -18
-2 -22 1 -18 16 3 12 -1 18 -11 18 -18 0 -37 -29 -37 -56 0 -13 3 -14 14 -5
10 9 15 8 20 -4 3 -9 18 -15 38 -15 l33 0 -26 -14 c-15 -7 -40 -12 -55 -9 -71
11 -74 12 -74 42 0 36 9 61 22 61 5 0 7 -4 4 -9 -3 -5 1 -11 9 -15 11 -4 14 3
12 32 -2 37 -2 37 42 40 28 2 47 -1 53 -10 7 -9 8 -7 6 7 -3 15 -10 19 -30 17
-20 -2 -27 3 -30 23 -6 29 16 35 31 8 13 -24 17 -16 23 39 5 39 3 47 -13 51
-13 3 -19 14 -19 31 0 30 7 32 36 11 12 -8 24 -12 26 -9 3 2 8 -13 12 -35 5
-31 13 -43 38 -55 42 -21 44 -20 14 8 -15 13 -26 34 -26 49 0 28 -26 61 -41
51 -13 -8 -59 37 -59 59 0 23 13 22 35 -3 22 -24 35 -26 35 -5 0 9 -9 15 -22
15 -19 0 -20 2 -8 10 8 5 26 10 39 10 21 0 23 -3 17 -34 -5 -28 -3 -37 13 -45
29 -16 36 -13 17 7 -11 13 -14 28 -10 50 7 33 -2 42 -49 47 -12 1 -25 3 -30 4
-4 0 -5 26 -3 56 3 40 0 55 -9 55 -17 0 -28 -30 -16 -44 5 -6 11 -29 13 -51 2
-30 -1 -40 -12 -40 -11 0 -14 8 -12 28 3 29 -14 61 -28 52 -9 -5 -1 -55 12
-71 7 -10 -9 -24 -29 -24 -11 0 2 86 15 103 13 14 13 22 2 45 -12 25 -13 26
-20 7 -4 -11 -6 19 -6 67 1 48 4 90 8 93 3 3 11 -9 17 -27 10 -28 9 -35 -6
-45 -9 -7 -11 -13 -5 -13 7 0 12 -11 12 -23 0 -31 9 -38 31 -27 16 9 16 12 2
41 -15 30 -9 57 7 29 12 -20 43 -58 35 -42 -4 7 1 12 12 12 17 1 17 1 0 14
-10 8 -18 23 -17 33 1 10 2 33 1 51 -1 38 -21 35 -21 -3 0 -13 -4 -27 -10 -30
-5 -3 -10 1 -10 9 0 9 0 17 0 19 -1 1 -5 19 -9 40 -5 21 -5 39 0 43 5 3 9 14
9 25 0 16 -5 19 -20 14 -26 -8 -28 20 -2 34 9 6 12 11 7 11 -24 0 -35 -27 -35
-84 0 -39 -3 -57 -10 -50 -6 6 -7 37 -3 77 5 62 8 67 29 67 13 0 24 4 24 9 0
10 -26 22 -33 15z m-127 -73 c0 -11 -4 -23 -10 -26 -6 -4 -10 5 -10 19 0 14 5
26 10 26 6 0 10 -9 10 -19z m-160 -40 c0 -12 -20 -25 -27 -18 -7 7 6 27 18 27
5 0 9 -4 9 -9z m-1087 -8 c-7 -2 -21 -2 -30 0 -10 3 -4 5 12 5 17 0 24 -2 18
-5z m100 0 c-7 -2 -19 -2 -25 0 -7 3 -2 5 12 5 14 0 19 -2 13 -5z m100 0 c-7
-2 -19 -2 -25 0 -7 3 -2 5 12 5 14 0 19 -2 13 -5z m-113 -23 c0 -5 -7 -7 -15
-4 -8 4 -15 8 -15 10 0 2 7 4 15 4 8 0 15 -4 15 -10z m-244 -9 c-3 -5 -15 -7
-26 -4 -28 7 -25 13 6 13 14 0 23 -4 20 -9z m351 -33 c-3 -7 -5 -2 -5 12 0 14
2 19 5 13 2 -7 2 -19 0 -25z m-67 -14 c0 -17 -5 -17 -31 -3 -16 8 -18 13 -8
25 13 16 39 2 39 -22z m-202 14 c-3 -7 -11 -13 -18 -13 -7 0 -15 6 -17 13 -3
7 4 12 17 12 13 0 20 -5 18 -12z m72 -17 c0 -4 -7 -8 -15 -8 -16 0 -20 9 -9
20 8 8 24 -1 24 -12z m1010 -6 c7 -9 11 -18 8 -20 -9 -10 -38 7 -38 21 0 18
14 18 30 -1z m-956 -10 c3 -8 1 -15 -4 -15 -6 0 -10 7 -10 15 0 8 2 15 4 15 2
0 6 -7 10 -15z m673 -21 c-3 -3 -12 -4 -19 -1 -8 3 -5 6 6 6 11 1 17 -2 13 -5z
m28 -54 c-3 -5 -10 -10 -16 -10 -5 0 -9 5 -9 10 0 6 7 10 16 10 8 0 12 -4 9
-10z m9 -55 c3 -9 0 -15 -9 -15 -16 0 -27 14 -18 24 10 10 21 7 27 -9z m-9
-55 c-3 -5 -12 -7 -20 -3 -21 7 -19 13 6 13 11 0 18 -4 14 -10z m7 -42 c2 -6
2 -24 0 -40 l-4 -28 -19 24 c-22 28 -24 42 -6 49 20 9 25 8 29 -5z m-52 -48
c19 -19 19 -20 1 -30 -20 -10 -31 3 -31 36 0 19 6 18 30 -6z m670 -62 c-11 -4
-20 -14 -20 -23 0 -17 -16 -20 -26 -4 -3 6 6 22 22 34 20 16 31 20 36 12 4 -7
-1 -15 -12 -19z m-773 -14 c-3 -3 -12 -4 -19 -1 -8 3 -5 6 6 6 11 1 17 -2 13
-5z m33 -53 c15 -29 13 -31 -25 -31 -39 0 -40 2 -23 30 16 25 34 25 48 1z
m-723 3 c-3 -3 -12 -4 -19 -1 -8 3 -5 6 6 6 11 1 17 -2 13 -5z m251 -12 c2 -7
-5 -12 -17 -12 -12 0 -21 4 -21 9 0 5 -10 12 -22 14 -13 3 -5 4 16 3 22 -1 41
-7 44 -14z m38 3 c10 -8 27 -15 38 -15 12 0 16 -5 13 -15 -5 -11 2 -14 26 -13
64 4 122 -2 109 -11 -8 -4 20 -6 62 -3 94 6 104 -13 12 -23 -40 -4 -72 -2 -85
4 -11 6 -26 8 -34 5 -8 -3 -21 1 -28 8 -8 8 -30 14 -50 14 -50 0 -95 21 -95
44 0 24 6 25 32 5z m184 5 c0 -18 -48 -22 -97 -7 l-48 15 73 1 c41 1 72 -3 72
-9z m1000 0 c0 -5 -5 -10 -11 -10 -5 0 -7 5 -4 10 3 6 8 10 11 10 2 0 4 -4 4
-10z m-1380 -11 c0 -8 4 -9 13 0 11 8 29 5 75 -14 34 -14 67 -25 74 -25 24 -1
88 -36 81 -45 -5 -4 5 -5 20 -1 15 4 33 3 40 -1 7 -4 23 -8 37 -8 14 0 24 -6
22 -13 -2 -12 22 -10 67 4 7 2 35 2 61 -2 40 -5 47 -9 43 -25 -3 -11 -12 -19
-20 -19 -8 0 -11 5 -8 10 10 15 -52 16 -68 1 -4 -5 -27 -4 -50 1 -23 5 -51 11
-62 13 -93 18 -209 61 -201 74 3 4 -6 6 -21 3 -19 -4 -24 -2 -18 8 5 9 2 10
-12 6 -11 -4 -33 0 -49 9 -16 8 -38 15 -49 16 -11 0 -29 4 -40 9 -15 7 -10 9
23 9 25 1 42 -4 42 -10z m557 -4 c2 -6 -33 -11 -90 -11 -50 -1 -84 0 -74 3 9
2 17 9 17 14 0 13 142 7 147 -6z m543 1 c0 -3 -4 -8 -10 -11 -5 -3 -10 -1 -10
4 0 6 5 11 10 11 6 0 10 -2 10 -4z m194 -35 c5 -1 3 -8 -4 -16 -18 -21 -49
-19 -47 3 1 12 8 18 21 16 12 -1 25 -3 30 -3z m40 -6 c-4 -8 -8 -15 -10 -15
-2 0 -4 7 -4 15 0 8 4 15 10 15 5 0 7 -7 4 -15z m33 -17 c-3 -7 -5 -2 -5 12 0
14 2 19 5 13 2 -7 2 -19 0 -25z m-1331 -3 c-3 -8 -1 -15 4 -15 6 0 10 5 10 10
0 6 6 10 14 10 18 0 96 -41 96 -50 0 -4 11 -5 25 -2 15 2 25 0 25 -7 0 -7 -5
-9 -12 -5 -7 4 -8 3 -4 -4 5 -9 13 -9 26 -2 26 14 33 13 27 -5 -5 -11 0 -13
23 -8 17 3 30 1 30 -4 0 -6 12 -11 28 -12 80 -5 149 -8 255 -9 64 -1 117 -6
117 -10 0 -4 -42 -8 -92 -7 -69 0 -92 -3 -90 -12 1 -7 -2 -13 -8 -13 -5 0 -10
4 -10 9 0 14 -31 22 -44 12 -22 -18 -143 -3 -216 27 -8 3 -22 7 -30 8 -33 4
-90 35 -85 45 4 6 -3 7 -19 3 -16 -4 -26 -2 -26 5 0 6 -3 10 -7 9 -5 -1 -26 2
-48 6 -37 7 -39 9 -20 22 25 18 39 18 31 -1z m644 4 c0 -10 -30 -16 -57 -11
-38 7 -26 21 17 19 22 -1 40 -4 40 -8z m-116 -14 c-4 -8 -7 -15 -9 -15 -2 0
-5 7 -9 15 -3 9 0 15 9 15 9 0 12 -6 9 -15z m796 -25 c0 -5 -4 -10 -10 -10 -5
0 -10 5 -10 10 0 6 5 10 10 10 6 0 10 -4 10 -10z m-90 -26 c0 -8 -7 -14 -15
-14 -15 0 -21 21 -9 33 10 9 24 -2 24 -19z m-592 8 c7 -5 -15 -9 -53 -9 -36
-1 -65 3 -65 8 0 11 100 12 118 1z m260 -46 c-7 -8 -15 -12 -17 -11 -5 6 10
25 20 25 5 0 4 -6 -3 -14z m72 -43 c17 -14 30 -32 30 -40 0 -7 5 -13 10 -13 6
0 10 -7 10 -15 0 -8 -2 -15 -5 -15 -10 0 -54 54 -55 66 0 7 -7 14 -15 18 -8 3
-15 10 -15 16 0 15 8 12 40 -17z m-517 -20 c6 -4 24 -6 39 -4 24 2 28 -1 27
-21 -1 -17 -3 -18 -6 -5 -5 19 -24 24 -20 5 1 -8 -10 -14 -27 -16 -23 -3 -28
0 -23 12 5 12 0 16 -16 16 -13 0 -28 -5 -33 -10 -13 -13 -71 -2 -71 13 0 14
110 22 130 10z m194 -3 c9 0 13 -3 10 -7 -4 -3 -23 -6 -42 -5 -55 1 -62 3 -35
12 14 4 31 6 38 4 8 -2 21 -4 29 -4z m869 -57 c-11 -11 -19 6 -11 24 8 17 8
17 12 0 3 -10 2 -21 -1 -24z m-1535 7 c11 0 19 -4 19 -9 0 -12 -64 -24 -68
-12 -2 6 -10 7 -18 4 -8 -3 -22 -2 -31 2 -17 7 -16 8 2 16 11 4 33 6 49 4 16
-3 37 -5 47 -5z m736 4 c-3 -3 -12 -4 -19 -1 -8 3 -5 6 6 6 11 1 17 -2 13 -5z
m-77 -14 c19 -6 12 -8 -30 -9 -39 0 -51 2 -40 9 17 11 35 11 70 0z m825 0 c3
-5 1 -10 -4 -10 -6 0 -11 5 -11 10 0 6 2 10 4 10 3 0 8 -4 11 -10z m-966 -41
c17 -18 27 -20 80 -15 42 4 61 2 61 -5 0 -7 -11 -9 -27 -6 -16 3 -44 -1 -63
-9 -19 -8 -36 -11 -38 -6 -1 5 -52 7 -113 6 -61 -2 -122 2 -137 7 l-27 11 28
14 c19 11 32 12 45 5 15 -9 14 -10 -5 -11 -13 0 -23 -4 -23 -9 0 -6 12 -6 30
1 17 5 60 8 95 6 47 -3 65 -1 65 8 0 7 -12 15 -27 17 -26 4 -26 4 4 6 21 0 39
-6 52 -20z m54 14 c-7 -2 -19 -2 -25 0 -7 3 -2 5 12 5 14 0 19 -2 13 -5z
m-272 -73 c6 0 7 -4 4 -10 -10 -16 -45 -12 -45 6 0 11 5 14 16 10 9 -3 20 -6
25 -6z m-314 -14 c13 -12 -7 -18 -21 -7 -8 7 -19 11 -23 8 -4 -2 -17 0 -28 4
-14 7 -8 8 23 5 24 -2 46 -7 49 -10z m143 4 c0 -5 -7 -7 -15 -4 -8 4 -15 8
-15 10 0 2 7 4 15 4 8 0 15 -4 15 -10z m289 -4 c-2 -2 -22 -6 -44 -9 -27 -4
-35 -3 -25 3 14 9 79 15 69 6z m208 -2 c-3 -3 -12 -4 -19 -1 -8 3 -5 6 6 6 11
1 17 -2 13 -5z m-442 -14 c3 -6 -1 -7 -9 -4 -18 7 -21 14 -7 14 6 0 13 -4 16
-10z m893 -6 c-9 -9 -21 -13 -28 -9 -14 9 5 25 30 25 12 0 12 -3 -2 -16z
m-1215 -11 c-7 -2 -21 -2 -30 0 -10 3 -4 5 12 5 17 0 24 -2 18 -5z m807 -89
c0 -2 -7 -4 -15 -4 -8 0 -15 4 -15 10 0 5 7 7 15 4 8 -4 15 -8 15 -10z m-60
-8 c0 -3 -4 -8 -10 -11 -5 -3 -10 -1 -10 4 0 6 5 11 10 11 6 0 10 -2 10 -4z
m-1269 -189 c4 -5 11 -7 16 -4 5 3 14 2 21 -2 21 -13 -5 -71 -31 -71 -28 0
-51 15 -43 28 3 5 -1 15 -9 22 -8 7 -15 21 -15 31 0 16 5 18 28 13 15 -4 30
-11 33 -17z m186 -72 c0 -8 -4 -12 -9 -9 -5 3 -6 10 -3 15 9 13 12 11 12 -6z
m313 6 c0 -5 -7 -11 -15 -15 -8 -3 -15 -1 -15 4 0 12 -127 13 -134 2 -7 -12
-121 0 -135 14 -2 2 64 4 147 4 84 0 152 -4 152 -9z"/>
<path d="M6623 2673 c9 -2 25 -2 35 0 9 3 1 5 -18 5 -19 0 -27 -2 -17 -5z"/>
<path d="M2990 2610 c0 -5 5 -10 11 -10 5 0 7 5 4 10 -3 6 -8 10 -11 10 -2 0
-4 -4 -4 -10z"/>
<path d="M5706 2551 c13 -12 17 -13 21 -3 4 10 8 10 19 1 10 -8 14 -8 14 0 0
12 -3 13 -43 16 -26 2 -27 1 -11 -14z"/>
<path d="M5783 2563 c-15 -5 -17 -43 -3 -43 6 0 10 9 10 20 0 11 5 20 10 20 6
0 10 -4 10 -10 0 -14 17 -12 23 3 4 12 -26 18 -50 10z"/>
<path d="M4876 2544 c-4 -9 1 -14 14 -14 23 0 27 15 6 23 -8 3 -17 -1 -20 -9z"/>
<path d="M5665 2530 c4 -6 2 -17 -5 -25 -6 -8 -7 -16 -2 -19 11 -7 44 39 35
48 -11 10 -35 7 -28 -4z"/>
<path d="M6692 2508 c-14 -14 -16 -94 -2 -103 6 -3 10 -3 10 2 0 4 4 24 9 43
10 45 1 76 -17 58z"/>
<path d="M5510 2486 c0 -26 15 -43 24 -28 7 12 -4 52 -15 52 -5 0 -9 -11 -9
-24z"/>
<path d="M4837 2459 c-4 -16 -3 -18 9 -8 16 13 19 29 5 29 -5 0 -11 -9 -14
-21z"/>
<path d="M5443 2458 c-4 -7 -8 -22 -8 -33 0 -11 -7 -20 -15 -20 -20 0 -26 -24
-22 -95 3 -43 8 -60 18 -60 8 0 14 5 14 11 0 8 4 8 14 0 11 -9 16 -9 22 0 5 9
11 7 21 -6 7 -11 13 -15 13 -9 0 5 4 3 8 -3 5 -7 7 18 5 55 -1 37 -3 75 -3 85
0 25 -35 21 -48 -5 -10 -20 -11 -14 -9 35 1 31 1 57 0 57 -1 0 -5 -6 -10 -12z"/>
<path d="M4915 2449 c-4 -6 -5 -12 -2 -15 2 -3 7 2 10 11 7 17 1 20 -8 4z"/>
<path d="M4830 2426 c0 -2 7 -6 15 -10 8 -3 15 -1 15 4 0 6 -7 10 -15 10 -8 0
-15 -2 -15 -4z"/>
<path d="M3923 2413 c-20 -7 -17 -122 3 -130 17 -6 52 22 40 34 -4 4 -11 1
-15 -6 -15 -23 -31 -2 -31 39 0 44 14 59 29 33 11 -21 24 -13 15 10 -6 18 -24
26 -41 20z"/>
<path d="M5582 2398 c-8 -11 -27 -109 -24 -128 2 -13 32 -10 32 4 0 9 5 16 10
16 6 0 10 -5 10 -11 0 -6 6 -17 14 -24 12 -12 15 -11 19 7 3 12 2 29 -4 39 -5
10 -9 31 -9 48 0 55 -23 79 -48 49z"/>
<path d="M4031 2400 c-6 -12 -10 -80 -5 -80 3 0 12 7 20 15 9 8 11 15 5 15 -5
0 -12 12 -14 28 -2 15 -5 25 -6 22z"/>
<path d="M4128 2393 c-2 -5 -1 -33 3 -63 l6 -55 1 53 c1 28 7 52 12 52 6 0 10
5 10 10 0 12 -27 14 -32 3z"/>
<path d="M4779 2384 c-8 -10 -8 -107 0 -141 1 -2 7 -3 15 -3 16 0 29 27 20 41
-3 5 6 13 21 19 32 12 41 34 27 64 -12 28 -66 40 -83 20z m51 -39 c0 -8 -4
-15 -10 -15 -5 0 -10 7 -10 15 0 8 5 15 10 15 6 0 10 -7 10 -15z"/>
<path d="M4965 2388 c-2 -7 -6 -35 -8 -63 l-3 -50 -2 58 c-2 50 -5 57 -22 57
-16 0 -20 -7 -21 -32 -1 -18 -3 -48 -5 -66 -1 -23 3 -35 16 -42 34 -18 66 -12
78 15 16 34 15 108 0 123 -15 15 -27 15 -33 0z"/>
<path d="M5052 2323 l3 -78 61 -1 61 -2 -25 25 c-14 14 -21 30 -18 39 3 9 6
20 6 25 0 6 6 7 13 3 10 -6 10 -4 0 7 -7 7 -13 21 -13 30 0 20 -20 29 -61 29
l-30 0 3 -77z"/>
<path d="M5155 2390 c-3 -6 1 -7 9 -4 18 7 21 14 7 14 -6 0 -13 -4 -16 -10z"/>
<path d="M5197 2382 c-24 -26 -23 -104 1 -125 23 -21 46 -22 66 -1 19 19 22
114 4 132 -18 18 -53 15 -71 -6z m43 -62 c0 -22 -4 -40 -9 -40 -8 0 -9 61 -2
78 5 13 11 -6 11 -38z"/>
<path d="M4171 2363 c0 -17 -7 -34 -13 -36 -10 -4 -10 -6 0 -6 16 -1 25 21 19
51 -3 18 -5 16 -6 -9z"/>
<path d="M4240 2365 c1 -26 2 -28 11 -12 8 14 8 22 0 30 -8 8 -11 3 -11 -18z"/>
<path d="M4286 2365 c-4 -14 -3 -31 1 -38 4 -7 10 0 15 18 4 16 4 33 -1 38 -5
5 -11 -3 -15 -18z"/>
<path d="M4370 2325 c0 -63 1 -65 25 -65 30 0 33 16 5 23 -24 6 -17 37 9 37
12 0 11 4 -7 18 l-24 18 24 17 23 16 -27 0 c-28 1 -28 0 -28 -64z"/>
<path d="M4500 2336 c0 -33 -5 -56 -12 -58 -6 -2 -8 -9 -4 -16 3 -6 13 -9 21
-5 11 4 15 22 15 69 0 36 -4 64 -10 64 -5 0 -10 -24 -10 -54z"/>
<path d="M4586 2324 c-17 -68 -14 -92 8 -61 16 21 36 22 36 2 0 -8 7 -15 15
-15 17 0 18 16 1 85 -17 76 -39 72 -60 -11z m39 -4 c3 -5 1 -10 -4 -10 -6 0
-11 5 -11 10 0 6 2 10 4 10 3 0 8 -4 11 -10z"/>
<path d="M6692 2359 c-6 -15 -9 -35 -7 -45 13 -64 17 -74 29 -74 10 0 12 13 8
53 -3 28 -8 61 -12 72 -7 19 -9 18 -18 -6z"/>
<path d="M5747 2353 c3 -7 6 -13 8 -13 2 0 5 6 8 13 3 8 -1 14 -8 14 -7 0 -11
-6 -8 -14z"/>
<path d="M5862 2340 c0 -19 2 -27 5 -17 2 9 2 25 0 35 -3 9 -5 1 -5 -18z"/>
<path d="M5652 2340 c0 -14 2 -19 5 -12 2 6 2 18 0 25 -3 6 -5 1 -5 -13z"/>
<path d="M4256 2312 c-7 -12 3 -42 14 -42 18 0 22 22 7 37 -9 9 -17 11 -21 5z"/>
<path d="M6660 2301 c0 -11 4 -22 9 -25 4 -3 6 6 3 19 -5 30 -12 33 -12 6z"/>
<path d="M3131 2294 c0 -11 3 -14 6 -6 3 7 2 16 -1 19 -3 4 -6 -2 -5 -13z"/>
<path d="M4025 2299 c-9 -14 0 -22 18 -17 13 2 13 5 2 15 -10 9 -16 9 -20 2z"/>
<path d="M4171 2284 c0 -11 3 -14 6 -6 3 7 2 16 -1 19 -3 4 -6 -2 -5 -13z"/>
<path d="M5805 2240 c-3 -6 1 -7 9 -4 18 7 21 14 7 14 -6 0 -13 -4 -16 -10z"/>
<path d="M6738 2193 c6 -2 18 -2 25 0 6 3 1 5 -13 5 -14 0 -19 -2 -12 -5z"/>
<path d="M3356 2175 c-3 -9 0 -15 9 -15 7 0 17 -9 20 -20 7 -21 45 -48 45 -31
0 5 -7 11 -15 15 -8 3 -15 11 -15 17 0 7 9 5 25 -5 20 -13 25 -14 25 -3 0 8
-12 19 -27 26 -16 8 -35 17 -45 22 -11 5 -18 3 -22 -6z"/>
<path d="M3195 2170 c-3 -6 5 -10 19 -10 36 0 56 -10 56 -29 0 -12 2 -13 8 -3
5 7 19 14 32 17 35 7 37 15 2 15 -17 0 -34 5 -37 10 -3 6 -21 10 -40 10 -19 0
-37 -4 -40 -10z"/>
<path d="M5560 2147 c0 -21 -4 -25 -17 -20 -14 5 -15 3 -7 -7 14 -15 54 -4 54
14 0 8 -7 19 -15 26 -13 11 -15 8 -15 -13z"/>
<path d="M3470 2136 c0 -20 13 -27 29 -16 11 6 9 10 -8 19 -17 10 -21 9 -21
-3z"/>
<path d="M3580 2121 c0 -5 7 -11 15 -15 9 -3 15 0 15 9 0 8 -7 15 -15 15 -8 0
-15 -4 -15 -9z"/>
<path d="M4560 2119 c0 -5 5 -7 10 -4 6 3 10 8 10 11 0 2 -4 4 -10 4 -5 0 -10
-5 -10 -11z"/>
<path d="M5205 2121 c-6 -5 -19 -11 -30 -14 -13 -3 -10 -5 11 -6 20 -1 34 5
38 14 6 17 -5 20 -19 6z"/>
<path d="M3146 2112 c-3 -6 -1 -14 5 -17 15 -10 25 3 12 16 -7 7 -13 7 -17 1z"/>
<path d="M3744 2105 c11 -8 29 -15 40 -15 28 0 8 16 -29 24 -28 6 -29 5 -11
-9z"/>
<path d="M5338 2113 c7 -3 16 -2 19 1 4 3 -2 6 -13 5 -11 0 -14 -3 -6 -6z"/>
<path d="M6760 2109 c0 -5 5 -7 10 -4 6 3 10 8 10 11 0 2 -4 4 -10 4 -5 0 -10
-5 -10 -11z"/>
<path d="M5108 2103 c7 -3 16 -2 19 1 4 3 -2 6 -13 5 -11 0 -14 -3 -6 -6z"/>
<path d="M4095 2080 c-3 -5 3 -10 14 -10 11 0 23 5 26 10 3 6 -3 10 -14 10
-11 0 -23 -4 -26 -10z"/>
<path d="M3480 2071 c0 -5 7 -12 16 -15 14 -5 15 -4 4 9 -14 17 -20 19 -20 6z"/>
<path d="M4450 2071 c0 -5 6 -11 13 -13 17 -7 38 2 31 13 -7 12 -44 12 -44 0z"/>
<path d="M3410 2045 c25 -27 40 -32 40 -14 0 16 -27 39 -46 39 -15 0 -14 -4 6
-25z"/>
<path d="M3125 2040 c-3 -5 1 -10 10 -10 9 0 13 5 10 10 -3 6 -8 10 -10 10 -2
0 -7 -4 -10 -10z"/>
<path d="M4587 2043 c-9 -2 -15 -9 -12 -14 9 -13 28 -11 51 6 19 14 19 14 -1
14 -11 -1 -28 -3 -38 -6z"/>
<path d="M3288 2033 c6 -2 18 -2 25 0 6 3 1 5 -13 5 -14 0 -19 -2 -12 -5z"/>
<path d="M3540 2026 c0 -2 7 -7 16 -10 8 -3 12 -2 9 4 -6 10 -25 14 -25 6z"/>
<path d="M4520 2021 c0 -5 9 -7 20 -4 11 3 20 7 20 9 0 2 -9 4 -20 4 -11 0
-20 -4 -20 -9z"/>
<path d="M3221 2001 c-11 -7 -10 -11 7 -20 22 -12 39 0 27 19 -8 12 -16 12
-34 1z"/>
<path d="M3140 1990 c0 -5 4 -10 9 -10 6 0 13 5 16 10 3 6 -1 10 -9 10 -9 0
-16 -4 -16 -10z"/>
<path d="M4705 1990 c3 -5 10 -10 16 -10 5 0 9 5 9 10 0 6 -7 10 -16 10 -8 0
-12 -4 -9 -10z"/>
<path d="M5128 1993 c6 -2 18 -2 25 0 6 3 1 5 -13 5 -14 0 -19 -2 -12 -5z"/>
<path d="M6651 1973 c-1 -18 2 -33 7 -33 12 0 38 20 26 20 -6 0 -16 10 -22 23
-10 21 -11 20 -11 -10z"/>
<path d="M3527 1979 c7 -7 15 -10 18 -7 3 3 -2 9 -12 12 -14 6 -15 5 -6 -5z"/>
<path d="M4590 1979 c0 -5 5 -7 10 -4 6 3 10 8 10 11 0 2 -4 4 -10 4 -5 0 -10
-5 -10 -11z"/>
<path d="M3402 1968 c6 -18 28 -21 28 -4 0 9 -7 16 -16 16 -9 0 -14 -5 -12
-12z"/>
<path d="M3455 1970 c-3 -5 -4 -10 -1 -10 2 0 12 -3 20 -6 12 -5 15 -2 10 10
-7 18 -20 21 -29 6z"/>
<path d="M3235 1947 c-4 -10 -5 -21 -1 -24 10 -10 18 4 13 24 -4 17 -4 17 -12
0z"/>
<path d="M3127 1944 c-8 -8 1 -24 14 -24 5 0 9 7 9 15 0 15 -12 20 -23 9z"/>
<path d="M6710 1930 c0 -5 5 -10 11 -10 5 0 7 5 4 10 -3 6 -8 10 -11 10 -2 0
-4 -4 -4 -10z"/>
<path d="M6795 1930 c-3 -5 -1 -10 4 -10 6 0 11 5 11 10 0 6 -2 10 -4 10 -3 0
-8 -4 -11 -10z"/>
<path d="M4585 1920 c-7 -12 12 -12 40 0 18 8 17 9 -7 9 -15 1 -30 -3 -33 -9z"/>
<path d="M6670 1911 c0 -6 4 -13 10 -16 6 -3 7 1 4 9 -7 18 -14 21 -14 7z"/>
<path d="M3220 1880 c-9 -16 -8 -20 5 -20 8 0 15 9 15 20 0 11 -2 20 -5 20 -2
0 -9 -9 -15 -20z"/>
<path d="M4508 1893 c7 -3 16 -2 19 1 4 3 -2 6 -13 5 -11 0 -14 -3 -6 -6z"/>
<path d="M6707 1893 c-12 -11 -8 -23 8 -23 8 0 15 7 15 15 0 16 -12 20 -23 8z"/>
<path d="M3130 1880 c-12 -8 -10 -10 8 -10 13 0 20 4 17 10 -7 12 -6 12 -25 0z"/>
<path d="M6592 1874 c9 -9 21 -13 27 -10 20 13 11 26 -16 26 -25 0 -26 -1 -11
-16z"/>
<path d="M3400 1871 c0 -10 24 -21 43 -21 7 0 3 7 -7 15 -22 17 -36 19 -36 6z"/>
<path d="M4596 1861 c-3 -4 6 -6 19 -3 14 2 25 6 25 8 0 8 -39 4 -44 -5z"/>
<path d="M6646 1846 c5 -13 54 -29 63 -20 2 2 -2 10 -9 19 -16 19 -61 21 -54
1z"/>
<path d="M5430 1840 c0 -5 5 -10 11 -10 5 0 7 5 4 10 -3 6 -8 10 -11 10 -2 0
-4 -4 -4 -10z"/>
<path d="M6780 1820 c0 -5 5 -10 10 -10 6 0 10 5 10 10 0 6 -4 10 -10 10 -5 0
-10 -4 -10 -10z"/>
<path d="M3200 1765 c0 -8 7 -15 16 -15 14 0 14 3 4 15 -7 8 -14 15 -16 15 -2
0 -4 -7 -4 -15z"/>
<path d="M3344 1772 c9 -14 58 -22 53 -8 -2 6 -16 12 -31 14 -16 2 -26 -1 -22
-6z"/>
<path d="M3155 1760 c-3 -5 -1 -10 4 -10 6 0 11 5 11 10 0 6 -2 10 -4 10 -3 0
-8 -4 -11 -10z"/>
<path d="M4715 1760 c-4 -6 38 -10 119 -10 77 0 126 4 126 10 0 6 -46 10 -119
10 -69 0 -122 -4 -126 -10z"/>
<path d="M3285 1750 c-3 -5 1 -13 10 -16 22 -9 29 1 11 15 -10 8 -16 9 -21 1z"/>
<path d="M3090 1740 c0 -5 7 -10 15 -10 8 0 15 5 15 10 0 6 -7 10 -15 10 -8 0
-15 -4 -15 -10z"/>
<path d="M4585 1740 c-3 -5 -1 -10 4 -10 6 0 11 5 11 10 0 6 -2 10 -4 10 -3 0
-8 -4 -11 -10z"/>
<path d="M3343 1717 c-2 -4 3 -14 11 -23 9 -8 16 -11 16 -5 0 6 11 11 25 11
14 0 25 -3 25 -7 0 -9 57 -43 72 -43 20 0 -11 26 -52 45 -22 10 -38 21 -36 24
2 3 -9 6 -26 6 -16 0 -32 -3 -35 -8z"/>
<path d="M3200 1707 c0 -9 23 -18 64 -25 76 -14 86 -15 86 -3 0 4 -30 16 -67
25 -82 19 -83 19 -83 3z"/>
<path d="M4818 1712 c-54 -1 -98 -6 -98 -11 0 -9 -7 -8 128 -11 57 -1 106 0
109 4 17 17 -24 22 -139 18z"/>
<path d="M3510 1695 c0 -2 10 -10 23 -16 20 -11 21 -11 8 4 -13 16 -31 23 -31
12z"/>
<path d="M3635 1680 c12 -20 85 -50 117 -49 31 1 30 2 -12 12 -25 6 -47 13
-50 16 -10 12 -61 31 -55 21z"/>
<path d="M3560 1660 c0 -14 41 -29 59 -22 9 4 6 9 -10 18 -29 16 -49 18 -49 4z"/>
<path d="M4080 1659 c0 -5 5 -7 10 -4 6 3 10 8 10 11 0 2 -4 4 -10 4 -5 0 -10
-5 -10 -11z"/>
<path d="M4505 1660 c-3 -5 -1 -10 4 -10 6 0 11 5 11 10 0 6 -2 10 -4 10 -3 0
-8 -4 -11 -10z"/>
<path d="M4225 1630 c-3 -5 -21 -10 -38 -11 -18 0 -41 -4 -52 -9 -18 -8 -18
-9 5 -9 33 -1 98 17 105 29 4 6 2 10 -4 10 -5 0 -13 -4 -16 -10z"/>
<path d="M4380 1620 c-8 -5 -25 -10 -37 -10 -13 0 -23 -4 -23 -10 0 -5 6 -10
13 -10 19 1 94 38 77 39 -8 0 -22 -4 -30 -9z"/>
<path d="M4610 1590 c20 -13 40 -13 40 0 0 6 -12 10 -27 10 -22 0 -25 -2 -13
-10z"/>
<path d="M3518 1481 c-15 -3 -37 -14 -48 -23 -12 -11 -27 -15 -37 -11 -17 6
-17 6 -1 -10 9 -9 24 -17 33 -17 9 0 15 -5 13 -12 -7 -20 40 -56 99 -76 64
-22 181 -44 194 -37 4 3 9 1 11 -3 4 -12 98 -24 98 -13 0 12 -26 21 -59 21
-18 0 -35 9 -47 25 -10 14 -27 25 -36 25 -10 0 -18 4 -18 9 0 17 17 21 42 12
29 -11 45 -3 45 21 0 11 -15 20 -43 28 -27 8 -45 20 -53 36 -8 18 -19 24 -41
24 -27 0 -30 -3 -25 -20 4 -11 2 -20 -4 -20 -6 0 -11 6 -11 13 0 6 -4 18 -9
26 -8 12 -12 12 -24 2 -10 -8 -17 -9 -22 -1 -7 11 -15 11 -57 1z"/>
<path d="M3817 1368 c-3 -23 -5 -44 -3 -45 1 -2 17 -4 34 -6 18 -2 35 -7 40
-12 4 -5 0 -4 -8 0 -10 5 -8 1 4 -13 20 -23 85 -29 66 -7 -4 5 -10 24 -13 40
-3 24 -4 23 -3 -7 1 -20 -2 -34 -6 -32 -5 3 -8 23 -8 44 0 21 -6 41 -12 44 -7
4 -2 4 11 2 13 -3 20 -1 15 4 -5 4 -25 11 -45 14 -20 3 -43 8 -51 11 -12 5
-17 -4 -21 -37z m90 -40 c-3 -7 -5 -2 -5 12 0 14 2 19 5 13 2 -7 2 -19 0 -25z"/>
<path d="M4271 1394 c0 -11 3 -14 6 -6 3 7 2 16 -1 19 -3 4 -6 -2 -5 -13z"/>
<path d="M3993 1263 c15 -2 39 -2 55 0 15 2 2 4 -28 4 -30 0 -43 -2 -27 -4z"/>
<path d="M4128 1248 c-8 -4 4 -8 30 -8 23 0 42 2 42 4 0 8 -60 12 -72 4z"/>
<path d="M4326 1252 c-9 -15 30 -25 75 -19 28 3 26 4 -13 5 -26 1 -48 7 -50
14 -3 9 -6 9 -12 0z"/>
</g>
</svg>
