<?xml version="1.0" standalone="no"?>
<!DOCTYPE svg PUBLIC "-//W3C//DTD SVG 20010904//EN"
 "http://www.w3.org/TR/2001/REC-SVG-20010904/DTD/svg10.dtd">
<svg version="1.0" xmlns="http://www.w3.org/2000/svg"
 width="1000.000000pt" height="1000.000000pt" viewBox="0 0 1000.000000 1000.000000"
 preserveAspectRatio="xMidYMid meet">

<g transform="translate(0.000000,1000.000000) scale(0.100000,-0.100000)"
fill="#000000" stroke="none">
<path d="M4720 8857 c-3 -2 -129 -7 -280 -11 -459 -10 -872 -44 -901 -73 -6
-6 -12 -37 -13 -69 -3 -72 -36 -214 -53 -232 -7 -7 -13 -19 -13 -26 0 -7 -8
-28 -17 -47 -21 -41 -32 -242 -14 -253 6 -4 48 13 92 38 45 26 102 55 128 67
55 25 325 115 361 121 l25 4 -27 14 c-19 9 -26 19 -24 34 3 18 10 21 47 21 24
0 50 4 58 9 11 7 13 5 8 -7 -5 -14 -2 -15 20 -6 17 6 30 6 38 -1 11 -9 12 -6
8 11 -6 22 -6 22 18 6 28 -20 65 -22 72 -4 4 10 6 10 6 0 1 -7 6 -13 12 -13 5
0 7 6 3 13 -4 6 2 4 14 -6 11 -10 29 -17 39 -14 13 3 11 5 -7 6 -22 1 -23 3
-8 12 12 7 24 6 38 -1 13 -7 51 -9 103 -5 45 3 253 7 462 10 390 4 557 -5 795
-40 77 -11 116 -13 128 -6 16 10 15 10 -3 11 -13 1 -15 3 -6 7 10 4 8 9 -10
19 l-24 13 27 1 c14 0 28 -5 30 -12 3 -7 14 -9 31 -4 21 5 27 12 27 34 0 20 3
23 9 12 6 -8 8 -17 6 -20 -5 -8 58 -5 71 3 6 3 30 -1 55 -9 42 -15 44 -15 58
6 l14 21 11 -23 c8 -15 21 -23 38 -23 15 0 31 -4 36 -10 15 -16 -5 -54 -33
-65 -15 -6 -23 -15 -20 -20 4 -7 -2 -9 -19 -4 -16 4 -26 2 -26 -5 0 -6 7 -11
15 -11 8 0 23 -4 33 -9 9 -5 35 -14 57 -21 22 -6 86 -34 142 -61 88 -42 131
-68 214 -128 18 -13 19 -10 19 102 0 115 -12 177 -44 237 -28 51 -58 167 -61
239 -2 40 -6 75 -9 78 -2 2 -53 13 -112 24 -114 20 -288 35 -514 44 -74 3
-159 8 -189 10 -75 7 -935 18 -941 12z m-320 -37 c0 -5 -2 -10 -4 -10 -3 0 -8
5 -11 10 -3 6 -1 10 4 10 6 0 11 -4 11 -10z m47 -3 c0 -7 -6 -18 -13 -24 -9
-9 -11 -6 -10 13 1 24 23 35 23 11z m-287 -7 c0 -5 -2 -10 -4 -10 -3 0 -8 5
-11 10 -3 6 -1 10 4 10 6 0 11 -4 11 -10z m37 -3 c-4 -10 2 -13 19 -9 13 2 27
8 30 13 3 5 12 9 21 9 12 0 13 -3 4 -14 -14 -17 1 -56 22 -56 7 0 18 -4 26 -9
11 -7 10 -13 -4 -34 -13 -20 -14 -30 -5 -46 6 -13 7 -21 1 -21 -5 0 -12 -8
-14 -17 -3 -10 -5 -1 -6 19 -1 42 -12 52 -59 54 -18 0 -28 -2 -22 -6 7 -5 6
-11 -5 -20 -13 -11 -18 -11 -24 -1 -6 8 -12 3 -21 -18 -12 -30 -30 -42 -30
-21 0 6 -8 10 -17 10 -15 0 -14 -2 3 -14 10 -8 16 -18 12 -22 -5 -4 -17 3 -27
15 -11 12 -23 22 -28 21 -4 0 -10 10 -11 22 -2 13 -13 33 -24 44 -11 12 -15
25 -10 28 5 3 13 20 17 38 6 29 8 30 14 13 5 -11 4 -23 -1 -26 -5 -3 -6 -14
-2 -25 5 -16 4 -17 -6 -4 -10 13 -11 13 -7 0 2 -8 11 -14 19 -14 12 1 15 -7
12 -40 -2 -22 -1 -35 2 -28 3 6 10 10 14 7 5 -3 12 0 16 6 4 8 3 9 -4 5 -8 -5
-11 0 -8 16 3 13 5 31 5 41 1 15 5 16 21 7 14 -8 26 -7 42 1 18 10 20 9 15 -5
-4 -9 -2 -16 4 -16 16 0 23 31 8 41 -8 5 -15 4 -17 -1 -2 -6 -8 -8 -13 -4 -5
3 -9 0 -9 -7 0 -7 -3 -9 -6 -6 -4 4 -1 14 7 24 8 9 9 14 2 10 -6 -4 -14 -3
-18 3 -4 6 -11 8 -16 5 -5 -3 -6 1 -3 9 4 11 14 14 30 10 17 -4 26 -1 30 10 3
9 11 16 16 16 6 0 8 -6 5 -13z m169 -1 c15 -8 32 -12 37 -9 6 3 7 1 3 -6 -4
-6 -15 -9 -24 -7 -13 4 -17 -1 -18 -19 -1 -14 2 -25 7 -25 5 0 9 -4 9 -10 0
-5 -8 -7 -17 -4 -15 5 -15 4 -3 -5 11 -7 20 -5 34 7 10 9 17 13 14 7 -2 -5
-10 -25 -17 -42 -7 -18 -18 -33 -23 -33 -7 0 -6 5 1 13 8 11 6 18 -9 32 -21
19 -27 51 -10 57 6 2 4 14 -5 31 -16 31 -16 32 21 13z m1486 3 c11 -6 23 -7
27 -3 6 8 54 10 143 6 36 -2 37 -2 23 -28 -10 -20 -11 -32 -3 -50 11 -25 32
-32 43 -14 3 5 13 6 21 3 16 -6 15 -24 -1 -68 -5 -16 -5 -17 4 -5 9 13 11 13
11 -3 0 -15 3 -16 21 -6 21 11 21 11 3 -14 -11 -14 -23 -22 -29 -19 -5 4 -12
7 -15 8 -3 0 -13 4 -23 9 -22 9 -29 3 -43 -38 l-11 -32 -6 42 c-7 40 -9 42
-32 33 -21 -8 -28 -4 -54 27 -27 33 -32 35 -53 24 -13 -6 -15 -9 -6 -7 12 4
15 1 11 -10 -4 -12 6 -18 28 -16 3 1 3 -12 1 -28 -3 -23 0 -31 14 -36 11 -3
27 -10 37 -15 10 -5 21 -8 25 -6 4 2 16 -6 27 -18 19 -20 19 -22 4 -39 -15
-15 -17 -15 -23 -1 -3 9 -2 13 4 10 21 -13 8 11 -15 28 -24 17 -25 17 -26 0
-1 -10 -1 -21 0 -25 0 -5 -4 -8 -10 -8 -7 0 -9 10 -5 25 5 18 1 27 -13 34 -22
12 -37 -9 -18 -28 6 -6 7 -11 1 -11 -5 0 -15 5 -22 12 -9 9 -12 9 -12 0 0 -7
-5 -12 -12 -12 -9 0 -9 3 0 12 7 7 12 23 13 38 l1 25 8 -25 c8 -24 8 -25 9 -2
1 24 -5 35 -57 89 -18 20 -25 32 -16 29 12 -4 15 -2 11 9 -4 8 -2 17 3 20 22
13 9 24 -16 14 -24 -8 -25 -8 -14 6 7 8 18 15 25 15 13 0 29 29 21 37 -2 2
-21 6 -42 9 -21 3 -40 7 -43 9 -9 10 61 4 81 -6z m277 -22 c21 -1 21 -2 5 -14
-10 -7 -22 -19 -27 -25 -6 -9 -7 -5 -4 10 3 12 1 22 -4 22 -5 0 -9 -9 -9 -20
0 -11 -4 -20 -9 -20 -6 0 -9 9 -8 20 1 11 5 20 9 20 4 0 8 8 8 18 0 13 2 14 9
4 4 -7 18 -14 30 -15z m-1806 -7 c5 -21 -1 -24 -27 -14 -13 5 -14 9 -5 20 16
19 26 17 32 -6z m190 13 c-7 -2 -19 -2 -25 0 -7 3 -2 5 12 5 14 0 19 -2 13 -5z
m-83 -97 c-6 -5 -13 -6 -17 -1 -5 4 -3 9 3 12 6 2 9 18 8 36 l-3 32 9 -35 c5
-21 5 -39 0 -44z m38 57 c-10 -2 -18 -9 -18 -15 0 -6 -3 -9 -6 -5 -10 10 6 27
24 26 15 -1 15 -2 0 -6z m77 -23 c3 -5 1 -10 -4 -10 -6 0 -11 5 -11 10 0 6 2
10 4 10 3 0 8 -4 11 -10z m-60 -10 c3 -5 1 -10 -4 -10 -6 0 -11 5 -11 10 0 6
2 10 4 10 3 0 8 -4 11 -10z m1071 -35 c-1 -29 -16 -35 -16 -7 0 16 8 32 16 32
1 0 1 -11 0 -25z m-1216 5 c0 -5 -4 -10 -10 -10 -5 0 -10 5 -10 10 0 6 5 10
10 10 6 0 10 -4 10 -10z m1440 6 c0 -3 -4 -8 -10 -11 -5 -3 -10 -1 -10 4 0 6
5 11 10 11 6 0 10 -2 10 -4z m-1774 -38 c-3 -13 -5 -25 -5 -27 -1 -2 -8 2 -16
9 -12 10 -13 16 -4 26 17 21 29 17 25 -8z m250 1 c3 -6 1 -16 -6 -22 -10 -9
-11 -9 -5 3 8 13 7 13 -8 1 -15 -11 -17 -11 -17 1 0 27 23 38 36 17z m-76 -44
c-10 -19 -16 -22 -24 -14 -8 8 -7 13 2 16 6 3 12 14 12 26 0 16 3 18 12 9 9
-9 8 -17 -2 -37z m1620 35 c-12 -8 -10 -10 10 -10 23 -1 23 -2 8 -14 -10 -7
-15 -16 -11 -19 3 -4 1 -7 -5 -7 -13 0 -26 36 -17 50 3 5 12 10 18 10 7 0 6
-4 -3 -10z m-1440 -20 c0 -5 -4 -10 -10 -10 -5 0 -10 5 -10 10 0 6 5 10 10 10
6 0 10 -4 10 -10z m1740 -46 c0 -8 -4 -12 -10 -9 -5 3 -10 10 -10 16 0 5 5 9
10 9 6 0 10 -7 10 -16z m-1965 -22 c-3 -3 -11 0 -18 7 -9 10 -8 11 6 5 10 -3
15 -9 12 -12z m45 -2 c0 -5 -2 -10 -4 -10 -3 0 -8 5 -11 10 -3 6 -1 10 4 10 6
0 11 -4 11 -10z m248 -15 c-3 -3 -9 2 -12 12 -6 14 -5 15 5 6 7 -7 10 -15 7
-18z m-828 -25 c0 -5 -4 -10 -10 -10 -5 0 -10 5 -10 10 0 6 5 10 10 10 6 0 10
-4 10 -10z m2475 -30 c3 -5 1 -10 -4 -10 -6 0 -11 5 -11 10 0 6 2 10 4 10 3 0
8 -4 11 -10z m-1950 -10 c3 -5 1 -10 -4 -10 -6 0 -11 5 -11 10 0 6 2 10 4 10
3 0 8 -4 11 -10z"/>
<path d="M4255 8739 c-11 -4 -14 -8 -7 -8 7 -1 11 -5 8 -10 -9 -14 28 -19 41
-6 15 16 -16 34 -42 24z"/>
<path d="M5971 8792 c-1 -8 -8 -11 -20 -7 -12 4 -21 0 -25 -11 -5 -13 -9 -14
-21 -4 -8 7 -15 9 -15 4 0 -5 -4 -3 -9 5 -6 10 -11 5 -16 -19 -6 -26 -3 -36
11 -47 26 -19 33 -16 40 13 l7 27 14 -27 c10 -19 19 -25 32 -21 12 3 21 0 25
-10 8 -21 19 -19 34 6 12 19 12 20 -10 13 -20 -6 -21 -5 -10 8 10 13 9 16 -12
20 -18 4 -26 0 -28 -11 -3 -12 -7 -11 -17 8 -7 13 -9 21 -4 18 15 -10 35 10
30 29 -3 11 -5 13 -6 6z m-81 -54 c0 -16 -3 -19 -11 -11 -6 6 -8 16 -5 22 11
17 16 13 16 -11z"/>
<path d="M6001 8782 c-7 -14 -6 -18 9 -19 10 -1 20 7 23 18 7 25 -19 26 -32 1z"/>
<path d="M5920 8708 c0 -9 5 -20 11 -23 17 -11 20 0 4 21 -13 17 -14 17 -15 2z"/>
<path d="M6041 8674 c0 -11 3 -14 6 -6 3 7 2 16 -1 19 -3 4 -6 -2 -5 -13z"/>
<path d="M5940 8660 c0 -5 5 -10 10 -10 6 0 10 5 10 10 0 6 -4 10 -10 10 -5 0
-10 -4 -10 -10z"/>
<path d="M5995 8427 c4 -8 2 -18 -3 -21 -6 -3 -12 1 -16 9 -3 8 -12 15 -20 15
-18 0 -30 -30 -16 -44 7 -7 10 -6 10 2 0 7 5 12 11 12 6 0 9 -7 5 -15 -4 -11
1 -15 17 -15 18 0 19 2 7 10 -13 8 -11 11 8 16 26 7 28 17 7 34 -13 11 -14 10
-10 -3z"/>
<path d="M6194 8432 c3 -6 -1 -18 -10 -26 -13 -13 -13 -16 -1 -16 18 0 29 37
15 47 -6 3 -8 1 -4 -5z"/>
<path d="M4109 8409 l-24 -22 34 7 c18 3 38 6 43 6 6 0 5 7 -2 15 -16 20 -22
19 -51 -6z"/>
<path d="M4208 8423 c7 -3 16 -2 19 1 4 3 -2 6 -13 5 -11 0 -14 -3 -6 -6z"/>
<path d="M5870 8420 c-13 -9 -13 -10 0 -10 13 0 13 -1 0 -10 -11 -7 -7 -10 18
-10 26 0 33 4 30 17 -4 21 -27 27 -48 13z"/>
<path d="M4785 8404 c-11 -1 -102 -8 -203 -15 -126 -8 -188 -16 -200 -26 -15
-12 -10 -13 38 -9 30 3 159 11 285 17 329 17 689 2 1014 -41 80 -11 147 -17
150 -15 4 5 -16 7 -22 3 -2 -2 -11 3 -19 9 -20 17 -233 51 -430 68 -139 12
-550 19 -613 9z"/>
<path d="M4320 8351 c0 -5 9 -7 20 -4 11 3 20 7 20 9 0 2 -9 4 -20 4 -11 0
-20 -4 -20 -9z"/>
<path d="M4240 8340 c0 -5 7 -10 16 -10 8 0 12 5 9 10 -3 6 -10 10 -16 10 -5
0 -9 -4 -9 -10z"/>
<path d="M4190 8329 c0 -5 5 -7 10 -4 6 3 10 8 10 11 0 2 -4 4 -10 4 -5 0 -10
-5 -10 -11z"/>
<path d="M5885 8310 c-3 -5 1 -10 9 -10 9 0 16 5 16 10 0 6 -4 10 -9 10 -6 0
-13 -4 -16 -10z"/>
<path d="M5243 8293 c9 -2 23 -2 30 0 6 3 -1 5 -18 5 -16 0 -22 -2 -12 -5z"/>
<path d="M5958 8293 c7 -3 16 -2 19 1 4 3 -2 6 -13 5 -11 0 -14 -3 -6 -6z"/>
<path d="M3828 8255 c-48 -14 -124 -39 -170 -57 -87 -34 -229 -123 -237 -148
-3 -11 3 -10 25 5 95 63 243 131 424 194 102 36 79 39 -42 6z"/>
<path d="M6098 8263 c7 -3 16 -2 19 1 4 3 -2 6 -13 5 -11 0 -14 -3 -6 -6z"/>
<path d="M6195 8230 c2 -4 42 -22 87 -40 46 -18 88 -37 95 -42 7 -5 17 -7 23
-3 5 3 10 2 10 -4 0 -6 17 -19 38 -30 22 -11 60 -36 85 -55 46 -35 59 -37 34
-5 -14 17 -83 66 -140 98 -79 44 -245 102 -232 81z"/>
<path d="M4723 8197 c-1 -17 -5 -42 -8 -54 -5 -21 -2 -23 29 -23 25 0 38 6 46
19 10 20 4 50 -11 52 -5 1 -15 2 -21 3 -7 0 -13 7 -13 15 0 30 -20 19 -22 -12z
m49 -23 c12 -11 -5 -44 -22 -44 -13 0 -16 6 -12 25 4 23 21 33 34 19z"/>
<path d="M5127 8193 c12 -74 17 -80 40 -43 l21 33 7 -32 c3 -17 10 -31 13 -31
4 0 18 20 31 45 13 25 28 45 32 45 5 0 9 5 9 10 0 20 -21 9 -39 -20 -19 -33
-31 -30 -31 7 0 30 -14 29 -28 -2 -6 -14 -17 -25 -23 -25 -7 0 -9 9 -5 25 5
20 3 25 -13 25 -17 0 -19 -5 -14 -37z"/>
<path d="M5404 8198 c-1 -13 -5 -38 -9 -55 -5 -22 -4 -33 4 -33 6 0 11 8 11
18 1 13 5 11 23 -10 30 -37 41 -35 22 3 -15 29 -15 32 2 45 10 7 13 14 6 14
-6 0 -15 -4 -18 -10 -13 -21 -24 -9 -18 20 4 22 2 30 -8 30 -8 0 -14 -10 -15
-22z"/>
<path d="M4826 8187 c-26 -19 -18 -61 13 -65 13 -2 28 2 35 8 8 9 6 11 -11 6
-12 -4 -24 -3 -27 3 -3 5 5 12 19 15 16 4 25 13 25 26 0 23 -27 27 -54 7z m33
-18 c-22 -14 -33 -10 -19 6 7 8 17 12 22 9 6 -4 5 -10 -3 -15z"/>
<path d="M4902 8188 c-34 -34 4 -83 45 -59 15 9 14 11 -12 11 l-30 2 28 10
c34 12 38 48 4 48 -13 0 -28 -5 -35 -12z m33 -17 c-3 -6 -11 -11 -17 -11 -6 0
-6 6 2 15 14 17 26 13 15 -4z"/>
<path d="M4982 8163 c4 -43 24 -56 23 -16 0 21 5 28 19 28 11 0 21 6 24 13 2
8 -8 12 -33 12 -36 0 -36 -1 -33 -37z"/>
<path d="M4602 8150 c-2 -43 17 -57 20 -15 0 14 1 30 2 37 1 6 -4 13 -10 15
-6 2 -11 -13 -12 -37z"/>
<path d="M4640 8181 c0 -6 5 -13 10 -16 6 -3 10 1 10 9 0 9 -4 16 -10 16 -5 0
-10 -4 -10 -9z"/>
<path d="M5272 8178 c-17 -17 -15 -55 3 -62 8 -3 25 -1 37 4 22 8 22 9 -4 9
-19 1 -25 5 -23 19 2 9 4 20 4 25 1 4 6 7 12 7 6 0 9 -7 5 -15 -3 -8 -2 -15 3
-15 13 0 32 26 24 33 -11 11 -48 8 -61 -5z"/>
<path d="M4554 8160 c0 -24 20 -21 24 3 2 9 -3 17 -10 17 -8 0 -14 -9 -14 -20z"/>
<path d="M5490 8164 c0 -11 -3 -29 -6 -41 -9 -34 12 -28 25 7 13 39 32 39 29
-1 -2 -18 2 -33 7 -36 6 -2 11 14 12 37 2 33 -1 40 -17 40 -10 0 -25 3 -34 6
-11 4 -16 0 -16 -12z"/>
<path d="M4445 8160 c-3 -6 3 -22 14 -35 13 -18 22 -22 27 -14 4 7 -1 18 -12
26 -10 8 -18 19 -16 24 3 12 -5 12 -13 -1z"/>
<path d="M4514 8144 c-9 -34 8 -51 38 -36 23 11 23 11 1 11 -17 1 -21 6 -18
26 3 33 -13 32 -21 -1z"/>
<path d="M4352 8140 c0 -14 2 -19 5 -12 2 6 2 18 0 25 -3 6 -5 1 -5 -13z"/>
<path d="M4390 8125 c0 -46 15 -46 16 0 0 19 -3 35 -8 35 -4 0 -8 -16 -8 -35z"/>
<path d="M5592 8148 c-16 -16 -15 -43 2 -57 12 -10 14 -6 13 21 -2 23 3 33 16
36 19 4 25 -32 7 -43 -15 -9 -12 -25 4 -19 19 7 28 32 21 55 -7 22 -45 25 -63
7z"/>
<path d="M4310 8131 c-5 -11 -7 -27 -4 -35 7 -17 39 -22 48 -7 4 5 -4 7 -15 4
-19 -5 -21 -3 -17 25 5 37 3 40 -12 13z"/>
<path d="M5040 8135 c0 -9 5 -15 11 -13 6 2 11 8 11 13 0 5 -5 11 -11 13 -6 2
-11 -4 -11 -13z"/>
<path d="M5680 8115 c0 -19 4 -35 9 -35 13 0 18 20 13 47 -7 36 -22 27 -22
-12z"/>
<path d="M4148 8100 c-2 -22 0 -40 4 -40 5 0 8 18 8 40 0 22 -2 40 -4 40 -2 0
-6 -18 -8 -40z"/>
<path d="M5720 8130 c-11 -7 -12 -12 -4 -17 7 -5 13 -16 15 -26 3 -14 10 -10
33 20 27 35 28 36 4 15 -26 -24 -26 -24 -30 -3 -2 16 -7 18 -18 11z"/>
<path d="M4196 8103 c7 -31 12 -38 18 -32 7 7 -6 59 -15 59 -5 0 -6 -12 -3
-27z"/>
<path d="M4238 8124 c-4 -5 0 -20 8 -34 7 -14 13 -18 13 -10 -1 24 -15 54 -21
44z"/>
<path d="M5933 8118 c-6 -7 -13 -29 -16 -48 -6 -34 -5 -34 14 9 20 44 20 62 2
39z"/>
<path d="M4430 8110 c0 -5 5 -10 10 -10 6 0 10 5 10 10 0 6 -4 10 -10 10 -5 0
-10 -4 -10 -10z"/>
<path d="M3971 8094 c0 -11 3 -14 6 -6 3 7 2 16 -1 19 -3 4 -6 -2 -5 -13z"/>
<path d="M5827 8096 c-3 -8 0 -21 6 -30 10 -14 12 -12 12 14 0 32 -9 40 -18
16z"/>
<path d="M3923 8050 c0 -30 2 -43 4 -27 2 15 2 39 0 55 -2 15 -4 2 -4 -28z"/>
<path d="M4022 8075 c0 -16 2 -22 5 -12 2 9 2 23 0 30 -3 6 -5 -1 -5 -18z"/>
<path d="M4058 8070 c-3 -19 0 -30 7 -30 7 0 10 11 7 30 -2 17 -5 30 -7 30 -2
0 -5 -13 -7 -30z"/>
<path d="M4100 8075 c0 -14 4 -25 9 -25 4 0 6 11 3 25 -2 14 -6 25 -8 25 -2 0
-4 -11 -4 -25z"/>
<path d="M5881 8093 c0 -6 -4 -20 -7 -30 -5 -14 -4 -15 5 -7 7 7 11 20 8 30
-3 11 -5 14 -6 7z"/>
<path d="M6010 8066 c0 -8 -3 -23 -6 -33 -3 -10 2 -7 10 7 18 30 20 40 6 40
-5 0 -10 -6 -10 -14z"/>
<path d="M3975 8045 c0 -13 3 -21 8 -18 4 2 7 10 7 18 0 8 -3 16 -7 18 -5 3
-8 -5 -8 -18z"/>
<path d="M6051 8054 c0 -11 3 -14 6 -6 3 7 2 16 -1 19 -3 4 -6 -2 -5 -13z"/>
<path d="M6203 8024 c-18 -56 -16 -77 3 -34 8 19 14 43 12 55 -2 14 -7 7 -15
-21z"/>
<path d="M3820 8027 c0 -7 9 -18 20 -25 11 -7 20 -9 20 -4 0 4 -9 15 -20 25
-14 11 -20 13 -20 4z"/>
<path d="M4927 8023 c-20 -74 -15 -94 20 -74 10 6 12 11 6 11 -15 0 -17 36 -3
45 10 6 2 35 -10 35 -5 0 -11 -8 -13 -17z"/>
<path d="M6085 8027 c-4 -10 -5 -21 -1 -24 10 -10 18 4 13 24 -4 17 -4 17 -12
0z"/>
<path d="M3780 7995 c0 -19 4 -35 8 -35 5 0 8 16 8 35 -1 46 -16 46 -16 0z"/>
<path d="M4508 7978 c-4 -53 -3 -66 7 -56 11 11 18 108 7 108 -5 0 -12 -24
-14 -52z"/>
<path d="M6127 8011 c-4 -17 -3 -21 5 -13 5 5 8 16 6 23 -3 8 -7 3 -11 -10z"/>
<path d="M3745 7988 c0 -17 5 -33 11 -35 6 -2 8 10 6 32 -5 44 -18 46 -17 3z"/>
<path d="M4840 8006 c-9 -12 -7 -17 9 -28 27 -16 27 -31 1 -23 -12 4 -20 2
-20 -5 0 -6 12 -10 28 -8 20 2 27 9 27 25 0 12 4 25 8 29 3 4 4 11 1 15 -8 14
-40 10 -54 -5z m40 -6 c0 -5 -4 -10 -10 -10 -5 0 -10 5 -10 10 0 6 5 10 10 10
6 0 10 -4 10 -10z"/>
<path d="M4983 8005 c-3 -9 2 -22 13 -30 11 -7 15 -17 11 -21 -4 -5 -12 -2
-17 6 -5 8 -12 11 -16 7 -14 -13 14 -30 39 -23 21 5 25 12 25 41 0 30 -3 35
-24 35 -14 0 -27 -7 -31 -15z m42 -5 c3 -5 2 -10 -4 -10 -5 0 -13 5 -16 10 -3
6 -2 10 4 10 5 0 13 -4 16 -10z"/>
<path d="M5121 8006 c-10 -11 -8 -17 9 -29 16 -11 18 -17 9 -23 -7 -4 -15 -2
-17 4 -2 7 -8 10 -13 6 -16 -9 1 -24 27 -24 31 0 44 28 21 45 -10 7 -17 16
-17 20 0 4 6 2 14 -4 9 -7 17 -8 20 -3 3 6 -1 13 -10 16 -23 9 -30 8 -43 -8z"/>
<path d="M5213 8008 c-29 -14 -30 -53 -4 -68 25 -13 27 -13 45 6 21 20 21 60
0 68 -9 3 -16 6 -17 5 -1 0 -12 -5 -24 -11z m37 -28 c0 -11 -7 -23 -15 -27
-21 -8 -28 1 -20 26 8 27 35 27 35 1z"/>
<path d="M6228 7984 c-4 -32 -3 -34 9 -18 15 21 17 40 4 48 -5 3 -11 -10 -13
-30z"/>
<path d="M3692 7998 c-7 -7 -12 -25 -12 -40 0 -37 37 -40 46 -3 11 44 -8 69
-34 43z m24 -44 c-3 -8 -10 -14 -16 -14 -11 0 -14 43 -3 54 10 10 26 -23 19
-40z"/>
<path d="M4666 7994 c-18 -17 -20 -32 -7 -53 10 -16 61 -7 61 10 0 8 -5 7 -15
-1 -20 -16 -39 -1 -33 26 3 13 11 18 26 17 12 -2 22 2 22 7 0 16 -37 12 -54
-6z"/>
<path d="M4746 7995 c-24 -24 -18 -45 17 -58 22 -8 60 27 55 51 -4 23 -51 27
-72 7z m44 -20 c0 -16 -6 -25 -15 -25 -9 0 -15 9 -15 25 0 16 6 25 15 25 9 0
15 -9 15 -25z"/>
<path d="M5344 7986 c0 -12 -2 -27 -5 -35 -2 -7 2 -16 9 -18 7 -3 12 3 12 14
0 19 18 43 32 43 4 0 3 -12 -2 -26 -12 -31 -12 -34 -1 -34 12 0 35 59 27 68
-4 3 -21 7 -39 7 -26 1 -32 -2 -33 -19z"/>
<path d="M5672 7958 c-6 -28 -10 -53 -8 -56 8 -7 36 57 36 83 0 42 -15 28 -28
-27z"/>
<path d="M4282 7943 c1 -46 2 -52 8 -28 11 43 11 85 1 85 -5 0 -9 -26 -9 -57z"/>
<path d="M4547 7993 c7 -5 11 -21 10 -35 -1 -15 2 -27 7 -27 5 -1 10 14 10 31
0 25 -5 34 -20 36 -13 2 -15 0 -7 -5z"/>
<path d="M5433 7960 c-2 -27 2 -40 10 -40 8 0 13 15 14 40 1 25 -2 40 -10 40
-7 0 -13 -17 -14 -40z"/>
<path d="M5492 7960 c-2 -33 1 -40 17 -40 11 0 26 -3 35 -6 10 -4 15 0 14 13
-1 10 2 28 6 41 11 33 -10 27 -24 -8 -16 -39 -31 -38 -28 1 2 18 -2 34 -8 36
-6 2 -11 -13 -12 -37z"/>
<path d="M6266 7984 c-3 -9 -6 -23 -5 -32 0 -12 3 -10 10 6 12 31 34 23 34
-13 0 -19 7 -30 21 -36 19 -6 23 -3 28 23 8 38 -1 50 -10 14 -3 -14 -10 -26
-15 -26 -13 0 -11 34 4 49 10 11 9 13 -3 9 -8 -3 -21 1 -28 9 -18 17 -29 16
-36 -3z"/>
<path d="M3815 7980 c3 -5 8 -10 11 -10 2 0 4 5 4 10 0 6 -5 10 -11 10 -5 0
-7 -4 -4 -10z"/>
<path d="M4460 7980 c0 -5 5 -10 10 -10 6 0 10 5 10 10 0 6 -4 10 -10 10 -5 0
-10 -4 -10 -10z"/>
<path d="M3647 7948 c6 -35 11 -44 17 -37 7 8 -6 69 -15 69 -5 0 -6 -15 -2
-32z"/>
<path d="M4380 7945 c0 -19 3 -35 8 -35 4 0 7 16 7 35 0 19 -3 35 -7 35 -4 0
-8 -16 -8 -35z"/>
<path d="M4426 7964 c-10 -25 -7 -41 7 -47 10 -4 13 5 13 29 -1 36 -10 44 -20
18z"/>
<path d="M5592 7968 c-20 -20 -14 -56 9 -63 12 -4 26 -2 32 4 8 8 5 11 -11 11
-23 0 -28 15 -12 40 9 13 11 13 19 0 11 -16 27 -7 16 9 -8 15 -38 14 -53 -1z"/>
<path d="M3617 7933 c8 -52 13 -54 13 -5 0 23 -4 42 -9 42 -6 0 -7 -17 -4 -37z"/>
<path d="M4323 7935 c-1 -19 3 -35 8 -35 5 0 9 16 9 35 0 46 -14 46 -17 0z"/>
<path d="M5712 7930 c-1 -22 2 -40 8 -40 5 0 11 11 12 25 0 14 1 30 2 37 1 6
-3 13 -9 15 -5 1 -11 -15 -13 -37z"/>
<path d="M5817 7929 c-11 -29 -14 -46 -7 -53 7 -7 10 -3 10 11 0 12 6 28 13
35 8 8 11 22 7 32 -5 14 -10 9 -23 -25z"/>
<path d="M3515 7950 c-3 -5 -1 -10 4 -10 6 0 11 5 11 10 0 6 -2 10 -4 10 -3 0
-8 -4 -11 -10z"/>
<path d="M3588 7953 c-2 -5 -1 -24 2 -43 l6 -35 5 38 c5 34 -4 59 -13 40z"/>
<path d="M6376 7929 c-3 -18 -4 -34 -2 -36 2 -3 7 10 11 27 4 17 5 34 2 36 -2
3 -7 -10 -11 -27z"/>
<path d="M4166 7923 c4 -16 11 -32 17 -38 6 -7 8 -2 3 15 -3 14 -6 31 -6 38 0
6 -5 12 -10 12 -6 0 -8 -11 -4 -27z"/>
<path d="M4206 7942 c-4 -7 0 -22 8 -34 17 -24 21 -9 7 26 -5 14 -10 16 -15 8z"/>
<path d="M3542 7928 c-16 -16 -16 -68 1 -68 25 0 34 16 30 48 -6 34 -12 39
-31 20z m15 -45 c-4 -17 -4 -17 -12 0 -4 9 -4 25 0 35 8 16 8 16 12 0 3 -10 3
-26 0 -35z"/>
<path d="M6011 7924 c0 -11 3 -14 6 -6 3 7 2 16 -1 19 -3 4 -6 -2 -5 -13z"/>
<path d="M6403 7903 c-1 -33 0 -35 7 -13 11 34 12 50 2 50 -4 0 -8 -17 -9 -37z"/>
<path d="M6465 7906 c-4 -20 -11 -39 -16 -42 -14 -8 -11 30 4 45 10 11 9 13
-2 9 -23 -7 -32 -45 -15 -63 24 -24 31 -18 39 31 8 55 -1 72 -10 20z"/>
<path d="M3501 7870 l2 -65 7 55 c4 30 3 59 -1 65 -5 5 -8 -19 -8 -55z"/>
<path d="M5872 7918 c-14 -14 -16 -48 -2 -48 5 0 7 6 4 14 -3 7 2 21 11 30 9
9 13 16 8 16 -5 0 -14 -5 -21 -12z"/>
<path d="M5914 7922 c3 -6 1 -23 -4 -38 -9 -24 -9 -25 5 -14 18 15 20 46 3 56
-6 4 -8 3 -4 -4z"/>
<path d="M4055 7910 c-3 -5 -1 -10 4 -10 6 0 11 5 11 10 0 6 -2 10 -4 10 -3 0
-8 -4 -11 -10z"/>
<path d="M3978 7881 c-8 -29 -3 -41 20 -41 11 0 13 3 6 8 -7 4 -14 18 -16 32
l-3 25 -7 -24z"/>
<path d="M4050 7870 c0 -11 2 -20 4 -20 2 0 6 9 9 20 3 11 1 20 -4 20 -5 0 -9
-9 -9 -20z"/>
<path d="M3461 7862 c-1 -13 -5 -20 -11 -17 -5 3 -10 -3 -10 -14 0 -11 5 -23
11 -26 6 -4 9 -1 8 6 -1 8 1 22 5 31 5 10 6 23 3 30 -3 7 -6 3 -6 -10z"/>
<path d="M3880 7864 c0 -10 5 -26 10 -34 8 -11 9 -7 4 15 -8 37 -14 45 -14 19z"/>
<path d="M3918 7874 c-4 -5 0 -18 8 -29 15 -20 17 -12 5 19 -4 11 -10 15 -13
10z"/>
<path d="M6037 7861 c-4 -17 -3 -21 5 -13 5 5 8 16 6 23 -3 8 -7 3 -11 -10z"/>
<path d="M6080 7865 c0 -8 2 -15 4 -15 2 0 6 7 10 15 3 8 1 15 -4 15 -6 0 -10
-7 -10 -15z"/>
<path d="M6505 7837 c-10 -42 -10 -43 11 -39 30 5 38 42 16 64 -17 17 -18 16
-27 -25z m28 -7 c-3 -11 -10 -20 -15 -20 -6 0 -7 7 -4 16 3 9 6 20 6 25 0 6 4
8 9 5 5 -3 7 -15 4 -26z"/>
<path d="M3844 7850 c0 -13 4 -16 10 -10 7 7 7 13 0 20 -6 6 -10 3 -10 -10z"/>
<path d="M5220 7850 c0 -13 -7 -20 -20 -20 -24 0 -57 -47 -43 -61 6 -6 26 -12
46 -15 31 -3 35 -1 34 19 0 12 3 39 7 60 7 31 5 37 -8 37 -9 0 -16 -8 -16 -20z
m0 -36 c0 -13 -21 -44 -30 -44 -11 0 -14 33 -3 43 8 8 33 9 33 1z"/>
<path d="M5991 7854 c0 -11 3 -14 6 -6 3 7 2 16 -1 19 -3 4 -6 -2 -5 -13z"/>
<path d="M6142 7851 c-17 -10 -12 -53 6 -57 7 -1 8 0 2 3 -14 7 -13 36 2 51
14 14 9 15 -10 3z"/>
<path d="M3690 7798 c3 -41 5 -46 8 -20 3 32 15 41 27 22 3 -5 0 -20 -6 -32
-11 -21 -11 -22 5 -9 22 19 18 67 -6 65 -10 -1 -18 4 -18 12 0 8 -3 14 -7 14
-5 0 -6 -24 -3 -52z"/>
<path d="M3770 7844 c-12 -4 -15 -14 -12 -39 5 -44 17 -46 17 -2 0 20 5 31 13
30 6 -2 12 2 12 7 0 10 -4 11 -30 4z"/>
<path d="M3814 7835 c-8 -19 2 -45 16 -45 8 0 7 6 0 20 -6 11 -8 25 -5 30 3 6
4 10 0 10 -3 0 -8 -7 -11 -15z"/>
<path d="M4560 7839 c0 -5 5 -7 10 -4 6 3 10 8 10 11 0 2 -4 4 -10 4 -5 0 -10
-5 -10 -11z"/>
<path d="M6166 7833 c-6 -14 -5 -15 5 -6 7 7 10 15 7 18 -3 3 -9 -2 -12 -12z"/>
<path d="M4879 7835 c0 0 -2 -27 -4 -60 -4 -51 -3 -57 8 -39 6 12 17 19 24 17
15 -5 53 32 53 51 0 24 -17 31 -81 31z m49 -37 c-4 -27 -28 -36 -28 -10 0 20
8 32 22 32 5 0 8 -10 6 -22z"/>
<path d="M4983 7799 c-2 -27 2 -39 11 -39 8 0 14 6 13 13 -1 37 4 45 24 40 16
-4 20 -2 17 8 -2 7 -18 14 -34 15 -27 1 -29 -1 -31 -37z"/>
<path d="M5070 7820 c-24 -24 -25 -34 -4 -54 19 -20 24 -20 52 0 24 17 29 43
10 62 -17 17 -35 15 -58 -8z m45 -10 c7 -12 -12 -40 -26 -40 -10 0 -12 34 -2
43 9 10 21 9 28 -3z"/>
<path d="M6200 7809 c0 -16 4 -28 9 -25 8 5 3 56 -5 56 -2 0 -4 -14 -4 -31z"/>
<path d="M6556 7833 c-3 -3 -5 -18 -5 -32 1 -21 2 -22 6 -6 3 11 10 23 15 26
7 4 7 9 0 12 -5 4 -12 4 -16 0z"/>
<path d="M4375 7820 c-3 -5 -1 -17 4 -27 5 -10 13 -31 16 -47 10 -46 17 -23 9
33 -6 49 -16 62 -29 41z"/>
<path d="M4720 7816 c-18 -23 -8 -61 17 -64 14 -2 20 -8 16 -18 -3 -8 0 -14 5
-14 12 0 17 16 28 73 6 36 5 37 -24 37 -16 0 -35 -7 -42 -14z m50 -9 c0 -19
-27 -53 -35 -45 -12 12 4 58 20 58 8 0 15 -6 15 -13z"/>
<path d="M5272 7790 l-2 -40 37 0 c36 0 38 2 40 35 2 43 -10 45 -27 5 -17 -41
-32 -38 -24 5 5 26 3 35 -7 35 -9 0 -15 -14 -17 -40z"/>
<path d="M6239 7828 c-7 -15 -6 -58 2 -58 5 0 9 14 9 30 0 25 -6 39 -11 28z"/>
<path d="M4550 7780 c0 -26 5 -40 13 -40 9 0 11 12 9 40 -2 22 -8 40 -13 40
-5 0 -9 -18 -9 -40z"/>
<path d="M4606 7784 c1 -47 11 -53 21 -13 12 44 38 54 30 10 -6 -27 -4 -31 14
-31 14 0 18 4 12 13 -4 6 -6 22 -5 34 3 19 -1 22 -35 21 -37 0 -38 -1 -37 -34z"/>
<path d="M5388 7809 c-22 -12 -24 -58 -2 -66 8 -3 25 -1 37 5 22 11 22 11 -3
9 -21 -2 -25 2 -22 22 3 32 8 36 27 21 12 -10 15 -10 15 4 0 18 -26 21 -52 5z"/>
<path d="M4238 7788 c-2 -13 -1 -39 3 -58 5 -30 7 -26 8 23 1 58 -4 74 -11 35z"/>
<path d="M4489 7801 c12 -8 13 -14 3 -35 -16 -36 -35 -33 -30 4 5 36 -9 40
-18 6 -8 -32 3 -49 27 -43 13 4 19 0 19 -11 0 -32 18 3 23 46 5 38 3 42 -16
42 -17 0 -19 -2 -8 -9z"/>
<path d="M5467 7789 c-25 -35 4 -71 41 -49 14 8 13 9 -8 10 l-25 0 25 13 c31
15 33 41 3 45 -13 2 -27 -5 -36 -19z m43 2 c0 -12 -20 -25 -27 -18 -7 7 6 27
18 27 5 0 9 -4 9 -9z"/>
<path d="M5554 7788 c-4 -6 0 -16 9 -23 19 -13 23 -35 7 -35 -5 0 -10 5 -10
10 0 6 -4 10 -10 10 -15 0 -12 -17 5 -24 39 -15 60 24 28 51 -17 13 -16 14 5
8 13 -4 22 -2 22 4 0 15 -47 14 -56 -1z"/>
<path d="M3614 7782 c-12 -7 -7 -72 5 -72 4 0 6 14 3 30 -3 18 0 30 7 30 6 0
11 5 11 10 0 12 -10 13 -26 2z"/>
<path d="M5823 7754 c-16 -50 -16 -64 -2 -64 5 0 7 4 4 10 -3 5 -1 19 5 30 6
12 10 31 8 43 -2 17 -6 12 -15 -19z"/>
<path d="M6315 7769 c-10 -30 -2 -32 12 -3 6 13 7 24 3 24 -5 0 -12 -9 -15
-21z"/>
<path d="M6350 7773 c0 -12 -3 -28 -6 -37 -3 -9 -2 -16 4 -16 13 0 23 53 11
65 -5 5 -9 1 -9 -12z"/>
<path d="M5676 7764 c-15 -39 -7 -54 27 -54 20 0 34 5 34 13 0 6 3 22 7 35 7
20 4 22 -27 22 -23 0 -37 -6 -41 -16z m44 -13 c0 -22 -15 -35 -29 -27 -13 9
-1 46 15 46 8 0 14 -9 14 -19z"/>
<path d="M4345 7751 c-8 -27 -4 -33 12 -16 6 6 7 18 3 25 -6 9 -10 7 -15 -9z"/>
<path d="M6381 7740 c-5 -17 -6 -30 -2 -30 5 0 11 9 14 20 3 11 10 20 16 20 7
0 7 -8 0 -27 -7 -18 -6 -30 1 -37 7 -7 10 -3 10 11 0 12 3 28 6 36 3 9 -2 20
-14 26 -17 9 -22 7 -31 -19z"/>
<path d="M3503 7705 c0 -33 2 -46 4 -30 6 40 23 57 23 22 0 -15 4 -27 8 -27 5
0 7 14 4 30 -2 17 -10 30 -17 30 -8 0 -16 8 -18 18 -3 9 -5 -10 -4 -43z"/>
<path d="M3556 7734 c-4 -15 -2 -32 5 -40 12 -14 29 -10 29 7 0 6 -4 7 -10 4
-5 -3 -10 -2 -10 4 0 5 5 13 10 16 15 9 12 35 -4 35 -8 0 -17 -12 -20 -26z"/>
<path d="M4190 7730 c0 -16 4 -30 8 -30 5 0 7 14 4 30 -2 17 -6 30 -8 30 -2 0
-4 -13 -4 -30z"/>
<path d="M4150 7723 c0 -21 3 -24 9 -14 5 8 7 20 4 28 -8 21 -13 15 -13 -14z"/>
<path d="M5876 7735 c-19 -20 -21 -55 -3 -55 7 0 13 11 12 27 0 19 6 29 19 31
14 3 18 0 14 -14 -3 -11 -7 -25 -9 -33 -2 -7 1 -15 6 -17 6 -2 10 13 10 33 0
43 -22 55 -49 28z"/>
<path d="M6481 7743 c-1 -7 -10 -13 -20 -13 -24 0 -36 -33 -22 -57 9 -15 10
-13 11 15 0 17 5 32 10 32 7 0 9 -15 6 -37 -6 -37 -5 -37 9 7 8 25 13 49 11
55 -3 5 -5 4 -5 -2z"/>
<path d="M4103 7711 c1 -14 9 -26 17 -28 10 -3 11 -2 4 4 -7 4 -14 17 -17 28
-5 16 -5 15 -4 -4z"/>
<path d="M6041 7699 c-6 -18 -11 -39 -11 -48 1 -9 8 4 16 27 9 24 13 46 11 48
-3 3 -10 -9 -16 -27z"/>
<path d="M3470 7677 c0 -26 4 -47 9 -47 8 0 3 79 -5 89 -2 2 -4 -17 -4 -42z"/>
<path d="M3824 7665 c1 -72 16 -72 16 0 0 30 -4 55 -9 55 -4 0 -8 -25 -7 -55z"/>
<path d="M3945 7701 c-4 -7 -3 -16 2 -20 6 -3 13 -13 16 -21 5 -13 5 -13 6 0
0 8 -4 24 -8 34 -6 15 -10 16 -16 7z"/>
<path d="M5970 7704 c0 -5 7 -18 15 -28 12 -16 15 -17 15 -4 0 8 -7 21 -15 28
-8 7 -15 9 -15 4z"/>
<path d="M3911 7685 c0 -11 4 -27 9 -35 9 -13 10 -13 9 0 0 8 -4 24 -9 35 l-9
20 0 -20z"/>
<path d="M4010 7691 c0 -6 4 -12 8 -15 5 -3 9 1 9 9 0 8 -4 15 -9 15 -4 0 -8
-4 -8 -9z"/>
<path d="M3857 7678 c7 -8 10 -17 7 -21 -3 -3 -1 -14 5 -24 10 -15 11 -13 9
16 -2 20 -9 37 -18 39 -12 4 -13 3 -3 -10z"/>
<path d="M4790 7665 c-7 -8 -16 -34 -21 -58 -4 -23 -11 -51 -14 -62 -6 -18 -4
-17 14 4 12 13 21 34 21 47 0 12 4 25 10 29 5 3 7 12 4 19 -7 18 16 32 26 16
4 -7 13 -9 19 -6 6 4 9 12 6 17 -9 14 -51 11 -65 -6z"/>
<path d="M5046 7667 c2 -7 -8 -17 -25 -24 -19 -7 -32 -20 -37 -37 -8 -33 -5
-37 39 -41 34 -3 35 -2 41 43 9 64 8 72 -9 72 -8 0 -12 -6 -9 -13z m-6 -56 c0
-24 -18 -37 -32 -23 -8 8 -7 16 2 27 17 21 30 19 30 -4z"/>
<path d="M5160 7671 c0 -6 5 -13 10 -16 6 -3 10 1 10 9 0 9 -4 16 -10 16 -5 0
-10 -4 -10 -9z"/>
<path d="M6514 7655 c-4 -14 -4 -29 0 -32 3 -4 6 3 6 13 0 11 5 25 12 32 9 9
9 12 0 12 -6 0 -14 -11 -18 -25z"/>
<path d="M4619 7670 c-8 -52 -8 -120 -1 -120 13 0 21 102 10 115 -4 5 -8 7 -9
5z"/>
<path d="M4665 7617 c0 -52 5 -63 28 -54 9 4 9 6 0 6 -9 1 -10 16 -6 51 4 39
3 50 -8 50 -10 0 -14 -14 -14 -53z"/>
<path d="M6110 7660 c-9 -6 -10 -10 -3 -10 6 0 15 5 18 10 8 12 4 12 -15 0z"/>
<path d="M4560 7650 c0 -5 4 -10 9 -10 6 0 13 5 16 10 3 6 -1 10 -9 10 -9 0
-16 -4 -16 -10z"/>
<path d="M6536 7633 c-7 -25 10 -51 24 -36 3 3 -1 8 -7 10 -8 3 -11 14 -7 29
3 13 4 24 1 24 -3 0 -8 -12 -11 -27z"/>
<path d="M3451 7634 c0 -11 3 -14 6 -6 3 7 2 16 -1 19 -3 4 -6 -2 -5 -13z"/>
<path d="M3759 7635 c-8 -28 0 -45 19 -45 11 0 13 3 6 8 -7 4 -14 18 -16 32
-3 22 -4 23 -9 5z"/>
<path d="M6080 7641 c0 -10 19 -25 25 -20 1 2 -3 10 -11 17 -8 7 -14 8 -14 3z"/>
<path d="M3700 7621 c-5 -11 -7 -27 -4 -35 7 -17 44 -22 44 -6 0 5 -8 7 -17 3
-17 -6 -16 -5 1 15 10 11 16 27 13 34 -4 9 -6 7 -6 -4 -1 -9 -6 -20 -13 -24
-8 -5 -9 0 -6 14 7 27 2 28 -12 3z"/>
<path d="M4830 7601 c0 -28 4 -41 13 -41 18 0 16 72 -1 78 -8 2 -12 -10 -12
-37z"/>
<path d="M4883 7600 c-3 -48 10 -53 23 -8 12 42 36 51 28 10 -7 -32 10 -52 29
-33 8 8 8 11 -1 11 -7 0 -9 10 -5 30 5 29 4 30 -33 30 -38 0 -39 -1 -41 -40z"/>
<path d="M5143 7600 c-2 -27 2 -40 10 -40 8 0 13 15 14 40 1 25 -2 40 -10 40
-7 0 -13 -17 -14 -40z"/>
<path d="M5196 7607 c-8 -40 -8 -47 4 -47 5 0 16 16 24 35 19 44 28 45 24 3
-2 -25 1 -33 16 -36 13 -3 16 0 10 10 -5 7 -7 25 -5 40 2 25 0 27 -32 26 -30
-1 -36 -5 -41 -31z"/>
<path d="M6250 7615 c-8 -21 -8 -31 1 -39 8 -8 10 -7 7 4 -3 8 -1 23 4 33 5
10 7 21 4 24 -3 3 -10 -7 -16 -22z"/>
<path d="M3430 7621 c0 -6 4 -13 10 -16 6 -3 7 1 4 9 -7 18 -14 21 -14 7z"/>
<path d="M5352 7589 c-3 -47 5 -50 19 -9 6 17 16 30 23 30 8 0 11 -11 8 -30
-3 -21 0 -30 9 -30 9 0 14 12 14 38 0 35 -2 37 -35 39 -34 2 -35 1 -38 -38z"/>
<path d="M6146 7621 c-4 -7 -5 -15 -2 -18 9 -9 19 4 14 18 -4 11 -6 11 -12 0z"/>
<path d="M6581 7614 c0 -11 3 -14 6 -6 3 7 2 16 -1 19 -3 4 -6 -2 -5 -13z"/>
<path d="M3595 7595 c0 -14 4 -25 8 -25 13 0 3 -43 -10 -48 -9 -2 -13 10 -13
44 0 30 -3 45 -10 38 -5 -5 -6 -30 -2 -57 7 -47 7 -47 30 -31 18 13 22 23 20
56 -3 45 -23 64 -23 23z"/>
<path d="M3647 7613 c-11 -10 -8 -73 2 -73 6 0 13 5 16 10 3 6 1 10 -6 10 -8
0 -6 6 4 18 10 10 17 24 17 30 0 13 -22 16 -33 5z m23 -12 c0 -6 -4 -13 -10
-16 -5 -3 -10 1 -10 9 0 9 5 16 10 16 6 0 10 -4 10 -9z"/>
<path d="M4520 7609 c0 -5 5 -7 10 -4 6 3 10 8 10 11 0 2 -4 4 -10 4 -5 0 -10
-5 -10 -11z"/>
<path d="M4558 7585 c3 -25 9 -35 21 -34 9 0 11 3 4 5 -8 4 -10 16 -6 35 4 21
2 29 -9 29 -10 0 -13 -9 -10 -35z"/>
<path d="M5460 7606 c-20 -26 -8 -61 22 -64 35 -4 60 37 38 63 -16 19 -44 19
-60 1z m46 -11 c6 -16 -12 -45 -27 -45 -10 0 -12 44 -2 53 11 11 23 8 29 -8z"/>
<path d="M5692 7582 c-16 -52 -15 -62 4 -62 8 0 12 5 9 11 -4 5 -1 24 5 40 9
20 9 34 3 40 -6 6 -14 -4 -21 -29z"/>
<path d="M5752 7581 c-8 -23 -16 -49 -19 -57 -3 -8 -1 -14 4 -14 13 0 36 72
31 96 -2 13 -8 4 -16 -25z"/>
<path d="M4437 7578 c7 -41 12 -46 23 -28 6 9 6 16 0 18 -6 2 -10 12 -10 23 0
10 -4 19 -10 19 -5 0 -7 -14 -3 -32z"/>
<path d="M4476 7602 c-6 -11 16 -62 27 -62 4 0 7 4 7 9 0 5 3 18 6 28 5 15 4
15 -5 3 -9 -13 -11 -13 -11 2 0 19 -16 32 -24 20z"/>
<path d="M6325 7578 c5 -26 4 -30 -5 -18 -10 13 -11 13 -7 0 6 -23 33 -18 29
5 -2 11 -4 26 -4 33 -1 6 -5 12 -10 12 -5 0 -7 -15 -3 -32z"/>
<path d="M5602 7588 c-17 -17 -15 -43 4 -59 13 -11 14 -9 9 14 -5 17 -2 33 5
42 15 18 -1 20 -18 3z"/>
<path d="M5645 7580 c4 -12 1 -27 -5 -35 -8 -10 -9 -15 -2 -15 16 0 33 36 26
54 -9 24 -26 19 -19 -4z"/>
<path d="M4292 7555 c-1 -19 3 -35 8 -35 6 0 10 16 10 35 0 19 -4 35 -8 35 -5
0 -9 -16 -10 -35z"/>
<path d="M4338 7560 c-3 -16 1 -31 7 -34 7 -2 11 9 11 30 0 42 -12 45 -18 4z"/>
<path d="M6370 7566 c-12 -33 -12 -36 -1 -36 10 0 25 50 17 58 -3 2 -10 -7
-16 -22z"/>
<path d="M6571 7574 c0 -11 3 -14 6 -6 3 7 2 16 -1 19 -3 4 -6 -2 -5 -13z"/>
<path d="M4245 7546 c0 -23 4 -32 13 -28 15 5 12 54 -3 59 -5 2 -10 -12 -10
-31z"/>
<path d="M5785 7546 c0 -19 3 -37 6 -41 8 -8 21 54 13 66 -11 18 -19 8 -19
-25z"/>
<path d="M6400 7567 c0 -7 -3 -23 -5 -37 -5 -23 -4 -23 6 3 15 39 28 33 24
-10 -4 -32 -3 -34 4 -13 15 41 12 57 -9 63 -11 3 -20 0 -20 -6z"/>
<path d="M4120 7525 c0 -19 4 -35 8 -35 4 0 6 16 4 35 -2 19 -6 35 -8 35 -2 0
-4 -16 -4 -35z"/>
<path d="M4164 7546 c-3 -8 -4 -29 -2 -48 3 -29 4 -27 8 15 5 48 3 58 -6 33z"/>
<path d="M4200 7535 c0 -14 4 -25 9 -25 4 0 6 11 3 25 -2 14 -6 25 -8 25 -2 0
-4 -11 -4 -25z"/>
<path d="M5834 7546 c-8 -22 -1 -49 14 -52 7 -1 8 0 2 3 -14 7 -13 36 2 51 9
9 9 12 0 12 -7 0 -15 -6 -18 -14z"/>
<path d="M5881 7544 c0 -11 3 -14 6 -6 3 7 2 16 -1 19 -3 4 -6 -2 -5 -13z"/>
<path d="M5911 7519 c-6 -18 -9 -34 -7 -36 2 -2 9 10 15 28 6 18 9 34 7 36 -2
2 -9 -10 -15 -28z"/>
<path d="M3506 7525 c4 -8 8 -15 10 -15 2 0 4 7 4 15 0 8 -4 15 -10 15 -5 0
-7 -7 -4 -15z"/>
<path d="M3944 7525 c4 -24 16 -30 16 -7 0 12 -4 22 -9 22 -5 0 -8 -7 -7 -15z"/>
<path d="M4041 7524 c0 -11 3 -14 6 -6 3 7 2 16 -1 19 -3 4 -6 -2 -5 -13z"/>
<path d="M6454 7516 c-7 -28 1 -46 20 -46 18 0 28 41 14 57 -16 19 -27 16 -34
-11z m29 -16 c-3 -11 -9 -20 -14 -20 -10 0 -11 12 -3 34 9 22 23 10 17 -14z"/>
<path d="M3858 7475 c2 -30 7 -53 10 -51 9 5 2 106 -6 106 -4 0 -5 -25 -4 -55z"/>
<path d="M3996 7517 c3 -10 9 -15 12 -12 3 3 0 11 -7 18 -10 9 -11 8 -5 -6z"/>
<path d="M3810 7509 c0 -5 5 -7 10 -4 6 3 10 8 10 11 0 2 -4 4 -10 4 -5 0 -10
-5 -10 -11z"/>
<path d="M6016 7494 c-4 -14 -5 -29 -2 -31 3 -3 8 7 12 21 3 15 4 29 1 32 -2
3 -8 -7 -11 -22z"/>
<path d="M3446 7475 c8 -35 10 -39 17 -28 3 5 -1 19 -9 33 l-14 25 6 -30z"/>
<path d="M3484 7484 c3 -9 6 -18 6 -20 0 -2 4 -4 9 -4 5 0 7 9 4 20 -3 11 -10
20 -15 20 -6 0 -7 -7 -4 -16z"/>
<path d="M3900 7470 c0 -16 4 -30 8 -30 5 0 7 14 4 30 -2 17 -6 30 -8 30 -2 0
-4 -13 -4 -30z"/>
<path d="M4037 7493 c-4 -3 -7 -13 -7 -22 1 -13 3 -13 11 2 11 19 8 33 -4 20z"/>
<path d="M6061 7484 c0 -11 3 -14 6 -6 3 7 2 16 -1 19 -3 4 -6 -2 -5 -13z"/>
<path d="M6504 7485 c-3 -8 -4 -20 -2 -27 3 -7 7 -1 10 15 6 29 1 36 -8 12z"/>
<path d="M3734 7474 c3 -9 6 -34 6 -55 0 -22 3 -38 8 -36 11 7 2 107 -10 107
-6 0 -7 -7 -4 -16z"/>
<path d="M3996 7477 c3 -10 9 -15 12 -12 3 3 0 11 -7 18 -10 9 -11 8 -5 -6z"/>
<path d="M5133 7483 c9 -2 23 -2 30 0 6 3 -1 5 -18 5 -16 0 -22 -2 -12 -5z"/>
<path d="M6093 7466 c1 -17 9 -31 17 -33 10 -3 11 -2 4 4 -7 4 -14 19 -17 33
-4 22 -5 21 -4 -4z"/>
<path d="M3810 7451 c0 -42 16 -47 17 -5 1 19 -3 34 -8 34 -5 0 -9 -13 -9 -29z"/>
<path d="M6527 7460 c-3 -11 -1 -20 4 -20 5 0 9 9 9 20 0 11 -2 20 -4 20 -2 0
-6 -9 -9 -20z"/>
<path d="M6556 7465 c-3 -9 -6 -26 -5 -38 1 -14 4 -9 9 13 9 37 7 52 -4 25z"/>
<path d="M3765 7460 c-3 -5 -1 -10 6 -10 8 0 9 -10 5 -30 -3 -19 -2 -29 4 -25
13 8 13 62 1 70 -5 3 -12 1 -16 -5z"/>
<path d="M3945 7460 c3 -5 8 -10 11 -10 2 0 4 5 4 10 0 6 -5 10 -11 10 -5 0
-7 -4 -4 -10z"/>
<path d="M6154 7455 c-3 -8 -4 -20 -2 -27 3 -7 7 -1 10 15 6 29 1 36 -8 12z"/>
<path d="M6227 7453 c-4 -3 -7 -11 -7 -17 0 -6 5 -5 12 2 6 6 9 14 7 17 -3 3
-9 2 -12 -2z"/>
<path d="M3604 7424 c3 -9 6 -34 6 -55 0 -25 4 -38 10 -34 6 4 8 11 5 16 -9
13 9 11 23 -3 24 -24 21 -1 -3 25 -14 14 -25 35 -25 47 0 11 -5 20 -11 20 -6
0 -8 -7 -5 -16z"/>
<path d="M3688 7433 c14 -5 17 -63 3 -63 -5 0 -12 12 -14 28 -4 25 -4 25 -6
-5 -1 -33 11 -41 35 -25 18 11 5 72 -15 71 -10 0 -11 -2 -3 -6z"/>
<path d="M6211 7404 c0 -11 3 -14 6 -6 3 7 2 16 -1 19 -3 4 -6 -2 -5 -13z"/>
<path d="M6296 7404 c-9 -23 -7 -36 3 -30 12 8 21 46 11 46 -4 0 -11 -7 -14
-16z"/>
<path d="M6331 7389 c-13 -38 -13 -39 -2 -39 9 0 24 60 17 67 -2 2 -9 -10 -15
-28z"/>
<path d="M6372 7391 c-7 -19 -12 -41 -11 -50 0 -9 7 2 15 23 8 22 13 45 11 50
-2 6 -9 -5 -15 -23z"/>
<path d="M4776 7389 c-25 -20 -29 -21 -23 -5 7 17 2 18 -80 11 -49 -4 -128
-13 -178 -21 -49 -8 -98 -15 -108 -15 -15 0 -16 -3 -7 -15 10 -11 9 -14 -7
-14 -11 0 -28 -9 -38 -20 -16 -17 -16 -20 -2 -20 9 0 18 3 21 8 5 9 100 7 115
-3 6 -3 11 -1 11 4 0 6 19 11 41 11 35 0 41 -3 36 -19 -3 -14 0 -17 15 -13 13
3 17 10 13 23 -7 20 9 27 20 9 3 -5 14 -10 23 -9 14 0 13 2 -3 9 -19 8 -19 9
3 9 38 1 27 -26 -35 -92 -5 -5 -44 -29 -87 -55 -76 -45 -104 -72 -74 -72 8 0
23 -7 34 -15 16 -12 17 -16 4 -24 -8 -6 -12 -12 -9 -15 3 -3 33 29 67 72 34
44 70 89 81 101 10 12 29 37 42 56 13 19 31 38 39 42 8 4 134 9 280 11 l265 3
31 -33 c30 -31 140 -167 194 -238 49 -64 261 -336 297 -380 20 -25 33 -37 30
-27 -6 16 7 25 16 10 2 -5 2 -2 0 6 -2 7 2 20 8 27 10 12 14 11 25 -3 7 -10
14 -13 14 -6 0 6 -7 19 -16 28 -15 15 -18 14 -31 -5 -17 -25 -41 -26 -59 -2
-19 25 -18 27 27 60 23 17 36 33 30 37 -6 3 -11 2 -11 -4 0 -18 -40 -34 -54
-22 -8 6 -21 9 -30 5 -28 -11 -17 13 19 40 19 15 40 24 45 21 16 -10 -28 65
-72 123 -69 89 -209 197 -314 243 -23 9 -45 23 -50 30 -5 9 -2 10 12 5 50 -21
53 -14 5 11 -61 31 -82 59 -35 47 19 -5 25 -4 20 5 -4 6 -1 11 8 11 10 0 13
-6 10 -15 -4 -9 0 -15 10 -15 9 0 16 7 16 16 0 8 5 12 11 8 6 -3 9 -14 6 -25
-4 -13 3 -20 27 -28 30 -10 30 -10 9 6 -24 16 -31 53 -10 53 18 0 31 -12 44
-42 8 -17 8 -28 2 -30 -5 -2 5 -11 23 -21 18 -10 25 -12 15 -4 -16 13 -16 15
-1 21 8 3 26 6 39 6 13 0 27 5 31 11 5 8 -6 9 -36 4 -43 -7 -59 2 -60 33 0 11
17 12 83 7 76 -7 132 -25 77 -25 -14 0 -32 -5 -40 -11 -11 -7 -1 -8 33 -3 l47
6 0 -53 c0 -30 3 -71 6 -91 6 -33 10 -38 33 -37 21 1 22 2 5 6 -23 4 -34 50
-34 145 l0 49 59 -5 c56 -4 59 -3 64 19 4 22 -1 25 -47 35 -196 40 -410 61
-701 67 l-260 5 -29 -23z m-366 -69 c0 -5 -5 -10 -11 -10 -5 0 -7 5 -4 10 3 6
8 10 11 10 2 0 4 -4 4 -10z m77 -232 c-3 -8 -6 -5 -6 6 -1 11 2 17 5 13 3 -3
4 -12 1 -19z m1087 -13 c11 -8 17 -18 13 -21 -4 -4 -13 -1 -22 6 -12 10 -15
10 -15 -3 0 -11 -5 -14 -16 -10 -13 5 -15 2 -9 -15 8 -26 -10 -29 -24 -4 -8
13 -4 22 17 39 32 26 32 26 56 8z m46 -43 c0 -4 -14 -16 -32 -27 -18 -10 -27
-20 -20 -23 6 -2 25 6 41 17 17 13 32 17 36 12 3 -6 -12 -22 -35 -37 -33 -22
-43 -24 -55 -14 -22 18 -19 31 13 57 27 22 52 30 52 15z m77 -102 c-1 -8 -11
-16 -22 -18 -11 -2 -28 -11 -38 -20 -19 -17 -37 -8 -19 10 19 19 14 30 -7 18
-39 -20 -30 8 12 38 l42 31 17 -22 c10 -12 17 -29 15 -37z m43 -35 c17 -20 7
-41 -32 -65 -30 -18 -34 -18 -50 -3 -25 22 -23 33 10 60 32 26 55 29 72 8z"/>
<path d="M5650 6940 c0 -5 5 -10 10 -10 6 0 10 5 10 10 0 6 -4 10 -10 10 -5 0
-10 -4 -10 -10z"/>
<path d="M5689 6871 c-32 -26 -20 -35 15 -12 15 10 23 21 18 25 -5 3 -21 -3
-33 -13z"/>
<path d="M3560 7372 c-11 -5 -14 -17 -9 -47 l6 -40 2 37 c1 45 21 62 21 18 0
-17 4 -29 8 -26 10 6 3 66 -7 65 -3 0 -13 -3 -21 -7z"/>
<path d="M6424 7334 c-5 -18 -1 -29 12 -39 17 -12 20 -11 27 17 5 17 5 33 2
36 -3 3 -8 -4 -12 -16 -3 -12 -9 -22 -14 -22 -12 0 -11 7 1 31 7 13 7 19 1 19
-6 0 -14 -11 -17 -26z"/>
<path d="M3497 7332 c-18 -19 -23 -72 -8 -72 4 0 6 11 4 25 -3 14 1 31 11 40
15 15 16 14 16 -14 0 -17 5 -31 11 -31 6 0 8 7 5 16 -3 9 -6 24 -6 35 0 24
-12 24 -33 1z"/>
<path d="M4245 7330 c-3 -5 -1 -10 4 -10 6 0 11 5 11 10 0 6 -2 10 -4 10 -3 0
-8 -4 -11 -10z"/>
<path d="M6480 7321 c0 -11 -2 -28 -5 -38 -3 -10 0 -8 6 5 7 13 18 21 26 18
20 -8 15 8 -7 22 -17 11 -20 10 -20 -7z"/>
<path d="M6526 7274 c-4 -14 -2 -32 4 -40 7 -7 8 -19 4 -25 -4 -8 -3 -9 4 -5
15 9 16 36 1 36 -7 0 -8 11 -4 30 8 37 0 40 -9 4z"/>
<path d="M6502 7270 c0 -14 2 -19 5 -12 2 6 2 18 0 25 -3 6 -5 1 -5 -13z"/>
<path d="M5830 7270 c20 -13 43 -13 35 0 -3 6 -16 10 -28 10 -18 0 -19 -2 -7
-10z"/>
<path d="M5068 7253 c7 -3 16 -2 19 1 4 3 -2 6 -13 5 -11 0 -14 -3 -6 -6z"/>
<path d="M4408 7243 c6 -2 18 -2 25 0 6 3 1 5 -13 5 -14 0 -19 -2 -12 -5z"/>
<path d="M5584 7214 c-18 -14 -18 -14 6 -3 31 14 36 19 24 19 -6 0 -19 -7 -30
-16z"/>
<path d="M4884 7211 c-47 -8 -164 -52 -164 -62 0 -4 27 4 60 18 33 13 83 27
110 30 28 3 50 10 50 14 0 5 -3 8 -7 8 -5 -1 -27 -5 -49 -8z"/>
<path d="M4960 7211 c0 -7 20 -11 53 -11 29 0 77 -7 106 -16 29 -8 55 -13 58
-10 3 3 0 7 -8 10 -8 2 -23 7 -34 11 -25 9 -34 11 -112 20 -45 6 -63 5 -63 -4z"/>
<path d="M5421 7216 c14 -12 99 -57 99 -52 0 6 -84 56 -95 56 -5 0 -6 -2 -4
-4z"/>
<path d="M3723 7199 c-21 -6 -33 -16 -33 -27 0 -13 -2 -14 -9 -3 -7 11 -25 5
-89 -28 -91 -48 -163 -106 -146 -118 12 -9 13 -15 50 -262 28 -193 26 -171 14
-171 -5 0 -10 10 -10 23 0 12 -4 29 -10 37 -8 12 -10 12 -16 -3 -3 -9 -3 -24
0 -32 4 -10 -2 -19 -17 -25 -20 -8 -19 -9 10 -9 29 -1 31 -3 30 -35 0 -19 -5
-32 -10 -29 -9 5 -27 -14 -27 -29 0 -4 14 -5 30 -1 26 5 30 3 31 -18 1 -16 3
-18 6 -7 9 35 67 26 83 -14 8 -21 9 -21 9 8 1 24 -4 33 -19 37 -15 4 -20 14
-20 36 0 17 4 31 9 31 18 0 40 -31 35 -48 -2 -9 2 -3 10 13 l14 30 20 -45 c22
-51 35 -130 21 -130 -5 0 -9 -7 -9 -15 0 -21 -18 -19 -23 3 -2 9 -2 -6 0 -34
5 -50 5 -51 -28 -61 -19 -6 -26 -11 -16 -12 10 -1 15 -5 12 -11 -8 -13 -55
-13 -75 0 -12 7 -12 12 4 29 11 12 31 21 46 21 15 0 29 3 33 6 7 8 -28 103
-43 118 -8 8 -9 6 -5 -6 9 -24 0 -23 -24 3 l-19 21 -12 -22 -11 -21 -20 25
c-10 13 -19 29 -19 35 0 6 -4 11 -10 11 -5 0 -10 -11 -10 -25 0 -14 -4 -25
-10 -25 -5 0 -10 -7 -10 -15 0 -8 6 -15 14 -15 21 0 29 -17 22 -45 -4 -15 -11
-22 -19 -19 -21 8 -18 -24 10 -97 17 -44 34 -71 49 -80 23 -12 23 -13 8 -38
-9 -14 -21 -30 -28 -36 -6 -5 -11 -20 -12 -32 0 -13 0 -22 2 -20 1 1 18 26 38
56 44 65 46 102 9 137 -26 24 -27 24 -3 10 15 -9 38 -13 58 -10 38 6 42 -3 7
-16 -15 -6 -25 -17 -25 -30 0 -23 8 -25 35 -6 11 7 42 16 68 18 41 5 48 3 45
-11 -2 -10 -15 -17 -38 -19 -52 -5 -62 -22 -13 -22 23 0 49 -3 59 -7 13 -5 16
-3 11 10 -3 9 -2 17 3 17 5 0 5 13 0 31 -5 16 -6 37 -3 46 4 9 2 14 -3 11 -5
-4 -8 42 -6 113 2 65 -1 126 -6 135 -6 11 -5 26 4 43 8 14 14 33 14 42 0 20
-27 33 -33 16 -2 -7 -3 -3 -1 8 5 28 -68 405 -78 405 -20 0 -20 -39 1 -149 12
-64 28 -143 36 -176 8 -33 17 -80 21 -104 6 -39 5 -43 -8 -30 -8 8 -18 34 -22
59 -4 25 -11 59 -16 75 -5 17 -12 52 -16 79 -5 43 -7 47 -21 34 -13 -14 -12
-26 6 -116 25 -120 25 -118 6 -102 -8 7 -15 21 -15 31 0 10 -4 20 -10 24 -5 3
-7 12 -4 19 3 7 -2 49 -11 92 -9 44 -22 124 -30 179 -8 55 -17 110 -20 123 -3
12 -1 22 4 22 5 0 17 -44 26 -97 21 -116 32 -150 45 -137 6 6 2 54 -11 128
-11 65 -18 123 -16 130 6 14 27 -39 27 -67 0 -16 3 -18 12 -9 7 7 11 33 9 59
-1 30 1 44 7 38 10 -11 89 -366 101 -455 8 -56 13 -40 14 45 0 84 -2 97 -18
91 -11 -4 -15 1 -15 17 0 18 2 19 10 7 14 -22 13 -9 -20 158 -34 177 -33 162
-21 162 5 0 17 -35 27 -77 9 -43 25 -109 34 -148 17 -67 18 -68 16 -24 0 26
-4 45 -8 42 -5 -2 -8 2 -8 10 0 8 -3 30 -6 48 -4 26 -3 30 5 19 9 -13 11 -12
11 5 0 11 -7 47 -14 80 -8 33 -13 62 -10 64 2 2 -1 10 -7 18 -6 7 -7 13 -2 13
5 0 16 -11 23 -25 10 -18 16 -22 21 -13 4 7 4 17 0 23 -5 5 -7 18 -6 28 2 9 3
17 2 16 -1 0 -17 -5 -34 -10z m-219 -206 c17 -119 38 -240 46 -263 12 -36 20
-140 10 -140 -10 0 -33 110 -59 285 -24 158 -24 165 -12 165 5 0 12 -21 15
-47z m203 -135 c-3 -8 -6 -5 -6 6 -1 11 2 17 5 13 3 -3 4 -12 1 -19z m-153
-283 c15 -11 17 -18 9 -26 -6 -6 -9 -18 -5 -27 4 -12 1 -14 -12 -9 -10 4 -22
7 -27 7 -10 0 -12 53 -2 63 9 10 15 8 37 -8z m-13 -195 c5 0 9 -13 9 -30 0
-40 -36 -42 -50 -4 -12 30 -4 48 17 40 8 -3 19 -6 24 -6z m68 -22 c6 -17 5
-24 -5 -26 -8 -2 -14 -9 -14 -15 -1 -15 -29 34 -30 51 0 22 40 13 49 -10z
m-109 -83 c7 -9 10 -18 7 -21 -7 -8 -47 14 -47 26 0 15 26 12 40 -5z"/>
<path d="M5563 7180 c32 -26 47 -25 47 1 0 18 -2 19 -15 9 -12 -10 -19 -10
-27 -2 -7 7 -16 12 -21 12 -5 0 2 -9 16 -20z"/>
<path d="M6056 7185 c-3 -8 -1 -15 3 -15 5 0 11 7 15 15 3 8 1 15 -3 15 -5 0
-11 -7 -15 -15z"/>
<path d="M3940 7174 c0 -8 5 -12 10 -9 6 4 8 11 5 16 -9 14 -15 11 -15 -7z"/>
<path d="M4896 7179 c-90 -13 -210 -76 -282 -148 -62 -62 -141 -168 -132 -177
3 -2 19 17 37 44 17 26 57 73 89 104 283 272 692 176 875 -204 20 -42 42 -97
48 -123 6 -25 14 -44 16 -41 7 7 -26 115 -55 176 -93 200 -261 340 -442 369
-72 12 -71 12 -154 0z"/>
<path d="M4335 7170 c3 -5 8 -10 11 -10 2 0 4 5 4 10 0 6 -5 10 -11 10 -5 0
-7 -4 -4 -10z"/>
<path d="M5199 7157 c7 -9 18 -17 23 -17 21 0 137 -91 183 -142 26 -29 42 -44
37 -32 -18 36 -145 148 -202 178 -36 19 -50 24 -41 13z"/>
<path d="M6326 7151 c-3 -5 1 -11 9 -15 12 -4 13 -11 5 -31 -7 -17 -7 -24 0
-20 6 3 10 -3 10 -15 0 -12 -4 -19 -8 -16 -5 3 -9 -11 -10 -31 -2 -49 12 -30
27 36 8 37 8 58 1 65 -17 17 -11 27 9 16 17 -8 19 -18 15 -62 -2 -29 -6 -60
-10 -70 -3 -11 0 -18 8 -18 10 0 10 -2 1 -8 -7 -4 -15 -27 -19 -51 -6 -35 -4
-43 7 -39 9 3 19 38 29 99 8 52 19 93 23 92 25 -5 31 -12 21 -20 -15 -11 -34
-135 -23 -147 14 -15 11 -36 -5 -36 -14 0 -33 -96 -21 -108 3 -3 5 2 5 12 0 9
4 15 9 12 8 -6 17 36 42 192 6 39 15 72 20 72 13 0 11 -20 -10 -145 -11 -60
-22 -130 -25 -155 -18 -132 -21 -145 -38 -148 -12 -2 -15 2 -11 17 3 12 1 21
-5 21 -13 0 -17 -7 -26 -43 -5 -19 -3 -26 6 -25 8 2 14 -11 16 -34 2 -29 8
-38 22 -38 10 0 21 -3 24 -8 8 -13 -9 -77 -22 -78 -7 -1 -19 -2 -29 -3 -39 -3
1 -14 47 -12 54 1 62 -10 38 -48 -9 -15 -16 -17 -30 -10 -10 5 -18 17 -19 27
0 14 -2 14 -6 2 -3 -8 -12 -22 -19 -31 -12 -13 -10 -18 17 -38 30 -23 31 -23
11 -41 -13 -12 -28 -17 -42 -13 -16 4 -21 3 -16 -5 9 -15 58 -16 73 -1 8 8 13
8 17 0 4 -6 3 -11 -3 -11 -5 0 -11 -10 -13 -22 -2 -12 -9 -24 -17 -26 -9 -3
-12 0 -9 10 4 8 1 15 -5 15 -7 0 -22 3 -34 7 -18 6 -20 4 -16 -13 3 -13 10
-18 21 -14 10 4 14 3 10 -2 -4 -4 10 -27 31 -52 44 -49 76 -111 86 -166 6 -28
12 -37 28 -37 11 0 29 -7 39 -17 10 -9 18 -12 18 -7 0 19 -18 35 -38 37 -17 1
-40 25 -30 31 2 1 14 8 28 14 l25 12 -26 -3 c-23 -3 -48 17 -55 43 -4 18 -21
49 -41 76 -13 17 -23 33 -23 36 0 3 14 11 31 18 19 8 28 18 25 27 -4 8 -1 11
5 7 7 -4 9 0 5 13 -4 13 1 30 14 46 14 18 19 34 14 51 -7 29 -14 32 -32 14 -9
-9 -12 -9 -12 -1 0 7 4 14 9 17 4 3 6 17 3 32 -4 22 -2 25 19 22 20 -2 24 -8
22 -32 -2 -21 1 -26 8 -19 13 13 2 76 -11 68 -13 -8 -40 6 -40 21 0 8 5 14 10
14 6 0 10 5 10 12 0 6 -7 4 -18 -5 -27 -24 -37 -21 -40 12 -2 30 23 50 40 33
15 -15 56 -1 61 20 4 15 3 17 -9 7 -23 -19 -61 -3 -67 28 -3 16 -1 32 6 38 7
6 13 19 14 30 4 34 40 289 48 337 2 15 0 30 -5 33 -6 3 -10 4 -10 1 0 -3 -8
-65 -19 -138 -10 -73 -19 -148 -20 -166 -1 -19 -8 -47 -16 -62 -8 -16 -15 -40
-15 -53 0 -14 -7 -30 -15 -37 -13 -11 -13 -15 -3 -23 9 -6 8 -7 -5 -3 -10 3
-22 6 -25 6 -10 0 -8 52 2 68 4 7 15 11 23 8 12 -5 14 2 11 39 -2 25 1 46 5
48 5 1 21 80 35 175 18 120 30 172 39 172 7 0 13 -4 13 -10 0 -5 6 -9 13 -7 9
1 12 -16 11 -63 l-2 -65 13 54 c7 29 11 60 8 67 -3 7 -28 31 -56 51 -77 57
-90 63 -104 51 -10 -8 -13 -6 -13 6 0 24 -62 46 -74 27z m172 -848 c-4 -23
-48 -31 -48 -9 0 13 14 21 43 25 5 0 7 -7 5 -16z"/>
<path d="M5655 7110 c10 -11 20 -20 23 -20 3 0 -3 9 -13 20 -10 11 -20 20 -23
20 -3 0 3 -9 13 -20z"/>
<path d="M4384 7089 c-4 -6 9 -26 30 -45 43 -39 49 -30 6 11 -16 15 -27 32
-24 37 3 4 3 8 0 8 -3 0 -8 -5 -12 -11z"/>
<path d="M5768 7083 c6 -2 18 -2 25 0 6 3 1 5 -13 5 -14 0 -19 -2 -12 -5z"/>
<path d="M4844 7031 c-45 -16 -114 -58 -114 -68 0 -5 15 4 50 27 40 27 99 43
185 50 l80 7 -75 1 c-50 1 -92 -5 -126 -17z"/>
<path d="M5660 7046 c0 -2 8 -10 18 -17 15 -13 16 -12 3 4 -13 16 -21 21 -21
13z"/>
<path d="M4379 7022 c7 -12 17 -20 22 -16 6 3 9 7 7 8 -2 1 -12 8 -22 16 -18
14 -19 14 -7 -8z"/>
<path d="M5100 7018 c103 -39 197 -125 260 -239 34 -61 41 -59 9 3 -32 63 -76
119 -129 166 -51 45 -142 92 -175 91 -11 0 5 -9 35 -21z"/>
<path d="M4865 7002 c-65 -23 -130 -71 -183 -134 -74 -88 -82 -113 -79 -228 5
-126 17 -144 17 -23 l0 91 48 4 c26 3 183 6 348 7 l302 2 4 -288 c3 -158 2
-291 -1 -294 -3 -4 -162 -9 -353 -13 l-348 -6 -1 192 c-1 106 -4 182 -6 168
-2 -14 -9 -36 -16 -49 -9 -19 -9 -25 1 -28 17 -6 18 -283 0 -283 -6 0 -9 -3
-6 -6 3 -3 173 -5 378 -5 l371 1 -27 -50 c-23 -43 -31 -49 -63 -52 -34 -3 -36
-5 -36 -40 0 -34 -5 -40 -54 -73 -40 -26 -62 -34 -81 -30 -15 3 -33 0 -45 -9
-18 -14 -18 -15 -2 -16 15 0 17 -11 17 -93 0 -85 -2 -96 -23 -115 -29 -27 -31
-27 -56 -1 -15 17 -19 35 -19 90 0 39 -2 73 -6 76 -3 4 -6 -32 -6 -78 0 -82 1
-86 30 -114 l30 -29 31 30 31 29 -4 113 -3 113 28 -7 c21 -4 40 3 88 35 34 23
65 41 70 41 20 0 6 -17 -42 -50 -28 -18 -53 -38 -56 -43 -9 -15 52 23 89 55
41 35 44 35 60 1 9 -19 22 -29 41 -31 15 -2 27 -7 27 -12 0 -26 -205 -160
-245 -160 -11 0 -5 128 7 132 7 3 6 7 -5 11 -15 6 -17 -3 -17 -91 l0 -98 -50
-49 -50 -49 -33 32 c-18 18 -38 32 -45 32 -16 0 -21 29 -24 143 -2 60 1 97 7
97 15 0 31 -13 38 -30 5 -10 6 -9 4 5 -3 25 -52 44 -69 27 -9 -9 -9 -15 0 -24
7 -7 12 -24 12 -38 0 -22 -11 -32 -69 -63 -37 -20 -75 -37 -84 -37 -16 0 -30
-26 -21 -41 3 -5 18 -9 34 -9 74 0 128 -22 185 -77 31 -29 61 -53 66 -53 13 0
109 92 109 105 0 6 17 17 38 24 57 20 162 85 210 130 26 24 53 41 67 41 25 0
46 26 38 48 -3 6 18 58 46 115 27 56 53 116 56 132 3 17 -9 -5 -28 -48 -40
-92 -90 -167 -112 -167 -14 0 -14 3 1 28 l16 27 -20 -22 c-25 -28 -32 -29 -32
-3 0 19 -34 45 -48 36 -4 -3 -14 -1 -21 4 -11 6 -8 15 11 41 30 40 58 93 58
111 0 6 -11 -10 -26 -37 -33 -65 -61 -102 -70 -92 -4 4 11 42 33 85 44 83 74
170 72 211 l-2 26 -4 -25 c-7 -41 -35 -134 -45 -145 -4 -5 -8 55 -8 132 0 104
3 143 13 146 10 4 10 7 0 18 -14 14 -20 289 -7 276 4 -4 18 -42 31 -84 17 -59
22 -67 17 -33 -22 157 -133 319 -267 391 -78 41 -183 50 -262 21z m260 -47
c32 -16 79 -50 102 -74 40 -41 103 -127 103 -140 0 -3 -42 -6 -93 -5 -50 0
-212 -2 -360 -5 -147 -3 -267 -4 -267 -1 1 3 11 24 23 46 37 70 105 135 186
177 73 38 78 39 161 35 70 -2 95 -8 145 -33z m169 -985 c16 -17 27 -33 23 -36
-5 -5 -97 24 -97 32 0 1 3 9 6 18 9 24 36 19 68 -14z m69 -26 c7 -7 -33 -64
-45 -64 -14 0 -9 33 9 52 17 19 26 22 36 12z m62 -66 c27 -5 27 -42 0 -46 -13
-2 -29 8 -43 28 -25 34 -21 61 6 37 10 -8 26 -17 37 -19z m-45 -47 c0 -30
-168 -143 -247 -166 -43 -12 -23 12 25 30 58 22 137 73 176 114 30 31 46 39
46 22z m-507 -131 c-25 -24 -103 -48 -133 -40 -21 5 -12 11 60 46 67 32 86 38
88 26 2 -8 -4 -22 -15 -32z m14 -40 c2 -22 -2 -23 -32 -10 -19 8 -19 8 5 18
14 6 25 11 25 11 1 1 1 -8 2 -19z"/>
<path d="M4960 6940 c0 -5 5 -10 10 -10 6 0 10 5 10 10 0 6 -4 10 -10 10 -5 0
-10 -4 -10 -10z"/>
<path d="M4960 6849 c0 -37 4 -58 10 -54 6 3 10 31 10 61 0 30 -4 54 -10 54
-6 0 -10 -27 -10 -61z"/>
<path d="M4890 6877 c0 -19 26 -87 33 -87 3 0 1 19 -5 43 -10 45 -28 73 -28
44z"/>
<path d="M4928 6884 c-3 -5 0 -29 6 -54 l10 -45 4 37 c3 37 -11 79 -20 62z"/>
<path d="M4996 6874 c-12 -30 -6 -72 10 -78 9 -4 18 -5 19 -4 6 8 25 73 25 86
0 24 -17 2 -29 -38 l-11 -35 4 37 c5 39 -7 60 -18 32z"/>
<path d="M4877 6815 c9 -19 19 -33 21 -30 7 7 -19 65 -29 65 -5 0 -1 -16 8
-35z"/>
<path d="M5050 6820 c-18 -43 -7 -47 13 -5 9 19 13 35 8 35 -5 0 -14 -14 -21
-30z"/>
<path d="M5082 6820 c-28 -37 -29 -64 -1 -30 28 36 41 60 31 60 -4 0 -18 -13
-30 -30z"/>
<path d="M4830 6833 c1 -16 50 -68 50 -53 -1 8 -9 25 -19 38 -19 22 -31 28
-31 15z"/>
<path d="M5780 7005 c-7 -9 -8 -15 -2 -15 5 0 12 7 16 15 3 8 4 15 2 15 -2 0
-9 -7 -16 -15z"/>
<path d="M3431 6970 c0 -8 4 -24 9 -35 5 -13 9 -14 9 -5 0 8 -4 24 -9 35 -5
13 -9 14 -9 5z"/>
<path d="M4390 6959 c0 -5 5 -7 10 -4 6 3 10 8 10 11 0 2 -4 4 -10 4 -5 0 -10
-5 -10 -11z"/>
<path d="M4689 6933 c-13 -16 -12 -17 4 -4 9 7 17 15 17 17 0 8 -8 3 -21 -13z"/>
<path d="M4360 6930 c0 -5 5 -10 10 -10 6 0 10 5 10 10 0 6 -4 10 -10 10 -5 0
-10 -4 -10 -10z"/>
<path d="M5455 6930 c3 -5 8 -10 11 -10 2 0 4 5 4 10 0 6 -5 10 -11 10 -5 0
-7 -4 -4 -10z"/>
<path d="M4655 6900 c-3 -6 1 -7 9 -4 18 7 21 14 7 14 -6 0 -13 -4 -16 -10z"/>
<path d="M5475 6900 c3 -5 8 -10 11 -10 2 0 4 5 4 10 0 6 -5 10 -11 10 -5 0
-7 -4 -4 -10z"/>
<path d="M3440 6889 c0 -41 24 -189 30 -189 5 0 7 15 5 33 -11 112 -19 158
-26 163 -5 3 -9 0 -9 -7z"/>
<path d="M4300 6886 c0 -2 7 -9 15 -16 9 -7 15 -8 15 -2 0 5 -7 12 -15 16 -8
3 -15 4 -15 2z"/>
<path d="M4629 6863 c-13 -16 -12 -17 4 -4 9 7 17 15 17 17 0 8 -8 3 -21 -13z"/>
<path d="M5507 6845 c9 -19 18 -33 21 -31 4 5 -26 66 -33 66 -3 0 3 -16 12
-35z"/>
<path d="M6349 6852 c-1 -15 -3 -37 -4 -49 -4 -37 13 -26 24 15 14 48 14 49
-4 56 -11 4 -15 -2 -16 -22z"/>
<path d="M6546 6871 c-4 -7 -5 -15 -2 -18 9 -9 19 4 14 18 -4 11 -6 11 -12 0z"/>
<path d="M4465 6829 c-4 -6 -5 -12 -2 -15 2 -3 7 2 10 11 7 17 1 20 -8 4z"/>
<path d="M5890 6779 c0 -5 5 -7 10 -4 6 3 10 8 10 11 0 2 -4 4 -10 4 -5 0 -10
-5 -10 -11z"/>
<path d="M6530 6753 c0 -43 5 -41 13 5 4 18 2 32 -3 32 -6 0 -10 -16 -10 -37z"/>
<path d="M6572 6760 c0 -14 2 -19 5 -12 2 6 2 18 0 25 -3 6 -5 1 -5 -13z"/>
<path d="M6386 6752 c-2 -4 -8 -25 -12 -47 -6 -35 -6 -38 8 -24 19 19 34 79
19 79 -5 0 -12 -3 -15 -8z"/>
<path d="M5770 6715 c7 -9 15 -13 17 -11 7 7 -7 26 -19 26 -6 0 -6 -6 2 -15z"/>
<path d="M6330 6720 c0 -5 5 -10 10 -10 6 0 10 5 10 10 0 6 -4 10 -10 10 -5 0
-10 -4 -10 -10z"/>
<path d="M5406 6675 c11 -48 25 -76 18 -35 -4 19 -10 42 -15 50 -6 10 -7 5 -3
-15z"/>
<path d="M5571 6684 c0 -11 3 -14 6 -6 3 7 2 16 -1 19 -3 4 -6 -2 -5 -13z"/>
<path d="M6521 6674 c0 -11 3 -14 6 -6 3 7 2 16 -1 19 -3 4 -6 -2 -5 -13z"/>
<path d="M6561 6664 c0 -11 3 -14 6 -6 3 7 2 16 -1 19 -3 4 -6 -2 -5 -13z"/>
<path d="M5845 6630 c3 -5 8 -10 11 -10 2 0 4 5 4 10 0 6 -5 10 -11 10 -5 0
-7 -4 -4 -10z"/>
<path d="M6512 6620 c0 -14 2 -19 5 -12 2 6 2 18 0 25 -3 6 -5 1 -5 -13z"/>
<path d="M4773 6622 c-54 -3 -74 -21 -49 -44 11 -11 9 -21 -12 -63 -21 -41
-26 -65 -26 -130 -1 -91 14 -137 50 -154 34 -15 40 -14 62 10 16 16 20 17 25
5 8 -20 111 -20 128 0 9 11 9 18 1 26 -7 7 -12 8 -12 4 0 -5 -6 -3 -14 3 -10
9 -14 44 -15 143 -2 108 1 134 14 148 9 10 15 26 13 36 -3 18 -49 23 -165 16z
m75 -124 l-3 -63 -49 -3 -49 -3 7 32 c8 43 52 99 77 99 18 0 20 -6 17 -62z m2
-169 c0 -54 -8 -63 -50 -54 -32 7 -44 22 -54 72 -6 28 -4 32 16 35 13 2 38 1
56 -1 31 -3 32 -4 32 -52z m-113 -35 c-3 -3 -12 -4 -19 -1 -8 3 -5 6 6 6 11 1
17 -2 13 -5z m13 -18 c0 -2 -7 -6 -15 -10 -8 -3 -15 -1 -15 4 0 6 7 10 15 10
8 0 15 -2 15 -4z m147 -2 c-3 -3 -12 -4 -19 -1 -8 3 -5 6 6 6 11 1 17 -2 13
-5z"/>
<path d="M4976 6613 c-9 -22 -8 -23 13 -23 17 0 20 -11 26 -114 8 -125 1 -196
-20 -196 -21 0 -28 -19 -15 -35 14 -17 51 -20 66 -5 8 8 19 8 38 0 95 -36 176
21 176 124 0 36 -6 52 -29 78 -26 30 -28 35 -15 53 22 30 17 82 -10 110 -22
22 -31 23 -124 23 -78 -1 -102 -4 -106 -15z m182 -72 c4 -40 -5 -51 -47 -57
-31 -5 -31 -5 -31 40 0 47 8 56 50 53 21 -2 26 -8 28 -36z m16 -130 c12 -13
16 -32 14 -62 -2 -35 -8 -46 -30 -58 -21 -12 -31 -13 -52 -3 -24 11 -26 16
-26 77 l0 65 38 0 c26 0 45 -7 56 -19z m-97 -137 c-3 -3 -12 -4 -19 -1 -8 3
-5 6 6 6 11 1 17 -2 13 -5z m-50 -20 c-3 -3 -12 -4 -19 -1 -8 3 -5 6 6 6 11 1
17 -2 13 -5z m131 -1 c-10 -2 -28 -2 -40 0 -13 2 -5 4 17 4 22 1 32 -1 23 -4z"/>
<path d="M5815 6607 c10 -15 20 -25 23 -22 3 3 -5 16 -17 28 l-23 22 17 -28z"/>
<path d="M5551 6604 c0 -11 3 -14 6 -6 3 7 2 16 -1 19 -3 4 -6 -2 -5 -13z"/>
<path d="M6546 6604 c-4 -10 -1 -14 6 -12 15 5 23 28 10 28 -5 0 -13 -7 -16
-16z"/>
<path d="M5861 6594 c0 -11 3 -14 6 -6 3 7 2 16 -1 19 -3 4 -6 -2 -5 -13z"/>
<path d="M6311 6591 c-11 -21 -11 -25 3 -33 9 -5 16 -16 16 -25 0 -9 2 -14 5
-12 2 3 1 25 -3 50 -8 43 -8 43 -21 20z"/>
<path d="M5438 6525 c2 -44 6 -82 8 -84 7 -8 2 104 -6 134 -4 17 -5 -5 -2 -50z"/>
<path d="M5563 6520 c0 -25 2 -35 4 -22 2 12 2 32 0 45 -2 12 -4 2 -4 -23z"/>
<path d="M5602 6540 c0 -14 2 -19 5 -12 2 6 2 18 0 25 -3 6 -5 1 -5 -13z"/>
<path d="M5403 6480 c0 -36 2 -50 4 -32 2 17 2 47 0 65 -2 17 -4 3 -4 -33z"/>
<path d="M5865 6530 c3 -5 8 -10 11 -10 2 0 4 5 4 10 0 6 -5 10 -11 10 -5 0
-7 -4 -4 -10z"/>
<path d="M6537 6466 c-4 -10 -5 -21 -2 -24 9 -9 17 6 13 25 -3 17 -4 17 -11
-1z"/>
<path d="M5571 6394 c0 -11 3 -14 6 -6 3 7 2 16 -1 19 -3 4 -6 -2 -5 -13z"/>
<path d="M5403 6355 c0 -27 2 -38 4 -22 2 15 2 37 0 50 -2 12 -4 0 -4 -28z"/>
<path d="M5440 6352 c0 -27 -9 -84 -20 -127 -24 -94 -20 -112 5 -23 18 65 33
198 21 198 -3 0 -6 -22 -6 -48z"/>
<path d="M5562 6335 c0 -16 2 -22 5 -12 2 9 2 23 0 30 -3 6 -5 -1 -5 -18z"/>
<path d="M5602 6300 c0 -14 2 -19 5 -12 2 6 2 18 0 25 -3 6 -5 1 -5 -13z"/>
<path d="M5860 6303 c0 -5 5 -15 10 -23 8 -12 10 -11 10 8 0 12 -4 22 -10 22
-5 0 -10 -3 -10 -7z"/>
<path d="M5546 6229 c-4 -23 -5 -44 -2 -46 2 -2 7 14 11 37 4 23 5 43 2 46 -2
3 -7 -14 -11 -37z"/>
<path d="M5822 6248 c-14 -14 -16 -28 -3 -28 5 0 11 9 14 20 6 23 5 24 -11 8z"/>
<path d="M5840 6220 c0 -5 7 -10 15 -10 8 0 15 5 15 10 0 6 -7 10 -15 10 -8 0
-15 -4 -15 -10z"/>
<path d="M5582 6200 c0 -14 2 -19 5 -12 2 6 2 18 0 25 -3 6 -5 1 -5 -13z"/>
<path d="M5713 6105 c-46 -57 -83 -109 -83 -115 0 -5 -4 -10 -8 -10 -5 0 -32
-32 -60 -72 -49 -67 -51 -72 -36 -90 15 -16 16 -18 1 -18 -9 0 -19 5 -22 10
-10 16 -20 12 -37 -17 -9 -16 -62 -84 -116 -153 -55 -69 -99 -126 -98 -128 2
-1 14 2 27 7 13 5 20 10 15 10 -23 2 36 46 102 76 75 35 216 124 209 132 -3 2
-33 -16 -68 -40 -66 -46 -127 -79 -168 -92 -39 -12 -14 14 33 35 104 44 248
163 329 273 32 42 71 126 64 134 -10 10 -26 -8 -21 -22 13 -34 -10 -31 -43 6
-34 37 -35 41 -20 57 15 14 21 14 54 3 21 -8 41 -18 45 -24 3 -6 10 6 13 26 4
21 11 40 16 43 16 9 10 24 -7 17 -9 -3 -20 0 -25 8 -13 20 -11 37 2 19 9 -12
10 -12 5 3 -3 10 -6 21 -6 23 0 17 -26 -10 -97 -101z m82 5 c3 -5 1 -10 -4
-10 -6 0 -11 5 -11 10 0 6 2 10 4 10 3 0 8 -4 11 -10z m-85 -95 c5 3 10 0 10
-8 0 -8 7 -17 15 -21 15 -5 22 -36 8 -36 -11 0 -83 52 -83 60 0 14 14 19 26 9
7 -6 18 -8 24 -4z m-75 -65 c-23 -26 -11 -39 14 -16 15 14 24 15 40 6 25 -13
26 -23 5 -55 -18 -28 -34 -33 -34 -10 0 8 5 15 10 15 6 0 10 7 10 16 0 15 -2
15 -25 0 -30 -20 -30 -20 -49 0 -14 14 -14 17 0 40 9 13 23 24 32 24 13 0 12
-3 -3 -20z m-21 -95 c38 -16 40 -35 5 -35 -12 0 -19 -7 -19 -20 0 -27 -5 -25
-39 12 -21 24 -27 36 -19 45 14 17 28 16 72 -2z"/>
<path d="M5570 5835 c7 -8 17 -12 22 -9 6 4 5 10 -3 15 -22 14 -33 10 -19 -6z"/>
<path d="M5448 6178 c-7 -16 7 -46 17 -37 3 4 2 16 -3 29 -7 18 -10 20 -14 8z"/>
<path d="M5476 6182 c6 -4 14 -14 17 -22 4 -10 6 -8 6 8 1 15 -5 22 -16 22
-11 0 -14 -3 -7 -8z"/>
<path d="M5522 6133 c-6 -20 -10 -39 -8 -41 2 -2 9 13 16 33 7 20 10 38 8 41
-3 2 -10 -13 -16 -33z"/>
<path d="M5571 6154 c0 -11 3 -14 6 -6 3 7 2 16 -1 19 -3 4 -6 -2 -5 -13z"/>
<path d="M6324 6109 c-3 -5 6 -9 20 -9 31 0 34 6 6 13 -11 3 -23 1 -26 -4z"/>
<path d="M3601 6089 c-54 -24 -50 -31 9 -18 25 6 66 9 92 6 40 -3 46 -2 45 15
-1 21 -13 24 -21 6 -5 -10 -7 -10 -12 0 -8 18 -62 14 -113 -9z"/>
<path d="M5471 6012 c-18 -37 -28 -62 -23 -57 14 14 65 116 60 120 -2 3 -19
-26 -37 -63z"/>
<path d="M6300 6070 c0 -5 5 -10 10 -10 6 0 10 5 10 10 0 6 -4 10 -10 10 -5 0
-10 -4 -10 -10z"/>
<path d="M4200 6060 c0 -5 5 -10 10 -10 6 0 10 5 10 10 0 6 -4 10 -10 10 -5 0
-10 -4 -10 -10z"/>
<path d="M5160 6057 c0 -9 -6 -17 -12 -17 -9 0 -8 -4 2 -10 23 -15 29 -12 25
11 -6 28 -15 37 -15 16z"/>
<path d="M5890 6060 c0 -5 5 -10 11 -10 5 0 7 5 4 10 -3 6 -8 10 -11 10 -2 0
-4 -4 -4 -10z"/>
<path d="M6340 6061 c0 -5 12 -11 28 -14 15 -3 36 -8 47 -12 11 -3 4 3 -15 14
-38 22 -60 26 -60 12z"/>
<path d="M3607 6045 c-58 -20 -58 -28 0 -22 55 6 70 0 47 -20 -7 -7 -15 -9
-19 -4 -6 11 -47 1 -94 -23 -38 -20 -36 -31 3 -16 15 5 42 10 59 9 l32 0 -40
-15 c-22 -8 -47 -22 -55 -31 -14 -14 -12 -15 13 -11 30 6 37 -7 9 -16 -10 -4
-32 -21 -48 -39 -16 -17 -22 -26 -14 -19 33 28 41 11 11 -27 -30 -38 -43 -67
-19 -43 23 23 29 12 9 -15 -11 -16 -22 -39 -26 -53 -7 -24 -7 -24 9 -5 8 11
16 26 16 34 0 14 45 68 126 152 34 34 43 50 37 65 -6 16 -4 17 8 7 12 -10 20
-8 42 11 15 13 27 33 27 45 0 28 18 27 30 -1 5 -13 9 -18 9 -11 2 22 -11 43
-26 43 -8 0 -11 5 -8 10 9 15 -93 12 -138 -5z"/>
<path d="M4762 6044 c-14 -16 -5 -18 17 -5 7 5 9 11 5 14 -5 3 -15 -1 -22 -9z"/>
<path d="M6240 6028 c0 -19 2 -20 10 -8 13 19 13 30 0 30 -5 0 -10 -10 -10
-22z"/>
<path d="M5434 6031 c4 -7 -2 -15 -16 -20 -22 -9 -22 -10 -2 -10 24 -1 40 24
22 35 -7 4 -8 3 -4 -5z"/>
<path d="M3447 6011 c3 -12 9 -21 14 -21 14 0 11 16 -5 29 -12 10 -13 8 -9 -8z"/>
<path d="M4791 6016 c-12 -14 -5 -26 16 -26 15 0 18 26 4 34 -5 3 -14 0 -20
-8z"/>
<path d="M5114 6009 c-9 -16 10 -31 30 -23 13 5 14 9 5 20 -14 17 -25 18 -35
3z"/>
<path d="M6335 6010 c-4 -6 6 -10 22 -10 15 0 39 -3 53 -6 l25 -5 -25 15 c-29
18 -66 21 -75 6z"/>
<path d="M4517 5999 c7 -7 15 -10 18 -7 3 3 -2 9 -12 12 -14 6 -15 5 -6 -5z"/>
<path d="M4650 6006 c0 -2 8 -10 18 -17 15 -13 16 -12 3 4 -13 16 -21 21 -21
13z"/>
<path d="M6300 5990 c0 -5 5 -10 10 -10 6 0 10 5 10 10 0 6 -4 10 -10 10 -5 0
-10 -4 -10 -10z"/>
<path d="M4825 5974 c-15 -12 -16 -14 -3 -14 9 0 18 -6 20 -12 3 -7 7 -2 10
10 8 28 -2 34 -27 16z"/>
<path d="M4630 5976 c0 -2 8 -10 18 -17 15 -13 16 -12 3 4 -13 16 -21 21 -21
13z"/>
<path d="M5080 5959 c0 -17 3 -18 20 -9 11 6 20 12 20 14 0 2 -9 6 -20 9 -15
4 -20 0 -20 -14z"/>
<path d="M6343 5965 c4 -9 3 -23 -1 -29 -6 -7 19 -48 69 -114 81 -104 91 -115
63 -60 -13 25 -13 32 -3 39 11 6 6 17 -21 44 -18 19 -29 35 -24 35 6 0 15 -5
22 -12 6 -6 15 -9 18 -5 9 9 -46 56 -76 64 -22 6 -23 7 -5 13 11 4 29 3 40 -2
16 -7 16 -5 -4 11 -13 12 -29 21 -36 21 -7 0 -21 3 -31 7 -14 5 -16 3 -11 -12z"/>
<path d="M3455 5941 c-1 -35 11 -32 17 4 3 15 1 25 -6 25 -6 0 -11 -13 -11
-29z"/>
<path d="M4873 5954 c-9 -23 14 -42 30 -25 10 11 9 13 -5 8 -10 -4 -18 -2 -18
3 0 6 7 10 16 10 8 0 12 5 9 10 -9 15 -25 12 -32 -6z"/>
<path d="M5885 5960 c-8 -13 5 -13 25 0 13 8 13 10 -2 10 -9 0 -20 -4 -23 -10z"/>
<path d="M5028 5952 c-11 -5 -14 -12 -9 -21 6 -9 11 -10 15 -3 4 6 13 9 21 5
11 -4 13 -1 9 11 -7 17 -10 18 -36 8z"/>
<path d="M4330 5941 c0 -5 6 -11 13 -14 8 -3 5 -10 -10 -22 -27 -19 -32 -41
-5 -26 43 25 45 28 33 50 -12 21 -31 29 -31 12z"/>
<path d="M4500 5941 c0 -6 4 -13 10 -16 6 -3 7 1 4 9 -7 18 -14 21 -14 7z"/>
<path d="M4700 5946 c0 -2 8 -10 18 -17 15 -13 16 -12 3 4 -13 16 -21 21 -21
13z"/>
<path d="M4920 5930 c0 -14 6 -20 23 -19 17 1 18 2 4 6 -14 4 -16 8 -6 19 9
11 8 14 -5 14 -9 0 -16 -8 -16 -20z"/>
<path d="M5851 5934 c0 -11 3 -14 6 -6 3 7 2 16 -1 19 -3 4 -6 -2 -5 -13z"/>
<path d="M6310 5940 c0 -5 7 -7 15 -4 8 4 15 8 15 10 0 2 -7 4 -15 4 -8 0 -15
-4 -15 -10z"/>
<path d="M4675 5920 c21 -24 26 -25 19 -6 -3 8 -13 17 -22 21 -13 5 -13 2 3
-15z"/>
<path d="M4215 5920 c-3 -5 -1 -10 4 -10 6 0 11 5 11 10 0 6 -2 10 -4 10 -3 0
-8 -4 -11 -10z"/>
<path d="M4475 5903 c33 -70 120 -155 223 -217 6 -4 12 -2 12 4 0 6 -11 16
-25 22 -33 15 -32 23 8 38 17 8 63 31 101 53 56 32 66 41 55 52 -20 19 -59 29
-59 15 0 -6 3 -9 8 -7 4 3 16 1 26 -2 16 -6 7 -14 -47 -45 -97 -54 -137 -66
-171 -52 -15 6 -26 14 -24 17 2 4 -19 31 -47 61 -27 31 -56 64 -63 74 -7 11
-6 5 3 -13z"/>
<path d="M4754 5901 c20 -22 26 -25 26 -13 0 4 -10 13 -22 21 -23 14 -23 14
-4 -8z"/>
<path d="M4255 5900 c3 -5 8 -10 11 -10 2 0 4 5 4 10 0 6 -5 10 -11 10 -5 0
-7 -4 -4 -10z"/>
<path d="M4597 5904 c-8 -8 3 -34 15 -34 7 0 6 5 -1 13 -6 8 -8 17 -4 20 3 4
4 7 1 7 -2 0 -7 -3 -11 -6z"/>
<path d="M4636 5883 c-6 -14 -5 -15 5 -6 7 7 10 15 7 18 -3 3 -9 -2 -12 -12z"/>
<path d="M6497 5881 c3 -12 11 -17 19 -14 8 3 14 1 14 -4 0 -6 11 -15 25 -21
39 -18 32 9 -10 36 -43 27 -55 28 -48 3z"/>
<path d="M3440 5885 c0 -7 30 -13 34 -7 3 4 -4 9 -15 9 -10 1 -19 0 -19 -2z"/>
<path d="M4743 5864 c8 -8 -92 -63 -115 -64 -9 0 -19 -4 -23 -9 -8 -14 41 2
107 35 51 25 66 44 36 44 -6 0 -8 -3 -5 -6z"/>
<path d="M3435 5850 c-3 -5 -2 -10 4 -10 5 0 13 5 16 10 3 6 2 10 -4 10 -5 0
-13 -4 -16 -10z"/>
<path d="M4338 5852 c-10 -2 -18 -9 -18 -15 0 -16 19 -45 21 -32 1 6 3 15 4
20 2 6 3 14 4 19 0 6 8 1 16 -10 12 -16 14 -17 15 -3 0 19 -17 27 -42 21z"/>
<path d="M4560 5856 c0 -2 8 -10 18 -17 15 -13 16 -12 3 4 -13 16 -21 21 -21
13z"/>
<path d="M5777 5853 c-11 -11 -8 -20 7 -20 8 0 12 6 9 14 -6 15 -7 15 -16 6z"/>
<path d="M6505 5833 c12 -30 21 -163 13 -176 -6 -9 -17 -2 -40 23 -26 29 -29
31 -14 7 10 -16 16 -30 14 -32 -8 -8 -26 12 -46 50 -12 22 -21 34 -22 27 0 -7
7 -27 16 -44 15 -29 15 -30 -1 -24 -9 3 -19 6 -21 6 -2 0 -4 8 -4 18 -1 9 -10
33 -21 52 -11 19 -18 27 -15 17 4 -11 9 -30 13 -44 8 -36 -11 -22 -38 25 -19
36 -20 36 -14 7 4 -16 11 -31 16 -33 11 -4 12 -32 2 -32 -5 0 -18 15 -30 33
-13 17 -23 27 -23 20 0 -21 12 -43 21 -37 5 3 9 -6 9 -20 0 -14 -3 -26 -7 -26
-5 0 -21 -11 -37 -25 -29 -25 -57 -25 -35 1 9 11 8 14 -4 14 -9 0 -19 -4 -22
-10 -8 -13 -45 -13 -45 1 0 5 -3 8 -7 6 -5 -2 -26 2 -48 9 -32 10 -35 13 -15
14 22 0 23 2 7 11 -9 6 -15 14 -13 18 3 5 -5 6 -18 4 -13 -3 -29 -16 -37 -29
-7 -13 -18 -24 -26 -24 -7 0 -13 -9 -13 -20 0 -11 -7 -20 -15 -20 -8 0 -15 -7
-15 -15 0 -7 -8 -19 -17 -24 -14 -8 -14 -10 -4 -11 11 0 12 -3 3 -12 -8 -8
-15 -8 -24 0 -11 8 -20 3 -41 -24 -16 -19 -25 -39 -21 -45 4 -6 0 -15 -7 -20
-19 -12 -32 -11 -24 1 13 20 -9 9 -74 -40 -171 -126 -431 -218 -667 -236 -100
-8 -98 -16 -19 83 39 49 42 50 115 62 109 17 185 40 212 65 12 11 25 20 28 19
3 -1 19 37 35 84 16 47 35 87 42 90 7 3 50 -2 95 -10 46 -8 86 -13 89 -11 4 2
7 43 8 91 1 48 3 88 4 90 2 1 32 6 67 12 l65 9 -78 -1 c-70 -2 -81 -5 -100
-27 l-22 -25 29 25 28 25 -3 -87 c-2 -47 -7 -89 -10 -93 -4 -3 -48 2 -99 11
-89 16 -92 18 -66 31 14 7 26 16 26 19 0 2 -13 -2 -29 -10 -21 -12 -30 -25
-35 -54 -3 -22 -13 -52 -21 -68 -8 -16 -15 -36 -16 -44 0 -8 -6 -3 -12 11 -17
38 -37 59 -56 58 -12 0 -10 -3 6 -11 12 -6 27 -24 33 -41 12 -36 -5 -69 -48
-91 -36 -19 -185 -49 -209 -43 -13 3 -12 5 6 6 55 3 204 44 222 62 28 28 25
75 -6 95 -21 14 -32 15 -69 5 -24 -6 -59 -9 -78 -6 -27 4 -29 4 -13 -5 16 -8
12 -9 -20 -5 -28 3 -35 2 -25 -5 12 -8 10 -10 -8 -10 -13 0 -21 4 -18 8 5 9
-133 -3 -142 -12 -2 -3 26 -4 64 -1 78 5 68 -1 -18 -10 -32 -4 -58 -11 -58
-16 0 -5 12 -8 28 -7 26 3 27 1 28 -39 1 -43 -9 -56 -20 -28 -8 22 -26 18 -26
-5 0 -11 -4 -20 -10 -20 -9 0 -15 48 -12 91 1 13 -15 17 -86 22 -48 4 -121 14
-162 23 -139 29 -129 29 -123 5 3 -12 0 -28 -7 -36 -19 -23 -31 -18 -20 10 7
20 6 25 -5 25 -36 0 -26 -78 13 -99 30 -16 143 -39 225 -47 42 -4 77 -10 77
-14 0 -7 -12 -6 -140 10 -161 21 -224 58 -257 155 -8 25 -17 44 -19 42 -2 -2
5 -30 16 -62 20 -59 46 -92 90 -115 31 -17 175 -49 217 -50 30 0 83 -38 83
-59 0 -4 9 -16 21 -27 11 -10 25 -27 31 -38 10 -19 7 -19 -103 -13 -63 4 -129
11 -146 16 -24 7 -33 6 -33 -2 0 -9 -2 -9 -8 0 -4 6 -36 19 -71 28 -35 9 -93
28 -128 42 -40 16 -72 23 -88 19 -30 -8 -94 32 -73 46 23 14 -15 9 -44 -6 -32
-17 -38 -7 -8 12 11 7 20 17 20 23 0 6 -8 3 -17 -6 -16 -16 -17 -16 -30 1 -7
10 -13 26 -13 35 0 10 -4 21 -10 24 -6 4 -10 -5 -10 -19 0 -14 -5 -26 -11 -26
-5 0 -7 5 -3 12 5 8 2 9 -12 4 -10 -5 -28 -11 -39 -14 -11 -2 -28 -12 -37 -20
-16 -13 -18 -13 -25 3 -6 18 -7 18 -13 0 -3 -10 -16 -20 -28 -21 -16 -3 -20 0
-15 14 5 15 4 15 -9 -1 -11 -16 -16 -16 -25 -5 -10 12 -16 51 -14 91 1 19 31
24 31 5 1 -7 9 -3 19 9 10 12 21 19 25 16 3 -4 6 1 6 9 0 12 -9 15 -37 12 -21
-1 -29 0 -18 3 23 6 44 32 45 53 0 13 -1 13 -10 0 -9 -13 -10 -13 -10 0 0 13
-1 13 -10 0 -8 -12 -10 -11 -10 6 0 13 -8 24 -19 27 -11 3 -21 17 -25 38 -3
19 -15 45 -25 58 -18 23 -18 23 -37 4 -33 -35 -94 -62 -94 -42 0 6 -4 7 -10 4
-14 -9 -12 8 3 25 10 12 9 12 -5 2 -20 -16 -34 1 -15 20 7 7 16 22 20 33 5 15
3 14 -11 -5 -22 -31 -62 -75 -62 -67 0 3 12 28 26 57 14 28 24 55 22 61 -2 6
-15 -12 -28 -39 -29 -58 -60 -85 -60 -52 0 11 4 20 9 20 11 0 36 63 45 110 3
19 3 28 0 20 -23 -54 -57 -121 -65 -125 -13 -9 -11 7 7 50 8 20 13 44 11 53
-3 12 -6 8 -12 -11 -7 -27 -64 -138 -65 -126 0 3 7 29 16 58 8 29 14 55 12 57
-2 2 -17 -26 -32 -61 -16 -36 -32 -65 -37 -65 -12 0 -11 3 6 36 8 16 15 36 15
43 0 8 -12 -8 -26 -37 -14 -29 -30 -52 -35 -52 -5 0 -4 10 2 23 11 20 11 21
-4 8 -10 -7 -17 -22 -17 -32 0 -11 -3 -18 -7 -18 -25 4 -43 -3 -43 -17 0 -8 4
-13 9 -9 17 10 20 -11 7 -36 -14 -27 -13 -76 2 -117 15 -38 22 -112 11 -112
-5 0 -9 5 -9 11 0 5 -4 8 -9 5 -14 -9 -18 -76 -5 -86 7 -7 139 -6 370 1 536
16 564 15 630 -16 91 -43 266 -84 411 -96 147 -13 291 -3 444 31 105 23 280
86 297 108 7 9 12 11 12 4 0 -9 117 -11 492 -9 l492 2 2 32 c1 22 -3 33 -16
36 -12 3 -19 17 -21 44 -6 59 0 76 23 70 19 -5 20 -2 15 140 -4 140 -9 162
-38 163 -4 0 -6 6 -6 13 1 21 -24 77 -35 77 -6 0 -7 -8 -3 -17z m-2760 -233
c3 -5 1 -10 -4 -10 -6 0 -11 5 -11 10 0 6 2 10 4 10 3 0 8 -4 11 -10z m45 -71
c0 -11 -4 -17 -10 -14 -5 3 -10 15 -10 26 0 11 5 17 10 14 6 -3 10 -15 10 -26z
m127 -31 c-3 -8 -6 -5 -6 6 -1 11 2 17 5 13 3 -3 4 -12 1 -19z m2281 -41 c3
-22 -1 -27 -17 -27 -16 0 -21 -6 -21 -25 0 -14 5 -25 11 -25 6 0 8 9 4 20 -7
23 19 29 28 6 9 -22 -17 -61 -39 -58 -28 5 -35 16 -35 48 2 57 4 64 23 64 10
0 18 7 18 16 0 26 25 9 28 -19z m-1504 17 c18 -7 23 -94 6 -94 -5 0 -10 5 -10
11 0 6 -10 9 -22 7 -13 -1 -25 1 -27 5 -3 7 29 77 35 77 2 0 9 -3 18 -6z m613
-35 l22 -40 -28 6 c-21 4 -30 2 -35 -10 -10 -27 -21 -9 -20 32 2 54 2 53 22
53 10 0 26 -17 39 -41z m799 21 c5 1 10 -3 12 -9 2 -6 -6 -11 -17 -11 -26 0
-26 -5 -1 -32 33 -36 26 -58 -17 -58 l-38 0 1 57 c1 47 4 58 18 57 9 -1 16 3
16 10 0 7 4 6 9 -2 4 -8 12 -13 17 -12z m-920 -13 c-25 -18 -17 -50 14 -57
l25 -6 -23 -8 c-31 -10 -52 9 -52 50 0 26 4 33 23 36 30 5 34 0 13 -15z m822
14 c15 -1 13 -102 -2 -113 -6 -4 -16 5 -22 20 -12 25 -12 26 -13 5 -1 -13 -7
-23 -16 -23 -11 0 -15 13 -15 53 0 61 2 65 32 61 13 -1 29 -3 36 -3z m-1217
-28 l0 -28 16 23 c8 12 22 22 30 22 11 0 14 -7 9 -22 -3 -13 -6 -33 -6 -45 0
-13 -4 -23 -10 -23 -5 0 -10 7 -10 15 0 8 -4 15 -10 15 -5 0 -10 -4 -10 -10 0
-5 -4 -10 -10 -10 -5 0 -10 9 -10 20 0 11 -4 20 -10 20 -5 0 -10 -9 -10 -20 0
-11 -5 -20 -11 -20 -8 0 -9 11 -5 31 3 17 6 38 6 45 0 8 9 14 20 14 15 0 20
-7 21 -27z m1467 10 c2 -35 -10 -93 -19 -93 -5 0 -9 25 -9 55 0 39 4 55 13 55
8 0 14 -8 15 -17z m72 7 c0 -5 -7 -10 -15 -10 -8 0 -15 -4 -15 -10 0 -5 7 -10
15 -10 20 0 32 -50 14 -61 -24 -15 -59 -11 -53 6 3 8 11 13 16 12 6 -1 13 4
15 11 3 6 -2 12 -11 12 -11 0 -16 9 -16 30 0 25 4 30 25 30 14 0 25 -4 25 -10z
m75 0 c3 -5 1 -10 -4 -10 -6 0 -11 -18 -11 -39 0 -22 -4 -43 -10 -46 -6 -4
-10 10 -10 34 0 23 -4 41 -10 41 -5 0 -10 7 -10 15 0 17 45 21 55 5z m60 0 c3
-5 0 -10 -7 -10 -9 0 -14 -13 -15 -35 -1 -24 3 -35 13 -35 8 0 14 -4 14 -10 0
-5 -11 -10 -25 -10 -24 0 -25 3 -25 55 0 48 3 55 19 55 11 0 23 -4 26 -10z
m63 -51 c-1 -48 -17 -70 -19 -26 l-2 22 -4 -22 c-8 -41 -23 -24 -23 25 0 55 4
62 30 55 16 -4 19 -14 18 -54z m-1414 29 c9 -34 7 -68 -3 -68 -12 0 -21 26
-21 61 0 34 15 39 24 7z m-1436 -15 c9 -27 9 -28 16 -5 4 12 13 22 20 22 16 0
21 -96 6 -105 -6 -4 -10 6 -11 22 0 23 -2 25 -8 9 -4 -11 -17 -21 -29 -23 -20
-3 -22 1 -22 52 0 59 13 72 28 28z m131 -10 c19 -67 12 -89 -18 -60 -11 10
-14 10 -18 0 -3 -7 -9 -13 -15 -13 -10 0 -3 84 9 103 11 19 33 3 42 -30z m105
25 c3 -7 7 -26 10 -43 5 -22 4 -26 -4 -15 -14 21 -14 -5 0 -31 15 -26 -4 -25
-30 3 -17 18 -20 19 -20 5 0 -9 -7 -17 -15 -17 -12 0 -15 13 -15 55 l0 55 35
0 c20 0 37 -6 39 -12z m1019 5 c-24 -5 -32 -23 -10 -23 7 -1 5 -6 -5 -14 -25
-18 -22 -26 8 -26 14 0 23 -4 19 -9 -3 -6 -18 -9 -33 -8 -24 2 -27 7 -30 45
l-3 42 38 -1 c23 -1 29 -3 16 -6z m-1409 -15 c5 -10 7 -10 12 0 7 14 54 16 54
2 0 -5 -7 -10 -16 -10 -13 0 -14 -3 -5 -14 8 -10 9 -16 1 -21 -15 -9 -12 -25
5 -25 8 0 15 -7 15 -16 0 -10 -7 -14 -22 -12 -17 2 -25 12 -29 38 -4 19 -7 29
-8 23 -2 -25 -3 -28 -12 -45 -5 -10 -16 -18 -24 -18 -11 0 -15 13 -15 55 0 48
3 55 19 55 11 0 22 -6 25 -12z m2351 2 c3 -5 -1 -10 -9 -10 -9 0 -16 5 -16 10
0 6 4 10 9 10 6 0 13 -4 16 -10z m-1750 -90 c-3 -5 -1 -10 4 -10 6 0 11 -5 11
-11 0 -8 -5 -8 -15 1 -13 11 -12 30 1 30 3 0 2 -4 -1 -10z m1004 6 c-9 -9
-219 -18 -219 -10 0 5 50 10 112 11 61 2 109 1 107 -1z m-1130 -62 c-10 -9
-19 -10 -29 -4 -12 8 -11 10 8 10 14 0 22 6 23 18 0 11 2 13 6 4 3 -8 -1 -20
-8 -28z m198 14 c-3 -8 -6 -5 -6 6 -1 11 2 17 5 13 3 -3 4 -12 1 -19z m-160
-10 c-3 -8 -6 -5 -6 6 -1 11 2 17 5 13 3 -3 4 -12 1 -19z m997 -39 c-26 -33
-51 -62 -55 -64 -5 -4 -23 16 -92 102 l-18 23 106 0 106 0 -47 -61z"/>
<path d="M4676 5441 c-4 -7 -5 -15 -2 -18 9 -9 19 4 14 18 -4 11 -6 11 -12 0z"/>
<path d="M5260 5446 c0 -17 14 -29 23 -20 8 8 -3 34 -14 34 -5 0 -9 -6 -9 -14z"/>
<path d="M6080 5390 c0 -5 5 -10 10 -10 6 0 10 5 10 10 0 6 -4 10 -10 10 -5 0
-10 -4 -10 -10z"/>
<path d="M5970 5429 c0 -5 5 -7 10 -4 6 3 10 8 10 11 0 2 -4 4 -10 4 -5 0 -10
-5 -10 -11z"/>
<path d="M3781 5384 c0 -11 3 -14 6 -6 3 7 2 16 -1 19 -3 4 -6 -2 -5 -13z"/>
<path d="M3870 5410 c0 -5 5 -10 11 -10 5 0 7 5 4 10 -3 6 -8 10 -11 10 -2 0
-4 -4 -4 -10z"/>
<path d="M3498 5375 c-3 -14 -1 -25 3 -25 5 0 9 11 9 25 0 14 -2 25 -4 25 -2
0 -6 -11 -8 -25z"/>
<path d="M4425 5828 c4 -11 -3 -30 -20 -51 l-26 -35 38 -31 c21 -18 71 -48
112 -69 40 -20 76 -42 79 -50 3 -8 16 -25 28 -38 13 -12 24 -28 24 -34 0 -5 5
-10 10 -10 6 0 10 4 10 10 0 8 -204 264 -247 310 -12 13 -13 13 -8 -2z m15
-73 c0 -1 -11 -5 -25 -7 -20 -4 -23 -2 -14 8 8 10 39 10 39 -1z"/>
<path d="M5689 5823 c-13 -16 -12 -17 4 -4 9 7 17 15 17 17 0 8 -8 3 -21 -13z"/>
<path d="M5871 5824 c0 -11 3 -14 6 -6 3 7 2 16 -1 19 -3 4 -6 -2 -5 -13z"/>
<path d="M4982 5818 c-16 -16 -15 -35 3 -42 20 -7 45 3 45 18 0 13 -20 36 -30
36 -3 0 -11 -5 -18 -12z m36 -16 c2 -7 -6 -12 -17 -12 -21 0 -27 11 -14 24 9
9 26 2 31 -12z"/>
<path d="M6566 5811 c-4 -7 -5 -15 -2 -18 9 -9 19 4 14 18 -4 11 -6 11 -12 0z"/>
<path d="M3451 5794 c0 -11 3 -14 6 -6 3 7 2 16 -1 19 -3 4 -6 -2 -5 -13z"/>
<path d="M5162 5797 c-9 -10 -9 -18 1 -31 17 -23 49 -11 45 18 -4 25 -30 32
-46 13z m36 -15 c2 -7 -3 -12 -12 -12 -9 0 -16 7 -16 16 0 17 22 14 28 -4z"/>
<path d="M4807 5773 c6 -27 -11 -31 -27 -5 -11 16 -11 16 -6 -1 3 -10 6 -21 6
-23 0 -8 39 -4 44 5 3 4 -1 17 -9 27 -13 18 -14 18 -8 -3z"/>
<path d="M4350 5769 c0 -5 5 -7 10 -4 6 3 10 8 10 11 0 2 -4 4 -10 4 -5 0 -10
-5 -10 -11z"/>
<path d="M3436 5737 c-5 -21 -6 -41 -2 -44 12 -12 17 5 14 43 l-4 39 -8 -38z"/>
<path d="M6127 5733 c-11 -10 -8 -53 3 -53 6 0 10 10 10 23 1 21 1 22 15 3 8
-11 15 -15 15 -9 0 14 -35 44 -43 36z"/>
<path d="M5004 5697 c15 -11 16 -16 6 -22 -8 -5 -18 -1 -27 10 -14 20 -18 9
-4 -13 5 -8 17 -12 27 -10 26 5 25 42 -1 46 -20 4 -20 3 -1 -11z"/>
<path d="M4252 5675 c0 -16 2 -22 5 -12 2 9 2 23 0 30 -3 6 -5 -1 -5 -18z"/>
<path d="M5580 5670 c-19 -16 -30 -30 -23 -30 6 0 13 6 16 13 3 9 9 9 25 0 20
-12 21 -11 19 17 -1 17 -2 30 -2 30 0 0 -16 -14 -35 -30z"/>
<path d="M6220 5686 c0 -9 5 -16 10 -16 6 0 10 4 10 9 0 6 -4 13 -10 16 -5 3
-10 -1 -10 -9z"/>
<path d="M6280 5666 c0 -9 5 -16 10 -16 6 0 10 4 10 9 0 6 -4 13 -10 16 -5 3
-10 -1 -10 -9z"/>
<path d="M3950 5621 c0 -5 5 -13 10 -16 6 -3 10 -2 10 4 0 5 -4 13 -10 16 -5
3 -10 2 -10 -4z"/>
<path d="M5390 5564 l-25 -15 25 7 c14 3 29 10 35 15 15 14 -7 10 -35 -7z"/>
<path d="M4308 5553 c6 -2 18 -2 25 0 6 3 1 5 -13 5 -14 0 -19 -2 -12 -5z"/>
<path d="M5325 5540 c-18 -8 -17 -9 8 -9 15 -1 27 4 27 9 0 12 -8 12 -35 0z"/>
<path d="M4595 5530 c3 -5 16 -10 28 -9 21 0 21 1 2 9 -28 12 -37 12 -30 0z"/>
<path d="M4748 5493 c6 -2 18 -2 25 0 6 3 1 5 -13 5 -14 0 -19 -2 -12 -5z"/>
<path d="M4535 5479 c-4 -6 -5 -12 -2 -15 2 -3 7 2 10 11 7 17 1 20 -8 4z"/>
<path d="M4808 5483 c6 -2 18 -2 25 0 6 3 1 5 -13 5 -14 0 -19 -2 -12 -5z"/>
<path d="M4908 5473 c12 -2 30 -2 40 0 9 3 -1 5 -23 4 -22 0 -30 -2 -17 -4z"/>
<path d="M4031 5424 c0 -11 3 -14 6 -6 3 7 2 16 -1 19 -3 4 -6 -2 -5 -13z"/>
<path d="M5002 5419 c2 -6 8 -10 13 -10 5 0 11 4 13 10 2 6 -4 11 -13 11 -9 0
-15 -5 -13 -11z"/>
<path d="M6566 5403 c1 -39 24 -42 24 -4 0 19 -5 31 -13 31 -7 0 -12 -11 -11
-27z"/>
<path d="M4310 5311 c0 -5 5 -13 10 -16 6 -3 10 -2 10 4 0 5 -4 13 -10 16 -5
3 -10 2 -10 -4z"/>
<path d="M3455 4609 c-19 -17 -35 -40 -35 -50 0 -25 4 -24 36 6 54 50 89 9 79
-93 -7 -74 -40 -154 -85 -205 -32 -37 -32 -39 -24 -95 9 -65 9 -124 -1 -309
-4 -74 -4 -133 1 -133 12 0 80 76 127 143 22 31 41 56 43 54 2 -1 -3 -21 -11
-42 -30 -84 -10 -165 41 -165 28 0 81 39 129 93 l45 51 -7 -52 c-5 -42 -2 -56
12 -72 41 -46 121 -17 212 77 36 37 62 59 57 48 -4 -11 -9 -38 -11 -60 -6 -56
22 -85 83 -85 66 0 107 22 185 96 38 37 69 65 69 63 0 -2 -7 -26 -15 -52 -13
-43 -13 -52 0 -77 39 -75 186 -31 304 90 21 22 41 40 44 40 2 0 -4 -17 -14
-38 -26 -52 -17 -97 24 -119 62 -32 160 4 260 96 34 31 57 47 53 36 -28 -68
-18 -111 31 -131 95 -40 249 46 369 210 32 42 46 54 50 43 3 -9 21 -23 39 -32
31 -14 33 -18 25 -41 -11 -28 -13 -104 -4 -129 11 -28 64 -48 127 -46 82 2
162 45 251 136 39 38 66 61 62 50 -5 -11 -16 -43 -24 -72 -14 -47 -13 -54 1
-76 21 -32 43 -37 97 -21 73 21 161 114 281 297 l61 92 -7 -60 c-9 -85 -34
-202 -51 -245 -8 -21 -27 -43 -41 -51 -24 -13 -27 -12 -52 19 -36 42 -53 42
-49 0 4 -43 42 -62 100 -53 55 10 115 66 173 163 l46 77 -7 -60 c-8 -65 -8
-69 -6 -102 2 -22 34 -63 50 -63 4 0 8 80 9 177 3 157 1 175 -12 157 -8 -10
-15 -22 -15 -25 0 -7 -90 -169 -93 -169 -1 0 -1 66 1 147 3 110 7 152 18 164
16 18 19 65 3 74 -16 11 -46 -23 -53 -60 -9 -48 -176 -294 -251 -371 -48 -49
-70 -65 -87 -62 -37 5 -25 46 70 235 47 95 83 175 80 179 -4 3 -25 3 -48 -1
-29 -5 -45 -15 -57 -33 -118 -191 -240 -330 -324 -370 -103 -49 -157 -18 -128
75 14 45 16 47 81 69 118 39 209 121 224 199 10 55 -8 75 -69 74 -68 0 -126
-25 -189 -79 -46 -39 -131 -143 -140 -172 -5 -13 -64 18 -72 39 -3 7 13 50 35
97 45 97 44 119 -9 114 -45 -4 -70 -43 -78 -120 -12 -116 -137 -277 -246 -315
-22 -7 -44 -11 -49 -8 -15 10 -10 43 12 88 24 47 165 273 186 298 7 8 13 20
13 25 0 13 -120 5 -137 -8 -7 -5 -41 -51 -77 -101 -126 -177 -264 -307 -327
-307 -19 0 -21 4 -15 32 6 29 120 207 211 328 19 25 34 49 34 53 1 12 -130 5
-140 -7 -40 -53 -211 -251 -248 -287 -97 -96 -176 -141 -195 -111 -16 26 44
138 206 387 35 55 86 134 113 175 26 41 70 108 97 148 l48 72 -67 0 c-38 0
-73 -4 -79 -8 -13 -8 -62 -82 -174 -259 l-83 -132 -28 19 c-34 25 -116 27
-183 4 -59 -20 -150 -103 -224 -204 -70 -94 -186 -210 -211 -210 -10 0 -22 7
-25 16 -6 15 20 87 54 149 55 101 97 174 117 204 12 18 21 36 19 40 -2 3 -28
5 -58 3 l-54 -4 -82 -138 c-48 -82 -105 -162 -139 -199 -57 -59 -93 -77 -93
-45 0 25 48 138 112 268 33 65 57 121 54 124 -3 3 -27 1 -53 -4 -44 -8 -49
-13 -83 -71 -43 -78 -192 -293 -202 -293 -4 0 2 25 13 57 29 84 27 214 -5 277
l-24 47 28 14 c78 40 140 161 140 271 0 76 -18 117 -60 139 -44 23 -76 18
-115 -16z m2495 -440 c0 -58 -80 -152 -156 -184 -67 -28 -69 -16 -12 69 77
116 168 178 168 115z m-1449 -9 c39 -22 20 -68 -85 -205 -112 -146 -206 -216
-232 -173 -39 62 123 320 231 369 46 22 59 23 86 9z"/>
<path d="M6286 4461 c-26 -28 -32 -84 -11 -104 22 -23 31 -21 60 8 17 16 25
35 25 58 0 55 -40 76 -74 38z"/>
<path d="M3503 2745 c0 -22 2 -30 4 -17 2 12 2 30 0 40 -3 9 -5 -1 -4 -23z"/>
<path d="M3546 2765 c4 -8 8 -15 10 -15 2 0 4 7 4 15 0 8 -4 15 -10 15 -5 0
-7 -7 -4 -15z"/>
<path d="M3595 2750 c8 -16 15 -39 16 -52 1 -22 1 -22 8 2 4 16 1 35 -8 52
-21 37 -36 36 -16 -2z"/>
<path d="M6502 2745 c0 -16 2 -22 5 -12 2 9 2 23 0 30 -3 6 -5 -1 -5 -18z"/>
<path d="M5456 2737 c-5 -15 -6 -31 -2 -34 11 -11 18 5 14 34 l-4 28 -8 -28z"/>
<path d="M4821 2700 c-1 -28 3 -50 9 -50 5 0 10 23 10 50 0 28 -4 50 -8 50 -5
0 -10 -22 -11 -50z"/>
<path d="M4910 2744 c0 -8 93 -93 103 -94 18 0 3 21 -40 59 -44 38 -63 49 -63
35z"/>
<path d="M5137 2718 c10 -18 21 -34 26 -36 4 -2 7 -10 7 -18 0 -8 8 -14 17
-14 14 0 13 3 -5 23 -12 13 -22 30 -22 38 0 16 -19 39 -33 39 -4 0 0 -15 10
-32z"/>
<path d="M5543 2725 c0 -8 4 -12 9 -9 4 3 8 9 8 15 0 5 -4 9 -8 9 -5 0 -9 -7
-9 -15z"/>
<path d="M5690 2729 c0 -5 5 -7 10 -4 6 3 10 8 10 11 0 2 -4 4 -10 4 -5 0 -10
-5 -10 -11z"/>
<path d="M3550 2709 c0 -11 4 -18 10 -14 5 3 7 12 3 20 -7 21 -13 19 -13 -6z"/>
<path d="M4641 2714 c0 -11 3 -14 6 -6 3 7 2 16 -1 19 -3 4 -6 -2 -5 -13z"/>
<path d="M3811 2704 c0 -11 3 -14 6 -6 3 7 2 16 -1 19 -3 4 -6 -2 -5 -13z"/>
<path d="M5240 2685 c0 -19 5 -35 10 -35 6 0 10 16 10 35 0 19 -4 35 -10 35
-5 0 -10 -16 -10 -35z"/>
<path d="M3621 2524 c0 -11 3 -14 6 -6 3 7 2 16 -1 19 -3 4 -6 -2 -5 -13z"/>
<path d="M3693 2490 c0 -25 2 -35 4 -22 2 12 2 32 0 45 -2 12 -4 2 -4 -23z"/>
<path d="M6472 2500 c0 -19 2 -27 5 -17 2 9 2 25 0 35 -3 9 -5 1 -5 -18z"/>
<path d="M5522 2495 c0 -16 2 -22 5 -12 2 9 2 23 0 30 -3 6 -5 -1 -5 -18z"/>
<path d="M5130 2460 c29 -27 57 -50 62 -50 16 0 8 18 -16 33 -13 9 -36 28 -52
42 -15 14 -32 25 -37 25 -6 0 14 -22 43 -50z"/>
<path d="M5691 2494 c0 -11 3 -14 6 -6 3 7 2 16 -1 19 -3 4 -6 -2 -5 -13z"/>
<path d="M4960 2495 c0 -10 53 -85 57 -81 7 7 -37 86 -47 86 -6 0 -10 -2 -10
-5z"/>
<path d="M5360 2486 c0 -8 5 -18 10 -21 6 -3 10 1 10 9 0 8 -4 18 -10 21 -5 3
-10 -1 -10 -9z"/>
<path d="M6206 2474 c-4 -9 -4 -19 -1 -22 2 -3 7 3 11 12 4 9 4 19 1 22 -2 3
-7 -3 -11 -12z"/>
<path d="M3740 2475 c0 -5 5 -17 10 -25 5 -8 10 -10 10 -5 0 6 -5 17 -10 25
-5 8 -10 11 -10 5z"/>
<path d="M5268 2450 c6 -42 19 -46 14 -4 -2 19 -7 34 -11 34 -4 0 -6 -14 -3
-30z"/>
<path d="M3621 2454 c0 -11 3 -14 6 -6 3 7 2 16 -1 19 -3 4 -6 -2 -5 -13z"/>
<path d="M5606 2443 c-6 -14 -5 -15 5 -6 7 7 10 15 7 18 -3 3 -9 -2 -12 -12z"/>
<path d="M6530 2004 c-47 -11 -439 -44 -580 -49 -91 -3 -201 -8 -245 -10 -161
-9 -1396 -13 -1595 -4 -199 8 -506 31 -622 48 l-57 8 -1 -288 c0 -199 3 -296
12 -313 14 -32 25 -33 31 -3 4 21 4 21 6 1 0 -12 9 -24 19 -26 20 -5 210 -12
357 -12 l100 -1 3 88 c2 53 7 87 13 87 7 0 10 -33 7 -95 l-3 -95 108 0 c107 0
107 0 107 24 0 18 -9 29 -32 40 -17 9 -36 16 -43 16 -38 0 -61 81 -27 99 35
18 122 12 122 -9 0 -16 -22 -22 -33 -11 -16 16 -62 14 -77 -4 -18 -21 12 -53
56 -61 19 -3 34 -10 34 -15 0 -5 7 -9 16 -9 13 0 15 -7 11 -35 -6 -34 -5 -35
26 -35 18 0 42 -3 55 -6 22 -6 22 -6 20 90 l-3 96 72 0 c39 0 75 -4 78 -10 4
-6 -18 -10 -59 -10 l-66 0 0 -29 c0 -30 19 -45 45 -35 8 4 23 3 33 -1 16 -6
16 -7 -1 -16 -9 -6 -26 -8 -36 -4 -23 7 -26 2 -35 -47 l-7 -38 116 0 c132 0
118 -14 115 117 l-1 73 66 -5 c53 -4 71 -10 86 -27 26 -32 23 -54 -10 -79
l-30 -22 27 -33 27 -34 154 0 c135 0 155 2 167 18 13 16 13 16 14 0 0 -15 10
-18 64 -18 42 0 66 4 70 13 5 10 7 10 12 0 4 -9 28 -13 68 -13 l63 0 -5 103
c-2 56 -2 99 2 96 4 -4 8 -43 11 -88 2 -46 9 -89 16 -97 19 -23 92 -18 117 9
19 20 22 35 22 101 0 42 4 75 8 72 9 -5 6 -154 -4 -179 -5 -15 1 -17 44 -17
28 0 53 4 56 9 3 5 32 7 64 4 45 -4 60 -2 71 10 20 25 9 49 -31 63 -57 20 -88
44 -88 70 0 41 56 64 118 48 42 -12 22 -23 -33 -17 -46 5 -56 3 -61 -12 -11
-28 9 -49 60 -63 52 -15 82 -49 71 -82 -6 -19 -2 -20 56 -20 61 0 62 0 44 20
-14 15 -18 34 -17 77 2 51 6 62 32 86 17 15 38 27 48 28 9 0 24 2 32 3 22 5
62 -12 56 -23 -3 -5 -25 -6 -48 -4 -60 7 -87 -16 -94 -80 -5 -41 -3 -52 17
-73 24 -26 58 -31 91 -13 14 8 23 8 31 0 6 -6 28 -11 49 -11 l38 0 0 100 c0
60 4 100 10 100 10 0 14 -18 10 -59 -2 -22 1 -23 30 -17 18 3 43 6 56 6 21 0
24 5 26 38 1 20 4 -8 7 -63 l6 -100 75 3 c112 5 211 19 224 32 7 7 12 108 14
320 3 338 7 317 -48 304z m7 -446 c-3 -8 -6 -5 -6 6 -1 11 2 17 5 13 3 -3 4
-12 1 -19z m-3017 -76 c19 -2 40 -8 45 -13 9 -9 -55 -5 -90 6 -6 1 -8 23 -6
51 l5 49 6 -45 c5 -43 7 -45 40 -48z m227 62 c-3 -4 -24 -6 -47 -6 -39 1 -40
0 -40 -34 0 -32 7 -39 38 -35 6 1 12 -3 12 -10 0 -7 -9 -9 -24 -5 -22 5 -25 2
-29 -26 -2 -18 -5 2 -5 45 l-2 77 52 0 c28 0 49 -3 45 -6z m95 -111 c2 -39 0
-69 -4 -67 -4 3 -7 44 -7 92 2 96 6 86 11 -25z m2728 72 c0 -5 -5 -3 -10 5 -5
8 -10 20 -10 25 0 6 5 3 10 -5 5 -8 10 -19 10 -25z m-1487 -2 c-9 -3 -13 -28
-13 -75 0 -91 -8 -84 -13 10 -3 67 -2 72 17 71 12 0 15 -3 9 -6z m60 0 c-7 -2
-21 -2 -30 0 -10 3 -4 5 12 5 17 0 24 -2 18 -5z m67 -37 c0 -14 -7 -31 -15
-39 -8 -8 -12 -16 -10 -18 2 -2 -19 -3 -46 -3 -66 2 -76 14 -12 14 56 0 79 17
70 50 -3 11 -1 20 4 20 5 0 9 -11 9 -24z m1247 -73 c-2 -16 -4 -3 -4 27 0 30
2 43 4 28 2 -16 2 -40 0 -55z m-2890 15 c-3 -7 -5 -2 -5 12 0 14 2 19 5 13 2
-7 2 -19 0 -25z m1652 -43 l0 -20 -9 20 c-5 11 -9 27 -9 35 -1 13 0 13 9 0 5
-8 9 -24 9 -35z m-306 18 c-13 -2 -33 -2 -45 0 -13 2 -3 4 22 4 25 0 35 -2 23
-4z"/>
<path d="M4590 1451 c0 -56 6 -61 64 -50 96 17 84 99 -15 99 l-49 0 0 -49z"/>
<path d="M6173 1443 c-32 -4 -33 -5 -33 -54 l0 -49 55 0 55 0 0 55 c0 60 4 58
-77 48z"/>
<path d="M4596 1371 c-18 -29 47 -63 90 -47 15 6 15 9 1 29 -15 23 -80 37 -91
18z"/>
</g>
</svg>
