<?xml version="1.0" standalone="no"?>
<!DOCTYPE svg PUBLIC "-//W3C//DTD SVG 20010904//EN"
 "http://www.w3.org/TR/2001/REC-SVG-20010904/DTD/svg10.dtd">
<svg version="1.0" xmlns="http://www.w3.org/2000/svg"
 width="1000.000000pt" height="1000.000000pt" viewBox="0 0 1000.000000 1000.000000"
 preserveAspectRatio="xMidYMid meet">

<g transform="translate(0.000000,1000.000000) scale(0.100000,-0.100000)"
fill="#000000" stroke="none">
<path d="M3982 7873 c-31 -55 -130 -172 -155 -184 l-22 -10 3 -312 c3 -303 0
-377 -17 -377 -4 0 -13 17 -19 38 -23 79 -34 183 -33 342 0 226 29 384 87 469
27 40 25 48 -8 30 -53 -28 -86 -90 -109 -204 -10 -52 -14 -155 -14 -395 0
-277 3 -335 18 -395 22 -88 46 -115 102 -115 42 0 120 35 145 65 17 21 30 9
30 -28 0 -24 -6 -35 -22 -42 -20 -9 -23 -18 -23 -65 0 -49 2 -55 22 -58 33 -5
44 28 44 138 0 98 0 99 34 137 37 42 38 54 1 30 -13 -9 -26 -14 -28 -12 -3 3
-3 175 -1 382 2 208 4 384 3 391 0 7 14 12 39 12 23 0 51 9 71 23 43 29 49 47
16 47 -27 0 -126 91 -126 117 0 24 -16 14 -38 -24z m8 -558 c0 -299 -3 -404
-12 -413 -30 -30 -158 3 -158 40 0 7 20 53 45 102 l45 89 0 307 c0 169 3 309
6 313 3 3 21 -4 40 -16 l34 -22 0 -400z"/>
<path d="M4628 7622 c-31 -20 -57 -41 -58 -46 0 -4 11 -17 25 -28 l25 -19 0
-225 c0 -192 -2 -224 -15 -224 -8 0 -15 -4 -15 -10 0 -5 4 -10 9 -10 5 0 35
-23 66 -51 l56 -52 32 33 c18 18 50 45 71 59 35 23 37 26 18 29 -22 3 -22 5
-22 227 0 140 4 226 10 230 6 4 35 -3 66 -14 85 -32 154 -24 186 23 12 17 9
36 -5 36 -8 0 -39 18 -70 40 -30 22 -58 40 -62 40 -3 0 -31 -16 -61 -35 -30
-19 -57 -35 -60 -35 -2 0 -28 16 -57 35 -28 19 -59 35 -67 34 -8 0 -41 -17
-72 -37z"/>
<path d="M5351 7630 c-30 -16 -85 -34 -125 -40 -39 -7 -75 -14 -79 -17 -4 -3
-1 -16 7 -29 13 -19 16 -58 16 -208 l0 -184 -26 -32 c-15 -17 -25 -32 -23 -34
2 -1 31 -8 64 -15 90 -20 161 -49 211 -87 l46 -35 31 24 c45 34 114 68 167 82
31 8 43 16 40 26 -9 26 -11 449 -2 466 8 14 -5 21 -89 49 -55 19 -112 40 -129
49 -39 20 -46 19 -109 -15z m96 -113 c25 -12 45 -25 44 -29 0 -5 -1 -93 -1
-197 l0 -189 -51 13 c-27 8 -61 21 -75 29 l-24 16 0 189 c0 103 3 191 7 195
10 9 44 0 100 -27z"/>
<path d="M4211 7610 c-25 -17 -65 -38 -90 -47 l-46 -16 3 -214 c3 -182 1 -218
-12 -238 -21 -32 -21 -32 19 -39 43 -8 120 -48 159 -81 36 -31 36 -31 72 1 33
29 102 66 157 83 37 13 46 24 27 36 -13 8 -13 430 0 455 9 17 4 20 -48 30 -31
7 -86 23 -121 36 -35 13 -66 24 -70 24 -3 0 -26 -14 -50 -30z m69 -102 c25
-13 45 -29 44 -35 -1 -7 -2 -97 -2 -199 l-2 -185 -22 6 c-13 3 -40 13 -60 22
l-38 16 0 199 c0 225 -3 218 80 176z"/>
<path d="M5800 7613 c-19 -13 -42 -28 -50 -33 -12 -7 -10 -13 13 -34 15 -14
27 -35 27 -48 0 -13 2 -106 5 -207 6 -193 3 -221 -22 -221 -9 0 8 -25 43 -63
l59 -63 16 25 c9 15 32 40 52 58 31 28 33 32 16 36 -19 5 -19 14 -17 213 l3
207 27 20 c27 20 28 20 48 2 19 -17 20 -30 20 -232 0 -188 -2 -213 -16 -213
-11 0 -3 -14 25 -46 22 -25 39 -49 38 -53 -1 -3 1 -8 4 -11 4 -3 23 19 43 49
24 36 33 57 26 61 -8 5 -11 80 -9 244 l2 237 -44 45 c-24 24 -47 44 -52 44 -5
0 -26 -13 -47 -30 -49 -39 -69 -38 -110 5 -40 41 -53 42 -100 8z"/>
<path d="M6281 7602 c-7 -13 -26 -31 -43 -42 l-30 -18 0 -244 1 -245 30 -32
c16 -17 36 -45 43 -61 16 -38 25 -38 33 0 10 45 24 46 31 1 8 -52 18 -46 33
23 9 39 9 61 2 75 -7 12 -11 106 -11 249 l0 229 -39 44 c-38 43 -38 43 -50 21z
m39 -326 l0 -191 -20 25 c-18 23 -20 42 -20 209 0 183 0 184 20 166 19 -17 20
-31 20 -209z"/>
<path d="M6385 6951 c-3 -5 -1 -12 4 -15 5 -3 11 1 15 9 6 16 -9 21 -19 6z"/>
<path d="M6389 6920 c-9 -42 -8 -70 2 -70 6 0 9 8 6 20 -3 10 -1 20 4 22 4 2
4 10 -1 18 -5 8 -10 13 -11 10z"/>
<path d="M4465 6853 c-67 -14 -185 -13 -260 2 -28 6 -33 2 -67 -53 -51 -79
-51 -102 -1 -62 25 19 53 27 53 14 0 -3 -9 -17 -20 -31 -19 -24 -20 -41 -20
-260 0 -221 -1 -237 -21 -264 -28 -40 -17 -50 38 -33 44 14 59 13 177 -6 70
-12 132 -18 136 -13 19 18 90 165 84 174 -11 18 -33 8 -51 -21 -23 -39 -45
-44 -122 -30 -34 6 -81 8 -104 5 l-42 -7 4 98 c5 143 2 139 102 139 l83 0 23
34 c13 19 23 45 23 57 0 25 -14 32 -26 13 -4 -8 -28 -10 -71 -6 -35 4 -75 2
-90 -4 -14 -5 -28 -7 -31 -5 -8 9 -15 95 -8 120 6 26 7 26 111 26 l104 0 41
53 c38 51 50 79 33 76 -5 -1 -39 -8 -78 -16z"/>
<path d="M6380 6791 c0 -6 5 -13 10 -16 6 -3 10 1 10 9 0 9 -4 16 -10 16 -5 0
-10 -4 -10 -9z"/>
<path d="M5193 6648 c-36 -19 -53 -36 -53 -49 0 -14 -7 -19 -30 -19 -23 0 -30
-5 -30 -19 0 -14 8 -21 28 -23 l27 -3 3 -130 c2 -89 -1 -137 -10 -153 -11 -21
-8 -26 33 -62 24 -22 47 -39 50 -40 8 0 152 79 164 91 5 6 5 13 -2 20 -8 8
-21 7 -48 -2 -31 -12 -37 -11 -46 1 -5 8 -8 74 -7 145 l3 130 43 3 c34 3 42 7
42 23 0 16 -7 19 -45 19 l-45 0 0 50 c0 59 -4 60 -77 18z"/>
<path d="M4644 6566 c-26 -18 -78 -105 -69 -114 3 -3 18 -1 33 4 38 14 45 11
93 -52 48 -63 47 -73 -21 -139 -33 -32 -41 -35 -59 -25 -45 23 -56 -21 -16
-64 37 -40 36 -41 124 72 23 28 45 52 50 52 5 0 16 -10 24 -22 25 -38 91 -105
114 -117 53 -27 131 -3 158 49 22 42 11 53 -32 35 -30 -13 -39 -13 -49 -3 -6
7 -39 46 -73 86 l-62 72 53 60 c49 55 56 59 86 54 28 -5 32 -3 32 15 0 11 -9
25 -19 31 -40 21 -64 11 -123 -52 l-59 -63 -57 62 c-62 68 -95 82 -128 59z"/>
<path d="M5430 6534 c-22 -20 -40 -40 -40 -44 0 -5 12 -10 28 -12 l27 -3 3
-119 c2 -89 -1 -122 -10 -128 -10 -6 -3 -17 25 -44 l38 -35 27 20 c59 45 67
53 55 58 -16 6 -19 218 -4 228 5 3 30 0 54 -7 52 -14 104 -3 121 26 9 14 7 20
-8 30 -11 6 -34 23 -51 39 -18 15 -37 27 -42 27 -5 0 -22 -13 -38 -30 -16 -16
-35 -30 -43 -30 -8 0 -30 14 -49 30 -18 17 -38 30 -43 30 -6 0 -28 -16 -50
-36z"/>
<path d="M5905 6538 c-11 -11 -39 -30 -63 -42 l-43 -22 -1 -129 0 -128 28 -15
c16 -8 44 -26 61 -40 l33 -24 30 26 31 25 28 -31 c25 -28 31 -31 45 -18 31 25
40 52 22 62 -13 8 -16 30 -16 141 l0 132 -34 19 c-19 10 -45 29 -57 42 -27 29
-38 29 -64 2z m49 -99 c24 -19 26 -26 26 -104 0 -46 -4 -86 -9 -89 -5 -4 -23
2 -40 11 l-31 18 0 93 c0 101 6 109 54 71z"/>
<path d="M3761 5288 c0 -9 -4 -25 -7 -35 -5 -14 -4 -15 5 -7 7 7 11 22 8 35
-2 13 -5 16 -6 7z"/>
<path d="M3760 5172 c0 -12 19 -26 26 -19 2 2 -2 10 -11 17 -9 8 -15 8 -15 2z"/>
<path d="M3662 3293 l3 -1787 54 -16 c36 -10 57 -22 64 -37 5 -12 22 -27 38
-34 16 -6 29 -16 29 -21 0 -5 6 -6 13 -2 6 4 9 3 4 -1 -8 -9 20 -45 36 -45 16
0 66 -47 59 -56 -4 -5 0 -3 9 4 9 6 19 9 22 5 4 -3 7 -2 7 4 0 6 7 14 16 17
15 6 15 4 3 -11 -7 -10 4 -1 24 20 62 63 50 79 -76 104 -122 23 -111 37 21 29
291 -18 535 -26 942 -28 447 -3 768 -11 675 -17 -79 -6 129 -18 265 -16 105 2
118 0 145 -20 17 -12 46 -26 65 -30 19 -4 46 -14 59 -22 l23 -15 -33 -29 c-21
-17 -28 -28 -19 -28 8 -1 26 11 39 24 13 14 27 25 33 25 5 0 7 10 4 23 -3 12
-3 16 0 10 8 -19 18 -16 48 14 20 20 24 28 14 35 -10 6 -8 8 5 8 9 0 27 6 39
12 23 14 82 65 61 54 -7 -4 -13 -3 -13 2 0 5 14 12 32 16 17 3 37 11 45 17 11
10 13 313 13 1795 l0 1784 -435 0 c-239 0 -435 -3 -435 -6 0 -3 20 -29 45 -56
55 -61 105 -150 136 -238 19 -55 23 -87 23 -205 1 -150 -9 -209 -52 -305 -82
-183 -237 -311 -451 -373 -63 -18 -100 -22 -221 -22 -131 1 -153 3 -225 28
-99 34 -116 42 -185 88 -70 47 -87 62 -144 129 -212 246 -207 655 12 900 l54
60 -446 0 -446 0 2 -1787z m1165 -58 c3 -9 2 -19 -2 -23 -4 -4 -10 -1 -12 6
-10 26 -23 10 -23 -28 0 -37 13 -55 22 -28 2 6 10 8 17 4 16 -10 -4 -36 -28
-36 -38 0 -54 56 -31 101 13 23 48 25 57 4z m67 9 c23 -9 20 -22 -6 -27 l-23
-4 23 -8 c27 -9 28 -22 2 -30 -11 -3 -20 -11 -20 -16 0 -5 9 -9 20 -9 11 0 20
-4 20 -10 0 -5 -13 -10 -30 -10 -30 0 -30 1 -30 54 0 34 5 56 13 59 6 3 13 6
14 6 1 1 8 -2 17 -5z m93 -7 c12 -8 15 -107 3 -107 -4 0 -11 10 -14 23 l-7 22
-9 -22 c-16 -40 -30 -25 -30 30 0 30 2 56 5 59 7 6 38 4 52 -5z m342 -49 c12
-52 7 -74 -9 -48 -8 12 -13 13 -30 3 -28 -18 -31 -16 -24 15 23 104 43 114 63
30z m-283 27 c7 -28 24 -24 24 6 0 10 5 19 11 19 8 0 9 -15 4 -47 -8 -56 -11
-63 -30 -63 -15 0 -20 13 -31 73 -7 42 12 53 22 12z m107 13 c-13 -6 -23 -14
-23 -18 0 -4 10 -11 23 -14 l22 -7 -22 -9 c-26 -10 -31 -30 -9 -30 8 0 18 -4
21 -10 4 -6 -7 -10 -24 -10 -31 0 -31 0 -31 55 l0 55 33 -1 c30 0 31 -1 10
-11z m97 -32 c0 -48 -20 -79 -45 -70 -8 4 -15 13 -15 21 0 13 3 13 15 3 13
-11 15 -6 15 39 0 39 4 51 15 51 11 0 15 -12 15 -44z m-1242 -235 c2 -15 0
-21 -7 -17 -7 5 -11 -3 -11 -19 0 -16 4 -24 11 -19 7 4 9 -2 7 -17 -5 -33 -26
-35 -38 -3 -10 24 -6 75 7 97 9 15 28 1 31 -22z m98 7 c11 -17 14 -108 4 -108
-4 0 -11 10 -15 23 l-8 22 -4 -23 c-4 -18 -10 -23 -31 -20 -25 3 -27 6 -30 61
l-3 57 40 0 c22 0 43 -5 47 -12z m53 -11 c10 16 45 23 61 13 13 -9 13 -11 1
-19 -12 -8 -12 -12 -2 -24 10 -13 9 -17 -5 -25 -15 -8 -14 -11 5 -24 15 -11
18 -17 9 -20 -28 -10 -38 4 -39 55 l-1 52 -13 -48 c-7 -27 -16 -52 -20 -55
-12 -13 -25 24 -25 73 1 41 3 47 11 31 7 -10 14 -14 18 -9z m1791 13 c0 -5 -4
-10 -10 -10 -14 0 -12 -27 3 -34 10 -5 10 -7 0 -12 -18 -8 -16 -24 5 -40 15
-12 15 -13 -10 -14 -26 0 -26 1 -23 58 1 31 3 58 4 60 4 7 31 0 31 -8z m89
-15 c3 -17 1 -18 -13 -6 -14 12 -16 9 -16 -23 0 -35 13 -49 23 -23 3 6 6 2 6
-10 1 -28 -15 -38 -34 -23 -15 13 -20 65 -9 95 9 21 38 15 43 -10z m64 12 c3
10 5 -2 6 -27 1 -41 -12 -81 -22 -70 -2 3 -7 30 -10 60 -5 48 -4 53 8 37 13
-18 13 -18 18 0z m-1804 -22 c3 -17 1 -18 -12 -6 -14 11 -17 9 -23 -13 -8 -33
3 -51 22 -35 11 9 14 7 14 -10 0 -25 -26 -39 -42 -23 -9 9 -12 38 -9 95 1 25
45 19 50 -8z m65 16 c3 -5 -4 -12 -17 -15 -22 -6 -22 -6 -2 -22 19 -14 19 -16
3 -25 -24 -13 -23 -29 2 -29 11 0 20 -5 20 -11 0 -6 -12 -9 -27 -7 -25 3 -28
7 -31 47 -2 24 -1 50 2 57 6 15 42 19 50 5z m64 -3 c13 -17 14 -108 2 -108 -6
0 -10 9 -10 20 0 11 -4 20 -10 20 -5 0 -10 -9 -10 -20 0 -11 -4 -20 -10 -20
-11 0 -14 103 -3 113 10 11 30 8 41 -5z m1220 3 c16 -10 23 -113 8 -108 -6 2
-12 13 -14 25 -4 27 -22 19 -22 -9 0 -10 -4 -19 -8 -19 -11 0 -9 90 1 108 9
14 17 15 35 3z m244 -13 c2 -13 1 -38 -1 -55 -2 -26 -8 -33 -25 -33 -20 0 -22
5 -23 55 -1 51 1 55 22 55 17 0 25 -7 27 -22z m-1412 -43 c0 -30 -4 -55 -10
-55 -5 0 -10 25 -10 55 0 30 5 55 10 55 6 0 10 -25 10 -55z m76 -3 c12 -52 8
-62 -14 -40 -8 8 -15 8 -28 -3 -16 -13 -16 -10 -10 36 5 28 10 54 13 58 12 19
29 -3 39 -51z m102 25 c4 -33 22 -26 22 9 0 19 5 25 18 22 13 -2 18 -15 20
-52 2 -27 -2 -54 -7 -59 -8 -8 -11 -5 -11 11 0 12 -4 22 -10 22 -5 0 -10 -9
-10 -20 0 -27 -16 -25 -25 3 -6 19 -8 19 -12 5 -10 -37 -23 -16 -23 38 0 47 3
55 18 52 10 -2 18 -14 20 -31z m142 14 c14 -26 13 -74 -2 -89 -18 -18 -46 -14
-58 7 -22 42 -4 101 30 101 11 0 24 -9 30 -19z m88 7 c16 -16 16 -80 0 -96 -7
-7 -22 -12 -35 -12 -21 0 -23 4 -23 60 0 56 2 60 23 60 13 0 28 -5 35 -12z
m92 4 c0 -5 -10 -14 -22 -20 l-23 -11 23 -7 c27 -8 28 -20 2 -27 -11 -3 -20
-10 -20 -16 0 -6 9 -11 20 -11 11 0 20 -4 20 -10 0 -5 -13 -10 -30 -10 l-30 0
0 60 0 60 30 0 c17 0 30 -4 30 -8z m40 -42 c0 -43 3 -50 20 -50 11 0 20 -5 20
-11 0 -6 -14 -9 -32 -7 -18 2 -32 6 -30 11 1 4 2 30 2 57 0 28 5 50 10 50 6 0
10 -22 10 -50z m118 38 c7 -7 12 -31 12 -55 0 -38 -3 -43 -27 -49 -19 -5 -30
-2 -40 11 -37 52 13 135 55 93z m160 -7 c3 -10 0 -12 -11 -8 -28 10 -28 -10
-1 -28 36 -23 30 -60 -10 -60 -16 0 -31 6 -34 13 -3 9 3 11 22 6 33 -8 34 9 1
30 -27 18 -32 35 -13 54 16 16 40 12 46 -7z m170 -33 c3 -39 0 -49 -18 -58
-38 -21 -51 -6 -46 52 2 29 4 54 5 56 1 2 13 2 29 0 25 -3 27 -7 30 -50z m77
42 c-3 -5 -13 -10 -21 -10 -8 0 -14 -4 -14 -10 0 -5 7 -10 15 -10 8 0 15 -4
15 -9 0 -5 -7 -11 -15 -15 -22 -8 -18 -25 8 -36 20 -8 19 -9 -9 -9 -31 -1 -31
0 -32 45 -2 57 2 64 34 64 14 0 22 -4 19 -10z m195 -35 c0 -33 4 -45 15 -45 8
0 15 -4 15 -10 0 -5 -11 -10 -25 -10 -24 0 -25 3 -25 55 0 30 5 55 10 55 6 0
10 -20 10 -45z m317 -47 c-3 -8 -6 -5 -6 6 -1 11 2 17 5 13 3 -3 4 -12 1 -19z
m73 12 c0 -5 -4 -10 -10 -10 -5 0 -10 5 -10 10 0 6 5 10 10 10 6 0 10 -4 10
-10z m-330 -16 c0 -8 -5 -12 -10 -9 -6 4 -8 11 -5 16 9 14 15 11 15 -7z m-455
-3 c3 -5 1 -12 -5 -16 -5 -3 -10 1 -10 9 0 18 6 21 15 7z m355 -1 c0 -5 -2
-10 -4 -10 -3 0 -8 5 -11 10 -3 6 -1 10 4 10 6 0 11 -4 11 -10z m-510 -14 c0
-8 -4 -18 -10 -21 -5 -3 -10 3 -10 14 0 12 5 21 10 21 6 0 10 -6 10 -14z
m-350 -115 c0 -29 18 -35 22 -9 2 13 11 24 21 26 15 3 17 -5 17 -57 0 -34 -4
-61 -10 -61 -5 0 -10 10 -10 23 -1 22 -1 22 -15 -3 l-14 -25 -9 25 -9 25 -7
-23 c-12 -37 -26 -14 -26 44 0 47 2 54 20 54 13 0 20 -7 20 -19z m140 9 c0 -5
-7 -10 -15 -10 -8 0 -15 -7 -15 -15 0 -8 7 -15 15 -15 8 0 15 -4 15 -10 0 -5
-7 -10 -15 -10 -22 0 -18 -15 8 -33 22 -16 21 -16 -15 -16 l-38 -1 0 60 0 60
30 0 c17 0 30 -4 30 -10z m50 -7 c1 -16 2 -16 15 1 20 26 31 13 17 -19 -9 -19
-9 -31 0 -50 13 -29 1 -48 -14 -22 -9 18 -10 18 -23 0 -19 -26 -31 -8 -15 22
10 19 11 30 2 50 -15 33 -15 35 3 35 8 0 15 -8 15 -17z m83 -43 c0 -31 -5 -56
-12 -58 -7 -2 -11 16 -11 58 0 42 4 60 11 58 7 -2 12 -27 12 -58z m86 46 c8
-9 8 -16 2 -20 -5 -4 -12 -2 -16 4 -13 22 -25 8 -25 -30 0 -41 7 -49 28 -28
17 17 27 2 12 -17 -7 -9 -23 -15 -34 -13 -17 2 -22 11 -24 47 -2 24 -1 50 2
57 7 18 40 18 55 0z m91 -1 c12 -14 9 -72 -4 -94 -11 -18 -44 -13 -56 8 -14
26 -13 74 2 89 16 16 43 15 58 -3z m-1530 -845 c0 -5 -2 -10 -4 -10 -3 0 -8 5
-11 10 -3 6 -1 10 4 10 6 0 11 -4 11 -10z m50 -5 c0 -8 -7 -15 -15 -15 -8 0
-15 7 -15 15 0 8 7 15 15 15 8 0 15 -7 15 -15z m54 -7 c11 -41 7 -163 -6 -176
-19 -19 -28 -14 -28 16 l0 27 -20 -25 c-10 -14 -20 -23 -22 -20 -10 12 -28 62
-27 73 0 7 6 0 13 -15 15 -35 40 -23 30 15 -3 15 -10 27 -15 27 -5 0 -9 9 -9
20 0 13 5 18 15 14 8 -4 15 -12 15 -20 0 -8 5 -14 11 -14 5 0 7 5 4 10 -3 6
-3 16 2 23 5 7 10 -14 14 -53 l6 -65 1 74 c2 64 0 72 -14 67 -12 -5 -15 -2
-10 10 3 8 6 20 6 25 0 19 28 8 34 -13z m168 -4 c8 -39 -4 -195 -14 -192 -9 3
-12 67 -8 196 0 18 18 15 22 -4z m2256 -59 c-3 -25 -2 -48 3 -51 5 -3 9 -15 9
-27 0 -20 0 -20 16 -1 12 14 14 15 11 3 -4 -13 -1 -15 14 -12 10 3 19 0 19 -6
0 -6 -3 -11 -7 -12 -5 0 -20 -2 -35 -4 -21 -3 -28 1 -29 13 0 11 -3 12 -6 5
-2 -7 -8 -13 -11 -13 -7 0 -5 89 4 128 8 40 17 23 12 -23z m-2306 19 c11 -7
10 -142 -1 -149 -10 -5 -17 24 -24 95 -2 19 -5 4 -5 -33 -2 -85 -22 -81 -22 4
0 33 -4 58 -9 55 -4 -3 -7 -25 -5 -48 3 -51 -4 -81 -17 -73 -11 7 -12 148 -2
159 7 7 70 -1 85 -10z m2144 -51 c-8 -79 -14 -103 -26 -103 -10 0 -16 27 -25
103 -9 68 9 79 23 15 l10 -43 1 48 c1 27 6 47 12 47 8 0 9 -20 5 -67z m82 -9
c0 -59 -3 -74 -14 -70 -7 3 -17 -2 -22 -11 -16 -28 -32 -3 -32 51 0 60 20 91
39 59 9 -15 10 -13 11 15 0 17 4 32 10 32 5 0 9 -33 8 -76z m-213 25 c-18 -51
-19 -48 5 -42 15 4 21 -1 26 -23 8 -30 -6 -59 -27 -59 -8 0 -15 10 -17 23 -2
13 -8 20 -14 16 -7 -5 -9 0 -6 14 5 17 2 21 -16 19 -18 -2 -21 4 -24 41 -3 37
-1 42 17 42 14 0 21 -6 21 -19 0 -33 18 -33 25 -1 4 16 11 30 15 30 5 0 3 -19
-5 -41z m-97 8 c3 -15 0 -18 -16 -13 -11 4 -23 2 -27 -4 -4 -7 2 -14 15 -17
28 -7 42 -45 30 -78 -13 -34 -39 -43 -56 -20 -17 22 -18 108 -3 136 13 25 52
22 57 -4z m-136 -49 c3 -35 3 -71 0 -80 -5 -22 -22 -24 -22 -3 0 9 -9 15 -25
15 -31 0 -32 16 -4 81 30 68 46 64 51 -13z m573 35 c-8 -31 -13 -39 -20 -31
-9 9 6 58 17 58 6 0 7 -11 3 -27z m-2575 -79 c0 -8 -5 -12 -10 -9 -6 4 -8 11
-5 16 9 14 15 11 15 -7z m2042 -86 c-6 -6 -8 5 -7 29 3 50 7 56 12 14 3 -18 0
-38 -5 -43z m158 63 c0 -6 -4 -13 -10 -16 -5 -3 -10 1 -10 9 0 9 5 16 10 16 6
0 10 -4 10 -9z m360 -218 c-8 -2 -24 -8 -35 -13 -66 -29 -187 -41 -403 -38
-122 1 -218 5 -214 9 4 4 97 12 207 19 110 7 229 15 265 20 74 8 203 11 180 3z"/>
<path d="M4956 3222 c-3 -6 -1 -14 5 -17 15 -10 25 3 12 16 -7 7 -13 7 -17 1z"/>
<path d="M5290 3190 c0 -5 5 -10 10 -10 6 0 10 5 10 10 0 6 -4 10 -10 10 -5 0
-10 -4 -10 -10z"/>
<path d="M4047 2956 c-3 -7 0 -19 6 -25 9 -9 9 -14 -2 -20 -7 -5 -10 -14 -7
-20 12 -19 26 -1 26 34 0 36 -14 55 -23 31z"/>
<path d="M4400 2930 c0 -5 5 -10 10 -10 6 0 10 5 10 10 0 6 -4 10 -10 10 -5 0
-10 -4 -10 -10z"/>
<path d="M5626 2941 c-4 -7 -5 -15 -2 -18 9 -9 19 4 14 18 -4 11 -6 11 -12 0z"/>
<path d="M5860 2915 c0 -19 5 -35 10 -35 6 0 10 16 10 35 0 19 -4 35 -10 35
-5 0 -10 -16 -10 -35z"/>
<path d="M4525 2910 c-3 -5 -1 -10 4 -10 6 0 11 5 11 10 0 6 -2 10 -4 10 -3 0
-8 -4 -11 -10z"/>
<path d="M4759 2925 c-4 -49 -2 -59 9 -63 8 -2 12 9 12 37 0 38 -19 60 -21 26z"/>
<path d="M4850 2895 c0 -19 5 -35 10 -35 6 0 10 16 10 35 0 19 -4 35 -10 35
-5 0 -10 -16 -10 -35z"/>
<path d="M5100 2900 c0 -29 4 -40 13 -37 6 2 12 19 12 37 0 18 -6 35 -12 38
-9 2 -13 -9 -13 -38z"/>
<path d="M5425 2928 c-7 -21 -1 -58 10 -61 6 -1 11 15 13 36 3 35 -13 53 -23
25z"/>
<path d="M5250 2690 c0 -22 4 -40 10 -40 12 0 24 45 16 65 -11 29 -26 15 -26
-25z"/>
<path d="M6158 1773 c-2 -10 -1 -29 3 -43 6 -20 7 -17 8 18 1 44 -4 54 -11 25z"/>
<path d="M5937 1804 c-4 -4 -7 -14 -7 -23 0 -11 3 -12 11 -4 6 6 10 16 7 23
-2 6 -7 8 -11 4z"/>
<path d="M6001 1714 c0 -11 3 -14 6 -6 3 7 2 16 -1 19 -3 4 -6 -2 -5 -13z"/>
<path d="M5860 1709 c0 -17 4 -28 10 -24 6 3 10 17 10 31 0 13 -4 24 -10 24
-5 0 -10 -14 -10 -31z"/>
<path d="M5720 1740 c-9 -16 -8 -20 5 -20 8 0 15 9 15 20 0 11 -2 20 -5 20 -2
0 -9 -9 -15 -20z"/>
<path d="M4541 5012 c-76 -79 -143 -202 -160 -296 -14 -75 -14 -236 -1 -307
12 -62 66 -181 107 -237 27 -35 107 -114 142 -138 9 -6 48 -28 87 -48 156 -79
369 -102 534 -56 106 29 139 44 215 97 88 60 147 127 199 223 56 106 76 186
76 318 0 127 -10 172 -66 288 -32 69 -59 108 -108 158 -61 61 -68 66 -108 65
l-43 0 30 -22 c111 -82 174 -167 222 -297 25 -67 27 -88 27 -200 0 -110 -3
-133 -26 -191 -44 -111 -69 -151 -137 -222 -117 -122 -264 -184 -456 -193 -95
-5 -123 -2 -201 19 -314 82 -506 361 -465 671 22 160 99 299 215 386 31 24 56
44 56 46 0 2 -16 4 -36 4 -32 0 -45 -9 -103 -68z"/>
<path d="M4894 4906 c-3 -7 -4 -42 -2 -77 l3 -63 54 -1 c35 0 56 4 58 13 3 8
-9 12 -41 12 l-46 0 0 65 c0 60 -13 86 -26 51z"/>
<path d="M5080 4849 c-22 -48 -29 -74 -22 -81 13 -13 32 -2 32 18 0 22 62 18
83 -6 20 -23 37 -26 37 -6 0 8 -13 44 -30 80 -40 89 -57 88 -100 -5z m69 -11
c1 -5 -8 -8 -19 -8 -23 0 -24 4 -8 33 11 21 11 21 19 2 4 -11 8 -23 8 -27z"/>
<path d="M4495 4684 c-59 -64 3 -161 84 -133 28 10 50 43 38 56 -3 2 -18 -5
-34 -17 -34 -24 -60 -19 -74 16 -13 37 8 74 42 74 16 0 32 -7 37 -17 6 -10 16
-14 27 -9 17 6 16 9 -5 31 -32 35 -83 34 -115 -1z"/>
<path d="M4646 4694 c-3 -9 -6 -45 -6 -80 l0 -64 65 0 c51 0 65 3 65 15 0 11
-12 15 -45 15 -38 0 -45 3 -45 20 0 17 7 20 40 20 22 0 40 5 40 10 0 6 -18 10
-40 10 -33 0 -40 3 -40 20 0 17 7 20 45 20 33 0 45 4 45 15 0 22 -115 22 -124
-1z"/>
<path d="M4821 4701 c-13 -8 -14 -21 -12 -121 1 -42 31 -41 31 1 0 29 2 30 38
27 32 -3 37 -7 40 -30 2 -20 9 -28 23 -28 16 0 18 5 13 28 -4 15 -11 32 -16
39 -5 7 -5 14 2 18 19 12 11 51 -12 62 -31 13 -90 15 -107 4z m96 -37 c8 -20
-14 -35 -47 -32 -17 2 -26 10 -28 26 -3 19 1 22 33 22 23 0 38 -5 42 -16z"/>
<path d="M4970 4695 c0 -8 12 -44 27 -80 37 -90 57 -87 97 13 16 40 26 75 24
78 -14 13 -39 -13 -53 -57 -9 -27 -20 -49 -24 -49 -4 0 -14 19 -20 43 -14 44
-28 67 -42 67 -5 0 -9 -7 -9 -15z"/>
<path d="M5150 4630 l0 -80 65 0 c51 0 65 3 65 15 0 11 -12 15 -45 15 -33 0
-45 4 -45 15 0 10 10 15 33 15 17 0 39 4 47 10 12 8 12 10 -3 16 -10 3 -32 7
-50 8 -21 1 -32 7 -32 16 0 11 14 16 48 18 33 2 47 7 47 18 0 11 -15 14 -65
14 l-65 0 0 -80z"/>
<path d="M5317 4703 c-16 -15 -5 -23 33 -23 22 0 40 -4 40 -8 0 -4 -20 -28
-45 -52 -63 -62 -60 -70 30 -70 59 0 75 3 75 14 0 10 -14 16 -44 18 l-45 3 45
49 c60 67 58 76 -19 76 -35 0 -67 -3 -70 -7z"/>
<path d="M5533 4698 c-9 -13 -63 -135 -63 -144 0 -13 37 -1 48 16 7 11 23 20
37 20 14 0 29 -8 35 -20 11 -20 40 -28 40 -11 0 4 -14 40 -31 80 -31 70 -47
84 -66 59z m36 -70 c1 -5 -6 -8 -14 -8 -16 0 -19 9 -8 36 6 16 7 16 14 -2 4
-10 8 -22 8 -26z"/>
<path d="M4784 4476 c-3 -7 -4 -42 -2 -77 2 -49 7 -64 18 -64 11 0 14 10 12
43 -1 23 2 42 7 42 5 0 16 -19 23 -42 20 -59 41 -60 64 -4 22 54 36 59 34 14
-3 -50 -1 -58 14 -58 10 0 15 16 18 53 5 82 0 107 -23 107 -14 0 -27 -16 -45
-55 -13 -31 -28 -53 -33 -51 -4 3 -14 24 -21 48 -8 24 -19 46 -25 50 -16 12
-35 9 -41 -6z"/>
<path d="M5025 4417 c-19 -41 -35 -78 -35 -81 0 -15 30 -4 40 14 8 14 21 20
45 20 24 0 37 -6 45 -20 6 -11 18 -20 26 -20 21 0 12 37 -24 105 -40 73 -54
70 -97 -18z m68 3 c4 -15 0 -20 -14 -20 -18 0 -26 20 -12 33 11 12 21 8 26
-13z"/>
<path d="M5198 4479 c-40 -23 -14 -66 49 -84 44 -13 47 -29 5 -33 -22 -2 -34
2 -38 12 -7 18 -30 21 -39 6 -11 -18 34 -50 71 -50 51 0 74 15 74 50 0 27 -4
31 -45 41 -49 12 -65 27 -45 39 15 9 50 1 50 -11 0 -13 28 -11 36 3 18 29 -77
51 -118 27z"/>
<path d="M4770 4265 c-5 -6 -8 -40 -7 -75 2 -53 5 -65 20 -68 13 -3 17 3 17
27 0 27 3 30 38 33 20 2 37 8 37 13 0 6 -17 11 -37 13 -30 3 -38 7 -38 23 0
17 6 20 33 19 46 -3 57 -1 57 9 0 13 -110 18 -120 6z"/>
<path d="M5230 4260 c-17 -17 -24 -34 -18 -42 1 -2 -11 -24 -26 -50 l-28 -48
25 0 c14 0 27 7 31 15 6 17 76 22 76 5 0 -12 40 -34 47 -26 9 9 -58 154 -73
160 -8 3 -23 -3 -34 -14z m40 -67 c0 -7 -9 -13 -20 -13 -17 0 -18 3 -8 25 8
19 14 22 20 13 4 -7 8 -19 8 -25z"/>
<path d="M4920 4195 c0 -67 2 -76 18 -73 14 3 17 15 17 73 0 58 -3 70 -17 73
-16 3 -18 -6 -18 -73z"/>
<path d="M4999 4263 c-11 -147 -11 -143 10 -143 17 0 20 8 23 52 l3 52 38 -58
c54 -81 71 -75 75 27 3 72 1 77 -18 77 -17 0 -20 -6 -20 -51 l0 -52 -37 52
c-33 44 -72 67 -74 44z"/>
<path d="M3990 1266 c0 -2 13 -6 29 -8 17 -2 28 -1 25 4 -5 8 -54 12 -54 4z"/>
<path d="M5688 1233 c34 -2 90 -2 125 0 34 2 6 3 -63 3 -69 0 -97 -1 -62 -3z"/>
<path d="M5418 1223 c12 -2 30 -2 40 0 9 3 -1 5 -23 4 -22 0 -30 -2 -17 -4z"/>
</g>
</svg>
