<?xml version="1.0" encoding="UTF-8"?>
<svg version="1.1" xmlns="http://www.w3.org/2000/svg" width="635" height="635">
<path d="M0 0 C209.55 0 419.1 0 635 0 C635 209.55 635 419.1 635 635 C425.45 635 215.9 635 0 635 C0 425.45 0 215.9 0 0 Z " fill="#5C5231" transform="translate(0,0)"/>
<path d="M0 0 C36.63 0 73.26 0 111 0 C111 0.66 111 1.32 111 2 C283.92 2.33 456.84 2.66 635 3 C635 98.04 635 193.08 635 291 C425.45 291 215.9 291 0 291 C0 194.97 0 98.94 0 0 Z " fill="#403D37" transform="translate(0,344)"/>
<path d="M0 0 C209.22 0 418.44 0 634 0 C634 1.65 634 3.3 634 5 C634.33 5.33 634.66 5.66 635 6 C635 44.94 635 83.88 635 124 C455.81 124 276.62 124 92 124 C92 123.67 92 123.34 92 123 C98.27 123 104.54 123 111 123 C111 122.34 111 121.68 111 121 C74.37 121 37.74 121 0 121 C0 81.07 0 41.14 0 0 Z " fill="#4F4A38" transform="translate(0,223)"/>
<path d="M0 0 C209.55 0 419.1 0 635 0 C635 34.98 635 69.96 635 106 C425.45 106 215.9 106 0 106 C0 71.02 0 36.04 0 0 Z " fill="#2A1D1C" transform="translate(0,529)"/>
<path d="M0 0 C62.7 0 125.4 0 190 0 C190 0.33 190 0.66 190 1 C192.01822917 1.16276042 194.03645833 1.32552083 196.0546875 1.48828125 C198 2 198 2 200 5 C202.42950246 5.30313099 204.60670368 5.40680832 207.03965187 5.38476086 C208.14477723 5.39248572 208.14477723 5.39248572 209.27222836 5.40036663 C211.76658187 5.41409462 214.26041769 5.4062708 216.75479126 5.39872742 C218.55080986 5.40416116 220.34682488 5.4109103 222.14283407 5.41886932 C227.09804122 5.43698867 232.05309925 5.43632612 237.00833178 5.43273985 C242.3444314 5.43211855 247.68047985 5.44871204 253.01655579 5.46325684 C262.26826983 5.48609879 271.51994609 5.49793756 280.77168655 5.50238609 C294.14828065 5.50883376 307.52480626 5.53174667 320.90137284 5.55872939 C342.60188217 5.60205341 364.30238864 5.63198805 386.00292969 5.65356445 C407.087905 5.67455735 428.17285678 5.70181765 449.2578125 5.73754883 C450.55663013 5.73974765 451.85544776 5.74194648 453.1936235 5.74421193 C459.7091534 5.75528116 466.22468309 5.76647405 472.74021268 5.77772844 C526.82678887 5.870993 580.91337573 5.94173198 635 6 C635 31.08 635 56.16 635 82 C425.45 82 215.9 82 0 82 C0 54.94 0 27.88 0 0 Z " fill="#2B2D32" transform="translate(0,447)"/>
<path d="M0 0 C14.79707722 -0.00116354 29.5941528 -0.0043787 44.3912294 -0.00874095 C65.18098214 -0.01482238 85.97073009 -0.01701489 106.76048344 -0.01273072 C108.83043957 -0.01231234 110.90039569 -0.01189831 112.97035182 -0.01148868 C114.49470448 -0.01118552 114.49470448 -0.01118552 116.04985214 -0.01087625 C123.15428756 -0.00970439 130.25871996 -0.01098876 137.36315501 -0.01332736 C145.914845 -0.01610171 154.46652586 -0.01542754 163.01821483 -0.01013379 C167.35217049 -0.00753861 171.68611086 -0.00652943 176.02006638 -0.00984168 C179.97244499 -0.01281576 183.92479373 -0.01119209 187.87716962 -0.00585751 C189.30420021 -0.00473872 190.73123333 -0.00530761 192.1582623 -0.0077308 C194.09440335 -0.01076895 196.03055146 -0.00705685 197.96669066 -0.00301051 C199.57824979 -0.00276698 199.57824979 -0.00276698 201.22236568 -0.00251853 C204.23861468 0.12283063 204.23861468 0.12283063 210.23861468 1.12283063 C210.23861468 19.60283063 210.23861468 38.08283063 210.23861468 57.12283063 C157.83154627 57.17353164 105.42447881 57.22192726 53.01739275 57.24986005 C52.24231322 57.25027422 51.46723369 57.25068839 50.66866689 57.25111511 C33.8259438 57.26009288 16.98322044 57.26840357 0.14049668 57.27602662 C-8.11862681 57.27976878 -16.37775022 57.28365842 -24.6368736 57.28762555 C-25.45877557 57.28801783 -26.28067753 57.28841011 -27.12748561 57.28881427 C-53.78951143 57.30160869 -80.45151822 57.32415034 -107.1135325 57.35172229 C-134.50182392 57.37999401 -161.8901048 57.3984809 -189.27841056 57.4045756 C-193.14278276 57.40544012 -197.00715492 57.40641703 -200.87152708 57.40746236 C-202.01242395 57.40776576 -202.01242395 57.40776576 -203.17636925 57.40807529 C-215.44234818 57.41162672 -227.70829463 57.42555776 -239.97426029 57.44332673 C-252.29210283 57.46095093 -264.60991302 57.46774402 -276.92776774 57.46333476 C-283.60737346 57.46124747 -290.28690342 57.46446112 -296.96649778 57.48044705 C-303.07181559 57.49495275 -309.17697258 57.49584423 -315.28229751 57.48552731 C-317.50035663 57.48425059 -319.71842544 57.4881348 -321.93646525 57.49748018 C-324.93309029 57.50937994 -327.9291215 57.50311681 -330.92573583 57.49197412 C-331.8028718 57.49985516 -332.68000776 57.5077362 -333.5837236 57.51585606 C-335.98637223 57.49542612 -335.98637223 57.49542612 -339.76138532 57.12283063 C-340.42138532 56.13283063 -341.08138532 55.14283063 -341.76138532 54.12283063 C-338.29638532 53.62783063 -338.29638532 53.62783063 -334.76138532 53.12283063 C-334.76138532 52.79283063 -334.76138532 52.46283063 -334.76138532 52.12283063 C-364.46138532 51.79283063 -394.16138532 51.46283063 -424.76138532 51.12283063 C-424.76138532 34.62283063 -424.76138532 18.12283063 -424.76138532 1.12283063 C-326.10159004 0.52323014 -227.44173773 0.13074838 0 0 Z " fill="#594F30" transform="translate(424.7613853216171,171.87716937065125)"/>
<path d="M0 0 C0.91266155 -0.00224729 1.8253231 -0.00449459 2.76564106 -0.00680998 C3.77170634 -0.00418297 4.77777162 -0.00155595 5.81432372 0.00115067 C6.88483743 -0.00000318 7.95535113 -0.00115702 9.05830464 -0.00234583 C12.68186155 -0.00501404 16.30537493 -0.00048863 19.92892963 0.00394398 C22.53839273 0.00350832 25.14785579 0.00263351 27.75731862 0.00135481 C33.44950923 -0.00072235 39.14168941 0.00093068 44.83387882 0.00499302 C53.29801559 0.01101689 61.76214576 0.01132986 70.22628428 0.01045103 C84.46286333 0.00913567 98.69943773 0.01248407 112.93601543 0.01846844 C127.03689787 0.02438061 141.13777839 0.0282334 155.23866206 0.02932125 C156.11462701 0.02938999 156.99059196 0.02945873 157.89310129 0.02952956 C162.3414828 0.02986788 166.78986431 0.03016927 171.23824582 0.03045643 C202.7657824 0.03255818 234.29331646 0.03929928 265.82085162 0.04875904 C296.45398951 0.05793986 327.0871267 0.06502524 357.72026569 0.06926686 C359.13603882 0.06946414 359.13603882 0.06946414 360.58041344 0.06966542 C370.05872332 0.07098391 379.53703322 0.07225973 389.01534311 0.07350428 C408.3246429 0.07604066 427.63394265 0.07886191 446.94324237 0.08185536 C448.27502807 0.08206129 448.27502807 0.08206129 449.63371852 0.08227139 C508.94748075 0.09147578 568.26124151 0.10739813 627.57500201 0.1241985 C627.57500201 11.0141985 627.57500201 21.9041985 627.57500201 33.1241985 C418.02500201 33.1241985 208.47500201 33.1241985 -7.42499799 33.1241985 C-7.42499799 22.5641985 -7.42499799 12.0041985 -7.42499799 1.1241985 C-4.60837426 0.18532392 -2.91272038 -0.00057643 0 0 Z " fill="#2D3239" transform="translate(7.424997985363007,495.8758015036583)"/>
<path d="M0 0 C209.55 0 419.1 0 635 0 C635 9.24 635 18.48 635 28 C425.45 28 215.9 28 0 28 C0 18.76 0 9.52 0 0 Z " fill="#1A110F" transform="translate(0,607)"/>
<path d="M0 0 C209.55 0 419.1 0 635 0 C635 8.25 635 16.5 635 25 C462.41 25 289.82 25 112 25 C112 24.67 112 24.34 112 24 C75.04 23.67 38.08 23.34 0 23 C0 15.41 0 7.82 0 0 Z " fill="#3D382A" transform="translate(0,274)"/>
<path d="M0 0 C209.55 0 419.1 0 635 0 C635 6.6 635 13.2 635 20 C425.45 20 215.9 20 0 20 C0 13.4 0 6.8 0 0 Z " fill="#30201E" transform="translate(0,529)"/>
<path d="M0 0 C168.3 0 336.6 0 510 0 C510 0.99 510 1.98 510 3 C551.25 3.33 592.5 3.66 635 4 C635 9.61 635 15.22 635 21 C590.72169638 21.12921061 546.44338826 21.25676197 502.16507374 21.38218227 C496.86655954 21.39719192 491.56804538 21.41221488 486.26953125 21.42724609 C485.21525823 21.43023671 484.16098521 21.43322732 483.07476452 21.43630856 C468.35214393 21.47809908 453.62952556 21.52060251 438.90690872 21.56369251 C216.33083287 22.21505372 216.33083287 22.21505372 83.73289752 21.55461836 C74.53863156 21.49121557 65.34433856 21.43217139 56.15004301 21.37324238 C37.43333175 21.25319638 18.71665625 21.12832204 0 21 C0 14.07 0 7.14 0 0 Z " fill="#484128" transform="translate(0,75)"/>
<path d="M0 0 C209.55 0 419.1 0 635 0 C635 4.95 635 9.9 635 15 C425.45 15 215.9 15 0 15 C0 10.05 0 5.1 0 0 Z " fill="#281D1D" transform="translate(0,592)"/>
<path d="M0 0 C209.55 0 419.1 0 635 0 C635 4.95 635 9.9 635 15 C425.45 15 215.9 15 0 15 C0 10.05 0 5.1 0 0 Z " fill="#2B2B2A" transform="translate(0,398)"/>
<path d="M0 0 C0.91347543 -0.00224729 1.82695085 -0.00449459 2.76810735 -0.00680998 C4.27085823 -0.00286946 4.27085823 -0.00286946 5.80396771 0.00115067 C6.87394689 -0.00000318 7.94392606 -0.00115702 9.04632884 -0.00234583 C12.66204583 -0.00501051 16.27771905 -0.00049151 19.89343381 0.00394398 C22.49963517 0.00350825 25.10583648 0.0026333 27.71203756 0.00135481 C33.39400307 -0.00072114 39.07595812 0.00092863 44.75792241 0.00499302 C53.20683859 0.0110199 61.65574816 0.01132958 70.1046661 0.01045103 C84.31603376 0.00913605 98.52739678 0.01248267 112.73876309 0.01846844 C126.81369924 0.02438158 140.88863345 0.0282336 154.96357083 0.02932125 C155.83808069 0.02938999 156.71259055 0.02945873 157.61360071 0.02952956 C162.05463321 0.02986788 166.49566572 0.03016927 170.93669823 0.03045643 C202.40821964 0.03255791 233.87973853 0.03929826 265.35125852 0.04875904 C295.92905786 0.05794056 326.50685651 0.0650256 357.08465695 0.06926686 C358.02688013 0.06939838 358.96910331 0.06952991 359.9398787 0.06966542 C369.40190557 0.07098392 378.86393244 0.07225974 388.32595932 0.07350428 C407.60190951 0.07604062 426.87785966 0.07886188 446.15380979 0.08185536 C447.04012414 0.08199265 447.92643849 0.08212994 448.83961085 0.08227139 C508.04548014 0.09147503 567.251348 0.10734135 626.45721555 0.1241985 C626.45721555 5.7341985 626.45721555 11.3441985 626.45721555 17.1241985 C516.56721555 17.1241985 406.67721555 17.1241985 293.45721555 17.1241985 C293.45721555 16.7941985 293.45721555 16.4641985 293.45721555 16.1241985 C291.14721555 15.7941985 288.83721555 15.4641985 286.45721555 15.1241985 C286.45721555 14.7941985 286.45721555 14.4641985 286.45721555 14.1241985 C189.10721555 13.7941985 91.75721555 13.4641985 -8.54278445 13.1241985 C-8.54278445 9.1641985 -8.54278445 5.2041985 -8.54278445 1.1241985 C-5.34023718 0.32356168 -3.20469794 -0.00063535 0 0 Z " fill="#584F2E" transform="translate(8.542784452438354,61.875801503658295)"/>
<path d="M0 0 C209.55 0 419.1 0 635 0 C635 4.95 635 9.9 635 15 C442.28 15 249.56 15 51 15 C51 14.67 51 14.34 51 14 C55.455 13.505 55.455 13.505 60 13 C60 12.67 60 12.34 60 12 C30.3 11.505 30.3 11.505 0 11 C0 7.37 0 3.74 0 0 Z " fill="#6D6037" transform="translate(0,96)"/>
<path d="M0 0 C209.22 0 418.44 0 634 0 C634 1.65 634 3.3 634 5 C634.33 5.33 634.66 5.66 635 6 C635 9.3 635 12.6 635 16 C425.45 16 215.9 16 0 16 C0 10.72 0 5.44 0 0 Z " fill="#5F5739" transform="translate(0,223)"/>
<path d="M0 0 C0.68633643 0.00102262 1.37267287 0.00204523 2.07980737 0.00309884 C19.66065096 0.02956769 37.24146988 0.06612611 54.82228653 0.10645664 C66.49796303 0.13324071 78.1736419 0.15735081 89.84932899 0.17903328 C91.02358812 0.18121591 91.02358812 0.18121591 92.22156965 0.18344263 C96.19961487 0.19082464 100.17766016 0.19816512 104.15570549 0.20548964 C132.0982796 0.25701256 160.04084102 0.31368251 187.98339844 0.37353516 C215.07486488 0.4315526 242.1663346 0.48714159 269.2578125 0.53955078 C270.51752976 0.54198915 270.51752976 0.54198915 271.80269585 0.54447679 C280.2388924 0.5608037 288.67508904 0.57708241 297.11128575 0.59332585 C314.28621192 0.62639633 331.46113745 0.65978791 348.63606262 0.69337463 C349.81974154 0.6956888 349.81974154 0.6956888 351.02733317 0.69804972 C403.43595775 0.80054866 455.84456703 0.91054834 508.25317383 1.02172852 C508.25317383 5.31172852 508.25317383 9.60172852 508.25317383 14.02172852 C298.70317383 14.02172852 89.15317383 14.02172852 -126.74682617 14.02172852 C-126.74682617 9.73172852 -126.74682617 5.44172852 -126.74682617 1.02172852 C-84.49937204 0.05006091 -42.25704432 -0.06358339 0 0 Z " fill="#5F573F" transform="translate(126.746826171875,259.978271484375)"/>
<path d="M0 0 C209.55 0 419.1 0 635 0 C635 4.29 635 8.58 635 13 C426.11 13 217.22 13 2 13 C2 11.35 2 9.7 2 8 C1.34 7.67 0.68 7.34 0 7 C0 4.69 0 2.38 0 0 Z " fill="#39393B" transform="translate(0,440)"/>
<path d="M0 0 C1.90641666 0.00223852 1.90641666 0.00223852 3.85134679 0.00452226 C5.2593867 0.01130416 6.66742616 0.01818005 8.0754652 0.02513981 C9.57295721 0.02883444 11.07045036 0.0320835 12.56794423 0.03492504 C16.68403981 0.04402661 20.80009121 0.05945698 24.91616309 0.07590783 C29.35441602 0.0925421 33.79268358 0.10332544 38.23095226 0.11481571 C45.92092999 0.13552689 53.61088874 0.1599535 61.30084705 0.18689632 C72.41926654 0.22584588 83.53769725 0.2592034 94.65613868 0.29119159 C112.69462443 0.34324107 130.73309303 0.39981951 148.7715559 0.4592371 C166.29531213 0.5169496 183.81907297 0.5725347 201.34284496 0.62525272 C202.42282374 0.62850244 203.50280253 0.63175216 204.61550794 0.63510036 C210.03338846 0.65138993 215.4512691 0.66763762 220.8691498 0.68386447 C265.82321193 0.81855863 310.77724869 0.96059904 355.7312727 1.10743046 C355.7312727 1.43743046 355.7312727 1.76743046 355.7312727 2.10743046 C444.1712727 2.43743046 532.6112727 2.76743046 623.7312727 3.10743046 C623.7312727 6.73743046 623.7312727 10.36743046 623.7312727 14.10743046 C577.0926482 14.20355109 530.45402301 14.29933477 483.8153944 14.3934412 C482.76747427 14.39555581 482.76747427 14.39555581 481.69838403 14.39771313 C466.48824821 14.42840388 451.27811228 14.45903745 436.06797623 14.48961273 C428.60084261 14.50462344 421.13370901 14.51964669 413.66657543 14.53467655 C412.5524149 14.53691882 412.5524149 14.53691882 411.41574608 14.53920638 C387.66452751 14.58701185 363.91331071 14.63563282 340.16209474 14.68471181 C315.60024415 14.7354613 291.03839189 14.78531831 266.47653744 14.83416656 C262.94740562 14.84118563 259.41827382 14.84821415 255.88914204 14.85524845 C255.19506431 14.8566316 254.50098659 14.85801475 253.78587621 14.85943982 C243.60342237 14.87975353 233.42097022 14.90078181 223.23851871 14.92223454 C145.06929528 15.08661376 66.90062601 15.1362675 -11.2687273 15.10743046 C-11.2687273 10.48743046 -11.2687273 5.86743046 -11.2687273 1.10743046 C-7.21382227 0.29644945 -4.07127861 -0.01267434 0 0 Z " fill="#463F24" transform="translate(11.26872730255127,47.89256954193115)"/>
<path d="M0 0 C106.92 0 213.84 0 324 0 C324 0.33 324 0.66 324 1 C426.63 1.33 529.26 1.66 635 2 C635 5.63 635 9.26 635 13 C425.45 13 215.9 13 0 13 C0 8.71 0 4.42 0 0 Z " fill="#5F5843" transform="translate(0,297)"/>
<path d="M0 0 C81.84 0 163.68 0 248 0 C248 0.33 248 0.66 248 1 C371.75 1.33 495.5 1.66 623 2 C623 2.33 623 2.66 623 3 C626.96 3.33 630.92 3.66 635 4 C635 6.97 635 9.94 635 13 C578.25443057 13.20095145 521.50881085 13.38440415 464.76313549 13.5528124 C461.5104594 13.56246895 458.2577834 13.57215514 455.0051074 13.58184195 C357.42497032 13.87191612 259.84563229 14.14081999 106.37241793 13.57217997 C104.30346854 13.56245756 102.23451894 13.55278239 100.16556931 13.54311228 C66.77690502 13.38675481 33.38837713 13.20912658 0 13 C0 8.71 0 4.42 0 0 Z " fill="#615637" transform="translate(0,107)"/>
<path d="M0 0 C1.06891011 -0.00115384 2.13782023 -0.00230769 3.23912156 -0.0034965 C6.83915871 -0.0061541 10.43915159 -0.00164798 14.03918648 0.00279331 C16.63886435 0.00235744 19.23854217 0.00148223 21.83821976 0.00020415 C27.49973505 -0.00186938 33.16123984 -0.00022616 38.82275391 0.00384235 C47.24122891 0.0098753 55.65969728 0.01017835 64.07817405 0.00930037 C78.23911895 0.00798612 92.40005919 0.01132918 106.56100273 0.01731777 C120.58404628 0.02323286 134.60708789 0.02708333 148.63013268 0.02817059 C149.50173236 0.02823933 150.37333205 0.02830806 151.27134385 0.02837889 C155.69767834 0.02871722 160.12401284 0.0290186 164.55034734 0.02930576 C195.90983842 0.03140671 227.26932696 0.03814555 258.6288166 0.04760838 C289.09593886 0.05679132 319.56306043 0.06387566 350.03018379 0.06811619 C350.9691558 0.06824771 351.90812782 0.06837924 352.87555352 0.06851475 C362.30501435 0.06983326 371.73447519 0.07110908 381.16393602 0.07235361 C400.37318703 0.07488989 419.58243798 0.07771114 438.79168892 0.08070469 C440.11653211 0.08091062 440.11653211 0.08091062 441.46813981 0.08112072 C500.45822324 0.09032287 559.44830524 0.10618902 618.43838692 0.12304783 C618.43838692 3.75304783 618.43838692 7.38304783 618.43838692 11.12304783 C421.42838692 11.12304783 224.41838692 11.12304783 21.43838692 11.12304783 C21.76838692 10.46304783 22.09838692 9.80304783 22.43838692 9.12304783 C9.56838692 9.12304783 -3.30161308 9.12304783 -16.56161308 9.12304783 C-16.56161308 6.48304783 -16.56161308 3.84304783 -16.56161308 1.12304783 C-11.02158549 -0.04256148 -5.63164854 -0.01489314 0 0 Z " fill="#73683B" transform="translate(16.561613082885742,39.876952171325684)"/>
<path d="M0 0 C187.77 0 375.54 0 569 0 C569 0.33 569 0.66 569 1 C601.67 1.495 601.67 1.495 635 2 C635 4.97 635 7.94 635 11 C597.97141877 11.17881805 560.94276876 11.34059094 523.91406202 11.49095565 C521.69677314 11.49996233 519.47948436 11.50899384 517.26219559 11.51802588 C427.6470036 11.88247156 338.03254148 12.05674563 167.59567505 12.06315851 C164.48997772 12.06249787 161.38428039 12.06185518 158.27858305 12.06121445 C105.51905086 12.05020873 52.75952475 12.03001916 0 12 C0 8.04 0 4.08 0 0 Z " fill="#574F2F" transform="translate(0,29)"/>
<path d="M0 0 C5.9941237 0.06404689 11.98830615 0.12213829 17.98248291 0.18096924 C29.43761927 0.29415764 40.89268695 0.41300904 52.34771729 0.53643799 C52.34771729 0.86643799 52.34771729 1.19643799 52.34771729 1.53643799 C120.65771729 1.86643799 188.96771729 2.19643799 259.34771729 2.53643799 C259.34771729 6.49643799 259.34771729 10.45643799 259.34771729 14.53643799 C206.94065004 14.58776977 154.53358082 14.63553462 102.12649536 14.66346741 C101.35141583 14.66388158 100.57633629 14.66429575 99.7777695 14.66472247 C82.93504641 14.67370024 66.09232305 14.68201093 49.24959929 14.68963398 C40.9904758 14.69337614 32.73135239 14.69726578 24.472229 14.70123291 C23.65032704 14.70162519 22.82842508 14.70201746 21.98161699 14.70242163 C-4.68040882 14.71521605 -31.34241562 14.73775769 -58.0044299 14.76532965 C-85.39272131 14.79360137 -112.78100219 14.81208826 -140.16930795 14.81818296 C-144.03368015 14.81904748 -147.89805231 14.82002439 -151.76242447 14.82106972 C-152.90332135 14.82137312 -152.90332135 14.82137312 -154.06726665 14.82168265 C-166.33324557 14.82523408 -178.59919202 14.83916512 -190.86515768 14.85693409 C-203.18300022 14.87455829 -215.50081042 14.88135138 -227.81866513 14.87694212 C-234.49827085 14.87485482 -241.17780082 14.87806848 -247.85739517 14.89405441 C-253.96271298 14.90856011 -260.06786998 14.90945159 -266.1731949 14.89913467 C-268.39125403 14.89785795 -270.60932284 14.90174216 -272.82736264 14.91108754 C-275.82398768 14.9229873 -278.82001889 14.91672417 -281.81663322 14.90558147 C-282.69376919 14.91346252 -283.57090515 14.92134356 -284.474621 14.92946342 C-286.87726963 14.90903348 -286.87726963 14.90903348 -290.65228271 14.53643799 C-291.64228271 13.05143799 -291.64228271 13.05143799 -292.65228271 11.53643799 C-289.18728271 11.04143799 -289.18728271 11.04143799 -285.65228271 10.53643799 C-285.65228271 10.20643799 -285.65228271 9.87643799 -285.65228271 9.53643799 C-315.35228271 9.20643799 -345.05228271 8.87643799 -375.65228271 8.53643799 C-375.65228271 5.89643799 -375.65228271 3.25643799 -375.65228271 0.53643799 C-348.51273454 0.40317277 -321.37317387 0.27273978 -294.23359776 0.14528656 C-281.619491 0.08598854 -269.00538913 0.02589754 -256.39129639 -0.03631592 C-82.15844237 -0.89395741 -82.15844237 -0.89395741 0 0 Z " fill="#6E6541" transform="translate(375.65228271484375,214.46356201171875)"/>
<path d="M0 0 C209.55 0 419.1 0 635 0 C635 2.97 635 5.94 635 9 C555.44944246 9.35095771 475.89877842 9.68707637 294.4375 10.125 C293.67065384 10.12501007 292.90380768 10.12502014 292.11372375 10.12503052 C194.74196478 10.12375184 97.37003729 9.52443352 0 9 C0 6.03 0 3.06 0 0 Z " fill="#222327" transform="translate(0,471)"/>
<path d="M0 0 C209.55 0 419.1 0 635 0 C635 2.97 635 5.94 635 9 C425.45 9 215.9 9 0 9 C0 6.03 0 3.06 0 0 Z " fill="#0D0C0C" transform="translate(0,529)"/>
<path d="M0 0 C209.55 0 419.1 0 635 0 C635 2.97 635 5.94 635 9 C425.45 9 215.9 9 0 9 C0 6.03 0 3.06 0 0 Z " fill="#313131" transform="translate(0,431)"/>
<path d="M0 0 C209.55 0 419.1 0 635 0 C635 2.97 635 5.94 635 9 C425.45 9 215.9 9 0 9 C0 6.03 0 3.06 0 0 Z " fill="#4F4832" transform="translate(0,252)"/>
<path d="M0 0 C209.55 0 419.1 0 635 0 C635 2.97 635 5.94 635 9 C536.33 9 437.66 9 336 9 C336 8.67 336 8.34 336 8 C320.35279018 6.8165183 304.70756657 6.86178305 289.02614808 6.88393438 C285.13685765 6.88830397 281.24756857 6.8867879 277.35827637 6.8860321 C270.64036532 6.88551095 263.92246409 6.8886148 257.20455551 6.89426994 C247.49191235 6.90244068 237.77927386 6.90500584 228.06662764 6.90625793 C212.30369309 6.90843975 196.54076375 6.9150761 180.77783203 6.92456055 C165.47705104 6.93375727 150.17627148 6.94082702 134.87548828 6.94506836 C133.45778492 6.94546244 133.45778492 6.94546244 132.0114411 6.94586449 C127.26937787 6.94716965 122.52731463 6.94843333 117.78525138 6.94967639 C78.52349727 6.96002187 39.26174898 6.97761635 0 7 C0 4.69 0 2.38 0 0 Z " fill="#564E32" transform="translate(0,208)"/>
<path d="M0 0 C9.49966105 0.0642252 18.99935543 0.12283718 28.49905294 0.18137598 C47.78193855 0.30030615 67.06478167 0.42501285 86.34759837 0.55461836 C86.34759837 3.19461836 86.34759837 5.83461836 86.34759837 8.55461836 C-123.20240163 8.55461836 -332.75240163 8.55461836 -548.65240163 8.55461836 C-548.65240163 5.91461836 -548.65240163 3.27461836 -548.65240163 0.55461836 C-510.28637231 0.42443026 -471.92033498 0.29687935 -433.55428659 0.17243609 C-428.92919532 0.15743219 -424.30410412 0.14240841 -419.67901295 0.12737226 C-418.29899652 0.12288634 -418.29899652 0.12288634 -416.89110097 0.1183098 C-404.14993486 0.07685227 -391.40877268 0.03434272 -378.66761311 -0.00907415 C-296.37390557 -0.2894638 -214.08037881 -0.54246108 0 0 Z " fill="#534829" transform="translate(548.6524016261101,164.44538164138794)"/>
<path d="M0 0 C107.91 0 215.82 0 327 0 C327 0.33 327 0.66 327 1 C428.64 1.33 530.28 1.66 635 2 C635 4.31 635 6.62 635 9 C425.45 9.33 215.9 9.66 0 10 C0 6.7 0 3.4 0 0 Z " fill="#25282E" transform="translate(0,487)"/>
<path d="M0 0 C47.19 0 94.38 0 143 0 C143 0.33 143 0.66 143 1 C305.36 1.33 467.72 1.66 635 2 C635 4.31 635 6.62 635 9 C551.99908982 9.32090364 468.99810346 9.62700168 233.125 10.125 C231.66023901 10.12501511 231.66023901 10.12501511 230.16588688 10.12503052 C153.4413945 10.12423822 76.72114034 9.70333719 0 9 C0 6.03 0 3.06 0 0 Z " fill="#413D39" transform="translate(0,389)"/>
<path d="M0 0 C44.97364599 -0.03354182 89.94707492 0.01288233 134.9206543 0.09179688 C135.59880979 0.09298562 136.27696529 0.09417436 136.97567095 0.09539913 C154.28087829 0.12576616 171.58608337 0.1573349 188.8912877 0.18936362 C200.37343027 0.21061493 211.85557337 0.23154344 223.33771706 0.25218201 C224.49451514 0.25426153 224.49451514 0.25426153 225.67468289 0.25638306 C229.59393613 0.26342706 233.51318939 0.27046608 237.43244264 0.27750319 C264.92688658 0.32687897 292.42132936 0.37687065 319.91577148 0.42724609 C346.56453393 0.47607062 373.21329688 0.52460273 399.86206055 0.57275391 C400.68886739 0.57424796 401.51567424 0.57574202 402.36753584 0.57728135 C410.67346831 0.59229001 418.97940079 0.6072929 427.28533327 0.62229155 C444.19346219 0.65282397 461.10159104 0.6833949 478.00971985 0.71398926 C479.17488542 0.71609749 479.17488542 0.71609749 480.3635897 0.71824832 C531.90906098 0.81151833 583.45453062 0.90568781 635 1 C635 3.31 635 5.62 635 8 C607.1677724 9.33263549 579.31860675 9.1049522 551.46291107 9.0366649 C544.12728235 9.01891275 536.79164671 9.00747807 529.45600571 8.99616829 C515.92533815 8.97513802 502.39468405 8.94927102 488.86403084 8.92053413 C475.48964877 8.89214536 462.11526531 8.8659759 448.74087334 8.84269524 C447.90565081 8.84124015 447.07042828 8.83978506 446.20989598 8.83828588 C441.96728663 8.83090594 437.72467721 8.82356492 433.48206776 8.81623887 C403.52294876 8.76443633 373.56384078 8.70777128 343.60473633 8.64819336 C314.52108175 8.59036766 285.43742428 8.53477765 256.35375977 8.48217773 C255.00626108 8.47973936 255.00626108 8.47973936 253.63154019 8.47725173 C244.60915492 8.46092767 235.58676958 8.44464867 226.56438417 8.42840267 C208.18887262 8.39531409 189.81336162 8.36192501 171.43785095 8.32835388 C170.59319163 8.3268111 169.74853231 8.32526832 168.87827725 8.32367879 C112.58550859 8.22082506 56.29275323 8.11094694 0 8 C0 5.36 0 2.72 0 0 Z " fill="#47412D" transform="translate(0,200)"/>
<path d="M0 0 C209.55 0 419.1 0 635 0 C635 2.31 635 4.62 635 7 C425.45 7 215.9 7 0 7 C0 4.69 0 2.38 0 0 Z " fill="#312323" transform="translate(0,592)"/>
<path d="M0 0 C209.55 0 419.1 0 635 0 C635 2.31 635 4.62 635 7 C425.45 7 215.9 7 0 7 C0 4.69 0 2.38 0 0 Z " fill="#4B4637" transform="translate(0,310)"/>
<path d="M0 0 C0.9142893 -0.00224729 1.82857861 -0.00449459 2.77057365 -0.00680998 C4.26697749 -0.00286946 4.26697749 -0.00286946 5.79361171 0.00115067 C6.86305635 -0.00000318 7.93250099 -0.00115702 9.03435305 -0.00234583 C12.64223012 -0.00500697 16.25006317 -0.0004944 19.85793799 0.00394398 C22.4608776 0.00350818 25.06381718 0.0026331 27.66675651 0.00135481 C33.33849691 -0.00071993 39.01022682 0.00092657 44.68196601 0.00499302 C53.1156616 0.01102293 61.54935057 0.0113293 69.98304792 0.01045103 C84.1692042 0.00913642 98.35535583 0.01248126 112.54151076 0.01846844 C126.59050061 0.02438255 140.63948852 0.0282338 154.6884796 0.02932125 C155.99806176 0.02942436 155.99806176 0.02942436 157.33410013 0.02952956 C161.76778363 0.02986788 166.20146713 0.03016927 170.63515063 0.03045643 C202.05065688 0.03255764 233.46616059 0.03929724 264.88166541 0.04875904 C295.40412621 0.05794127 325.92658632 0.06502597 356.44904822 0.06926686 C357.85994461 0.06946414 357.85994461 0.06946414 359.29934396 0.06966542 C368.74508781 0.07098392 378.19083166 0.07225974 387.63657552 0.07350428 C406.87917612 0.07604059 426.12177667 0.07886184 445.3643772 0.08185536 C446.24914877 0.08199265 447.13392034 0.08212994 448.04550318 0.08227139 C507.14347953 0.09147428 566.24145448 0.10731974 625.33942908 0.1241985 C625.33942908 2.4341985 625.33942908 4.7441985 625.33942908 7.1241985 C415.78942908 7.1241985 206.23942908 7.1241985 -9.66057092 7.1241985 C-9.66057092 5.1441985 -9.66057092 3.1641985 -9.66057092 1.1241985 C-6.38367728 0.39390476 -3.35508909 -0.00066635 0 0 Z " fill="#2F343B" transform="translate(9.660570919513702,505.8758015036583)"/>
<path d="M0 0 C3.3091712 0.00066055 6.6183424 0.00130328 9.9275136 0.00194407 C66.4888313 0.01301738 123.05014367 0.03321316 179.61145449 0.06315851 C179.61145449 2.37315851 179.61145449 4.68315851 179.61145449 7.06315851 C-29.93854551 7.06315851 -239.48854551 7.06315851 -455.38854551 7.06315851 C-455.38854551 5.08315851 -455.38854551 3.10315851 -455.38854551 1.06315851 C-422.22967317 0.88128471 -389.07070725 0.72038634 -355.91166788 0.57220286 C-353.89758582 0.56319893 -351.88350389 0.5541661 -349.86942196 0.54513264 C-261.81744574 0.15095996 -173.76618149 0.00559118 0 0 Z " fill="#2F2121" transform="translate(455.3885455131531,563.9368414878845)"/>
<path d="M0 0 C209.22 0 418.44 0 634 0 C634 1.65 634 3.3 634 5 C634.33 6.32 634.66 7.64 635 9 C425.45 9 215.9 9 0 9 C0 6.03 0 3.06 0 0 Z " fill="#2A261A" transform="translate(0,223)"/>
<path d="M0 0 C209.55 0 419.1 0 635 0 C635 2.31 635 4.62 635 7 C583.84642332 7.03422329 532.69284582 7.06606626 481.53926086 7.08468628 C480.78264598 7.08496239 480.02603109 7.08523851 479.24648847 7.08552299 C462.80476474 7.09150826 446.36304088 7.0970487 429.92131684 7.10213066 C421.85875873 7.10462542 413.79620065 7.10721851 405.73364258 7.10986328 C404.93130433 7.1101248 404.12896608 7.11038632 403.30231455 7.11065576 C377.27780758 7.11918444 351.25330928 7.13421151 325.22880757 7.15259444 C298.49402531 7.17144488 271.75924785 7.18376746 245.02445906 7.18782998 C241.25176249 7.18840632 237.47906595 7.1890576 233.7063694 7.18975449 C232.96381986 7.18988933 232.22127032 7.19002418 231.45621928 7.19016311 C219.48427342 7.19253016 207.51234235 7.20181601 195.54040254 7.21366407 C183.51604071 7.22541727 171.49169362 7.22994131 159.46732625 7.22700275 C152.94760464 7.22571628 146.42792661 7.2277478 139.90821266 7.23841095 C133.94782023 7.24808863 127.98750099 7.24867087 122.02710531 7.24179779 C119.86286559 7.24094736 117.69862144 7.2435307 115.53439053 7.24976636 C112.60805946 7.25771227 109.68199782 7.25351563 106.7556715 7.24609566 C105.90201904 7.25134968 105.04836658 7.25660371 104.16884586 7.26201695 C100.26018668 7.23939222 98.32741537 7.21827691 95 5 C91.94862914 4.81501864 88.98973504 4.74794908 85.9387207 4.77294922 C85.01169342 4.77265717 84.08466614 4.77236511 83.12954712 4.77206421 C80.06153037 4.77345896 76.99375565 4.78902707 73.92578125 4.8046875 C71.80014682 4.80841711 69.67451067 4.81126433 67.5488739 4.81326294 C61.95107283 4.82090346 56.35337535 4.8405556 50.75561523 4.8626709 C45.04477337 4.88312027 39.33391479 4.89226271 33.62304688 4.90234375 C22.41531904 4.92380105 11.20766813 4.9579421 0 5 C0 3.35 0 1.7 0 0 Z " fill="#645B42" transform="translate(0,274)"/>
<path d="M0 0 C209.55 0 419.1 0 635 0 C635 1.98 635 3.96 635 6 C425.45 6 215.9 6 0 6 C0 4.02 0 2.04 0 0 Z " fill="#0D0806" transform="translate(0,629)"/>
<path d="M0 0 C62.7 0 125.4 0 190 0 C190 0.33 190 0.66 190 1 C192.01822917 1.16276042 194.03645833 1.32552083 196.0546875 1.48828125 C198 2 198 2 200 5 C202.42950246 5.30313099 204.60670368 5.40680832 207.03965187 5.38476086 C208.14477723 5.39248572 208.14477723 5.39248572 209.27222836 5.40036663 C211.76658187 5.41409462 214.26041769 5.4062708 216.75479126 5.39872742 C218.55080986 5.40416116 220.34682488 5.4109103 222.14283407 5.41886932 C227.09804122 5.43698867 232.05309925 5.43632612 237.00833178 5.43273985 C242.3444314 5.43211855 247.68047985 5.44871204 253.01655579 5.46325684 C262.26826983 5.48609879 271.51994609 5.49793756 280.77168655 5.50238609 C294.14828065 5.50883376 307.52480626 5.53174667 320.90137284 5.55872939 C342.60188217 5.60205341 364.30238864 5.63198805 386.00292969 5.65356445 C407.087905 5.67455735 428.17285678 5.70181765 449.2578125 5.73754883 C450.55663013 5.73974765 451.85544776 5.74194648 453.1936235 5.74421193 C459.7091534 5.75528116 466.22468309 5.76647405 472.74021268 5.77772844 C526.82678762 5.87099299 580.91337598 5.94255408 635 6 C635 7.65 635 9.3 635 11 C425.45 11 215.9 11 0 11 C0 7.37 0 3.74 0 0 Z " fill="#27282A" transform="translate(0,447)"/>
<path d="M0 0 C168.3 0 336.6 0 510 0 C510 0.99 510 1.98 510 3 C551.25 3.33 592.5 3.66 635 4 C635 4.99 635 5.98 635 7 C425.45 7.33 215.9 7.66 0 8 C0 5.36 0 2.72 0 0 Z " fill="#3B3621" transform="translate(0,75)"/>
<path d="M0 0 C36.63 0 73.26 0 111 0 C111 0.66 111 1.32 111 2 C283.92 2.33 456.84 2.66 635 3 C635 4.65 635 6.3 635 8 C425.45 8 215.9 8 0 8 C0 5.36 0 2.72 0 0 Z " fill="#37342D" transform="translate(0,344)"/>
<path d="M0 0 C209.55 0 419.1 0 635 0 C635 1.65 635 3.3 635 5 C582.19291536 5.12818792 529.38582903 5.25565392 476.57874039 5.38218227 C470.31193368 5.39719845 464.04512699 5.41222046 457.77832031 5.42724609 C455.90729524 5.43173202 455.90729524 5.43173202 453.99847168 5.43630856 C433.93187167 5.48443358 413.86527284 5.53302902 393.7986744 5.58180541 C373.13273839 5.63202788 352.46680117 5.68172839 331.80086279 5.73096704 C320.22509519 5.75856184 308.64932823 5.78638386 297.07356262 5.81480408 C167.33326391 6.13293426 167.33326391 6.13293426 119.61907196 5.79807091 C115.3686156 5.76866749 111.11814488 5.7414781 106.86767578 5.71398926 C98.9257291 5.66232301 90.98379582 5.60885118 83.0418663 5.5546174 C73.95489784 5.49266086 64.86791534 5.43288963 55.78093147 5.37324238 C37.18727183 5.25114712 18.59363016 5.12650115 0 5 C0 3.35 0 1.7 0 0 Z " fill="#302E2D" transform="translate(0,413)"/>
<path d="M0 0 C0.68633643 0.00102262 1.37267287 0.00204523 2.07980737 0.00309884 C19.66065096 0.02956769 37.24146988 0.06612611 54.82228653 0.10645664 C66.49796303 0.13324071 78.1736419 0.15735081 89.84932899 0.17903328 C91.02358812 0.18121591 91.02358812 0.18121591 92.22156965 0.18344263 C96.19961487 0.19082464 100.17766016 0.19816512 104.15570549 0.20548964 C132.0982796 0.25701256 160.04084102 0.31368251 187.98339844 0.37353516 C215.07486488 0.4315526 242.1663346 0.48714159 269.2578125 0.53955078 C270.51752976 0.54198915 270.51752976 0.54198915 271.80269585 0.54447679 C280.2388924 0.5608037 288.67508904 0.57708241 297.11128575 0.59332585 C314.28621192 0.62639633 331.46113745 0.65978791 348.63606262 0.69337463 C349.81974154 0.6956888 349.81974154 0.6956888 351.02733317 0.69804972 C403.43595775 0.80054866 455.84456703 0.91054834 508.25317383 1.02172852 C508.25317383 2.67172852 508.25317383 4.32172852 508.25317383 6.02172852 C472.3246553 6.1521323 436.39612767 6.27968452 400.46758725 6.40391079 C396.12918896 6.41891341 391.79079075 6.43393737 387.45239258 6.44897461 C386.58946561 6.45196522 385.72653865 6.45495584 384.83746238 6.45803708 C372.9090632 6.49942054 360.98066854 6.54193006 349.05227686 6.58542103 C269.62602294 6.87497087 190.20009794 7.11679591 -30.48812354 6.57634687 C-41.06881073 6.51250273 -51.64952486 6.45368832 -62.23024154 6.39497089 C-83.73579972 6.27553012 -105.24132381 6.15081163 -126.74682617 6.02172852 C-126.74682617 4.37172852 -126.74682617 2.72172852 -126.74682617 1.02172852 C-84.50001785 0.03686536 -42.25649805 -0.06358257 0 0 Z " fill="#3D3827" transform="translate(126.746826171875,259.978271484375)"/>
<path d="M0 0 C209.55 0 419.1 0 635 0 C635 1.98 635 3.96 635 6 C425.45 5.67 215.9 5.34 0 5 C0 3.35 0 1.7 0 0 Z " fill="#685A34" transform="translate(0,132)"/>
<path d="M0 0 C209.55 0 419.1 0 635 0 C635 1.65 635 3.3 635 5 C425.45 5.33 215.9 5.66 0 6 C0 4.02 0 2.04 0 0 Z " fill="#262A30" transform="translate(0,513)"/>
<path d="M0 0 C209.55 0 419.1 0 635 0 C635 1.65 635 3.3 635 5 C425.45 5 215.9 5 0 5 C0 3.35 0 1.7 0 0 Z " fill="#261A1A" transform="translate(0,549)"/>
<path d="M0 0 C209.55 0 419.1 0 635 0 C635 1.65 635 3.3 635 5 C425.45 5 215.9 5 0 5 C0 3.35 0 1.7 0 0 Z " fill="#474544" transform="translate(0,418)"/>
<path d="M0 0 C209.55 0 419.1 0 635 0 C635 1.65 635 3.3 635 5 C425.45 5 215.9 5 0 5 C0 3.35 0 1.7 0 0 Z " fill="#4D4B48" transform="translate(0,398)"/>
<path d="M0 0 C1.0203011 -0.00024919 1.0203011 -0.00024919 2.06121433 -0.00050341 C19.43532768 -0.00450268 36.80943539 0.00048397 54.18354669 0.0088899 C65.71407443 0.01446857 77.24460027 0.01764166 88.77512932 0.01864815 C89.54923821 0.01871689 90.32334711 0.01878563 91.12091385 0.01885645 C95.05486511 0.01919495 98.98881637 0.01949627 102.92276763 0.01978333 C130.52924245 0.02186388 158.13571433 0.02854452 185.7421875 0.03808594 C212.50162745 0.04732368 239.26106658 0.05438086 266.02050781 0.05859375 C266.85056582 0.05872528 267.68062384 0.0588568 268.53583512 0.05899231 C276.87433363 0.06031124 285.21283215 0.06158699 293.55133067 0.06283117 C310.52615876 0.06536495 327.5009868 0.0681862 344.47581482 0.07118225 C345.25567743 0.07131954 346.03554004 0.07145683 346.83903484 0.07159828 C398.60029205 0.08074338 450.36154755 0.09660283 502.12280273 0.11352539 C502.12280273 1.76352539 502.12280273 3.41352539 502.12280273 5.11352539 C449.79271011 5.13070777 397.46261727 5.14661955 345.13252258 5.15586853 C343.96387447 5.15607562 343.96387447 5.15607562 342.7716173 5.15628689 C325.82462193 5.15928237 308.87762653 5.16205218 291.93063108 5.16459072 C283.61537514 5.16583765 275.30011921 5.16713426 266.98486328 5.16845703 C266.1575583 5.16858779 265.33025332 5.16871855 264.4778785 5.16885327 C237.84109757 5.17308648 211.20431881 5.18057622 184.56753918 5.18982261 C157.10976319 5.1993363 129.65198839 5.20542934 102.19421077 5.20744038 C98.28298044 5.20772838 94.37175012 5.20805401 90.46051979 5.20840263 C89.69101225 5.20847006 88.9215047 5.20853748 88.12867875 5.20860695 C76.67320882 5.20970035 65.21774234 5.21368717 53.76227379 5.21925545 C36.52266731 5.22747882 19.28306526 5.23127392 2.04345703 5.22705078 C1.36841099 5.22689439 0.69336496 5.226738 -0.00213702 5.22657687 C-44.30010353 5.21541851 -88.58667069 4.95070725 -132.87719727 4.11352539 C-132.87719727 3.12352539 -132.87719727 2.13352539 -132.87719727 1.11352539 C-88.58622888 0.24209156 -44.29884891 0.01023164 0 0 Z " fill="#6C623F" transform="translate(132.877197265625,195.886474609375)"/>
<path d="M0 0 C209.55 0 419.1 0 635 0 C635 1.65 635 3.3 635 5 C427.43 5 219.86 5 6 5 C6 4.67 6 4.34 6 4 C3.03 3.505 3.03 3.505 0 3 C0 2.01 0 1.02 0 0 Z " fill="#534D47" transform="translate(0,386)"/>
<path d="M0 0 C1.13399818 0.00414668 1.13399818 0.00414668 2.29090542 0.00837713 C21.82935692 0.08010377 41.36774976 0.1640778 60.90613306 0.25226176 C72.2508059 0.30335015 83.59548936 0.35112657 94.94018555 0.39672852 C95.74840451 0.39997823 96.55662347 0.40322795 97.38933391 0.40657615 C101.44716516 0.42287528 105.50499662 0.439121 109.56282818 0.45534027 C142.80103727 0.58826237 176.03920077 0.73035413 209.27734375 0.87890625 C209.27734375 1.20890625 209.27734375 1.53890625 209.27734375 1.87890625 C303.32734375 2.20890625 397.37734375 2.53890625 494.27734375 2.87890625 C494.27734375 4.19890625 494.27734375 5.51890625 494.27734375 6.87890625 C284.72734375 6.87890625 75.17734375 6.87890625 -140.72265625 6.87890625 C-140.72265625 4.89890625 -140.72265625 2.91890625 -140.72265625 0.87890625 C-93.81706355 -0.18198395 -46.91418457 -0.17238726 0 0 Z " fill="#696046" transform="translate(140.72265625,278.12109375)"/>
<path d="M0 0 C0.91184767 -0.00224729 1.82369535 -0.00449459 2.76317477 -0.00680998 C4.27861973 -0.00286946 4.27861973 -0.00286946 5.82467973 0.00115067 C7.43125208 -0.0005801 7.43125208 -0.0005801 9.07028043 -0.00234583 C12.70167727 -0.00501756 16.33303081 -0.00048576 19.96442544 0.00394398 C22.57715029 0.00350839 25.1898751 0.00263371 27.80259967 0.00135481 C33.50501539 -0.00072355 39.2074207 0.00093271 44.90983522 0.00499302 C53.38919258 0.01101389 61.86854335 0.01133015 70.34790246 0.01045103 C84.60969289 0.00913531 98.87147868 0.01248546 113.13326776 0.01846844 C127.2600965 0.02437965 141.38692332 0.02823321 155.51375329 0.02932125 C156.39117333 0.02938999 157.26859336 0.02945873 158.17260188 0.02952956 C162.62833239 0.02986787 167.0840629 0.03016926 171.53979342 0.03045643 C203.12334517 0.03255845 234.7068944 0.03930029 266.29044473 0.04875904 C296.97892116 0.05793915 327.6673969 0.06502488 358.35587442 0.06926686 C359.77408593 0.06946414 359.77408593 0.06946414 361.22094818 0.06966542 C370.71554108 0.07098391 380.210134 0.07225973 389.70472691 0.07350428 C409.0473763 0.07604069 428.39002564 0.07886194 447.73267496 0.08185536 C448.62207486 0.08199265 449.51147477 0.08212994 450.42782619 0.08227139 C509.84948134 0.09147652 569.27113508 0.10732224 628.69278848 0.1241985 C628.69278848 2.4341985 628.69278848 4.7441985 628.69278848 7.1241985 C516.49278848 7.1241985 404.29278848 7.1241985 288.69278848 7.1241985 C288.69278848 6.7941985 288.69278848 6.4641985 288.69278848 6.1241985 C173.85278848 5.6291985 173.85278848 5.6291985 56.69278848 5.1241985 C56.69278848 4.7941985 56.69278848 4.4641985 56.69278848 4.1241985 C137.87278848 4.1241985 219.05278848 4.1241985 302.69278848 4.1241985 C302.69278848 3.4641985 302.69278848 2.8041985 302.69278848 2.1241985 C301.87675208 2.12737245 301.87675208 2.12737245 301.0442301 2.13061053 C268.58327758 2.25684483 236.1223217 2.38217555 203.66136135 2.50638077 C199.73742949 2.52139565 195.81349765 2.53641785 191.88956583 2.55144459 C190.71810894 2.55593051 190.71810894 2.55593051 189.52298626 2.56050706 C176.98501513 2.60853672 164.44704635 2.65715556 151.90907839 2.7060039 C138.98152644 2.75635652 126.05397207 2.80604876 113.12641537 2.85516554 C105.89155198 2.88267153 98.65668991 2.91045642 91.42183053 2.93900257 C58.84536686 3.06738034 26.26953788 3.16126423 -6.30721152 3.1241985 C-6.30721152 2.4641985 -6.30721152 1.8041985 -6.30721152 1.1241985 C-3.96675888 -0.04602782 -2.60782623 -0.00051518 0 0 Z " fill="#746841" transform="translate(6.307211518287659,81.8758015036583)"/>
<path d="M0 0 C209.55 0 419.1 0 635 0 C635 1.65 635 3.3 635 5 C425.78 5 216.56 5 1 5 C0.67 3.35 0.34 1.7 0 0 Z " fill="#3D3E42" transform="translate(0,458)"/>
<path d="M0 0 C202.62 0 405.24 0 614 0 C614 0.33 614 0.66 614 1 C620.93 1.33 627.86 1.66 635 2 C635 2.99 635 3.98 635 5 C541.82199413 5.86811767 448.65047301 6.07878549 355.46875 5.87890625 C354.17333267 5.8761418 352.87791533 5.87337734 351.54324293 5.87052912 C319.68086935 5.80225122 287.8185273 5.72254957 255.956195 5.6374263 C235.35508135 5.58238911 214.75396188 5.53077421 194.15283203 5.48217773 C193.46419966 5.48055215 192.77556729 5.47892657 192.06606727 5.47725173 C185.14419159 5.46091518 178.22231578 5.44463748 171.30043986 5.42840267 C114.20027 5.29447256 57.10012745 5.15090505 0 5 C0 3.35 0 1.7 0 0 Z " fill="#3E3720" transform="translate(0,11)"/>
<path d="M0 0 C209.55 0 419.1 0 635 0 C635 1.65 635 3.3 635 5 C455.81 5 276.62 5 92 5 C92 4.67 92 4.34 92 4 C98.27 4 104.54 4 111 4 C111 3.34 111 2.68 111 2 C74.37 2 37.74 2 0 2 C0 1.34 0 0.68 0 0 Z " fill="#5A5446" transform="translate(0,342)"/>
<path d="M0 0 C7.14665149 0.00537815 14.29329982 0.00465421 21.43995284 0.00386307 C34.61765394 0.00256429 47.79534995 0.00583195 60.97304957 0.01188047 C73.98418748 0.01783697 86.99532325 0.02165429 100.00646251 0.02273329 C100.82131382 0.02280203 101.63616514 0.02287076 102.47570892 0.02294159 C106.61543228 0.02328001 110.75515564 0.02358136 114.894879 0.02386846 C144.06977852 0.02595813 173.24467527 0.03266512 202.41957324 0.04217108 C230.72849236 0.05138409 259.03741072 0.05845361 287.34633105 0.06267889 C288.22190536 0.06281041 289.09747967 0.06294194 289.99958654 0.06307745 C298.7940096 0.06439619 307.58843266 0.06567197 316.38285573 0.06691631 C334.29147251 0.06945121 352.20008923 0.07227246 370.10870593 0.07526739 C370.93176635 0.07540468 371.75482676 0.07554197 372.6028284 0.07568342 C427.3850876 0.0848541 482.16734524 0.10071672 536.94960254 0.11761053 C536.94960254 2.42761053 536.94960254 4.73761053 536.94960254 7.11761053 C427.05960254 7.11761053 317.16960254 7.11761053 203.94960254 7.11761053 C203.94960254 6.78761053 203.94960254 6.45761053 203.94960254 6.11761053 C201.63960254 5.78761053 199.32960254 5.45761053 196.94960254 5.11761053 C196.94960254 4.78761053 196.94960254 4.45761053 196.94960254 4.11761053 C99.59960254 3.78761053 2.24960254 3.45761053 -98.05039746 3.11761053 C-98.05039746 2.45761053 -98.05039746 1.79761053 -98.05039746 1.11761053 C-65.36406228 0.19556433 -32.69812416 -0.0256317 0 0 Z " fill="#7E7143" transform="translate(98.05039746453986,71.88238947140053)"/>
<path d="M0 0 C209.55 0 419.1 0 635 0 C635 1.65 635 3.3 635 5 C462.41 5 289.82 5 112 5 C112 4.67 112 4.34 112 4 C75.04 3.67 38.08 3.34 0 3 C0 2.01 0 1.02 0 0 Z " fill="#69634D" transform="translate(0,294)"/>
<path d="M0 0 C87.12 0 174.24 0 264 0 C264 0.66 264 1.32 264 2 C386.43 2 508.86 2 635 2 C635 3.65 635 5.3 635 7 C442.28 7 249.56 7 51 7 C51 6.67 51 6.34 51 6 C55.455 5.505 55.455 5.505 60 5 C60 4.67 60 4.34 60 4 C30.3 3.505 30.3 3.505 0 3 C0 2.01 0 1.02 0 0 Z " fill="#8B7C49" transform="translate(0,104)"/>
<path d="M0 0 C209.55 0 419.1 0 635 0 C635 1.32 635 2.64 635 4 C555.44944246 4.35095771 475.89877842 4.68707637 294.4375 5.125 C293.67065384 5.12501007 292.90380768 5.12502014 292.11372375 5.12503052 C194.74196478 5.12375184 97.37003729 4.52443352 0 4 C0 2.68 0 1.36 0 0 Z " fill="#282A2E" transform="translate(0,476)"/>
<path d="M0 0 C14.79707722 -0.00116354 29.5941528 -0.0043787 44.3912294 -0.00874095 C65.18098214 -0.01482238 85.97073009 -0.01701489 106.76048344 -0.01273072 C108.83043957 -0.01231234 110.90039569 -0.01189831 112.97035182 -0.01148868 C114.49470448 -0.01118552 114.49470448 -0.01118552 116.04985214 -0.01087625 C123.15428756 -0.00970439 130.25871996 -0.01098876 137.36315501 -0.01332736 C145.914845 -0.01610171 154.46652586 -0.01542754 163.01821483 -0.01013379 C167.35217049 -0.00753861 171.68611086 -0.00652943 176.02006638 -0.00984168 C179.97244499 -0.01281576 183.92479373 -0.01119209 187.87716962 -0.00585751 C189.30420021 -0.00473872 190.73123333 -0.00530761 192.1582623 -0.0077308 C194.09440335 -0.01076895 196.03055146 -0.00705685 197.96669066 -0.00301051 C199.57824979 -0.00276698 199.57824979 -0.00276698 201.22236568 -0.00251853 C204.30124006 0.12543321 207.21310018 0.5519109 210.23861468 1.12283063 C210.23861468 2.44283063 210.23861468 3.76283063 210.23861468 5.12283063 C22.79861468 5.12283063 -164.64138532 5.12283063 -357.76138532 5.12283063 C-357.76138532 4.79283063 -357.76138532 4.46283063 -357.76138532 4.12283063 C-390.92638532 3.62783063 -390.92638532 3.62783063 -424.76138532 3.12283063 C-424.76138532 2.46283063 -424.76138532 1.80283063 -424.76138532 1.12283063 C-332.66730208 0.55495057 -240.57223645 0.15927678 0 0 Z " fill="#73663B" transform="translate(424.7613853216171,171.87716937065125)"/>
<path d="M0 0 C209.55 0 419.1 0 635 0 C635 1.32 635 2.64 635 4 C425.45 4 215.9 4 0 4 C0 2.68 0 1.36 0 0 Z " fill="#291C19" transform="translate(0,538)"/>
<path d="M0 0 C7.26814134 0.00534899 14.53627949 0.00465641 21.80442232 0.00386307 C35.20902583 0.00256055 48.61362436 0.00584667 62.01822642 0.01188047 C75.26288102 0.0178268 88.50753352 0.02165228 101.75218944 0.02273329 C102.99411008 0.0228364 102.99411008 0.0228364 104.26112003 0.02294159 C108.46698441 0.02327999 112.67284881 0.02358135 116.8787132 0.02386846 C146.55774923 0.02596087 176.23678255 0.03267568 205.91581706 0.04217108 C234.72278306 0.05137673 263.52974832 0.0584499 292.3367155 0.06267889 C293.22692005 0.06281041 294.1171246 0.06294194 295.03430504 0.06307745 C303.97527528 0.06439613 312.91624552 0.06567192 321.85721577 0.06691631 C340.0659789 0.06945155 358.27474199 0.0722728 376.48350505 0.07526739 C377.73892319 0.07547332 377.73892319 0.07547332 379.01970331 0.07568342 C434.77299887 0.08486176 490.5262929 0.10072528 546.27958659 0.11761053 C546.27958659 1.76761053 546.27958659 3.41761053 546.27958659 5.11761053 C351.90958659 5.11761053 157.53958659 5.11761053 -42.72041341 5.11761053 C-42.72041341 4.78761053 -42.72041341 4.45761053 -42.72041341 4.11761053 C-57.90041341 3.78761053 -73.08041341 3.45761053 -88.72041341 3.11761053 C-88.72041341 2.45761053 -88.72041341 1.79761053 -88.72041341 1.11761053 C-59.1496016 -0.00657974 -29.58832162 -0.02267588 0 0 Z " fill="#857949" transform="translate(88.72041340731084,25.88238947140053)"/>
<path d="M0 0 C209.55 0 419.1 0 635 0 C635 1.32 635 2.64 635 4 C575.88393204 4.11251963 516.76786185 4.22381471 457.65177917 4.32835388 C456.77671717 4.32990168 455.90165516 4.33144947 455.00007612 4.33304417 C435.9822102 4.36667504 416.96434389 4.40007846 397.94647716 4.4332476 C388.61999837 4.44951533 379.29351967 4.46583333 369.96704102 4.48217773 C368.57490258 4.48461614 368.57490258 4.48461614 367.15464014 4.4871038 C337.07737629 4.53980924 307.00011973 4.59583274 276.92286516 4.65357857 C246.01226289 4.71290682 215.10165633 4.7688843 184.19104043 4.82065109 C179.82423103 4.82796586 175.4574217 4.83531889 171.09061241 4.84269524 C170.23116931 4.84414581 169.37172621 4.84559638 168.48623938 4.84709091 C154.65660308 4.87053105 140.8269758 4.89749904 126.99734866 4.92578938 C113.09087369 4.95416152 99.18439606 4.97880967 85.27790777 4.99967117 C77.01781295 5.01217513 68.75773488 5.02751977 60.49765341 5.04695946 C54.32572446 5.06116992 48.15379859 5.07002999 41.98185726 5.07683109 C39.4876958 5.08040979 36.99353607 5.08571356 34.49938247 5.09292836 C10.52979624 5.16047108 10.52979624 5.16047108 0 4 C0 2.68 0 1.36 0 0 Z " fill="#4E4939" transform="translate(0,290)"/>
<path d="M0 0 C187.77 0 375.54 0 569 0 C569 0.33 569 0.66 569 1 C601.67 1.495 601.67 1.495 635 2 C635 3.32 635 4.64 635 6 C438.65 6 242.3 6 40 6 C40 5.67 40 5.34 40 5 C20.2 4.505 20.2 4.505 0 4 C0 2.68 0 1.36 0 0 Z " fill="#5A5231" transform="translate(0,29)"/>
<path d="M0 0 C106.92 0 213.84 0 324 0 C324 0.33 324 0.66 324 1 C426.63 1.33 529.26 1.66 635 2 C635 2.99 635 3.98 635 5 C598.89277762 5.1794774 562.78548045 5.34107334 526.67812401 5.49095565 C524.50921771 5.49996172 522.34031151 5.50899352 520.17140532 5.51802588 C430.92840335 5.88904477 341.68613742 6.05694904 170.45657492 6.06315851 C167.30243143 6.06249789 164.14828793 6.06185519 160.99414444 6.06121445 C107.32942528 6.05019185 53.66471183 6.03008687 0 6 C0 4.02 0 2.04 0 0 Z " fill="#2D2A23" transform="translate(0,297)"/>
<path d="M0 0 C1.90641666 0.00223852 1.90641666 0.00223852 3.85134679 0.00452226 C5.2593867 0.01130416 6.66742616 0.01818005 8.0754652 0.02513981 C9.57295721 0.02883444 11.07045036 0.0320835 12.56794423 0.03492504 C16.68403981 0.04402661 20.80009121 0.05945698 24.91616309 0.07590783 C29.35441602 0.0925421 33.79268358 0.10332544 38.23095226 0.11481571 C45.92092999 0.13552689 53.61088874 0.1599535 61.30084705 0.18689632 C72.41926654 0.22584588 83.53769725 0.2592034 94.65613868 0.29119159 C112.69462443 0.34324107 130.73309303 0.39981951 148.7715559 0.4592371 C166.29531213 0.5169496 183.81907297 0.5725347 201.34284496 0.62525272 C202.42282374 0.62850244 203.50280253 0.63175216 204.61550794 0.63510036 C210.03338846 0.65138993 215.4512691 0.66763762 220.8691498 0.68386447 C265.82321193 0.81855863 310.77724869 0.96059904 355.7312727 1.10743046 C355.7312727 1.43743046 355.7312727 1.76743046 355.7312727 2.10743046 C444.1712727 2.43743046 532.6112727 2.76743046 623.7312727 3.10743046 C623.7312727 4.09743046 623.7312727 5.08743046 623.7312727 6.10743046 C572.51380142 6.27948823 521.29630338 6.44257688 470.07878011 6.59838611 C467.11639954 6.60739965 464.154019 6.61642784 461.19163847 6.62545633 C365.84486939 6.91576531 270.49840902 7.16024253 112.26908982 7.17058897 C109.90946333 7.16992785 107.54983684 7.16928537 105.19021034 7.16864491 C66.37055785 7.15798678 27.55091463 7.13848562 -11.2687273 7.10743046 C-11.2687273 5.12743046 -11.2687273 3.14743046 -11.2687273 1.10743046 C-7.44703734 0.21321713 -3.92097929 -0.01220644 0 0 Z " fill="#584F2E" transform="translate(11.26872730255127,47.89256954193115)"/>
<path d="M0 0 C209.55 0 419.1 0 635 0 C635 1.65 635 3.3 635 5 C518.84 5 402.68 5 283 5 C283 4.67 283 4.34 283 4 C189.61 3.67 96.22 3.34 0 3 C0 2.01 0 1.02 0 0 Z " fill="#7D6E44" transform="translate(0,120)"/>
<path d="M0 0 C76.23 0 152.46 0 231 0 C231 0.33 231 0.66 231 1 C364.32 1.33 497.64 1.66 635 2 C635 3.32 635 4.64 635 6 C425.45 6 215.9 6 0 6 C0 4.02 0 2.04 0 0 Z " fill="#352E1B" transform="translate(0,175)"/>
<path d="M0 0 C1.06891011 -0.00115384 2.13782023 -0.00230769 3.23912156 -0.0034965 C6.83915871 -0.0061541 10.43915159 -0.00164798 14.03918648 0.00279331 C16.63886435 0.00235744 19.23854217 0.00148223 21.83821976 0.00020415 C27.49973505 -0.00186938 33.16123984 -0.00022616 38.82275391 0.00384235 C47.24122891 0.0098753 55.65969728 0.01017835 64.07817405 0.00930037 C78.23911895 0.00798612 92.40005919 0.01132918 106.56100273 0.01731777 C120.58404628 0.02323286 134.60708789 0.02708333 148.63013268 0.02817059 C149.50173236 0.02823933 150.37333205 0.02830806 151.27134385 0.02837889 C155.69767834 0.02871722 160.12401284 0.0290186 164.55034734 0.02930576 C195.90983842 0.03140671 227.26932696 0.03814555 258.6288166 0.04760838 C289.09593886 0.05679132 319.56306043 0.06387566 350.03018379 0.06811619 C350.9691558 0.06824771 351.90812782 0.06837924 352.87555352 0.06851475 C362.30501435 0.06983326 371.73447519 0.07110908 381.16393602 0.07235361 C400.37318703 0.07488989 419.58243798 0.07771114 438.79168892 0.08070469 C440.11653211 0.08091062 440.11653211 0.08091062 441.46813981 0.08112072 C500.45822323 0.09032287 559.44830525 0.10616824 618.43838692 0.12304783 C618.43838692 2.43304783 618.43838692 4.74304783 618.43838692 7.12304783 C518.44838692 7.12304783 418.45838692 7.12304783 315.43838692 7.12304783 C315.43838692 6.79304783 315.43838692 6.46304783 315.43838692 6.12304783 C409.48838692 6.12304783 503.53838692 6.12304783 600.43838692 6.12304783 C600.43838692 5.13304783 600.43838692 4.14304783 600.43838692 3.12304783 C599.23266124 3.12342755 598.02693556 3.12380727 596.78467274 3.1241985 C543.55775396 3.14089479 490.33083494 3.15631866 437.10391426 3.16539097 C435.89206984 3.16559805 435.89206984 3.16559805 434.65574372 3.16580932 C417.09110589 3.16880337 399.52646804 3.17157338 381.96183014 3.17411316 C373.34610557 3.17536032 364.73038101 3.1766569 356.11465645 3.17797947 C355.25736258 3.17811023 354.40006871 3.17824099 353.51679623 3.17837571 C325.81084229 3.18262467 298.10489041 3.19012664 270.39893772 3.19934505 C241.88871081 3.20881366 213.37848505 3.21494157 184.86825659 3.21696282 C180.82633592 3.2172509 176.78441525 3.21757654 172.74249458 3.21792507 C171.54942322 3.21802621 171.54942322 3.21802621 170.33224941 3.21812938 C157.6125916 3.21930363 144.89293734 3.22392125 132.17328096 3.22987986 C119.33501075 3.23581861 106.49674401 3.23800311 93.65847248 3.23654921 C86.72305074 3.23586318 79.78763844 3.23671202 72.85221863 3.2422533 C43.03156435 3.26449461 13.24492069 3.09520474 -16.56161308 2.12304783 C-16.56161308 1.79304783 -16.56161308 1.46304783 -16.56161308 1.12304783 C-11.02158549 -0.04256148 -5.63164854 -0.01489314 0 0 Z " fill="#7F7446" transform="translate(16.561613082885742,39.876952171325684)"/>
<path d="M0 0 C209.55 0 419.1 0 635 0 C635 1.65 635 3.3 635 5 C564.71 5 494.42 5 422 5 C422 4.67 422 4.34 422 4 C282.74 3.67 143.48 3.34 0 3 C0 2.01 0 1.02 0 0 Z " fill="#7D7145" transform="translate(0,8)"/>
<path d="M0 0 C10.63541588 0.00563015 21.27082967 0.00876057 31.90624699 0.00975825 C32.98665304 0.00986136 32.98665304 0.00986136 34.08888548 0.00996655 C37.7509236 0.01030517 41.41296173 0.01060644 45.07499986 0.01089343 C70.6089135 0.01296038 96.1428239 0.01960057 121.67673573 0.02919604 C146.38864963 0.03847147 171.10056262 0.04550958 195.81247792 0.04970385 C196.5823894 0.04983538 197.35230087 0.0499669 198.145543 0.05010242 C205.88156978 0.05142162 213.61759656 0.05269733 221.35362336 0.05394128 C237.09451641 0.05647337 252.83540941 0.05929461 268.57630238 0.06229235 C269.29908217 0.06242964 270.02186196 0.06256693 270.76654417 0.06270838 C318.53576304 0.07181498 366.30498001 0.08766917 414.07419667 0.10463549 C414.07419667 1.75463549 414.07419667 3.40463549 414.07419667 5.10463549 C342.13419667 5.10463549 270.19419667 5.10463549 196.07419667 5.10463549 C196.07419667 4.77463549 196.07419667 4.44463549 196.07419667 4.10463549 C158.77676769 3.97523567 121.47933273 3.8477023 84.18188958 3.72245322 C79.71296781 3.70744458 75.24404609 3.69242147 70.77512441 3.6773894 C69.88596502 3.67439878 68.99680563 3.67140817 68.08070202 3.66832693 C54.81380083 3.62367293 41.5469032 3.57805313 28.28000722 3.53188159 C10.27847805 3.46926283 -7.72305561 3.40809895 -25.72459525 3.34856667 C-29.94482844 3.33460658 -34.16506133 3.32056845 -38.38529363 3.30634143 C-72.77171996 3.1904562 -107.157795 3.08141885 -141.54445567 3.10854174 C-142.73967967 3.10935905 -143.93490367 3.11017636 -145.16634658 3.11101843 C-156.05703529 3.11869851 -166.94768274 3.12984868 -177.83833566 3.15958621 C-181.59320451 3.16908237 -185.34807317 3.17481208 -189.10295048 3.17976023 C-190.79049573 3.18298622 -192.47803881 3.18802717 -194.16557207 3.19516017 C-203.1332487 3.23306413 -211.99623862 3.05957055 -220.92580333 2.10463549 C-220.92580333 1.77463549 -220.92580333 1.44463549 -220.92580333 1.10463549 C-147.281791 0.27981862 -73.64851531 -0.03898799 0 0 Z " fill="#66614E" transform="translate(220.92580332886428,301.89536450756714)"/>
<path d="M0 0 C47.19 0 94.38 0 143 0 C143 0.33 143 0.66 143 1 C305.36 1.33 467.72 1.66 635 2 C635 2.99 635 3.98 635 5 C425.45 5.33 215.9 5.66 0 6 C0 4.02 0 2.04 0 0 Z " fill="#282624" transform="translate(0,389)"/>
<path d="M0 0 C1.02863868 -0.00049165 2.05727735 -0.0009833 3.1170869 -0.00148985 C6.52935607 -0.00189394 9.94157138 0.00485278 13.3538332 0.01165009 C15.80495503 0.01288239 18.25607711 0.01368354 20.70719922 0.01408672 C26.65797332 0.01624018 32.60873104 0.02308559 38.55949768 0.03210033 C45.58803188 0.04252123 52.61656698 0.04725298 59.64510693 0.05193176 C75.72099101 0.06294465 91.79685577 0.08387974 107.87272532 0.10770013 C112.63005 0.11474574 117.38737501 0.1214399 122.14470053 0.12790298 C156.00413414 0.17390456 189.86351718 0.23791471 223.7229033 0.31053916 C233.11560746 0.33065248 242.50831275 0.35012303 251.9010191 0.36917877 C252.58421368 0.37056512 253.26740827 0.37195147 253.97130573 0.37337982 C257.44566829 0.38042731 260.92003088 0.38746543 264.39439347 0.39449996 C288.53902269 0.443402 312.68364942 0.49344603 336.82827473 0.54424286 C360.17658077 0.59336153 383.5248879 0.64191223 406.8731966 0.68975067 C407.60228973 0.69124473 408.33138286 0.69273878 409.08256972 0.69427811 C416.40931379 0.70929147 423.73605789 0.72429388 431.062802 0.73928831 C445.96722626 0.76979097 460.87165038 0.80036628 475.77607441 0.83098602 C476.802341 0.83309426 476.802341 0.83309426 477.84934025 0.83524508 C522.96707681 0.92793758 568.08480986 1.02232462 613.2025423 1.11699677 C613.2025423 2.10699677 613.2025423 3.09699677 613.2025423 4.11699677 C403.6525423 4.11699677 194.1025423 4.11699677 -21.7974577 4.11699677 C-21.7974577 3.12699677 -21.7974577 2.13699677 -21.7974577 1.11699677 C-14.50900542 0.34509789 -7.32696568 -0.02537885 0 0 Z " fill="#2F2D27" transform="translate(21.797457695007324,337.8830032348633)"/>
<path d="M0 0 C43.27075875 -0.03578753 86.54131904 0.01644418 129.81201172 0.09179688 C130.83691459 0.09357999 130.83691459 0.09357999 131.88252257 0.09539913 C149.35999276 0.12583653 166.83746089 0.15738967 184.31492833 0.18936362 C195.91803201 0.21059078 207.52113618 0.23152076 219.12424088 0.25218201 C219.90271503 0.25356835 220.68118919 0.2549547 221.48325347 0.25638306 C225.43925173 0.26342676 229.39525 0.27046586 233.35124828 0.27750319 C261.12576799 0.32691953 288.90028664 0.37690603 316.67480469 0.42724609 C343.60025989 0.47604592 370.52571555 0.52457611 397.45117188 0.57275391 C398.28610663 0.57424796 399.12104139 0.57574202 399.9812772 0.57728135 C408.36862477 0.59228962 416.75597234 0.60729254 425.14331992 0.62229155 C442.21819682 0.6528265 459.29307365 0.68339706 476.36795044 0.71398926 C477.54468686 0.71609749 477.54468686 0.71609749 478.74519573 0.71824832 C530.83013156 0.81156742 582.9150659 0.90571808 635 1 C635 1.99 635 2.98 635 4 C425.45 4 215.9 4 0 4 C0 2.68 0 1.36 0 0 Z " fill="#3A331F" transform="translate(0,184)"/>
<path d="M0 0 C209.55 0 419.1 0 635 0 C635 0.99 635 1.98 635 3 C589.67920539 3.17435537 544.3583726 3.33703877 499.03750414 3.49095565 C496.38477206 3.4999668 493.73204005 3.50899615 491.07930803 3.51802588 C398.11447328 3.83409226 305.15015889 4.05465536 141.84757626 4.06315851 C139.17789436 4.06249762 136.50821245 4.06185504 133.83853054 4.06121445 C89.22568146 4.05038828 44.61283997 4.03066097 0 4 C0 2.68 0 1.36 0 0 Z " fill="#3B341F" transform="translate(0,69)"/>
<path d="M0 0 C209.55 0 419.1 0 635 0 C635 1.65 635 3.3 635 5 C634.39988393 4.97078227 633.79976786 4.94156453 633.18146646 4.91146141 C606.30212918 3.67408362 579.40067816 3.82660182 552.49957596 3.80144384 C545.1504351 3.79436245 537.80130655 3.78157605 530.45217399 3.76867336 C516.89630866 3.74502673 503.34044053 3.72575485 489.78456497 3.70907402 C476.38422897 3.69256994 462.98389813 3.67406142 449.58356857 3.65294075 C448.74689096 3.65162314 447.91021335 3.65030554 447.04818187 3.648948 C442.79822341 3.64224488 438.54826501 3.63550658 434.29830663 3.62875474 C404.28318602 3.58113331 374.26806056 3.53790817 344.25292969 3.49731445 C315.11392871 3.45789547 285.97493173 3.41645651 256.8359375 3.37231445 C255.48600044 3.37027066 255.48600044 3.37027066 254.10879192 3.36818558 C245.0701235 3.35449889 236.03145515 3.34077147 226.99278684 3.32701423 C208.58392652 3.29899609 190.17506581 3.27124958 171.76620483 3.2436676 C170.49690168 3.2417653 170.49690168 3.2417653 169.20195605 3.23982458 C112.80131055 3.15532831 56.40065592 3.07718152 0 3 C0 2.01 0 1.02 0 0 Z " fill="#6F653E" transform="translate(0,208)"/>
<path d="M0 0 C203.61 0.33 407.22 0.66 617 1 C617 1.99 617 2.98 617 4 C576.83620016 4.17617523 536.67235131 4.33858844 496.50845462 4.49095565 C494.13426207 4.49996485 491.7600696 4.50899514 489.38587713 4.51802588 C400.62047661 4.85519367 311.85574051 5.05572268 149.85058916 5.06315851 C147.05297208 5.06249775 144.255355 5.06185512 141.45773792 5.06121445 C94.30515353 5.0502952 47.15257589 5.03038365 0 5 C0 3.35 0 1.7 0 0 Z " fill="#39341E" transform="translate(0,42)"/>
<path d="M0 0 C209.55 0 419.1 0 635 0 C635 0.99 635 1.98 635 3 C606.41680376 3.19143529 577.83345453 3.35246579 549.25 3.5 C548.1024088 3.50594854 546.95481761 3.51189708 545.77245092 3.51802588 C445.65275482 4.03492194 345.5332588 4.0760751 195.63249373 4.06315851 C192.05202405 4.06249807 188.47155436 4.06185529 184.89108467 4.06121445 C123.26071943 4.05006296 61.63035903 4.02973224 0 4 C0 2.68 0 1.36 0 0 Z " fill="#312D25" transform="translate(0,327)"/>
<path d="M0 0 C209.55 0 419.1 0 635 0 C635 0.99 635 1.98 635 3 C572.35775545 3.19925362 509.71547019 3.38302839 447.07313877 3.5528124 C443.51081418 3.56247068 439.94848966 3.57215604 436.38616514 3.58184195 C226.75507935 4.15087747 226.75507935 4.15087747 86.3125 3.5625 C85.14874722 3.55610205 83.98499443 3.5497041 82.78597641 3.54311228 C55.19044342 3.39087354 27.59510925 3.21616722 0 3 C0 2.01 0 1.02 0 0 Z " fill="#2D2924" transform="translate(0,363)"/>
<path d="M0 0 C209.55 0 419.1 0 635 0 C635 0.99 635 1.98 635 3 C425.45 3.33 215.9 3.66 0 4 C0 2.68 0 1.36 0 0 Z " fill="#1F2227" transform="translate(0,503)"/>
<path d="M0 0 C209.55 0 419.1 0 635 0 C635 0.99 635 1.98 635 3 C578.25443057 3.20095145 521.50881085 3.38440415 464.76313549 3.5528124 C461.5104594 3.56246895 458.2577834 3.57215514 455.0051074 3.58184195 C357.42497032 3.87191612 259.84563229 4.14081999 106.37241793 3.57217997 C104.30346854 3.56245756 102.23451894 3.55278239 100.16556931 3.54311228 C66.77690502 3.38675481 33.38837713 3.20912658 0 3 C0 2.01 0 1.02 0 0 Z " fill="#3B341F" transform="translate(0,117)"/>
<path d="M0 0 C209.55 0 419.1 0 635 0 C635 0.99 635 1.98 635 3 C578.43870172 3.20101073 521.8773528 3.38445137 465.31594789 3.5528124 C462.07294832 3.56246889 458.82994883 3.57215511 455.58694935 3.58184195 C358.08123614 3.87255909 260.57636374 4.13941416 106.9445979 3.57217997 C104.86595928 3.56245771 102.78732045 3.55278248 100.70868158 3.54311228 C67.13898133 3.38663978 33.56941624 3.20895175 0 3 C0 2.01 0 1.02 0 0 Z " fill="#322E24" transform="translate(0,317)"/>
<path d="M0 0 C209.55 0 419.1 0 635 0 C635 0.99 635 1.98 635 3 C425.45 3.33 215.9 3.66 0 4 C0 2.68 0 1.36 0 0 Z " fill="#1D1F24" transform="translate(0,493)"/>
<path d="M0 0 C209.55 0 419.1 0 635 0 C635 0.99 635 1.98 635 3 C425.45 3 215.9 3 0 3 C0 2.01 0 1.02 0 0 Z " fill="#412F2F" transform="translate(0,604)"/>
<path d="M0 0 C209.55 0 419.1 0 635 0 C635 0.99 635 1.98 635 3 C425.45 3 215.9 3 0 3 C0 2.01 0 1.02 0 0 Z " fill="#443130" transform="translate(0,596)"/>
<path d="M0 0 C209.55 0 419.1 0 635 0 C635 0.99 635 1.98 635 3 C425.45 3 215.9 3 0 3 C0 2.01 0 1.02 0 0 Z " fill="#1F1515" transform="translate(0,577)"/>
<path d="M0 0 C209.55 0 419.1 0 635 0 C635 0.99 635 1.98 635 3 C425.45 3 215.9 3 0 3 C0 2.01 0 1.02 0 0 Z " fill="#402C2C" transform="translate(0,546)"/>
<path d="M0 0 C209.55 0 419.1 0 635 0 C635 0.99 635 1.98 635 3 C425.45 3 215.9 3 0 3 C0 2.01 0 1.02 0 0 Z " fill="#484748" transform="translate(0,440)"/>
<path d="M0 0 C209.55 0 419.1 0 635 0 C635 0.99 635 1.98 635 3 C425.45 3 215.9 3 0 3 C0 2.01 0 1.02 0 0 Z " fill="#655E4B" transform="translate(0,310)"/>
<path d="M0 0 C209.55 0 419.1 0 635 0 C635 0.99 635 1.98 635 3 C425.45 3 215.9 3 0 3 C0 2.01 0 1.02 0 0 Z " fill="#353023" transform="translate(0,271)"/>
<path d="M0 0 C209.55 0 419.1 0 635 0 C635 0.99 635 1.98 635 3 C425.45 3 215.9 3 0 3 C0 2.01 0 1.02 0 0 Z " fill="#6C6343" transform="translate(0,252)"/>
<path d="M0 0 C209.55 0 419.1 0 635 0 C635 0.99 635 1.98 635 3 C425.45 3 215.9 3 0 3 C0 2.01 0 1.02 0 0 Z " fill="#766A43" transform="translate(0,188)"/>
<path d="M0 0 C209.55 0 419.1 0 635 0 C635 0.99 635 1.98 635 3 C425.45 3 215.9 3 0 3 C0 2.01 0 1.02 0 0 Z " fill="#3B331F" transform="translate(0,129)"/>
<path d="M0 0 C209.55 0 419.1 0 635 0 C635 0.99 635 1.98 635 3 C425.45 3 215.9 3 0 3 C0 2.01 0 1.02 0 0 Z " fill="#786C3D" transform="translate(0,0)"/>
<path d="M0 0 C0.91266155 -0.00224729 1.8253231 -0.00449459 2.76564106 -0.00680998 C3.77170634 -0.00418297 4.77777162 -0.00155595 5.81432372 0.00115067 C6.88483743 -0.00000318 7.95535113 -0.00115702 9.05830464 -0.00234583 C12.68186155 -0.00501404 16.30537493 -0.00048863 19.92892963 0.00394398 C22.53839273 0.00350832 25.14785579 0.00263351 27.75731862 0.00135481 C33.44950923 -0.00072235 39.14168941 0.00093068 44.83387882 0.00499302 C53.29801559 0.01101689 61.76214576 0.01132986 70.22628428 0.01045103 C84.46286333 0.00913567 98.69943773 0.01248407 112.93601543 0.01846844 C127.03689787 0.02438061 141.13777839 0.0282334 155.23866206 0.02932125 C156.11462701 0.02938999 156.99059196 0.02945873 157.89310129 0.02952956 C162.3414828 0.02986788 166.78986431 0.03016927 171.23824582 0.03045643 C202.7657824 0.03255818 234.29331646 0.03929928 265.82085162 0.04875904 C296.45398951 0.05793986 327.0871267 0.06502524 357.72026569 0.06926686 C359.13603882 0.06946414 359.13603882 0.06946414 360.58041344 0.06966542 C370.05872332 0.07098391 379.53703322 0.07225973 389.01534311 0.07350428 C408.3246429 0.07604066 427.63394265 0.07886191 446.94324237 0.08185536 C448.27502807 0.08206129 448.27502807 0.08206129 449.63371852 0.08227139 C508.94748074 0.09147578 568.26124155 0.10732141 627.57500201 0.1241985 C627.57500201 1.1141985 627.57500201 2.1041985 627.57500201 3.1241985 C418.02500201 3.1241985 208.47500201 3.1241985 -7.42499799 3.1241985 C-7.42499799 2.4641985 -7.42499799 1.8041985 -7.42499799 1.1241985 C-4.60837426 0.18532392 -2.91272038 -0.00057643 0 0 Z " fill="#766B40" transform="translate(7.424997985363007,65.8758015036583)"/>
<path d="M0 0 C0.9142893 -0.00224729 1.82857861 -0.00449459 2.77057365 -0.00680998 C4.26697749 -0.00286946 4.26697749 -0.00286946 5.79361171 0.00115067 C6.86305635 -0.00000318 7.93250099 -0.00115702 9.03435305 -0.00234583 C12.64223012 -0.00500697 16.25006317 -0.0004944 19.85793799 0.00394398 C22.4608776 0.00350818 25.06381718 0.0026331 27.66675651 0.00135481 C33.33849691 -0.00071993 39.01022682 0.00092657 44.68196601 0.00499302 C53.1156616 0.01102293 61.54935057 0.0113293 69.98304792 0.01045103 C84.1692042 0.00913642 98.35535583 0.01248126 112.54151076 0.01846844 C126.59050061 0.02438255 140.63948852 0.0282338 154.6884796 0.02932125 C155.99806176 0.02942436 155.99806176 0.02942436 157.33410013 0.02952956 C161.76778363 0.02986788 166.20146713 0.03016927 170.63515063 0.03045643 C202.05065688 0.03255764 233.46616059 0.03929724 264.88166541 0.04875904 C295.40412621 0.05794127 325.92658632 0.06502597 356.44904822 0.06926686 C357.85994461 0.06946414 357.85994461 0.06946414 359.29934396 0.06966542 C368.74508781 0.07098392 378.19083166 0.07225974 387.63657552 0.07350428 C406.87917612 0.07604059 426.12177667 0.07886184 445.3643772 0.08185536 C446.24914877 0.08199265 447.13392034 0.08212994 448.04550318 0.08227139 C507.14347953 0.09147428 566.24145448 0.10731974 625.33942908 0.1241985 C625.33942908 1.1141985 625.33942908 2.1041985 625.33942908 3.1241985 C415.78942908 3.1241985 206.23942908 3.1241985 -9.66057092 3.1241985 C-9.66057092 2.4641985 -9.66057092 1.8041985 -9.66057092 1.1241985 C-6.38367728 0.39390476 -3.35508909 -0.00066635 0 0 Z " fill="#404751" transform="translate(9.660570919513702,509.8758015036583)"/>
<path d="M0 0 C209.55 0 419.1 0 635 0 C635 0.99 635 1.98 635 3 C425.45 3 215.9 3 0 3 C0 2.01 0 1.02 0 0 Z " fill="#595249" transform="translate(0,366)"/>
<path d="M0 0 C1.06784105 -0.00115384 2.13568211 -0.00230769 3.23588198 -0.0034965 C6.82023929 -0.006147 10.40455184 -0.00165386 13.98890686 0.00279331 C16.58206124 0.00235729 19.17521557 0.00148181 21.76836967 0.00020415 C27.40943475 -0.00186695 33.05048927 -0.00023033 38.69155312 0.00384235 C47.07958693 0.00988143 55.46761411 0.01017778 63.8556497 0.00930037 C77.96617185 0.00798687 92.0766893 0.01132633 106.18721008 0.01731777 C120.15836103 0.02323483 134.12951004 0.02708373 148.10066223 0.02817059 C148.96935175 0.02823933 149.83804126 0.02830806 150.7330547 0.02837889 C155.14469119 0.02871722 159.55632768 0.0290186 163.96796417 0.02930576 C195.21542491 0.03140616 226.4628831 0.0381435 257.71034241 0.04760838 C288.06678758 0.05679275 318.42323206 0.06387639 348.77967834 0.06811619 C349.71539919 0.06824771 350.65112004 0.06837924 351.61519606 0.06851475 C361.01209085 0.06983327 370.40898565 0.07110909 379.80588045 0.07235361 C398.94843226 0.07488982 418.09098402 0.07771108 437.23353577 0.08070469 C438.113679 0.08084198 438.99382224 0.08097927 439.90063648 0.08112072 C498.67493405 0.09032136 557.4492302 0.10616655 616.223526 0.12304783 C616.223526 1.11304783 616.223526 2.10304783 616.223526 3.12304783 C406.673526 3.12304783 197.123526 3.12304783 -18.776474 3.12304783 C-18.776474 2.46304783 -18.776474 1.80304783 -18.776474 1.12304783 C-12.47774941 0.19085194 -6.36184865 -0.01696875 0 0 Z " fill="#404650" transform="translate(18.776473999023438,517.8769521713257)"/>
<path d="M0 0 C2.57684565 -0.00043639 5.15369126 -0.00131254 7.73053664 -0.00258917 C13.32047618 -0.00465412 18.91040503 -0.00303422 24.50034332 0.00104904 C32.81227419 0.00710368 41.12419836 0.00738303 49.43613103 0.00650705 C63.42059627 0.00519545 77.40505678 0.00852581 91.38952065 0.01452446 C105.2309401 0.0204465 119.07235759 0.02429142 132.91377831 0.02537727 C133.77519239 0.02544601 134.63660647 0.02551475 135.52412401 0.02558558 C139.89901548 0.02592392 144.27390695 0.0262253 148.64879843 0.02651245 C179.61618333 0.02861148 210.58356565 0.03534498 241.5509491 0.04481506 C271.63070156 0.05400307 301.71045332 0.06108494 331.79020691 0.06532288 C332.71779985 0.0654544 333.64539278 0.06558593 334.6010946 0.06572144 C343.91657429 0.06703999 353.23205398 0.0683158 362.54753368 0.0695603 C381.52333752 0.07209634 400.4991413 0.0749176 419.47494507 0.07791138 C420.78358908 0.07811731 420.78358908 0.07811731 422.11867034 0.07832741 C480.35350327 0.08752423 538.58833474 0.10338981 596.82316589 0.12025452 C596.82316589 1.11025452 596.82316589 2.10025452 596.82316589 3.12025452 C387.27316589 3.12025452 177.72316589 3.12025452 -38.17683411 3.12025452 C-38.17683411 2.46025452 -38.17683411 1.80025452 -38.17683411 1.12025452 C-25.48431821 -0.26991719 -12.74914741 -0.01604686 0 0 Z " fill="#333840" transform="translate(38.17683410644531,525.8797454833984)"/>
<path d="M0 0 C0.9142893 -0.00224729 1.82857861 -0.00449459 2.77057365 -0.00680998 C4.26697749 -0.00286946 4.26697749 -0.00286946 5.79361171 0.00115067 C6.86305635 -0.00000318 7.93250099 -0.00115702 9.03435305 -0.00234583 C12.64223012 -0.00500697 16.25006317 -0.0004944 19.85793799 0.00394398 C22.4608776 0.00350818 25.06381718 0.0026331 27.66675651 0.00135481 C33.33849691 -0.00071993 39.01022682 0.00092657 44.68196601 0.00499302 C53.1156616 0.01102293 61.54935057 0.0113293 69.98304792 0.01045103 C84.1692042 0.00913642 98.35535583 0.01248126 112.54151076 0.01846844 C126.59050061 0.02438255 140.63948852 0.0282338 154.6884796 0.02932125 C155.99806176 0.02942436 155.99806176 0.02942436 157.33410013 0.02952956 C161.76778363 0.02986788 166.20146713 0.03016927 170.63515063 0.03045643 C202.05065688 0.03255764 233.46616059 0.03929724 264.88166541 0.04875904 C295.40412621 0.05794127 325.92658632 0.06502597 356.44904822 0.06926686 C357.85994461 0.06946414 357.85994461 0.06946414 359.29934396 0.06966542 C368.74508781 0.07098392 378.19083166 0.07225974 387.63657552 0.07350428 C406.87917612 0.07604059 426.12177667 0.07886184 445.3643772 0.08185536 C446.24914877 0.08199265 447.13392034 0.08212994 448.04550318 0.08227139 C507.14347953 0.09147428 566.24145448 0.10731974 625.33942908 0.1241985 C625.33942908 1.1141985 625.33942908 2.1041985 625.33942908 3.1241985 C415.78942908 3.1241985 206.23942908 3.1241985 -9.66057092 3.1241985 C-9.66057092 2.4641985 -9.66057092 1.8041985 -9.66057092 1.1241985 C-6.38367728 0.39390476 -3.35508909 -0.00066635 0 0 Z " fill="#776B3E" transform="translate(9.660570919513702,53.875801503658295)"/>
<path d="M0 0 C97.35 0 194.7 0 295 0 C295 0.33 295 0.66 295 1 C311.335 1.495 311.335 1.495 328 2 C328.33 2.99 328.66 3.98 329 5 C429.98 5.33 530.96 5.66 635 6 C635 6.33 635 6.66 635 7 C512.57 7 390.14 7 264 7 C264 6.34 264 5.68 264 5 C263.05825456 5.07193542 262.11650911 5.14387083 261.14622593 5.21798611 C248.22480591 6.12991972 235.343737 6.09682929 222.39624023 6.02172852 C219.96026799 6.0115642 217.52429373 6.00187293 215.08831787 5.99261475 C209.8785921 5.97176456 204.66889241 5.94768058 199.45919609 5.92053413 C191.92718019 5.88129243 184.3951468 5.84806981 176.86309636 5.81623887 C164.63795803 5.76441466 152.41284666 5.70783339 140.18774414 5.64819336 C128.32382248 5.59032569 116.45989367 5.53474017 104.59594727 5.48217773 C103.49596485 5.47730316 103.49596485 5.47730316 102.37376057 5.4723301 C98.69429592 5.45603846 95.01483108 5.4397912 91.33536613 5.42356598 C60.89021073 5.28925577 30.44509637 5.14711664 0 5 C0 3.35 0 1.7 0 0 Z " fill="#2B2719" transform="translate(0,99)"/>
<path d="M0 0 C10.68380031 0.00562712 21.36759853 0.00876006 32.05140027 0.00975825 C32.77458114 0.00982699 33.49776202 0.00989573 34.24285746 0.00996655 C37.91959359 0.01030516 41.59632973 0.01060644 45.27306586 0.01089343 C70.91900983 0.01296116 96.56495059 0.01960373 122.21089276 0.02919604 C147.03348374 0.03846927 171.85607382 0.0455085 196.6786662 0.04970385 C197.45182884 0.04983538 198.22499148 0.0499669 199.02158329 0.05010242 C206.79017611 0.05142161 214.55876894 0.05269732 222.32736177 0.05394128 C238.13495402 0.05647347 253.94254621 0.05929471 269.75013837 0.06229235 C270.83893639 0.06249829 270.83893639 0.06249829 271.94973033 0.06270838 C319.93473506 0.07181722 367.91973789 0.08767173 415.90474042 0.10463549 C415.90474042 1.09463549 415.90474042 2.08463549 415.90474042 3.10463549 C206.35474042 3.10463549 -3.19525958 3.10463549 -219.09525958 3.10463549 C-219.09525958 2.44463549 -219.09525958 1.78463549 -219.09525958 1.10463549 C-146.06187624 0.26715792 -73.03781484 -0.03846889 0 0 Z " fill="#5C554A" transform="translate(219.09525957889855,359.89536450756714)"/>
<path d="M0 0 C202.95 0 405.9 0 615 0 C615 0.33 615 0.66 615 1 C621.6 1.33 628.2 1.66 635 2 C635 2.33 635 2.66 635 3 C598.15569044 3.1789469 561.31131111 3.34068573 524.46687442 3.49095565 C522.25926206 3.49996221 520.05164979 3.50899377 517.84403753 3.51802588 C428.30328337 3.88376318 338.76326074 4.05678672 168.16785502 4.06315851 C165.05246846 4.06249787 161.93708189 4.06185518 158.82169533 4.06121445 C105.8811258 4.05020531 52.94056208 4.0301249 0 4 C0 2.68 0 1.36 0 0 Z " fill="#302C18" transform="translate(0,23)"/>
<path d="M0 0 C1.33642614 0.00002842 2.67285228 0.00005657 4.00927842 0.00008446 C36.64863956 0.0008982 69.28799635 0.01045456 101.92735448 0.02392192 C123.04597047 0.03263521 144.16458571 0.0388098 165.28320312 0.04272461 C165.98809132 0.04285614 166.69297951 0.04298766 167.41922795 0.04312317 C174.50393394 0.04444274 181.58863994 0.04571839 188.67334595 0.04696203 C203.08025518 0.04949199 217.48716435 0.05231321 231.89407349 0.05531311 C232.55514212 0.0554504 233.21621075 0.05558769 233.89731177 0.05572914 C277.35081351 0.06478664 320.80431324 0.08063325 364.2578125 0.09765625 C364.2578125 1.08765625 364.2578125 2.07765625 364.2578125 3.09765625 C154.7078125 3.09765625 -54.8421875 3.09765625 -270.7421875 3.09765625 C-270.7421875 2.43765625 -270.7421875 1.77765625 -270.7421875 1.09765625 C-180.4951027 0.25054552 -90.25085665 -0.0026472 0 0 Z " fill="#412E2F" transform="translate(270.7421875,573.90234375)"/>
<path d="M0 0 C1.31753297 0.00002787 2.63506594 0.00005574 3.99252415 0.00008446 C36.47648348 0.0009836 68.96043827 0.01044856 101.44439459 0.02392192 C122.45951153 0.03263787 143.47462771 0.03881094 164.48974609 0.04272461 C165.19138312 0.04285614 165.89302015 0.04298766 166.6159189 0.04312317 C173.66805886 0.04444276 180.72019882 0.04571841 187.77233879 0.04696203 C202.11254882 0.04949188 216.4527588 0.05231309 230.79296875 0.05531311 C232.10722863 0.05558784 233.42148851 0.05586256 234.77557445 0.05614562 C277.35038441 0.0651721 319.92519246 0.08089115 362.5 0.09765625 C362.5 1.08765625 362.5 2.07765625 362.5 3.09765625 C152.95 3.09765625 -56.6 3.09765625 -272.5 3.09765625 C-272.5 2.43765625 -272.5 1.77765625 -272.5 1.09765625 C-181.66698676 0.25907247 -90.8367046 -0.0026577 0 0 Z " fill="#53504C" transform="translate(272.5,409.90234375)"/>
<path d="M0 0 C209.55 0 419.1 0 635 0 C635 0.99 635 1.98 635 3 C425.45 3 215.9 3 0 3 C0 2.01 0 1.02 0 0 Z " fill="#363C44" transform="translate(0,480)"/>
<path d="M0 0 C209.55 0 419.1 0 635 0 C635 0.99 635 1.98 635 3 C425.45 3 215.9 3 0 3 C0 2.01 0 1.02 0 0 Z " fill="#402D2F" transform="translate(0,554)"/>
<path d="M0 0 C3.3091712 0.00066055 6.6183424 0.00130328 9.9275136 0.00194407 C66.4888313 0.01301738 123.05014367 0.03321316 179.61145449 0.06315851 C179.61145449 1.05315851 179.61145449 2.04315851 179.61145449 3.06315851 C-29.93854551 3.06315851 -239.48854551 3.06315851 -455.38854551 3.06315851 C-455.38854551 2.40315851 -455.38854551 1.74315851 -455.38854551 1.06315851 C-422.22967317 0.88128471 -389.07070725 0.72038634 -355.91166788 0.57220286 C-353.89758582 0.56319893 -351.88350389 0.5541661 -349.86942196 0.54513264 C-261.81744574 0.15095996 -173.76618149 0.00559118 0 0 Z " fill="#412F30" transform="translate(455.3885455131531,563.9368414878845)"/>
<path d="M0 0 C209.55 0 419.1 0 635 0 C635 0.99 635 1.98 635 3 C587.63513266 3.0171173 540.27026508 3.03303805 492.90539551 3.04234314 C491.85397825 3.04255023 491.85397825 3.04255023 490.78132024 3.04276149 C475.54813087 3.04575436 460.31494148 3.04852455 445.08175203 3.05106533 C437.61146749 3.05231267 430.14118296 3.05360923 422.67089844 3.05493164 C421.55582005 3.05512778 421.55582005 3.05512778 420.41821484 3.05532788 C396.32023072 3.0595897 372.22224895 3.06710137 348.12426626 3.07629722 C323.3617583 3.0857295 298.59925165 3.09188537 273.83674193 3.09391499 C270.33971373 3.09420315 266.84268554 3.09452878 263.34565735 3.09487724 C262.65738779 3.09494467 261.96911824 3.09501209 261.25999203 3.09508156 C250.17795917 3.09626356 239.09593033 3.1009024 228.01389911 3.10683203 C216.87441706 3.11271871 205.73493892 3.11488713 194.59545499 3.11350138 C188.55916503 3.11285955 182.52288685 3.11385805 176.48659897 3.11920547 C170.9620449 3.12406392 165.43751055 3.12432249 159.91295558 3.12089889 C157.91282608 3.12047562 155.91269536 3.12175072 153.91256827 3.12488318 C151.19563242 3.12889134 148.47876793 3.12673579 145.76183319 3.12304783 C144.98388527 3.12567484 144.20593735 3.12830186 143.40441525 3.13100848 C138.51794539 3.11600297 133.84125931 2.6663385 129 2 C127.04824823 1.90975727 125.09441627 1.85513761 123.140625 1.84178162 C122.04420181 1.8319928 120.94777863 1.82220398 119.81813049 1.81211853 C118.64064743 1.80636307 117.46316437 1.8006076 116.25 1.79467773 C114.36093178 1.77982834 114.36093178 1.77982834 112.43370056 1.76467896 C109.00248534 1.73781274 105.57125661 1.71670509 102.13999557 1.69667697 C98.54586116 1.67470363 94.95176748 1.64737084 91.35766602 1.62062073 C84.56163068 1.57084642 77.76557254 1.52585143 70.96949291 1.48259836 C63.22819442 1.43309496 55.48693682 1.37822572 47.74567795 1.32291877 C31.83048982 1.20933323 15.91526398 1.10244384 0 1 C0 0.67 0 0.34 0 0 Z " fill="#2E2A24" transform="translate(0,379)"/>
<path d="M0 0 C81.84 0 163.68 0 248 0 C248 0.33 248 0.66 248 1 C371.75 1.33 495.5 1.66 623 2 C623 2.33 623 2.66 623 3 C626.96 3.33 630.92 3.66 635 4 C635 4.33 635 4.66 635 5 C425.45 5 215.9 5 0 5 C0 3.35 0 1.7 0 0 Z " fill="#030100" transform="translate(0,107)"/>
<path d="M0 0 C209.55 0 419.1 0 635 0 C635 0.99 635 1.98 635 3 C477.59 3 320.18 3 158 3 C158 2.34 158 1.68 158 1 C105.86 1.33 53.72 1.66 0 2 C0 1.34 0 0.68 0 0 Z " fill="#2C2A27" transform="translate(0,403)"/>
<path d="M0 0 C164.01 0 328.02 0 497 0 C497 0.66 497 1.32 497 2 C471.64371787 2.9947807 446.31509126 3.14079084 420.94188726 3.11606562 C415.27165767 3.11167689 409.60142893 3.11321341 403.93119812 3.1139679 C394.14746257 3.11448788 384.36373378 3.11139655 374.57999992 3.10573006 C360.43500977 3.09754304 346.29002283 3.09499252 332.14503057 3.09374207 C309.18612188 3.09156276 286.22721723 3.08494204 263.26831055 3.07543945 C240.98868834 3.06622879 218.7090671 3.0591581 196.42944336 3.05493164 C195.74054178 3.05480011 195.0516402 3.05466859 194.34186282 3.05453308 C187.42251271 3.05321436 180.5031626 3.05193857 173.58381248 3.05069422 C115.72253922 3.04028462 57.8612697 3.02266746 0 3 C0 2.01 0 1.02 0 0 Z " fill="#716536" transform="translate(0,204)"/>
<path d="M0 0 C175.56 0 351.12 0 532 0 C532 0.33 532 0.66 532 1 C565.99 1.33 599.98 1.66 635 2 C635 2.33 635 2.66 635 3 C578.51105464 3.15292723 522.02209306 3.29789932 465.53310272 3.4332476 C458.75099087 3.44949952 451.96887918 3.4658204 445.18676758 3.48217773 C444.17501996 3.48461614 444.17501996 3.48461614 443.14283299 3.4871038 C423.68875997 3.53401871 404.23469864 3.58418923 384.78064172 3.6374263 C352.33424827 3.72621393 319.88784472 3.80830879 287.44140625 3.87890625 C286.17033085 3.88168644 284.89925545 3.88446663 283.58966261 3.88733107 C189.05555264 4.09280863 94.53076093 3.81258499 0 3 C0 2.01 0 1.02 0 0 Z " fill="#1E190D" transform="translate(0,123)"/>
<path d="M0 0 C6.60512209 0.00651415 13.21024236 0.01056534 19.81536705 0.01330534 C110.39279752 0.05188453 200.96989602 0.29043694 291.54692692 0.54680601 C306.95786281 0.59038272 322.36880189 0.63267335 337.7797435 0.67417875 C338.88868328 0.67716574 339.99762306 0.68015274 341.14016708 0.68323025 C346.71155905 0.69823088 352.28295107 0.71321159 357.85434312 0.72818246 C402.99997678 0.84951826 448.14560065 0.97421024 493.29121811 1.10142484 C493.29121811 1.76142484 493.29121811 2.42142484 493.29121811 3.10142484 C283.74121811 3.10142484 74.19121811 3.10142484 -141.70878189 3.10142484 C-141.70878189 2.44142484 -141.70878189 1.78142484 -141.70878189 1.10142484 C-94.46970422 0.25122802 -47.24614216 -0.04716801 0 0 Z " fill="#30201E" transform="translate(141.7087818942964,555.8985751569271)"/>
<path d="M0 0 C209.22 0 418.44 0 634 0 C634 0.99 634 1.98 634 3 C579.46677298 3.11277993 524.93354332 3.22419955 470.40029907 3.32835388 C469.18501003 3.33067557 469.18501003 3.33067557 467.9451697 3.33304417 C450.32738394 3.36669304 432.70959773 3.40009637 415.09181102 3.4332476 C406.44906534 3.44951207 397.80631975 3.46583066 389.16357422 3.48217773 C387.87365256 3.48461614 387.87365256 3.48461614 386.55767188 3.4871038 C358.80406404 3.53959309 331.0504648 3.5956397 303.29686785 3.65357857 C274.71940928 3.71321821 246.14194573 3.76917425 217.56447124 3.82065109 C213.50595912 3.8279634 209.44744708 3.83531678 205.38893509 3.84269524 C204.19105543 3.8448711 204.19105543 3.8448711 202.96897619 3.84709091 C190.23720045 3.87032202 177.50543546 3.89731024 164.77367049 3.92578938 C151.89931835 3.95450415 139.02496316 3.97905701 126.15059547 3.99967117 C119.20533194 4.0108997 112.26008439 4.02387768 105.31483459 4.04183006 C70.19688144 4.13115547 35.10926432 3.80444178 0 3 C0 2.01 0 1.02 0 0 Z " fill="#040303" transform="translate(0,223)"/>
<path d="M0 0 C209.55 0 419.1 0 635 0 C635 0.99 635 1.98 635 3 C558.77 3 482.54 3 404 3 C404 2.34 404 1.68 404 1 C402.31836541 1.01837575 402.31836541 1.01837575 400.60275841 1.03712273 C328.10577421 1.82433151 255.61911346 2.16287661 183.11774898 2.12856841 C172.78991498 2.12419866 162.46209307 2.12735896 152.13425982 2.1321975 C140.62309811 2.13736148 129.11194275 2.13671866 117.60078049 2.13381577 C112.84721999 2.13273693 108.09366676 2.13357271 103.34010696 2.13629532 C68.88289742 2.15344767 34.44950739 1.70736834 0 1 C0 0.67 0 0.34 0 0 Z " fill="#433C24" transform="translate(0,145)"/>
<path d="M0 0 C203.28 0 406.56 0 616 0 C616 0.33 616 0.66 616 1 C622.27 1.33 628.54 1.66 635 2 C635 2.33 635 2.66 635 3 C542.40903753 3.80612154 449.82094398 4.10040009 357.2265625 4.09765625 C355.92561626 4.09762838 354.62467002 4.09760051 353.28430116 4.09757179 C321.26654705 4.09667421 289.2487984 4.08722606 257.2310476 4.07373433 C236.5264278 4.06501024 215.82180877 4.0588418 195.1171875 4.05493164 C194.42530396 4.05480011 193.73342043 4.05466859 193.02057073 4.05453308 C186.06612889 4.05321343 179.11168705 4.05193779 172.1572452 4.05069422 C114.77149429 4.04042863 57.38574721 4.02295379 0 4 C0 2.68 0 1.36 0 0 Z " fill="#010000" transform="translate(0,33)"/>
<path d="M0 0 C3.33823889 0.00066054 6.67647779 0.00130327 10.01471668 0.00194407 C67.11914662 0.01302636 124.22357128 0.03323796 181.32799441 0.06315851 C181.32799441 0.72315851 181.32799441 1.38315851 181.32799441 2.06315851 C123.66103699 2.23328915 65.99406129 2.39664069 8.32706791 2.55411416 C5.02600928 2.56312979 1.72495068 2.57215697 -1.57610792 2.58118439 C-99.5281129 2.84885005 -197.48003148 3.11348169 -350.16048753 3.12631702 C-352.18099091 3.12565557 -354.20149429 3.12501324 -356.22199768 3.12437296 C-388.70534144 3.11395769 -421.18867562 3.09502561 -453.67200559 3.06315851 C-453.67200559 2.40315851 -453.67200559 1.74315851 -453.67200559 1.06315851 C-420.40126534 0.87706124 -387.13042345 0.71403566 -353.85950559 0.56315851 C-352.55234335 0.55720997 -351.2451811 0.55126143 -349.89840788 0.54513264 C-259.8542366 0.1367178 -169.81079938 0.00223658 0 0 Z " fill="#2F2020" transform="translate(453.6720055937767,561.9368414878845)"/>
<path d="M0 0 C137.28 0 274.56 0 416 0 C416 0.33 416 0.66 416 1 C488.27 1.33 560.54 1.66 635 2 C635 2.33 635 2.66 635 3 C425.45 3 215.9 3 0 3 C0 2.01 0 1.02 0 0 Z " fill="#050505" transform="translate(0,307)"/>
<path d="M0 0 C7.89035271 0.00734307 15.78070375 0.00866684 23.67105938 0.00979571 C37.7291357 0.01195602 51.78720605 0.01853168 65.84527914 0.02809832 C79.4585601 0.03735233 93.0718394 0.04439345 106.68512289 0.04860613 C107.531716 0.04886885 108.3783091 0.04913158 109.25055654 0.04940226 C113.49989606 0.0507078 117.7492356 0.05197139 121.99857514 0.05321417 C156.95757187 0.06349217 191.91656166 0.08102517 226.87555258 0.10353777 C226.87555258 0.76353777 226.87555258 1.42353777 226.87555258 2.10353777 C282.97555258 2.10353777 339.07555258 2.10353777 396.87555258 2.10353777 C396.87555258 2.43353777 396.87555258 2.76353777 396.87555258 3.10353777 C228.57555258 3.10353777 60.27555258 3.10353777 -113.12444742 3.10353777 C-113.12444742 2.44353777 -113.12444742 1.78353777 -113.12444742 1.10353777 C-75.41391773 0.18201614 -37.71901536 -0.03610861 0 0 Z " fill="#806E3D" transform="translate(113.12444742023945,113.89646222814918)"/>
<path d="M0 0 C133.32 0 266.64 0 404 0 C404 0.66 404 1.32 404 2 C480.23 2 556.46 2 635 2 C635 2.33 635 2.66 635 3 C578.72966076 3.01714422 522.45932126 3.0330614 466.1889801 3.04234314 C465.35416075 3.0424812 464.5193414 3.04261925 463.6592245 3.04276149 C445.50978795 3.04575545 427.36035137 3.04852548 409.21091476 3.05106533 C400.3084972 3.0523125 391.40607965 3.05360908 382.50366211 3.05493164 C381.17492215 3.05512778 381.17492215 3.05512778 379.81933895 3.05532788 C351.18486089 3.05957779 322.55038482 3.06708048 293.91590796 3.07629722 C264.4532617 3.08576315 234.99061654 3.09189313 205.52796878 3.09391499 C201.3522087 3.09420308 197.17644863 3.09452872 193.00068855 3.09487724 C192.17896036 3.09494467 191.35723217 3.09501209 190.51060313 3.09508156 C177.36302464 3.09625637 164.21544958 3.10087557 151.06787248 3.10683203 C137.80170035 3.11276693 124.53553156 3.11495621 111.26935815 3.11350138 C104.10115479 3.11281478 96.93296057 3.1136707 89.76475906 3.11920547 C59.82774817 3.14148476 29.92195356 3.01939498 0 2 C0 1.34 0 0.68 0 0 Z " fill="#6F633B" transform="translate(0,146)"/>
<path d="M0 0 C1.90641666 0.00223852 1.90641666 0.00223852 3.85134679 0.00452226 C5.2593867 0.01130416 6.66742616 0.01818005 8.0754652 0.02513981 C9.57295721 0.02883444 11.07045036 0.0320835 12.56794423 0.03492504 C16.68403981 0.04402661 20.80009121 0.05945698 24.91616309 0.07590783 C29.35441602 0.0925421 33.79268358 0.10332544 38.23095226 0.11481571 C45.92092999 0.13552689 53.61088874 0.1599535 61.30084705 0.18689632 C72.41926654 0.22584588 83.53769725 0.2592034 94.65613868 0.29119159 C112.69462443 0.34324107 130.73309303 0.39981951 148.7715559 0.4592371 C166.29531213 0.5169496 183.81907297 0.5725347 201.34284496 0.62525272 C202.42282374 0.62850244 203.50280253 0.63175216 204.61550794 0.63510036 C210.03338846 0.65138993 215.4512691 0.66763762 220.8691498 0.68386447 C265.82321193 0.81855863 310.77724869 0.96059904 355.7312727 1.10743046 C355.7312727 1.43743046 355.7312727 1.76743046 355.7312727 2.10743046 C444.1712727 2.43743046 532.6112727 2.76743046 623.7312727 3.10743046 C623.7312727 3.43743046 623.7312727 3.76743046 623.7312727 4.10743046 C571.9484366 4.20321044 520.16560016 4.29880631 468.38276196 4.3934412 C467.2257223 4.39555581 467.2257223 4.39555581 466.04530811 4.39771313 C449.26531848 4.42837916 432.48532879 4.45901263 415.70533904 4.48961273 C407.47163332 4.50462797 399.23792762 4.51965037 391.00422192 4.53467655 C390.18504495 4.53617139 389.36586798 4.53766624 388.52186746 4.53920638 C362.1625449 4.58731048 335.80322323 4.63588407 309.44390199 4.68471181 C282.26458101 4.73505594 255.08525916 4.78490516 227.90593619 4.83416656 C224.03144609 4.84118913 220.15695601 4.84821713 216.28246593 4.85524845 C215.52021126 4.8566316 214.75795658 4.85801475 213.97260328 4.85943982 C202.63953965 4.88001717 191.30647685 4.90101116 179.97341442 4.92223454 C162.90246758 4.95418057 145.83151968 4.98548248 128.76056957 5.01563358 C127.7557113 5.01741032 127.7557113 5.01741032 126.73055287 5.01922296 C80.73076467 5.10042264 34.73112529 5.1386688 -11.2687273 5.10743046 C-11.2687273 3.78743046 -11.2687273 2.46743046 -11.2687273 1.10743046 C-7.44703734 0.21321713 -3.92097929 -0.01220644 0 0 Z " fill="#020100" transform="translate(11.26872730255127,47.89256954193115)"/>
<path d="M0 0 C1.13399818 0.00414668 1.13399818 0.00414668 2.29090542 0.00837713 C21.82935692 0.08010377 41.36774976 0.1640778 60.90613306 0.25226176 C72.2508059 0.30335015 83.59548936 0.35112657 94.94018555 0.39672852 C95.74840451 0.39997823 96.55662347 0.40322795 97.38933391 0.40657615 C101.44716516 0.42287528 105.50499662 0.439121 109.56282818 0.45534027 C142.80103727 0.58826237 176.03920077 0.73035413 209.27734375 0.87890625 C209.27734375 1.20890625 209.27734375 1.53890625 209.27734375 1.87890625 C303.32734375 2.20890625 397.37734375 2.53890625 494.27734375 2.87890625 C494.27734375 3.20890625 494.27734375 3.53890625 494.27734375 3.87890625 C441.68306045 3.89602366 389.0887769 3.9119444 336.49449158 3.92124939 C335.32697806 3.92145648 335.32697806 3.92145648 334.1358784 3.92166774 C317.22063105 3.92466061 300.30538367 3.9274308 283.39013625 3.92997158 C275.09497038 3.93121892 266.79980452 3.93251548 258.50463867 3.93383789 C257.67916749 3.93396865 256.85369632 3.93409941 256.00321086 3.93423413 C229.24461713 3.9384959 202.48602552 3.94600753 175.72743307 3.95520347 C148.2307939 3.96463589 120.7341559 3.97079166 93.23751514 3.97282124 C89.35430633 3.9731094 85.47109752 3.97343503 81.58788872 3.97378349 C80.4414756 3.97388463 80.4414756 3.97388463 79.27190263 3.97398781 C66.96640706 3.97516978 54.66091509 3.97980854 42.35542099 3.98573828 C29.98593378 3.99162516 17.61645016 3.99387432 5.2469616 3.99240763 C-1.45576468 3.99171374 -8.15847908 3.99276398 -14.86120415 3.99811172 C-20.99583267 4.00297056 -27.13044344 4.00322848 -33.26507277 3.99980514 C-35.48594535 3.99938191 -37.70681902 4.00065667 -39.92768943 4.00378943 C-42.94475464 4.0077983 -45.96175562 4.0056416 -48.97881985 4.00195408 C-49.84237975 4.00458109 -50.70593966 4.00720811 -51.59566805 4.00991473 C-56.35970981 3.99674444 -60.99370539 3.71250363 -65.7201297 3.10507395 C-68.96221712 2.73890879 -72.18571928 2.75971158 -75.44555664 2.76538086 C-76.15888153 2.76523483 -76.87220642 2.76508881 -77.60714722 2.76493835 C-79.92823497 2.76562631 -82.24923904 2.77336544 -84.5703125 2.78125 C-86.19412696 2.78311816 -87.81794198 2.78454018 -89.4417572 2.78553772 C-93.68807569 2.78933156 -97.93435925 2.79913462 -102.18066406 2.8102417 C-106.52473478 2.82052364 -110.86881121 2.82504979 -115.21289062 2.83007812 C-123.71616175 2.8407601 -132.21940464 2.85779829 -140.72265625 2.87890625 C-140.72265625 2.21890625 -140.72265625 1.55890625 -140.72265625 0.87890625 C-93.81706355 -0.18198395 -46.91418457 -0.17238726 0 0 Z " fill="#020101" transform="translate(140.72265625,278.12109375)"/>
<path d="M0 0 C1.2871994 -0.00137466 2.5743988 -0.00274933 3.90060425 -0.00416565 C5.31448388 -0.00062718 6.72836327 0.00300762 8.14224243 0.00672913 C9.64064533 0.00701139 11.13904836 0.00685249 12.63745117 0.00628662 C16.69482989 0.00600019 20.75217893 0.01187199 24.80955076 0.01886058 C29.05363533 0.0251198 33.29772061 0.02569995 37.54180908 0.02688599 C45.5739572 0.02999173 53.60609167 0.03819492 61.63823378 0.04823548 C70.784509 0.05942012 79.93078487 0.06491299 89.07706523 0.06993091 C107.88737291 0.08037816 126.6976679 0.09796294 145.50796509 0.12025452 C145.50796509 0.78025452 145.50796509 1.44025452 145.50796509 2.12025452 C302.91796509 2.12025452 460.32796509 2.12025452 622.50796509 2.12025452 C622.50796509 2.45025452 622.50796509 2.78025452 622.50796509 3.12025452 C412.95796509 3.12025452 203.40796509 3.12025452 -12.49203491 3.12025452 C-12.49203491 2.46025452 -12.49203491 1.80025452 -12.49203491 1.12025452 C-8.27177254 0.31909278 -4.29307437 -0.003548 0 0 Z " fill="#5F5D5B" transform="translate(12.492034912109375,403.87974548339844)"/>
<path d="M0 0 C140.25 0 280.5 0 425 0 C425 0.66 425 1.32 425 2 C384.19421605 2.16924982 343.38841063 2.33275543 302.58258241 2.49095565 C300.25717045 2.4999722 297.93175853 2.50899893 295.60634661 2.51802588 C217.4667795 2.82114959 139.32781043 3.10433792 61.1875 3.0625 C60.36971888 3.06207577 59.55193775 3.06165154 58.70937538 3.06121445 C39.13956982 3.05087645 19.56978269 3.0324436 0 3 C0 2.01 0 1.02 0 0 Z " fill="#554B2B" transform="translate(0,20)"/>
<path d="M0 0 C1.35038803 0.00279272 2.70077606 0.0055851 4.05116409 0.00837713 C37.07905039 0.07683702 70.10690634 0.15664266 103.13475423 0.24147995 C124.51211122 0.29639047 145.88947367 0.34802429 167.2668457 0.39672852 C167.97986181 0.3983541 168.69287791 0.39997968 169.42750056 0.40165452 C176.59362154 0.41798924 183.75974265 0.43426714 190.92586385 0.45050358 C205.49952176 0.48352474 220.07317881 0.51692297 234.64683533 0.55055237 C235.65000912 0.55286654 235.65000912 0.55286654 236.67344905 0.55522746 C280.66642941 0.65675543 324.65938852 0.76707429 368.65234375 0.87890625 C368.65234375 2.19890625 368.65234375 3.51890625 368.65234375 4.87890625 C366.34234375 4.87890625 364.03234375 4.87890625 361.65234375 4.87890625 C361.65234375 4.21890625 361.65234375 3.55890625 361.65234375 2.87890625 C154.41234375 2.87890625 -52.82765625 2.87890625 -266.34765625 2.87890625 C-266.34765625 2.21890625 -266.34765625 1.55890625 -266.34765625 0.87890625 C-177.56464154 -0.07808639 -88.78742327 -0.18453868 0 0 Z " fill="#27221B" transform="translate(266.34765625,154.12109375)"/>
<path d="M0 0 C44.97364599 -0.03354182 89.94707492 0.01288233 134.9206543 0.09179688 C135.59880979 0.09298562 136.27696529 0.09417436 136.97567095 0.09539913 C154.28087829 0.12576616 171.58608337 0.1573349 188.8912877 0.18936362 C200.37343027 0.21061493 211.85557337 0.23154344 223.33771706 0.25218201 C224.49451514 0.25426153 224.49451514 0.25426153 225.67468289 0.25638306 C229.59393613 0.26342706 233.51318939 0.27046608 237.43244264 0.27750319 C264.92688658 0.32687897 292.42132936 0.37687065 319.91577148 0.42724609 C346.56453393 0.47607062 373.21329688 0.52460273 399.86206055 0.57275391 C400.68886739 0.57424796 401.51567424 0.57574202 402.36753584 0.57728135 C410.67346831 0.59229001 418.97940079 0.6072929 427.28533327 0.62229155 C444.19346219 0.65282397 461.10159104 0.6833949 478.00971985 0.71398926 C479.17488542 0.71609749 479.17488542 0.71609749 480.3635897 0.71824832 C531.90906098 0.81151833 583.45453062 0.90568781 635 1 C635 1.66 635 2.32 635 3 C425.45 3 215.9 3 0 3 C0 2.01 0 1.02 0 0 Z " fill="#090706" transform="translate(0,200)"/>
<path d="M0 0 C8.21743415 0.00440606 16.43485334 0.00118578 24.65228659 -0.00362909 C32.76812416 -0.00818663 40.88395527 -0.00880155 48.99979371 -0.00619042 C53.76389559 -0.00465786 58.52798723 -0.00435075 63.29208839 -0.00772691 C100.4876391 -0.03066696 100.4876391 -0.03066696 117.89872634 1.12856841 C117.89872634 1.45856841 117.89872634 1.78856841 117.89872634 2.12856841 C80.48305131 2.880383 43.08924543 3.27430322 5.66507638 3.22996235 C-0.73545804 3.22352371 -7.13599346 3.2231094 -13.53653061 3.22193694 C-24.20028717 3.21922466 -34.86403468 3.21306636 -45.52778733 3.20400786 C-56.47407603 3.19471948 -67.42036263 3.18769589 -78.36665452 3.18350005 C-79.39183893 3.18310597 -79.39183893 3.18310597 -80.43773415 3.18270392 C-83.86903938 3.18139816 -87.30034462 3.18013463 -90.73164988 3.17889202 C-118.85486296 3.16865363 -146.97806789 3.15107975 -175.10127366 3.12856841 C-175.10127366 2.46856841 -175.10127366 1.80856841 -175.10127366 1.12856841 C-116.73253474 0.32412941 -58.37411826 -0.03504297 0 0 Z " fill="#615029" transform="translate(175.10127365589142,141.8714315891266)"/>
<path d="M0 0 C62.7 0 125.4 0 190 0 C190 0.33 190 0.66 190 1 C192.01822917 1.16276042 194.03645833 1.32552083 196.0546875 1.48828125 C198 2 198 2 200 5 C101 5.495 101 5.495 0 6 C0 4.02 0 2.04 0 0 Z " fill="#000000" transform="translate(0,447)"/>
<path d="M0 0 C3.70096593 -0.0021725 7.4016261 -0.02034906 11.10253906 -0.03930664 C27.11282759 -0.07565916 42.92811289 0.68931947 58.86816406 2.18530273 C58.86816406 2.51530273 58.86816406 2.84530273 58.86816406 3.18530273 C26.19816406 3.18530273 -6.47183594 3.18530273 -40.13183594 3.18530273 C-40.13183594 2.52530273 -40.13183594 1.86530273 -40.13183594 1.18530273 C-26.76194488 0.0597035 -13.41022523 -0.00087694 0 0 Z " fill="#27282A" transform="translate(40.1318359375,279.814697265625)"/>
<path d="M0 0 C5.28 0 10.56 0 16 0 C16 0.66 16 1.32 16 2 C24.58 2 33.16 2 42 2 C42 2.33 42 2.66 42 3 C28.14 3 14.28 3 0 3 C0 2.01 0 1.02 0 0 Z " fill="#201008" transform="translate(0,78)"/>
<path d="M0 0 C5.28 0 10.56 0 16 0 C16 0.66 16 1.32 16 2 C8.08 2.495 8.08 2.495 0 3 C0 2.01 0 1.02 0 0 Z " fill="#160A04" transform="translate(0,78)"/>
<path d="M0 0 C2.31 0 4.62 0 7 0 C7.33 0.99 7.66 1.98 8 3 C5.36 3 2.72 3 0 3 C0 2.01 0 1.02 0 0 Z " fill="#2A1911" transform="translate(0,376)"/>
<path d="M0 0 C0 0.99 0 1.98 0 3 C-2.64 3 -5.28 3 -8 3 C-8 2.34 -8 1.68 -8 1 C-5.07175348 0.02391783 -3.04386724 -0.08226668 0 0 Z " fill="#33201B" transform="translate(8,356)"/>
</svg>
